<mxfile host="app.diagrams.net" agent="Mozilla/5.0 (X11; Ubuntu; Linux x86_64; rv:142.0) Gecko/20100101 Firefox/142.0" version="28.1.2">
  <diagram name="Page-1" id="UraOe7bNg9I7SMzu2VOp">
    <mxGraphModel dx="1193" dy="1155" grid="1" gridSize="10" guides="1" tooltips="1" connect="1" arrows="1" fold="1" page="1" pageScale="1" pageWidth="850" pageHeight="1100" background="#FFFFFF" math="0" shadow="0">
      <root>
        <mxCell id="0" />
        <mxCell id="1" parent="0" />
        <mxCell id="XYBb2Tr0EMzCO1Vw7bGh-2" value="&lt;font style=&#39;font-size: 12.0px;&#39; face=&#39;Sans-Serif&#39; color=&#39;#2d3436&#39;&gt;VPC Network&lt;/font&gt;" style="verticalAlign=top;html=1;rounded=0;labelBackgroundColor=none;strokeColor=#aeb6be;fillColor=white;strokeWidth=1;dashed=1;" parent="1" vertex="1">
          <mxGeometry x="196" y="210" width="944" height="710" as="geometry" />
        </mxCell>
        <mxCell id="XYBb2Tr0EMzCO1Vw7bGh-3" value="&lt;font style=&#39;font-size: 12.0px;&#39; face=&#39;Sans-Serif&#39; color=&#39;#2d3436&#39;&gt;Networking Project&lt;/font&gt;" style="verticalAlign=top;html=1;rounded=0;labelBackgroundColor=none;strokeColor=#aeb6be;fillColor=#ebf3e7;strokeWidth=1;dashed=0;" parent="1" vertex="1">
          <mxGeometry x="212" y="220" width="313" height="191" as="geometry" />
        </mxCell>
        <mxCell id="XYBb2Tr0EMzCO1Vw7bGh-4" value="&lt;font style=&#39;font-size: 12.0px;&#39; face=&#39;Sans-Serif&#39; color=&#39;#2d3436&#39;&gt;Logging &amp; Monitoring&lt;/font&gt;" style="verticalAlign=top;html=1;rounded=0;labelBackgroundColor=none;strokeColor=#aeb6be;fillColor=#ebf3e7;strokeWidth=1;dashed=0;" parent="1" vertex="1">
          <mxGeometry x="760" y="540" width="370" height="260" as="geometry" />
        </mxCell>
        <mxCell id="XYBb2Tr0EMzCO1Vw7bGh-5" value="&lt;font style=&#39;font-size: 12.0px;&#39; face=&#39;Sans-Serif&#39; color=&#39;#2d3436&#39;&gt;External Analytics&lt;/font&gt;" style="verticalAlign=top;html=1;rounded=0;labelBackgroundColor=none;strokeColor=#aeb6be;fillColor=#ece8f6;strokeWidth=1;dashed=0;" parent="1" vertex="1">
          <mxGeometry x="1250" y="440" width="116" height="480" as="geometry" />
        </mxCell>
        <mxCell id="XYBb2Tr0EMzCO1Vw7bGh-6" value="&lt;font style=&#39;font-size: 12.0px;&#39; face=&#39;Sans-Serif&#39; color=&#39;#2d3436&#39;&gt;API Project&lt;/font&gt;" style="verticalAlign=top;html=1;rounded=0;labelBackgroundColor=none;strokeColor=#aeb6be;fillColor=#ebf3e7;strokeWidth=1;dashed=0;" parent="1" vertex="1">
          <mxGeometry x="212" y="503" width="289" height="371" as="geometry" />
        </mxCell>
        <mxCell id="XYBb2Tr0EMzCO1Vw7bGh-7" value="&lt;font style=&#39;font-size: 12.0px;&#39; face=&#39;Sans-Serif&#39; color=&#39;#2d3436&#39;&gt;Database Project&lt;/font&gt;" style="verticalAlign=top;html=1;rounded=0;labelBackgroundColor=none;strokeColor=#aeb6be;fillColor=#ebf3e7;strokeWidth=1;dashed=0;" parent="1" vertex="1">
          <mxGeometry x="581" y="403" width="133" height="400" as="geometry" />
        </mxCell>
        <mxCell id="XYBb2Tr0EMzCO1Vw7bGh-8" value="&lt;font style=&#39;font-size: 13.0px;&#39; face=&#39;Sans-Serif&#39; color=&#39;#2d3436&#39;&gt;VPC Hub&lt;/font&gt;" style="shape=image;verticalLabelPosition=top;labelBackgroundColor=default;verticalAlign=top;aspect=fixed;imageAspect=0;image=data:image/png,iVBORw0KGgoAAAANSUhEUgAAAQAAAAEACAMAAABrrFhUAAAABGdBTUEAALGPC/xhBQAAACBjSFJNAAB6JgAAgIQAAPoAAACA6AAAdTAAAOpgAAA6mAAAF3CculE8AAACDVBMVEUAAACzzP+7y/+tzfyszfurzPuOufiCsveEsfeuzfqtzvuWvvmXqvmNrvjOxv+Ouvet0Pymjft1pveuy/pvovevyvlwovdblfVHiPRRjvVlnPZnnfeKtPhimvZChfROjfVmnfaXvPhxo/d4qPauy/l3p/d2pvaMtPhtofZroPetzv2qz/ypzvyUvviPu/ePvPeOufeu0Pur0PyYwvmQufiuzPquy/quy/qsy/qFsfdtovZuo/Zvo/Z3p/evy/muy/quy/qvzPqTuvlvo/Zuo/ZzpvdypPevyvlypPevyvmuy/pzpfexzPlgmfZIiPRJifRSj/VlnPdnnfdkm/ePt/ityvpmnfZTkPVlnPZmnfZ7qveryfpTkPV7qvd7qvdSkPVUkfVBhfRChfROjfVlnPZmnfZ+rPesyfpsoPY5f/NChfROjfVlnPZmnfZalvWjw/lzpPewy/mqyfqqyPqpyPqBrvdlnfZzpfevyvmuy/qPuPlnnvayzPl/rPdjmvZimfZimvZYlPVSkPV6qfauy/mdv/hmnPZimfZjmvZclvVGh/QwevNAhPRknPZmnfdwo/dpn/Zpn/Zqn/Zwo/dypPd0pvdqn/Zpn/ZtofdzpPeCrveQuPlonvauy/qtyvqCr/dlnPZmnfZonvavzPqSuflnnvZChfRDhvRDhfROjfVBhfRqn/ZBhPRlnfb///9/REO6AAAAnXRSTlMAAAAAAAAAAAAAAAAAAAAAAAAAAAAAAAAAAAAAAAAAAAAAAAAAAAAAAAADBAQICwsEAgQHBl+em5ynsK+wTz2ZnJujr7J1eWV4ZPt1YrV1eHFlZGGa+v78+/vt+vvw7/zt4+Pj4+Pg+oYYHBwcHBhzd2P6+vr8/nhi9/z+YaXx8fH3+zUnc+Hy8PV2GOMYYfb7/OyGd/T7+at2/Pv+a4/lQAAAAAFiS0dErrlrk6cAAAAHdElNRQfmAxoHOhag/+K5AAAEeElEQVR42u3d6VcTVxyHcQUUoigIyhIQcOkGmoAiqKwqgrLvBMJO2DeVttra1q4uXbT7TotpCSRt/8e+gEhP73gZzp1pek+e5z1nvnwOryYnP3btIiIiIiIiIiIiivp2x8TGSduzN15eQoL1qxwO+ah9+7cblXjA5KNiDuYXSDt12uWW5SpMsh4guUg+6sxZ+Sh38aFEk4+KzT9XUirr/IWLZbLKK1KsB0itrKqWjbp0+Yp0VM3VYrN/l3EFJcvSfvl15aksf+1h6wGO1MlH/fb7qnTU0xp3vGmAUkWAa2k2AFyvVwMoAwAAAAAAAAAAAAAAAAAAAAAAAAAAwD6AhvQMsUxnlkrZjfoArDY1t4i1trWr1NHZpQ1Ad09gTWg96OlVydPn1QegPxQQCgXlP7RdKwOaAwRUAQYBAAAAAAAAAAAAAAAAAAAAAAAAAP7HAEN2AOj0Rmh4ZFRszDeukm9iUhsA/9T0jNjs3LxKC4v6vBb33ziaI5brzFPp2E2NAKL+kyEAAAAAAAAAAAAAAAAAAAAAAABAP4BqVQA7vjz9XwJULdeLdd1a2ujWq6+93h3Ob9Aft4/bAHDnDYNR9d7NUUveN+8+G7VqtKrcZRbAUVRZd13orbffubfRu/fee79/o6HhqRvXhG5/cMJ6gJMf3hFH3fzo/oPNVQ8f9YfraWoQR9VWFJq9H+BITj0i9sLHgT+fFQo3Mn007d8dPn7iRRsAThqMeumTTw1GBZrT08RVKUlqhz0yWtYMPu0Yncmx/nc1X87MqMGotZYMG54FAAAAAAAAAAAAAAAAAAAAAAAAABCFAOshPQBC67YAZLYGDRqbzY0kQO7smNGq1kwbnuVs86yI+eackQRwzvkMRnna7BiV1d5r8GnD+HxeJAHy5scNRvW2ZwEAAAAAAAAAAAAAAAAAAAAAAAAAAAAAAAAAAAAAAAAAAAAAAAAAAAAAAAAAAAAAAAAAAAAAAAAAAAAAAAAAAAAAAAAAAAAAAAAAADznpGZ2x9a3x/8B8NnLkTypeWxh69vjf20BPH5F6aSm8VHVxs6+gcGNBp58vtkXX371dUSPqi5OhEcNfvNteNV33/+gdFT1eWd1vZtNLv3YfTdcpM/qToZXdf30s3TUDs7qcliZ09oAAAAAAAAAAAAAAAAAAAAAAAAAADsFiPp/vj41PSM2Ozev0sKiPgDdwyOjYmO+cZV8E5P6AAwZXCAOBOU/tF0rA159APrtABgEAAAAAAAAAAAAAAAAAAAAAAAAANAMIBRNb4R6AmtC60FPr0qePn0AVpuaW8Ra29pV6ujs0gbA35CeIZbpzFIpu1Gf1+J8MgQAAAAAAAAAAAAAAAAAAAAAAAAAoB1AiSJArR1fnq5bVgOoMQ0Qm3+upFTW+QsXy2SVV6RYD5BaWVUtG3Xp8hXpqJqrxWbvB8QczC+Qduq0yy3LVZhkPUBykXzUmbPyUe7iQ4kmH7U7JjZO2p698fISzFrvIIdDPmrf/u1GJR6wfhUREREREREREZFu/Q1dsP40UwTFVwAAACV0RVh0ZGF0ZTpjcmVhdGUAMjAyMi0wMy0yNlQwNzo1ODoxNyswMDowMBDJBAYAAAAldEVYdGRhdGU6bW9kaWZ5ADIwMjItMDMtMjZUMDc6NTg6MTcrMDA6MDBhlLy6AAAAAElFTkSuQmCC;verticalAlign=bottom;html=1;rounded=0;labelBackgroundColor=none;strokeColor=none;fillColor=none;strokeWidth=1;dashed=0;" parent="1" vertex="1">
          <mxGeometry x="228" y="275.5" width="101" height="101" as="geometry" />
        </mxCell>
        <mxCell id="XYBb2Tr0EMzCO1Vw7bGh-9" value="&lt;font style=&#39;font-size: 13.0px;&#39; face=&#39;Sans-Serif&#39; color=&#39;#2d3436&#39;&gt;Firewall Rules&lt;/font&gt;" style="shape=image;verticalLabelPosition=top;labelBackgroundColor=default;verticalAlign=top;aspect=fixed;imageAspect=0;image=data:image/png,iVBORw0KGgoAAAANSUhEUgAAAQAAAAEACAMAAABrrFhUAAAABGdBTUEAALGPC/xhBQAAACBjSFJNAAB6JgAAgIQAAPoAAACA6AAAdTAAAOpgAAA6mAAAF3CculE8AAACUlBMVEUAAABChPZBhfVBhfRChfNFhPJEhPJDg/RDhPRCg/hDgvlIgu9Gg/BDgvREgvRChfRChvRChPM/hfJBhfNBiPU8j/pChfVDhvRAhvNAiPZChvVBh/VDh/VFjfhDhfRDhfNBhPRChPRChvNCg/JAhfRCg/NBhPZAhfRChPJEgPRAhPRBhPRFgvRChfRChfRChfRChfRChfRChfRChfRChfRChfRChfRChfRChfRChfRChfRChfRChfRChfRChfRChfRChfRChfRChfRChfRChfRChfRChfRChfRChfRChfRChfRChfRChfRChfRChfRChfRChfRChfNChfNChvRBhvVChPNChfNChfNChPNChfRChvRChvRChvQ+hvE7kftChvRChvRChvVDhvVChvRChvRChfRChfRChfRChfRChfQ+jfhChfRChfRChfRChfRBhfVChvNChfRChfRChfRChfRChfRChfRBhfVChfRChfRChfRChfRChfRChfQ/jfhBhfVChfRChfRChfRChfRHjfhChfRChfRBhfVChfRChfVChfNChfNChfNChfNChfZDhfRChfRChfRChfRChfRChfRChfRChfRChfRChfRChfRChfRChfRChfRChfRChfRChfRDhfRBhPRChfRChPRDhvJChfNChPRBhfNAhvNBhfJBhPNChfRChfRChfRChfRChfRChfRChfRChfRChfRChfRChfRChfRChfRChfRChfRChfRChfRCg/JCg/NCg/RCg/RAhfRDh/RChPRCg/NChfT///8IINInAAAAxHRSTlMAAAAAAAAAAAAAAAAAAAAAAAAAAAAAAAAAAAAAAAAAAAAAAAAAAAMEBAEEBAIMfJ2bgQ44l5xLFM/XF138fsvUXPjN1fkSu+3rwxVU5ezucgQpNCsFEzIZB0NVVDMBATBPFhFNUyMTxPaWAo769+dBMuL0aMyU8UT+bJPw/c4CRW0KY30BR3QhezQBDhIRAgYID8bFohFGvl/W+6mvTGYCAggWCwMcJB4DDSO36Oa/UuDpbw2Jras+p6yuUwEICgkBAwkFn+GXPgAAAAFiS0dExWMLK3cAAAAHdElNRQfmAxoHOhPQlRY2AAADrUlEQVR42u3daTdVURjAccMtzcftlluSXA0qQgoRIUQDSoPSPJHQIM1p0pwGSqVZ80Cz5mj6YPUB9lln33hWlvP/vX/Wc+7/5dl37ePjAwAAAAAAANier6+fvyRHr96qtQEBolv9A/roBujbb1yEpPH9B6jWDpwwUXJrZNQg3QDGpOiYWDkxk+MM5dopU+Ml1yYY2gESp/2WlJSsDjA9RXRtqhcBZog+SZpJgPQM0bXRBCAAAQhAAAIQgAAEIAABCEAAAhCAAAQgAAHMAswUfZJMswBZ3SVA9qycXDk5s+eoA8ydlye4Nr9AP8D8BYWSFi4KVK11LF4iurbIoR3AMBySjEB1AHG6AQAAAAAAAADYi+E0NAx2KUaHDA3Umf13QUGqJw50a63VDeBcuqx4uYXiFSuHKUaHr1ptOdoZa9YGq544eN16y9ENG/XPBUpKMzZZyCqL8FeMjthcXmE12gmVW7aqz1S2ba+0mq3a4cXRWLX1QVO8SYCdosdbu3Yrf4WjMM9ydM/erj0cjTUJsE80wH6zALmWowcIQAACEIAABCAAAQhAAAIQgAAEIAABCEAAApgGqLF+lJhIZYCDZaIBqg6ZBMi3nj2sH+DI0dpoC6kJUQGK0ZBjx1OtRjvjxEl1gKICy9FTp/UDaBmkupgpZKTswZDhpw7g0BrWDQAAAAAAAADAXqSv8jD5z3toqPBa7ZeijjNn687JqYs7rwww6oLg0r9rL+rfIlMf31Aq59LlRvV/3q9cFdxa2nCta0+GOqHJ7Hr966Jra7lLjAAEIAABCEAAAhCAAAQgAAEIQAACEIAABCCASQDZ6/XNXoqmV4iu9eKlaOONpjQ5TTdL1AFu1QhuTUu6rR/gTnaypJK7oaq1Yc33RNfe92gHkBaqDhAmu9WjHQAAAAAAAACAvei9Y+zBl6hwjY7tL1LiKi0CEIAABCAAAQhAAAIQgAAEIAABCEAAAhDAZgGqrR+lR39y0+4fXeWzu3b/8DIAAAAAAAAAe3GEGx5Jhr/qjbqPyyW61ouXouEPHj6S9PiJSxng6TPRtY36r8Wzn7e0yml5kag+3Xj5SnBr6+s33eYmqcz/c5MUd4kRgAAEIAABCEAAAhCAAAQgAAEIQAACEIAABDALIPvN0SSzb46miK714nr9t+/a3stpK69XB/jw8ZPg2s9ftAOM/vqtvUNOe/P3Maq17h8/Bbd2tP8aqxvA6RQ9GfN41EdjbrfsVqdTNwAAAAAAAADQg/0BwK60KAWoblIAAAAldEVYdGRhdGU6Y3JlYXRlADIwMjItMDMtMjZUMDc6NTg6MTErMDA6MDBzGTE8AAAAJXRFWHRkYXRlOm1vZGlmeQAyMDIyLTAzLTI2VDA3OjU4OjExKzAwOjAwAkSJgAAAAABJRU5ErkJggg==;verticalAlign=bottom;html=1;rounded=0;labelBackgroundColor=none;strokeColor=none;fillColor=none;strokeWidth=1;dashed=0;" parent="1" vertex="1">
          <mxGeometry x="408" y="275.5" width="101" height="101" as="geometry" />
        </mxCell>
        <mxCell id="XYBb2Tr0EMzCO1Vw7bGh-10" value="&lt;font style=&#39;font-size: 13.0px;&#39; face=&#39;Sans-Serif&#39; color=&#39;#2d3436&#39;&gt;Cloud Logging&lt;/font&gt;" style="shape=image;verticalLabelPosition=top;labelBackgroundColor=default;verticalAlign=top;aspect=fixed;imageAspect=0;image=data:image/png,iVBORw0KGgoAAAANSUhEUgAAAgAAAAIACAMAAADDpiTIAAAASFBMVEUAAACqxv+vy/uszfmszfuuy/quy/lmnfZlnvRom/djnPGvy/quy/qZvfmTufity/lBhPRChfRlnvZonPZBhfRChPRDhfRChfOD1gW8AAAAGHRSTlMAEkAuR/+3/0dAEja/7f+Jt/+/NkdwuIRLE3GAAAADZklEQVR4AezcxQEDQQADsQ0zU/+dpoAwHlhqwfN2AQAAAAAAAAAAAAAAAAAAAAAAAAAAmqXTrVavUKn+oFrDggAQAAJAAAgAASAABIAAEAACQAAIAAEgAASAABAAAkAAtDSAEZfGAoghAASAABAAAkAACAAB5BAAAkAACAABIAAEgAByCAABIAAEgAAQAAJAADkEgAAQAAJAAAgAASCAHAJAAAgAASAABIAAEEAOASAABIAAEAACSCMABIAAEAACQAAIAAHkEAACQAAIAAEgAASAAHIIAAEgAASAABAAAkAAOQSAABAAAkAACAABkBYAAkAACAABIACSAphwaRoUAK8SAAJAAAgAASAABIAAEAACQAAIAAEgAASAABAAAkAAzOZPWyyfNn/aqjQF683TCgJAAAgAASAABIAAEAACQAAIAAEgAASAABAAAkAACAABtIAAEAACQAAIAAEgAASAABAAAkAACAABIAAEgAAQAAJAAAgAAWwvsQsKYHSJsQBiCAABIAAEgAAQAAJAADkEgAAQAAJAAAgAARAbAAJAADQpgP2HRjQ5gM+NEAACQAAIAAEgAASQQwAIAAEgAASAABAAAsghAASAABAAAkAACAAB5BAAAkAACAABIAAEgAByCAABIAAEgAAQAAIgNgAEgABoUgCHD41wFo0AEAACQAAIAAHkEAACQAAIAAEgAARAWgAIAAEgAASAAEgKYHuJXUAAT0AACAABIAAEgAAQAAJAAAgAASAABIAAEAACQAAIAAEgAASAABAAAkAACAABIAAEgAAQAAJAAAgAASAABIAAEAACQADPEwACQAAIAAEgAASAABAAAkAACAABIAAEgAAQAAJAAAgAASCAySWmQQGMLjFOCgABIAAEgAAQAAIgKgAEgAAQAAJAAAiAtAAQAAJAAAgAAVB5AMfN34wQAAJAAAgAASAAogJAAAgAASAABIAAiAoAASAABIAAEAACICoABIAAEAACQAAIgKgAEAACQAAIAAEgAKICQAAIAAEgAASAAKg8gNPxb0bcCSCAtc/s0jEBAAAAwqD+rW3hM8iAAAiAAAiAAAiAACECIAACIAACEAyAAAiAAAiAAAiAAAIAAAAAAAAAAAAAAAAAAAAAAAAAAAAAAAAAAAAAAAAA8LWNbDAKAGfCXyvX/l8sAAAAAElFTkSuQmCC;verticalAlign=bottom;html=1;rounded=0;labelBackgroundColor=none;strokeColor=none;fillColor=none;strokeWidth=1;dashed=0;" parent="1" vertex="1">
          <mxGeometry x="777" y="653.5" width="101" height="101" as="geometry" />
        </mxCell>
        <mxCell id="XYBb2Tr0EMzCO1Vw7bGh-11" value="&lt;font style=&#39;font-size: 13.0px;&#39; face=&#39;Sans-Serif&#39; color=&#39;#2d3436&#39;&gt;Grafana&lt;/font&gt;" style="shape=image;verticalLabelPosition=top;labelBackgroundColor=default;verticalAlign=top;aspect=fixed;imageAspect=0;image=data:image/png,iVBORw0KGgoAAAANSUhEUgAAAQAAAAEKCAYAAAD96YsAAAAAAXNSR0IArs4c6QAAAIRlWElmTU0AKgAAAAgABQESAAMAAAABAAEAAAEaAAUAAAABAAAASgEbAAUAAAABAAAAUgEoAAMAAAABAAIAAIdpAAQAAAABAAAAWgAAAAAAAABaAAAAAQAAAFoAAAABAAOgAQADAAAAAQABAACgAgAEAAAAAQAAAQCgAwAEAAAAAQAAAQoAAAAAJBiN1wAAAAlwSFlzAAAN1wAADdcBQiibeAAAAVlpVFh0WE1MOmNvbS5hZG9iZS54bXAAAAAAADx4OnhtcG1ldGEgeG1sbnM6eD0iYWRvYmU6bnM6bWV0YS8iIHg6eG1wdGs9IlhNUCBDb3JlIDUuNC4wIj4KICAgPHJkZjpSREYgeG1sbnM6cmRmPSJodHRwOi8vd3d3LnczLm9yZy8xOTk5LzAyLzIyLXJkZi1zeW50YXgtbnMjIj4KICAgICAgPHJkZjpEZXNjcmlwdGlvbiByZGY6YWJvdXQ9IiIKICAgICAgICAgICAgeG1sbnM6dGlmZj0iaHR0cDovL25zLmFkb2JlLmNvbS90aWZmLzEuMC8iPgogICAgICAgICA8dGlmZjpPcmllbnRhdGlvbj4xPC90aWZmOk9yaWVudGF0aW9uPgogICAgICA8L3JkZjpEZXNjcmlwdGlvbj4KICAgPC9yZGY6UkRGPgo8L3g6eG1wbWV0YT4KTMInWQAAQABJREFUeAHsfQmAHEXVf1f3nHvmvgg5IIQcgkoQ5RA2InKJChqEoAiIQUDuPx54sFERRD4uD+SUMxwRPz/Fgw+U5VO8gyiEnBCQEAiBJLuzu3N29//3q+7anQw7uzOzMz09u1PJbM90V1e9elXv1XuvXr3StHqqY8DFgK1pwm5vC/CnfcbezTtOmjfLfaTZbc599bt+rWOgjoERhAF7iWao5sSWzj+0c+n8DV1L5ydx/dYrS6ZH+cxessSw2zVd5atfax8DovabUG/BcDHwj2WLgvvfsirNcnaeMv/qBl2/1NZsLWnaWnPY0LqS5iu2bV805v61DzMPpQHR0ZHh93qqbQzUGUBt99+woVfET3Ff6OKnrWFjEQjeQsHQCORsnwnrIhg2hNaZsR6ye8Jnjf35MzvVe8MGoF5AVTFQZwBVRX/1Kqe+ry3RdLFSM7tOnnecJcSDzUE92pO2UngWBGTZY4MMwWoJGYGuVOYN2xafGnP/mseUOiDaNT6vpxrEQHYn1yD4dZBLwQAJVxHtzqULLmsKiCso7mcsOwOyl0bAPOWmQ5AGDCG0uGm2t65Yu5z5aBsQK1eaed6p3/YxBuoMwMedUwnQaOzjrM+yYeS7FTr+mRT5MRBszPx9hsBB6ua7oiVs6LGk+bPm9JoTWV7dLjAIxnz8qM4AfNw55QYtm/hh3f8liPjDIH4a/zjrFzMWaB/IQCUIxpKZf0E7+GDL/evftGFMFK4xsdyw18urDAaK6fTKQFAv1RMMKOKn+B9bN/93zRGjDTM49f3QMABIwW4Q6k7bmy3DPHTMPes21ZnAMLBZhVfra7pVQLrXVT7kiv0gdtG1bn4HxP42zPzDJX42IxRLW+loQEzXTP3p2CffMZ8SAJmA122s11caBuoSQGl4q5m3sg1+EPsfhdj+oa6UmUIDhjPz57Y/HTFEMGHanXjwntYVazbUlwlzUeTP33UJwJ/9UhaoOOOrgnYunX8/dP5KED+rCGIVIR019FahiT/2nLT3NDoW1d2HFfb9e60zAP/2zfAha28zuNwH4r8KDj4nuQa/cs78fTCC2QTjppVuDIhJGaE/YS85MEpvQUogfZnqX3yHgb4ZwneQ1QEaFgaUMQ5i/6ktQf2urrRpYnbWs6WCYVWQ52UMqFRzyAh1pszHx6xYc4SqD/fxtZ78hoE6d/Zbj5QBHrkmDxF8x6cWvhPF3RXL0FFPCEWMZagibxGoIxSDjQESxwe7TllwjSR8SCJ5X6g/qCoG6hJAVdFf/srhzSPgqGfbSxaGuoLWc9GAvlc8Y3HjzmAefuUHRLPN5qBh9KTNjzevWPuzulGwAiguQ5F1CaAMSPRVEYud2bYzYN0Eox+JXzn6eAymEHG4F5uauLP7tIVTpFGwbg/wuA+Grq7OAIbGUc3kYDAPGt66li74aEtIPwOOPpz5q7Umr5uWnW4NGc1myrqdSFy5un9VomaQOsIBrasAI6SDqd9T34bxryHW07s+KMRuKcum8l9dJo89RpBEsIvQPBX+AfdIJtVejyXgl2FX3cHhFyyMBDhcQ1tXd/xbsMKT+Cn6V79/haYnYIQEc/oew4wJEL8XxsiR0KVetKH6A8SLVo7wOqSfPwhr+8l776sL+2Ks97PFHhv98iJZJzOC+/HkzoT4BnOtWrbIL7DlBXq0PKgzgBHU04bQr2gKoEshdqNZflLvArBHACBxwc5P7z27bhD0z6CrMwD/9EVJkDjBODQztnThYiz5fbgrbZHS/DbDkhmluX1Yt8SXZEM72upjr6QeL+9L9U4oLz69L23hSqjU2JGvWZcFnDlf/vYekMFrBFCBWBqqiS1O27F0/sy6m/Dg+PLqaZ0BeIXpCtTj6P6a1XXKwoMRtPOD2JpLq7/fZn/VcrgnaWkYKMOGLc5ybtalAIWcal3rDKBamC9DvR3b2uScb9vWeYjQxRLJAHybIAUYXBGwhf2ZLViurK8IVL+r6gyg+n1QEgTcZbcYTj/u6T3Hw/+e5fjd554rAhlsTprW2N37Ednw+opASf1frpf8Ki6Wq30juByKzx2WoYtPcvcdGADX/avl9Vc0nrEisBQvPaBiCNKYqS3cBtOAprW1dVhaOwQFrmdUOQEAAViERi9GV+JaNTcmFq1vtrWJHQ58CwEnnlMia8M9FXS1yqAXVL1jNiooaz2TnzDAgUkC6Txl/qoGQ9+vNwPrv/8lAKLQ1kH92CbQg9OGjtXCiX+NvfOlnQPhVjEFbTUIbaUmIxcPlK+c9yTB47wEbSHUq9UTQczFhzundMY4DOWEq1Jl1RlApTBbwXLVAKPjT1DX/2U58xD/1kp/cnbHQUQC8cTtHfj+Cn5uQAOexablf2sZe3Vza+MmJR0oVPYxBEg+5SQwh+iX6Nq2bYKrE6o+Xp/AMWjvnfLm1KTI7AF4Z2C35QxYMyeD/bbiezO2XmLxxTYgAyRxL4CyHmxd8fx9zvJs8cwju24vvtfKgPECF76vwxmomr5Zmx7afeXmeOfSBedj088N8Pwb6kAPP7YNzcGSBSgIJ41o2Lsg2RekAg2rGZBmxMsgrGfgRPxn3bL+1N3T+My0X67qzW6IPMkYs7S2cmVJ0gEZKRQOzNb9RM9AKl09iXcBjsMgrBwIqPbBZ3esskRCjqG1HwTAysS//OhoRyxhxkU6PbN55cZt7SgfH19LAnUGwB70ccLAwhFeA89OO0+Z97kG3bgFobg4yGrOoEuiwQBU9IPlAd6wwQqEEQIx4UxC/BZaEisHKUvbjAx/A1N4QhfG75vvW/18drfJ+IMTC2MGuYTP353r538AdX1C2PaHgrqYDacqQGajXueDC3EsYQRI5FMA04GAFxymioArIoXdj9FYyrq2ZcXzl9TCxie3CdmorH/3AwY4KFdtWWSoU3sJ04aj54Qnjwvvj9F3BAjlKAzChejARjwaaf3YxxTQMM6zBo4k0xF5WDIE7CwErYp/gep+h6n/163B3qfEnS8lVL9JyWAANQHlCO5DUDjdhuClQd04DfT8mYaAPjcAhsNzURHglIcj06OSiYyV35xfvJM/2QBRYLdTT1rX9pp475rX2I/lVFfyV13ak0IaVVrJ9beKxgAHaEdbm5FrSY6dvPADmIBOguJ8BETRWVzzx157LYHBCmPaaEl9MzBIMcAZGjO1lgYCIAHBhqD9Ct6QDz2WXvd/J7pHn9FRSlruOzpMLC0YSr/vPekdu6d164vgLadjq3JjChIGQpqbnMZRNgmen5ISCIrOTkEwqW9g+/O3/C4F1BlASd1c3pdI+Bq282brojuXzt1D1wInYZCeEgnoCzjYKQonsccfnUa6VwN1NPYhjYiSIQAPjnQAhuAyg/WQxh9IGeaKifeuW5fdU5tOmxUZl45+DbL6JSDSSDdck8FH08hD/4mSiT67Dny3wKR1MJRNrU0Ne8uDUtC/gNeXrHo0Dp6c/qrez1wxn79jG+Ydg+O36Sp7JDfPpDHLI7QWdU9uqldEXz2g/VlzH36gJug01mEGBm1rvwPObr9+rzUrL9ww74OQzm8FTmd0Q4VwCT+A5lSABmyzifEQU+ZHWu5f+0uuJNBpy4+oIwLqyWMMkNC1PuvzKsteus/YmEifEVsvljUG9bmkcljCNTr3cIbDT90lfo8hrZnq+vCDmddKmiZ9IoKtQZ1hyY+4cP38q6Cbz4qQMfQfhlpBpykBXwdYFoR0dvqln7FYAe7n5+ZWF7ZdCV/Tti9ZOCMQNM+D4nkGZqZxmLSo13MJjOIiCb/eP6V3GdUEqEq2gM3EkIY9R20gXiudbBgURcay37K1wF5jVjy7Ax3qSzWgLgFUeiigfHY+rc+ifVWa7rsMiiFM/VKhWac3hwKRXsz27lo+Jn/hxQD1oNVVr4JcFOOblv2+2Ihe4RbEb1ENGN+TSR8MTDxC467mQzVgRDAAEpjWrglGnV2iLdHo0fW24deGOx05d7FuvBI+pkvoy92OqaIChhrGw5cebTio461T5kw3tOBXhKmdiRkfx2qbSswPoAUjoi9yMOyXn9SqPE6uGqDpH0LFj7R5XHuh1b2dUAp9swr5SOgr4ae9hJsy2gDAMLzABgKfInoHItW0oWy1KaXUNVzptup6qIHwW4JW6Mu2bl/QEjQa3J171O9J9DXVBwPhrX5vQAyY8C0wsEdjFZYD9+fYrcQEM2DNRdz09eCTMzu94LBLjKJzPmJ8/dP7NrZY2ljLNidAfR4P8WsM0D0GziINwrIjMBFD9BN05EzBOpOAI00vnLd3wNOjK6Dr20Qms2272bOD7rUD4U56mfFBW34Y1HsS5qwlvZ0nLzgL/u3Lsd48mdZnuJjUCV8ha2RfpVMQjBA9Acua2/jAui2cYPKN4WqhwncMgEjSGC9ugG2VJPRQJrknNsDMh6VsH5x0ORcEtweIagqWyceDxUZo6ZWhschvB0t4ifGpcXIOc8XxdRuuW6AFvIDlomehNT4HxrF67ANrX2IGlZBPrtlzh1rutk8yCuVs0nXyvANhBf4+RP1FrCPthOmuz/gKkaPjauHIdD1pm4ub713b4ccNQkNQiTe9JIkey2JaewdOsO13mNi+ZI9WPRBdJITVBsJ7H2bwhaDraTLyrUvgsLRq8gOC5sIvkuMxVhjoKFLTwTzkZhS6gmJ/vXzTQmE9GSuJHxtR9D9A9r/H9z9DnNsgM+CPZAY07jwBTzMcyUXit+Fs0pWKXgNnkHOx0YVlpJGVxifWVU+jCwMZTAABSH7nNK9Yc1P2BOEXNFSNAfQRT85M3/XJeXOxhnIkZOWjgaT9wUEnBrnhEgQJa67cnAGgMyBKpT2zDdmfUnDL0vo/smyb21WNsA6XU/qgI8G5hMtKT+PXr5DlkTEr1q6SD9w/nScvPEoT1s0Q92fAqg9GRCjrVv1sHI2y74oB3AAGcKEfGUBVLM99iHCXRXZ+8h176gHrYyDyJTDFvwcho3TSDg+X5E63eIZecDTSy2mfZ9zTal7OxNL6S5TfsEgHakf9+EipghkCjQHjPZAS3oOlu3Ycf/0v2BN+EjeCt0Wt1JVNhnZeGmC6ziZwNOkvspzA1suqIQxgsMLPY7qEmLsVfZaqNkLJBDp32/YxYVtnACdHUFSi8yZEZmIsQ1IHDzBAQ1WDcYC+YgfS7ZSbRowmOOgT5oSpbW4O6dPpfornzOPVevMAINZv+QgDJtRVI5ax/m/MijWHUdX1mxHQcwmgHUi4aN2CczvF1otaA/psG6pxd78jDImdbp2MrOLHCZTwkSnJhHV8eu0J8AESP32967q+g5r6XxcDnBEwXJrlz3Y5OfgKN54ZphxDn6ZdsHbejIaguLERxA9/9zQ+NMZzRiUzIgG55OUrPOUBRur3Oiz87GfCX0Ow52lS/XY5MYD4InJQhFkoBoec18pZwXDL8lwCCBpasxvAksQyUojGM0Y63A6vv+89BsAEfDsxeDdwGVYZCVtdmiEyy5neYY7ed0i9xjoGvMAAZ3zasrCGlWJ9fhzv3jEA+ugjCR1HQzn8kGb9eqpjYMRigPI+CQxcICYb2e4/ScBDBuD0M4zmYACS9H2nDzkQ1v/WMVAeDGCU8wwELl7TyxR7V0YxA+hwd+iZmikjQEuBqDx4rpfiHwyQqfd9MPZpHM336cvnH/DLC4mc4UD9MAFsliW7JwuVt5bhlea5EXB44NbfriIG5HhG/X2EyxkOP3hx5jlIvHLGQya6b2DsO7Ief7uZCb8sAH+kQwWu7n8wCuntlVsm3vTfzMl2DJnYUJlsJzZhG350yBu++VNnAL7pCl8BwqHrODwRLMcZy+DeBsTeFNwzwZBXkixJvSBZ7sdAOC4NJxTghBzus7IziMjBUN0Mz0UfCTyVWy0MZKefRwQlcHksSKMwNnFBM+wv00ImLK/KDy6EhZKEgoWqKxmDvxPQxJiOtqWvkYBy+7rPkmcMoM11gzQ0I00WXwv957O+qiQ4jpjOfsGghZFWZxgtEjqT66FpYwPGzoypvYGD/bZizn8V3g+vCF37D+btzdjovAMCQFdEWDvMtJ4E1adSzZm0mQ5b6cR2a3p3xNrclNCDkXH65IQpujQtlDFEY1CkGtMi0JpImZPg3z0ZBjO4zdpwENNmoerdQenTooYIB7GrjrA4jAYBwG0bG8ew2duxs/mRIdhgmDrc2XckAoG/EnZt4Uqeceir5BkD0NyW6yKDPT3SU9b/HNxXXVVWYEA3IF95mE3foRuY2zF1g6R6TSsGX431qPF5dNJqZH5WN41N2CG5tUVb0FnKgZn90G/u/4qwiNk/cr/bSxaGdgatqT2muYduWtgJKnAoivZOwDO3GYFVuFmLzAn7Nbhvg1IGE5mBZBbyV/X+4IAQm0xgbNTMfBZg3Ci3uSOuRfVAenvNHjIAp3KEvKakyFRnAA5KvPpLrFMch/guNzVJkZuxClK2/Z902v4nZtW/wG7994Cpr25aufr1gQFbrUmvztVLxKqxL+o8JrsDGXmYCSc3hldbjuvl7VLVx7dBUrs7BtTR2sjKo7djKJNHhIv21Vw/f9n9PKFKevPUubv1pOz9sEPsEPCs92MgvRsbyCJkYG7shbIc8qHqG86VhwwBths6l84XYkXHDX47KMQzIlQbIbZ/cv47DEN71kUqB6VnMAynI2v0XUn0RDB2MAYQoko2ozOFAyw17Q8QoR+DyP1kS7Dn2eyjtZgJLyLsWpuhteEHdVeKry5R412WW/EkYSCT4PIZj+vuAFADBNZkdGVsJTsYnO0Y2B0ORzunMq6DwwyqHGWZG8eQcIir6Exb52BT0E08gDT35OOKIzNPBZ4Rn2IAO5bOn4lhuAEVB4EZIsczGPLgYCTelqcHoWFBuF3K9nWlrO3Q238Hff0XGT3VMf6+jbvI4vIYLRIZiH05iL293TW6+RA7SgKRoeJygsi8sWRhU0NQOxhKwScw+X4YuzSncIBhRx5HW/85C962i2K/4O5RHBZyGg4LucsvTMAz4iM3R2V255KF47SAtQEGpnHUkYgYb/tiJNeG8+2wlIbJJoDjxBjAhMeGP4qBfy8M748yPr1qvSQiRmFCaDOYZ0o6XluVVe2rbAvCyHUAkMVZEgKZQTRofgj2gc/AfnAUjgMLucer0V7AcSeNUbh6kcgE5AGngEGeGOQHJuAZ8SkGQMNOV9BcAyvzHlnx2r3ogBFbBzqROyp17LDUKfqC8F9BY++0TeOuMQ8+94JquIxUTIesAoKbqndq7cpxNtBx6vGT5s1KCe1UTEM8hGWmu7IBhinnIK8YgcUVFjAkek4c2Hrfmr9Umwl4xgA4kNg5qNCGQeSvGKwHIPgHjVJeIb/WxnIB8MoZX0DM190Ap38Ghn/UEuz9qdLps0/IJe4LKHTEZOF464Adg0vQauWCR6xPGhdagkWQ85sQ3YlyAOJReMgIbDMEPp2y7E4sl+47buXq/zxRxbMDvWUAOK6ZkXS7ls5/GIP2hC7EAsBoC4yYEeddQ+SA5QGUXFGJm+ZvYcG/euyKdU8oEGhtHiyUuso3Wq5K5ck+gXn7SfOPhXfBFzEZHUqXBzfAC1FS0UkJVaVhqAz2ZOy1LWnxTpxokyJ81YgW5FiIvBoFNDIhQfP/D2UB/BhVM1IZ0Eyf2zQCpRpYBze6U9YfejKZD7Tet/ZoEj8HEdbP6GUnONCrMaDK0MaKFEFcECfEjcLRuAfW/IqhunrS1ofweRISgcHDPAAAJ6aKrdcDBhC/lcbKwLyugNnnGkTYKtL4QQr1lgF09EGygd+q0eA+CGrvSwazlIAhK4gZf21nxjqh9f41h0rCh2QlY85zkMMIVmes+TuXuFE4ouhNpjnm/jWPtaxY09adsY6FA9Q/GZ8ShlTSRhofDNOKpCBsNemWSOAjUIm/SQbF8yMrUtMghXrKcdTBCDtPnn8EjsH+X6zTSv/wQeCrP+KAxYwElSkIlSmFH18fc9+aq4kYDl4NDjlKv60jqzQMkBE4jkfOrL/jpAVn6MK+oiViTEGEZ07LlBwqQZxkLjaNt72meVzLfWsf4VmS++McydJaUvxb3jIAV8+J43TctKmvBbghYIBI8BSO4tFUtTcYHTkAcV+D887jYcNaFr1n3SZCQzF2IKeYqkE6AiomTnEopDycBqtVTV1B65uQui5qwGlTFNkxUMkEyj1WLSyJM65kLBMw50+4e/2rNNzmnjpVKfSWuzGDwgkEylWA1VgKnB601iIyyOz6UmBelKURUjrYnWHkYf3i1hXP38icXDbSbllVF/Pzom34D7Jn4e6lC9+FYyFuglrwvhhOc4b9quyGaxBhGk5CQZT/VOuKtYeQTtgK/MHXyiZPbQBsELnbQlg90brnw1RqK2hsqSzqKlY6jU8mThcKwnvtHzhKfAGJn+K+nBkgHnoxMCrWuhoomCI4iZDMtmnF6mdwHNyB0Ncvht+aCUKlFFBW2wDqAvHDKBgOHNy5dEE7+9cre4CnDED2vbsSAPyukvKAB1yuBsacC6JtgifqGGRGV9K6Fhbq97Q8uHa9dBahgQ9LqLXTltqGlERIf33arcgMwASuIzOGz8BfIA0E3daVsz8CsDfAi1O7vOtT8w6STIgqSYWT9wyAG0uYbPuv9MbCD+9hqDBSSykeAy7NPfhAiRVL2Z/ErH+JRBMGoF82jpTSrlp/hwZWMgMyYTJjVxr4VgR7KbFSwPi25TLYsRp6CuKvuJOGSdp4yHwqiUPviY+7ypBSlvUMDCs9mPG47uowhUq21N9lp2EJDmIC2BawxP5j7n/+IQ44dn7dwu+PjsuRBr6Rsq3F8ObbytUZQFgmJiAMBBCBKmDstWjaVrnSo7W3VdopyXsEy4ENosf6558x8N83yl2C4RBiBDuT5nMBzfhg0/3PbaWRVNpJvO+aeo1DYIBjV8N6PRmC3NgWtB4CwR4O8Z3qAGfr4U6qnAxtGMh1MJmDW+5d+ydKA4shDQwBWkmPhwtsSZUqroaWPsnNK8BaxbyuSgPQs7cc4k+ZT7Zm9EUkfs78deL3DP9FV0QJXUoD6KfWlau3QyX4YCxlfg9BPyi9g564P2NYiVXYMnS+qf2IJZH4JeMZVrEDv1wdBuDaARAu6TEGfkTjKirmDNz0qt+VxA/r8m9g7GuT/uDU+zCzVB2yOgBDYsBRCeCBiVm/5b41X4ST1qlc4+ZGH7w8zNlaGPBITDdHAu/cuXT+lwhMpVYFALL3iUgjm+N+7XDI2oCDAqa4B2xWhyF5jwJF/I9gBjmO1SsvSe9Bqdc4HAxwLJM4abXvPGX+++An8Cj2E7TAy5WMXK0WlFIFDxXh4aLxgAjObbjv35ttLAXTZbiUwvK9UxWCI/FTr5m0cnU38Pf7qBO1BiHeAObI/9DIA7de8zf9xE/Pr5XDFR3z9XH9fgUxwLFM4qfdhvv7NdPYD0FKt9CxB2M5PYzxjOhmWro5bETTWua7sgkIelLuppS9wEIBbHMzgsP9XCoBJPyRnBzG5sz8afOPGCzHsLleun2OZPRWu22029B+wwAsuh58NzYWrcNuP2eFoMSxDQbAicKKBLSlXacuPEQuC2JZuJxtrRoDoM81G2KHQo/BBfLNgEE/a7AD8r2R+IELaSNkOXTompZA/AjZdq7x1517yjmeq1oW7QJ0I26+599vxPXgIvT131vCZAI2JIHSxjV4B/YKoATLulI2zl1GL1dDq8YA0DCbmy/G3vnMTohJv26gGiDg6ebMlCNLFYBlOBzQAj2m9Ra43OGM1sO218X+cg1j/5SjPPim3PPvnpbk2gMxuT1JlQ/juiR1AEc3BOB9mGkJiUNin5r3cdoAOHbK1eKqMQDZAIRq4hVnBdzLAymApBKFpXKho/zlwNppCXiMIfY+2mcc03jvmtcoKlKcK39t9RL9gAH2LW1clO5a7lnbhmXCJ1334dJWeEAX3Jxgwk2Y7Svn2KkuA1i5Ulo0W+9d8zhOo1kbCQgDLGBEGQNh37ARmpr9dlrr3av/RmNRfamP6BjZaTHX7l19vXnPtR/AMuHfpDpQmiRgYFUh0xoy9un89PxPE3NOyLfh47CqDIBqAHUmqQ4I7e4QlB3MmI4awLYNpA7kuz9QXq/vZfeHUzd3eBlY6/9Ry92IBd/eFqg7+WQjaWR/p4onl3chtsft4AdwNsO6XVYHCh3LyIf4RCKNk1exJ/TL8rX28jgHVZUBsCGLpq2SxsCgYd+FoBe9YAC0nMIYyKcDpHz3B8jq+a1shgNnEEQ9Ytinp1vvXneuhAWHWHgOU73CqmJAMgGoA7QJxO30oVgd2BKFMRhA8cyGwhLyQQPgPgHYAvQFnZ+Zd7J8sQz7BKrOAKRRAzNj4x3rtsCX8r4miMtorylgNa3ZD8R+BJEJ9GbMtBYwPsnOkjOB7MfC+ryea+RggDo7Jd0p97zwBob1YhBybwirXhjfxY5zHMxMW5L9/yR2yjChVJ0BsCEreToNUsrO3IDQzGwgrZzyHu/XXNI1s1Hq/eLc1ttXb5RGv7qjT811YzkBlqsDYAJQBdcL3ToSRzNT3XVsXoVXBBdhk0FJ9us+fd6RFAxobCz89bfn9AUDOBHWUjZk/F0beRT1T5vDAEvZAigm1dYnA6NfIJbKPNJy59pbVRSft6O+fme0YUDuHyATuGP9HzOa/RkQMlFAdddReQsY51hRooswLOX2BXyZpzLzWmryBQMg8KohliWuinPvEzcIFYAQX+VBZ1L0h7GnB7u5zmIjNByXLa/1P3UMAAPKWaj1jvV3w0fgyuYIzsoWrj2ggPGOwRTgQaeQHo6OfW7BQi41co9Aqcgt+cVSK8z3nmwIpIAxd62lVfABIIZeAbW1Vg7RvwHKHTrpUto0pOgPC3C+No/W+8CP4xeHeU/6fuZe3ecjFT+LENS1HUTb8pP1l8WS5m8gMdIoWLiPAOiiKQyPYNM808FR6XsEyHN8kx5CwFCqA7Ez95pv2/pqAEb4OIP6Cs6BEcaAkTitJ23+teX29dwVhgNpR+/sTyLX2umz0qa3tSmMdeB0nuIYopzduAlGlUF7EaWqdnleAsdGTSa2i7h44xycYJzMPI8AILsnTJ5RCF+YoZOFk8YRStza2hwOzhE/Wt1NfINIisaH7wiLa+U8wqnzs3tf3xLRL4glYEkf3rbKodFZnhx2CHJ/0jIPbL1t41+k1X8UGf44AFcu0fQlDPoKIh1sj4N0Ynlrc0PMCgS1GJAfsYTQ4eeGZPcGzeaAndICTYmhHKZoX9Hc+paDKWBWrSlpS4313s/OPQCKvYyRSRTgMzRdCoHDYgTUTfOU1ts3rFBlEYfFpKErKqa0MuRFJ+rsSPu0WWNiRmhj0BDjayBWQAbbNgPdKfPW5lvXLyu1M8qAPk+LINFrIHoSYfahmwSCy15z7Z7ZWBGdj1zzNM2aC6loN+h1U/G7BcM8imwUfdWAd9RRWzqC0fM1icHZCSFqOzTe17Bk9oqwxQvQHV4IGNZL4R3hVxhEhXWpJKUFDdICpYSVcMEuYUZUZXl1lWoiNhF1nTn3Eoyha7qTJttOvAyRbBPHxOF8SPPR5ts2HFXqrlLfMQC2moOHyyZdZ+59enNEvwN6Em0BgSEwUp3H8PWF4U+YltaT1I29Jt4CX39XvKsOQJWvVRFaNtFzAPa2zntXRtiHgGjbQOT7grRnImimAWHXIUVwgAw+3PbBD746cx2vKiErByVf4YehsSjbKgE3A2+4RMammfgVfHC6FMLL2/afjUzw6aY7V7+uiuFVShpDSCPZ+av1XY0XMIHfYAXsqFiqgFOzMe6IGuA4BdfZeWNuW7dJlVNMO3xJVHLNVBLRup90Lpt7CryfDsfBCVg58SETgEGmAbu9wLmvIfFL1+b2kRnWS4rcGF3QXaGrdlj83dm692GYnT8eE/YRAWHvhdh4krJTOPURUXM19BtduyWJk47xDRO5Q9NgAO6TrCHLnLzLq3wrJ5cNvoDj0nCozGyoXLNR0tEW6ukR6Vjsc3Ofwbu/t4X+aPPUKX/fhUFBtfTrcekrVwNqJF0LnRZLp9bjqLAWMEq6CjhSER/mJuAQeKTkGepJWR/F4+s1Sj/ol9ysg/2WFQ+WoVrPlEFw55l7z9Z1ey3WBEKYZTlk/ASza4yxX28OBPcajjGmWngupF76aGQfntn1uXlzhW5/2rLtkxsCYs8ARKA0lqYS0k2NzEEmDl72VSX6S7IHMAKOCAoSjMhpRLmXBGJDCrAgxPpGDJVf25b905bb1v/BAcm/UoFSBTqX7bUUOwfvK0gKwDoAfAkMuBf/oeXm9YeWIgFUonMUrod9VUjpOmvvzzaHxW0wCGI2KchKOuy6CykAyEtjOSYIFeUSdMC1SnUp5N1ayCNnfBjXaK0mvLHPz2vDxHQhvh6HmUd3iZ7P+NFd9lydMSVlBhypIQS1C4Nhtbm5zIHReg58aAU0h/vG3fLifwCrxglm4rY2wV17/O2HpAzHsbPm/gwu8ccPyQRcNQDtzYRsa17klo0vFMsEqtNZRWCbg5AW5c7P73UfxMulQApnmEKWSoqopaSsFs+Qh5j7Wm9zdK8p1/y7Bx1BdRWX2k4wwuqXQ5xUIvTOZXM+BLn7q5hhD2V0GvQBp3Uaq9gPnOn9mGgElMfPY/ONTikFjDqBew8buv2Dhps2/oVAk2A0iOCDrVp41ThFvD3L5k81RWY97B9NEKo4ngB23uQaoDPnNP94403FGqD92nn9reUyDxL+xORQo37IO1X+gNLNMP39hXY9iV/q/iOA+DmAwACwXt+R2Xn2novAeB/DbP8oZqRDEezSlLYY9AH0T0a5kTu3qt0XeerXFYzYfGMiKEda17VIU0Q/Rdf1P8fQrm4wNko30gkNEw2lAo61aiXCQqm3EbYkqDJfboBLPMaZs2swz3jnjMNhZ9niWAk3V0CKSPL1IvJ7mhUtkTPqDiwJGpHgC3B+GIclwaE4ohcw2jDUCEQxerPZMueIW17sVLB6UXkl6uDs04FZfzEI3z5vTkssI76HcO3LEKSFMz52rYHo/WiELRQZHOlUE7jHBFILVid06go9GfsJmBKWN9+08UkWRUZOTz1k5zirSlJjqfPsvf6GI+Lf00NDan6pV43F7c0iMkfc9OwO9FPBTmj+lgDc/c6BhsAHsTwyLm1Li7JjBmSHVulDrhzlhiXdvksSP52XqjhghjtKHbFRs0j8sbPnLOk2xXrM+svSIHn4nXMG4gEYgWrhuyz1EknOyMFqgKbDcJbhkXTNIbE4EtA7us6e899dZ++9N1eg2JdyCXG4iC3x/Y62NimJCEO/iMumEu78Y10gD3efjuux4wfIKk9cUjBdF5yxxLYM67UO921onCc44j+DBOBmNT8kdIi/0CchWFo3OyAWt/TiNssXF2loBeFvWTatofOcuffAqPkQJK3JFJkhQhPTtU34ecaKy9AMqjRYvTDB8D4GW+aarrPnXmW3I2wbJSFHHfKcRmQ4MdTd8oN1TyUt7V74wlDVyqsKYEKyuAyC4JOL5aBauI2tLih53riCoEIm8j0ljgLIw5NqhyCe5elTb+5jw0+Ts1355603v7hBGimhuxXaLr/kI37lzI8Zr/Pzcw9oCTY83xIRn2IEWpzcDGu6xlBtReGUbSv2nWLzV6COAHCBPRxWhmG3mqP6l3reSK3rPHfuMWQCtIdURxpwJhXT0r/enbKSWN3skzIVzhQuQC06ljvZowfzXjG+AL5lAB2u+N9riUObQmISNj4wegp0G9lQNrY6H6yKURkGxm9zkF17f6XlG2BzgMe+sOeyUND+azggZtINFYMJkWoob1GRLA7HxeYvpQ8rUYcsE+1Gm+3uZCaNEO6zmoPar7rPnXM7JSMpDcA24GVP0yBIe8TYH699CSubNzRGaBC0M9nt7/sOlSYJD0n8fkfXsrkTpDHRkZWHBNm3DKDNBd0S1rHSNqus/6pJig0WcuU7+fLle5Z9v/87TmkRdLzY8OttLzzG2/Q5l9ca+aMkFqDD7j53zxsg8t9MPRPutfTYcwY5ccWUD2f57g/2zmDP8pU30H2WwzTQs3z3Bsuf/YylAgdwIjJpeGuMGGe0hBqe7z1/z4NkMI928H18+IoXadHNq6SPgmUHrwZz3oGTtNk/4MpIqq3Od9oBODbHiLC1UD4/sTA4PWuMBKrAP5x3JNeVyzLi8AxXc8Hl5OvZDS+wPImsfHlZ3kAp+777HRczAFdXXO/jtmUpQqsOGagMn91TPhUEK/aFOf/d2BA4H+IlBxnnC2cJTLVbXYtpw2DvDPas2DqKLWuw/NnP3O+wfTBIh0GJiJIRfIqe6j5vzpc4s/LzBPTzYkAuNS8kMRk1u+WHa99CGTdGspcFVaGE2YEbeys5Nu395SN3+Vxly3f1JQOQO8wAce+UOftiuW0vzE4coJLyZGNVo729yrXvbvq7GuYDDkJrx/iniJ9uvSD+J5uixsfQFoj80sjnmPu8xWf/LObfeoM0EMLZy4Y0cFXsvD0fpoFwMQ2EHqkEfVJAMHyjlAIMVwoYCGfg4xik+3FsdvBPAcmfDMDlXuDEi8n1QPoUT3dNCgHqrnqefc3OM9h99UyVNfDVYsRi6K1/bLlh0zqKgpwNBs7qr7uK+DloF+27+Y9NUf1QDKYUcEqRsrA0EC75prqfjUP1fbCrem+gMtQz9f5AEKo86pnKm33NzjPYffVMlZV9dSUjMsumSOCE7u3JZ946Z8/dVXy/7KyV+K6kgNbrVm9H+TdFHOezt4UURxMEN0WhP6QKIJmU0zuDguVPBuB6M6E9HwRLQwPACpj4V33kjZzfTq63N3uo+yxLlZv/aru2iJVO1W3+xJ0DXN9fyaigrvBGd2Tn77Ck9F6I/dxHH5KZ8rd3V5zIzPiTjUv1PfuZujfUNfsd9Z1X9Z66x98DfXKf87d6V12z82Q/z72vnuWrh/IRmGVPykxh8838UED8u/O8uQd4xQTU2Rm6EfwBlp974NVMxu2Y+VyYQSEwBEIC0LVZsfPmTJRNlJqzauzAV98NYvIwuma+BW807DhblMQWQCSI/3xSpQ8FK4Qq70mayYxu/tJBpf/Ff4lLV0rpPn+PX0Dsf7+c+XEmc9VwWa0+LEO9IK9QD856wCrBGF2Yf+m+YM6RXjABSpq0NzVeTxdh+7ZoBFSPMwVy+hAxKWwbZoBWPWDNlGO0AEOg7xiA0v9DuvkuWDWx/Id90Y6G6tBdNf7Cx4Jx/sFl/zL2+pdeqhXxv6PdMezFLtzjBzD4HQcG1j/zVwOPI6BOMNUgZtoMY/ki/utvYxfMWUImwCW7yjbPmXCClv3D7oT006AhEuBkJSFXAjTL0mfLuwUYAv3HAJT+r4uDAnRFAfHhw2vVPtDDLJISQPi1g27/i//U9xe3axkQ/9lNEeNc6LB0pcLMXxU8UlxlP9KWQ3XE/cilR+ee83wXsbZKsA49zmA4xcKUyROfo0HtodhFe56kDv5wxkf5/0opAKtikRtf3AC8/LzRcUZzbGNun3IrNMcp1IC9CMGqLTE+GTT5jwGo3Uy2dhD5G4hv6A6pZB7gk1y/F1tgNd161MGmw40HxWwVH8rlSXr4XTznfUFD/1E3/EmRuLRVeVw6sxIHJg1VcomRIdOwnKZDijJgSDWwI8/9GAa8Ko2GoDD4nPkAIZmAepeMwq9MgfHfTawSaAiKcn/s4j0+XnF1YAmwgQSauFWaxtibWX0KCZW/oC9rc3hdNK15VwmBN3OSfCHnXtV+uvRubzptVmTiWGMdQj7NgFMGR281GZXF/eQ4rGR183UvvIPIUXBWDVGDVKzUE7t9WkN3Z3QN1KgZ0skn/26yQUor6pEkVgzOAPAlQ/QQUXThRniwbgy0N1DaDny4czKBfBn2LGatCOwrE2G/GotnExBjoSnsSH4a5ANEGbI0/sczvCbHQTXHAkDYNaFd3ClpwElHy5jakU3Xbfxfub8CDHjXnOX7xfHXfdGc5yMBbR76Nps+TDJYGHmfwFj9gBoLg9XsiUPDYADs8qwdHKxdsyeMDewJA8cMWjWBXJpvqpksIwgvcdN+gkDI2RXrwNUEaLC6OxwisXq6IjdjuW9Gd9xKA6uV0U/7t9cGOPBInt1x0+zNaP8CeT+FkfkP9N4aI2C98nJj4/aF7btG8c1ux4bz5oSnRjJjzYw+vSet41wI+wB0/QHo+wWQEppYdhohSGAUJttgKDBKNFWfwAAfdkrajGluYAb+zc4L57xHXL/qadoEqBZkt7Ec39X469atuwJB40qcFko3OZcp2u7hodok3IMzHYyHvDrMc8Dq/cUA3KCGODzxXdRxILpSb60ujBRAIW8hbvvjDgY7BkSkH26qwUFxFPj7FCz+GQyN8hM/0MEZHHvUgtgWHehNWBoORPk/4OkhS9Mfbb32hY0D4QNoFNpynB+ACDyuNOscnQamL76/MYl3GNWXn3/gcw8+2rYLZ061k+IAoetHYSAfCXVhNna+6XGoZBj5ZMQc/C4B8I2qJAO+ahmoMYFExnrszYvm7jvhulWv2g8hmtWJUnopI1CO+pk2rQe6k9py9EMIzJCYlcwQW7hRlz1JO29Os/b9jV1SbhqETVaXuPKgBbGc9nOakyeDd7cZ8ttA1NUewwj+3a2WIpfvEolLiI4MT5rRRPz7jMqLVAnCIOEHEK0mCGt0rDuOmAi2dkvzdS8+q5DCWUdzN3PJGP3qJB/u58idjVyvCr6zvF0TlzNCrrJeX94B8frl1/DO//BD0bqnZcdhVsb6FMb78bAltDhSge0HRhCAuppm3IruVOY3EL/fReIvRAxXeCvkKmd1GAMFVqO6LtnjMUhHx2KipIpEWlYSQGuiMTMOv7vIcHGVgwHXtyWfMQCHu0Gd2scF2eVrb4PbmxuItBSBgao7bT/fcjXO+gOC2QHeVF5kLcvbYP/tyDRE499ujOpTKyD6ywi8IDr4Q1jxWMK6Qc/Y1zfd8OJWQsqBrikJjjjKVpNcIh+sRRil8rivdmZa2cG/mtaeXS6Q395BkZqS2OOxr8y5tCdhnoqlhS9gC+8sMgIwPU6AjF8wyJyHtyuXgthElILqtU9PbPYKTdt0kgr5XdYqySCBIyxMP4iWHtvXWgxQUjqlAjMlWgups1qIehtskrgAPw2AEybo6xDV1Q8GwAwHfFfCuqn1mhfPUSL224Cv8g0VQj32pTkL4Q/6nJQC3bFQJtAyOKEpgD7RYGB6IGWJL46/9oVXWDZ13Rd3rLK4OapMdeUthmNEewjj/vk2MGLHDmPfvCjY/cLO07FH+yvYMjuL6ggUX0oE1Zzc0nC6CvbEzUuarnnx2nIbBR1pD7s5L5g92Q6K9ZBSW2TIfOJHw6RFo7VpHdryvU1/UG7g+ZBaCRExX12D3293+NjYiYHd8G0a11jByRxezmZV4QOZWsKMKLJ/Hhz46j7t06ct+wp3fZjLaOXCHXzg9QDiMbwVy9jHN1/z4skkfg5qzvo0dHlB/MQwesOmWE3ib0fdZD7irFXp5qtfuKWxMbp3LG5dBiYRJ7wYPNg7D0mkCuMGdQbgd6EFDPFfnRfPep9cHizjDkK0yyZhN92waSva2RGFkxrGqvIJsFEvuKTeKEdl3+AYeIz6hwEskF0Ftm3u2RgS4N6OByBpsCofzqB0/4WxyRbG0w76HBVlYFRW567i8F2X7nkwloU+Cn91RvNhUI/h4Y3EBus2xFmcemT9vskKzmu5+oWfUwqSei0Iv5rqEBiAJZ1v0EzJCLDC0HLNi1fqpti7N2n+T1NEMBI4TxEiIxgeLop/H1XaZhBKmWGIFVzhINPinFa2UeLaSWD/+x+HyckJE1+lnET1wGEAzw9ep38YAMQ6Igf6/1ySPxJ0bTSmWh/IlHD1xMixXo3t6N1EgLR2CYz86rc/iHH7lUD58IaZ09YgUhvQs69t/t6Lh4v/Wv+mFGUxkKtJ+Ll4x6CxFSMgfA2QThq/t+ljPcnMaXCNj7uTCWwHHo8l+AbEM1a6sUGfPS1q3ijhlnaa3BaU+tuZjOD//7velJnQMVmhjTxMjBMXAhfYDU7JbYNW4B8G4IJpuW6MDlfDTbKFanyAzSAcWsCS1k+7ZUuvnPWcUeRCWv2Lmv17Lp2zH+ImHAvjHOeY4QbxpAShN4SE6E3b5zZdvekSzimyrgqsa5cLi2QEjqiNqD1Yfmu6+qW7dMta2JO2V8EoyjMMqBY5c7B34ynYk7BMrJgs67501lFSCiiTKiBXA6AGjf2vTS9DVPs71QAk+kg49KK50+gQCPYPA+h3Ad7TnWfZTdVLHCyQABAB0F3eavMPrhRWlBioZ74QDsmOH54hDjoziR/r2VpvxlraeNWLP6LIz+r8cHKOavZgVxKGXH6DcTB6zcubmr774v49CftOMAG2gwzA81UczNL0I/nhahVt2GFDgzWjwGfOmISw+jjHajaDgwTgyINDlOSLQc0Zpm+ACW2mPPujfEYshyOWwvWBPKgk/x4Ch1V5LG2kEMcxs0wB9j6R4F4FBq8opZ3OO9KdBI42cL/VPtV01Uv308LOWQuPKT/XVKJxkJIAgQYTOB2rA1+DSsPxzh0HXhoHDewXSDc16HvMjPcsJzyrzlpUEHEy76DJnTRN3fhdhge10fbndhXsHwUxOl8wAK1dDltt2xf3bkaDJ+FwV6ZyWbFZUikfHZH/uba1XkKjJBT5wwd/XH0Sy0BLMLs1A2V0+R0GzoQJfVX0pLWLm6568T6p74OIfNDSkkFQjjhUXxqv2nRFLGl9LgpJiVIOMOUdE8CSJJcnUfGlnV/ec460WUB8L7lh6kU3IG1zIvk09nu9SqMn2lVUnw0fCAVMiVdnbd3hVhEjvju0zfE0l6Ih1UyQ2DQdnDuBAAv/kYDQm81PCV5yDjj2Ui58U8gsCTwHz+nGqMAgtW8G8V8He0eA+nRJ5fnsJWmwBKGQobVctek2bOr6NJy7CCWIRW6kqTzE4DkYPBkwamwasq5ghR2sf5gJrcAJRuir6zbHUcMTkRZDg+E6SrlH18U6WfwQE1fVyIxcGdHL5NHTm9qx+y8lzkNz/h+42CTp1ODMZcNEUcmvW9iJqMOz7NUd8cxeuwPBZElEeMkllvFFdLqMRxj7yowFQuir3aIJWwn9aWewTTeAmX9V0xWbZERZqV7I9aQyAu2DoqRUA8bW/bVZpzcG9DuwxEtZkzgrAW8lNcjiseVpzX5fw7de+ms59gq0YyzgY/VcNnMqmnEzBsFegOzHTd956YZC+rE8ukgRuCAhacsWOTMMXES7vzr70whq/u2GBjEjhe0gaQTdlYJMEWWWPSum0wC4KDzeXssi/rJXU3qBbZg9OmCwM47FzK1hqQ6eb4VZfXepk2KDLkD8VgbHHZzMZ3JQOkE7dsk6En6o/fri26t+0n3Z7AmYka+GgRC4K8xgNnwcCITuFnoyaV+Oso7BmRLDTiR+h9DlnomPZBeIGYuTwqBp2GLIoKXnPJSDC9hmR3R/ffY7Y5fN/GNjRNzNff892Lbqi/BfLsw4nhnfbO5h19wwZUMiU+b15E+HayWxj5JdzL15JSS8lYnixBnINl+MfBvHnNHoV/bdayUAVsFXJBPgMuF3Nn0Pm5l+TNUH1Xmk7jCupEVX3aO7vrrHIfJYctdQOZwmk9ApFfLDcpTxs5AyPWMAUvxyB1f3V2ddCX+FZxCq6mDEqcvIoB/cs+4YZygjVPejSymEYHBrKreslkRg8t0y/5HcHlwfM9hkQLV/Ik3jkiszFYM3BLKAQYzr1E83fful6yiZwXJOH/qRn5Y4NqfmK146uzthP4XVAYw9SALF4K/kvLZlYJkV0bsuLSei5fInxgXLLIaJV5wBKM5Eztvz9Znv7v76rH83Nupf5m5VOGkA6ZIDVxyOgpGtSJ1X3d7ivNdW8OsVz7jS4fIiYO0H3b1FLlSUYi/hO7KN1hclzO1yycxHUk7lMClnTNqgkOAstASzcif8hulA5UhWlasaJUPlgsNWQNc+0n3ZLGfLsAtLRavNU3hFCe8JWijBlfjp/casC+CY/TTWmffp6bXS7IQ+3atkbkp8lvlDRCFGFcvFOtE2/iwkuCLzeZJcl2kY/g+Czx9gpUzAa+EfNC/DNXF4+v226Zv/+Z308kMAUU/g90klUvzGykDjd15+Tdftz4aDBKx4XBaD9/68thnhYZ+GdrZEh+vQVQ3UVIwBUORfjEHFo5R6vjHzp9GouN4EzfdmGKXGpsiFGYiCpx8/CEkCWCGmMYZdQcEVPes8d1kHQcr243gtBX/AvM7IWrZlXinhHmLHmGdt87giaQ/AJNXwzZcfxqy8gst0YI7wpygNrwW/hz1CiaSJCcY+maqc4yLsSHYeo6AylUpjEkT+ne0z9uixu//VENU/TiMfGkfMer7yUDxSIZ9Qtdb1mPNuR/FFVOANIk/OXDDWAZPznUNTwQqKSyZUBx3BOv/YfMUr/0cVrRidsbiqaiK3FPvtTPBCGAU7sQxNWaCyqgCmPqhu9A5sRiRBufqiyWAq3uOr2MEzJITS2AcPsq6v7/7+gCX+jd1Y8+AF5ZxDp/TOIsTVfrEJVXv3HuYA/LO0uGzwAjIuH6R2iQEt8dqOqWBRU7FqQqAcXb5w3Mg9DhB7b3ZbVPYx4ANMFQwC1VOO2eYrN24zDPvrYbkqIreiV3a8wWvPCedpf1oC264cuwoGvSwZy9r50qsPM3+sfcaJoaDxf9hN1wg9Mw2Rs1oHUpTWiUCtJC1dxlorC6LLUgjj5cmUmYHQ2RFMU3RnLZgBoB9sRvaBuLstHg84R5xdXvlIPmVpeyULucVZ/Yhe/p8fQApYFwnKjUOVdRUGG+5FSG+cM7hfbzuChtAAUQVjYNkYAERJGPw6Mj3tM89EiOgH6Z0Al166q0rHy8InqNJotqzlozDMsNLGVslxV3TZ7nIkQr/MkEtJYACEs9C2o7PNUFhyjN+M++6LnbLPCnAWKRrOGnsB+MM6ehs3f9v48y1nmQ64RTsq9kHB6DsziL0JsAU4VpgqGAPLwgBcf/5Mz/KZ5zZExK3gbCB/6Wc9nN1pFcT+UD1LbRt55EKRn0ZzmwQGe9qmSeuNNFbhVsGjlDIAjZv2L/zUKj/AwsmLcEQvf/m+3qT1PHwkEFlPHl1WBH5RQMF9wdpsg4Hv0R8fUROoO/L40JM0bAbghGPCzP/N3T8P4v8BjtBCGzjKOETZnJzPQPdy81TrtxT8AS8TYfBd6nAhsic68Lm4LQynMsQ54ul320ntTyxoeaWNXS60tXLhRObAat9IUzWmMYxjjgMXz7nfc8dpdr7cZ+q3ysMr3BBw8hEjT8+JaTPeJ+teUhnDvCx7gD/DYgC09nNrY/fymacg6slNDvHLljnlkhvmpoHu5eap1u9s7l0tGAqoF0NnjMxG+Z+pMJxaPHIL7z7LtW8O7XYYwJwC6n8lBtwdlg2R6AoYrt8IBrJsAQpFg+F6sGe57zMvPlQDdPQLXM+Pllk8VgNKZgByqQ/W/u7lux8ZCWn3xlOSozkzv9u4osQhH77jV88YYNqJ91YMziiVUcvV7FVyoC33n4Ij4ariHxCjs732S+tiGLsPBmEvAb4qagxEX/LYOazF2h+STfd4NaAkBiB1fhL/N6fvA9eJX8qQR84OspLKq2KfD1g1BwInV/Dl0IAZqn1Trao4YmRh0LBBMun/KuyFUZprtYNUbLNe4UTZKdrPojjEQVVGjAK+s+/Ob82cjV6SG3uKK6T03EUTrOM2ihDH7bPGAEm/hf4SBPycLGvU4AfISRtZH3QHFmnIBezxErVDhFaWeTz8A1p2qNnhUrvAnt2OnO9Y1MRMo1tOhCO/+DZ4iLdCqlKh6Rq+9tJfsEmNxsDKRg9yeg8nOulYEbQcOwClAo9SURWBMPpi98WD5s+xh38auBdDUbWOmcEAADOzSURBVA03Em2hg9iTfKArxiRAXfYE9sOqLYscgvOoU4aqRjIAZVTKYlw5BJ+FK5sSjY6DK01huBucni9GfBgKopH1nBZ5p0X2b4VcxK60GiAVAdoDDvMak0UxAHXgY/d3dv+vaIN+WJwefvAt4YQ5kj6Mqs72YPPSFHbIommr2EDfJBx+lZDEXije0Rp4uTF3Zypp7ZQNuVy+7Js2+QoQVzpCUJhHNYSnwmQgx0PFxjjLZz0YahIP7d45ZxXMAKTRD2ulXd/Z/WM4furi3jgESqWLFjQLoWk1kw+A4j8cNKbLDvHZHzCmNx1cOnAOiVeMXB5zhv+p5ijjLtXToBhw4wWkkubTPSl7J7buUr2lgbsyYxgsBuoGy94r9p0pE1GNXIAcFMYyPSyIAUAk0hlmufuK2ZOhGt+ZcowWRMfITNSx6c4gNMUAfLVcBsbrMIAiJnEZ4EiDB8CYmQnZaSO394Y9JsEoJQG2tG95E99Xh6gGVDZWADcH2TACtBqWsadswIne2AEKYgB9RxzrmZ80RPRWOPpR75eCEa6V4YrVLBctokQGEKa7Xo4OOxj20CpbAa/JkjA6C8U/s4KNWysfX+UrZlY2jJS7oP5l0mdoEAb+KrocCPDNAN2CdWNv2RSPolANyQAo+vP0156rZnwOceOPjidB/PDvL3Tg1Wg+kQHJo9MnxwMbJ8sOaZctkV+r9sfVTSGbbObaMSDiv4KYgKR6eAK8Z+Esbnetp0IxILTniGPp21ogrgvtk+x8UNGUirGwUNDKkc+1dg5clBL9e65gyGHz2mSSipDtOw/5gaEf1l0BguFOrcZezZqJkl7V3NOLh1XqcF92LfeWbr7cm9Y5I7EvaN3j0MyfwCYkA8CBkbNC6UZkTEjtYfC38pc3Gp64zNbQxQtkttgXwNhLFUvoRBAXhGrddiQAj5ZpB5cA3EFvB6zrGxr0JkTsHtmifxaHR4dYBkQyhHGfL3vdD74A7ZJstea49gpgeg3RlAmamjkGlQTorAU20dolxFjZnuVDMA2ZaRT/cZltWrdf60XgVWDPgNJbEK4lZrPGUiG/HW8Dchh7JrHuVZCWvAyAa6EEovua3Y9sDGsnwjcau1BHvOjfT0TsNacT3+kXMgA4tpTK2nFasS7WIMY8YRx6UCIX5heLO9xwcsxusj1+kGj8gthB4BC28SYe98pTBZnPGRNlv5I9S9u60Mbb7dOkqzfvDQJaWR7lZQCIlCJd4YVlf4/sb9QlatecNW373W7b/WI8k32GU63+KhUASgCFJQsbXKnL7iOz+0GiKQzu6uS63MFro4hzXwCWAiUtForrUmCWdie8OLY3ajibvdqrxAA4+7MFPVdPXwbRfx96+8EgNmJcfSVah+bkeposWYj5O6+cMVaGjnLm2lI6t3zvKN3UMJ6UuikZ1dBtoUFTzieWrh1YPmBGcEmS3tG+S7f2QvTfYSjLVwG4LqQ/cvOwfzjdwPmoUQuY0vDct/pWQTS/TQKgtZOzv33t9CiA+rrJY4fd0BgVansuLvzyGxxZis3jdcN+h+wDNyZ/Bftj6KJdJ5W4of+9N2W/iRBfiGRLC5IjL+a74rFuoS+R+UDnnHr0sfPK0HWOwhwOPUoEEbcZEijUgCHxnA//Q913u48h29BRjp1miQfRmt/GAFad5cz+OA3z/GijmI4DMhkmGeZJDpfR9YFhxuR+wKBuHyxpwAdiM4mdRz+NveilnbAYPxEIEzJGrhmyb+BtZlnhgD17j6YdB8j2POSNs4msq6b/gO6BX2mpHxrPw6ETG2cF0AOVKzWepF0YAGf//W/R0m+0T2yCEfzCTApqL6wgfpmSvYYDHa67HoFt7A2IZKAyH6R+RrRSCo5DTS/qOTpVYI87hrMzt/SX44NG1QgICpeVucqIzTixtVViw4P+2YUBIEaU1HSamkPLoo3GlLQl0gBk1zw10k9lARPSWBpiMzjye7uumTaBDlFkkmUpeziFuJF8u2Op32BD1uuM9IvihjZSYv92Jkkepp9o/3Bik1T1/NCe4eCiQu9SnmLRsIfpmAaCshovel4yFsupr0Jtyy62j7jZYDkgaAAU2rnUF9H8UTv7u2TOpRkTsQ7H4MAIRw1wmWQ2Er3+LtUA9NOk9m3d6LX7AxFIqEJwmdYZtvmvOs4SyEQbxJRkKrxUwu2D9niNv6LqGzcnCCIJO45UQ+J3KPwX9JzHExUF4zAy9zEArd2Z/eOt05ZEo/oeODmGy4D9z9WgYmX8rpL6nn1VebOvzJ+dR/1WeVR5uffVO7nPVT51VfnUtZD7Km/2ld+zf1PGpmFG6Lucvc7iq5zkmITL8i3xOIKwCx63lqOiZLelH1jdBlfDv0s4u0mm39/i/lyj/ZtLgjvNTBSbw1sp+gG/zshQ44M4Ut+zr/ye+xksL59VKfUTeL8I+XkuFsvGZjdCAZjbUN7Pvqfy5V5z86jfKh9/q4+6p67qvrryPr8zqWv29+x8g93PfcbfKqlyQftcCcG/I7fAQUMSjA/EZsBhPQEpoOX/bVkLHDwIpk3Id5UCstuicIL2JMDcIw363PiYaefILDcvGtQlXBUzqq7LnZEVCSZbgbpmbr2Qd/rHRf/Yy76XD0m5edRv5uf3rA93BuYrptz35ah5CCeScEClrtvtXYYhDkXoaAxxiv9kBKP+o6dMy4xGxG7jxupt7IAOn4jN21yjJNb2r0KgD/YV3FVppRiyz/Q082vim7RtcKs3pQG2rZ5cDCg3eMuYHDS0EGiyELwOn15A+/A5kNKdF30hO33JOQ63ywj7pFCU+uToOip6aESj87k8YzsHObYN/YInOaRRElJA0/mv/guw3YkoTZxHMk5vDgICpICMZdEWMDYQ0H7g5qwzgCyUdbgWeEMzp8ulVm4H9kzykydqZUFTua865wqxGE4hN84JY+B8ilZi3Bvdxr8sccwRzYThzrAfljMmHaU8GwxDdr6cLWxL/1oiYfWCBQTxhgPd29qBJ7zHJEQAtgMwAf2TPTdOO0OqNjjK3XlY/9t2mIMDyxZzYSnhj8Fxmg/Xxd1HbtCfsGXQlg4HhIr+ZdNA7xgP529MYnD8nRZlXJ1ZpDjgncE1Mt9hgBASy5hQyP647BGfqAFU3f5xsxZsuHjzq4j79bVwAybywvsP59TLOBe399wwdZFoX51i/IeKjrhaKfxJB1AQ44I+kCs/tilnQBcTXayzzYMtwVLsa3f1v4bztxwf77X+hIHOmQABP+upDwOMfwTTCPrns/Kej07V3f8sLU2JpOG8V69D//0Z9goSsdzM1Qf/wF+4x90MY5MQlhF/23vjbtOlPaDOBDSsivFgWySxQAZfYf9XOqEbGIgGDpudla5Kla8YgEX3Ut7cGdaOQMDP1dGoCMEWkJLNrjzn87/0ALUIpx9hS63+ntiNUw5TLrkKkVW/uvsU0oZ+KqM2wW+d/hyFhLEyEJAyEw2LCTAePmVfP2myYxQcveoAmSmGvB27afIkeE3uBXd4dq/DAipFC4w1ACpA6AHLCBgOA/AgdHuf4Yd7/7msNO2sLb2pTOgQDKKNkQiYACUB6ZcA+Ia2Lg+dh+0cTjmFvJ+bJ/d3vvqHysdjojC3GoZ+LkeEMhTxe7UT+8+GKtB67uaN6LPTwjDmYgxDYBkC387zQDxtp6NhbUY8EFiVuHHSnlIdgE2Ab1e7bZ7XrzZ9ZbR3NIS0FgRTIR6BhyFwmW9cZd8fqAzewwc7AfmtKxy0N8s2T3Um5Uq2v48BsJLFNG6BCXCjCcSQg+JJ68VIVHOZQJnAGO5wKuT93Dy5v/M1Zah8CA8Nwxl6yV6SvHnaPBdfu+AwX9Fe3BdUBdB/0fO2rIgn7GuizXpASnGDVd7XZjuI5d9MNKTthsCUz8R/sNvhZAIckUo6HKyYEfUMZy+zPUDeIRz9cMzr968YbkP78J1VkHMPXqc8wMUek0jbK+2f4OQt9ucTzua8rNxl/fq2wStcJtB8/uvbohHjPZAE1sFpJAQBqK4OOLNhJtqIPUIZ+2K3J96Gw7L2ULGFQXeV9oBzt1wa77YejjS59hwOsiE/WBlI25lgQGsKBe3H4z+c+lWqOkq6qLSvAOEms6l0PUOi9EmaesD4hN5G/R9UWVnxX/ULewj4Rp8dE+9N/nPHD6bO5AodjbxDwlxiBlY9YOJMIpnBjeNa4oFwBzzN3p2IWyl00uheKpKb6TBQcR6iHjDnRc564wUOWOBKDpoBkenxzWx4en449bGGRv2DMA5yNh+67zgiaOvEUKRfQbzH+pNl6Oc0ff7Vf7EZckba5jCFcjWLhK91wBkNg12VKZlAO+ohNB4mwkKm1w1biB4yNsALnF6A/JeXVsoOHmxvCN8Wgs3pzZRmvXfMOVtfJN6z8VOuOvPOXkoSEOdv74q+8doBiV7zd5xNgJ00+CGYItjVaPzIZos0pICAndEvkx1xGOQjHyUyo4dco27jua8dkei1Hge8IRgGU0P2GdqBPDh8SNOSvbALRMRBQdt6Jv6jaT+yb8UqAYhUSgRgehyUklBLbDtne85uqMtmuRB7I+kfTz009uMpC9gGgOAp8ctmuMu7elB/P9reTEYvh7mXY13TQomUlQYTmBDW9Ke6fzhxisSP26clonvA19CswRM7iR3OXPEfTb0LTODURLflzHYYKIO/PWKfcmCSRjAtWPuEz976XDae/NLqbJgSN039abhJ/3giZtHHg/1WaN+x7w2ogWAIVhwEcQ/cxW8OnbXl6ex2ghE4+wm4dk3r9eU5xLsctdK91vWw4wSj3t/23QnNzS2h0zHNXhQJiFkMxZg27esiZ792sZqRVd5KX9kOwibHegPGeq/El9O2Slf+tvJFOhLRgomE/Xxk/Lh3ixPhp1FmaXNIBkCYuFeAbqf8Hr9pytexOvDNdIrrldJhKJDT1cw2GlImEtUD2I//y4bPv/6RbGLzU+Oz4eq9aeq1cP+9KAlDJmc2kGNhfYcZGv9MLi2GsOkok8DLlv1HSIMPa2n915EvvLq+2DaTsAHPfoZun4Tvn4o06lNsjCnsQqUNw4g2geHErGMi57z+m+w2FFtPMfkJE6UR+/YJzYl0YENQF5PBiDjZFcosi6lu6LySOkUq0gB1oMf6RcPZr3+0KgyAkLaD81yOK0UzdNzHhbDuj4T1IDzJ0rgbHLo1IzKHGQkLIxm3nYHqzh5+aykHjebq0/GbJp+BYX57BNbtZJokBwNT4fqtZAQozcD7YB8oowfh4jXxHIjn7whR9gxWHtdrevDltJnZ2aS7B5GazXpSS44FsU/OaPo8SPYHgtIOQYyF+YEI4q4lLC2dkQxJSSZJDPpwosdeHj379fZK6b+5/QQ8ydm/98dTT4hGtIcx80rpJzef97/tdKTJCAIfX42e9dp3uNzLFYJywFGQBJBdEXU2ep51YRksqFn/Dc49DypBsWJldpG1/N2MBIWBZZu1kbNeXwBkgg6kaoCLvxJnNw36LcXb5M2T94GV70Goc/OhEhBQRxooFGS2DgdaUy4gGwhzoRjMQCZYzBJJSTi9yJZ2cGIbsCk2wOMQpi03H7ZYA28OQ8lWSahzs0yoHImEeXj0c1t/75kE4Kq7vT+e/DMYQI9P9CImBqWk6ic5nrArUeBM7veFztr61yfArBZnqVGlguj2RnGvKw7EjknsmHIL9MMzMuDiUAkYR2i0SQNpMEFwZ+sb0bNe/5bCTXEY9S63gg+kpydvmXIlxPovBhEnMBHv24EmPUILhogGPI0bJcEOnEQxGidqQW7GR92k1cjxpO5bLVGzvaqKnIgSVTCDgCUpU3y+8azXbqb0AqYluZTKWImrqid+29SZWPpbhzaE3TaVRCMVgNGE1GVAalsTXvb6QqIW8EmVZTh1laTbUPwgB6JxEIP+s/GEuRQhtLvDDa4PemEuqJxFRsInAOMY27E8eevU+dJ5owLW2uF0cva7Cj4McAtSy5ew4vdO7CL8X9h1jEiUMWklsXHmcxSDofoILQeRc/coXY/5MfAbirxm80QtjAv5AYZYHtfTVT61ts4lxzS84HRIJMFEyv4rXniXl8RP/KxSXneWfQbgCKMNPAaP//wyRilppsONkNpumdIuYb5l+NIJm1dyIgdSYiUMJ9MSZuA26G5Hm9hSnDaljjJapIEMCCiQSGh/ii577eBycOaSO6XAF2XfZa29J26ZeiR2vl0GleZQDqsUDH3IQ4nOmakddlBg6QVkc1UIOB0FDNgB4LS0A3vTvwGmJOMTeKX3E1LVX/bN0xoSurUBZy5OS2WqaPzLhz5H2pIbuETAnhs5A/4Bw5SQhqXfYBbB+MD6LY0Sn31zC74fE79lymmQCa+NNomxEIspuvEzrHrwvt9TAHovDDX6QfFbJ18mxNayGmoq0fi+voO0gtjiWuTE1x7F5VH032Eg+3MwMxyH2SZKT7ikEyNCLdtx0iBTKHby4DigokBWEqDxlHYDjJGt6V7r5kzKuLHlC6++JRkTfPG57o383iQwQlSUSerW6ZFGMc21aflxzEoHNKicAdgnvg2Yl3Y4fUHclpSK7cS8lZATcZ1XOoncNn1cQkt/F0afMxmwGvolRUrWVZx+mbc2Xz4gMxQBkEYqIw5oXPb634ETaVX2JbQ5QFGlawOzVvp27w+n7a6HzRNArZ8A3R7ApShJ89DPeWQa7D1sL511qP8POI7IZFwJwoABSzN4mCnMgVSZYA94Cs/vioTTD4pPbZf7372c9VXzAR/AAJzYAp0wNq/HmJ0FPZtqSUnqsSq3wlcbUopIpDVnnLnGy1LqHLDjSilIvaNWCfi7947J78XholdjvfxQygGYJR1GIANsqTdG1FUaaqCrvRjpaV7AICvDFdG8xg4Nu9zluDjLwgypZjbm5PeDTA7DgNkPRLMHCLqFx6eToCUrGAhQji4a9ByfkW2gqH+Csn5naPavw2dufU69wjGzaJm0/pOpeJqUUTRxx+Tzw1H9BjAnrk34XXVFUFcRSMa1hyOfff0Tw1klYReVPUlpAO6xSozrvXXSCfh1OZxQ9qVgB0MPxTvWPRIlgjRWRYJwtlkJHe3E4XRO2TumiAJVH2rYGKOkAvV67O7Jk/S0PgNq/EyES58KgpmAXWwtOHcoIo/RgESAez3o89cN29qQ1rQXGzPpl8RZO/oCXfSVj+02rjqiivfsChj7HX80YwOYGhx/pMrq59m/Dz8koLQp3tG87PXVaAvdt4tWBSrCABSEHPx0C1UDKH77pFOgCXwRe9X35awBRwsCTHGLjMCxKKiXa/VKjGItG/aAQDxmf7nhzNe/q2aZWm1SH7E+iRZgtyGaWNJMzUGKTT+61gamUsJgLTf+VL8k7pj03XCj8UXYI8CrpGNUuasqb3noAPxPw1ciCInlRkw0F5SqPqGcyicMoF104eTtk463hH5xOKgdQs0yjZNITVM6o9BSwNgonsBVsZaTlYFE6C2HE3yPazxj6yOr27XQwvYREWZNtLdr4nLXrx/LZ2LRXJchPJmF0cPc77i3EvsDcNItib4kxpFVatm+KsmMS7eWYa1GwRx7jomybLVUtCALEosOiWVrxDb3ghE+piSaYmr1jNDQ80J7AhpjlnW3945JB2FQLAPAJ8Cy2Ux9EXYCUn//8pNkdsU0ySd5scCO+O46naOw4L0ofPrWZ9WM4xMIRzUYSmSO/2TS4/B/ONxHXn+F9wslTdgC4nHt5IbTtz6QO9EWUpBnug6I2tnyCYImoPjoDWe88afo6W+cBp/SufApPxfE/xSBxq61IB1T4KVGrkzDIW0GVBX6ZxDPWFchaBwgjw7iZweFRNAS9uM990yYKp1wKhzhZQBI6rdyMCAZMVSQ+E8mfw7LfodDFcUWhRpcqib1SjqwPymbWEIU4aqSkWsjkIeSqj6K3TFlgaFbHwZgx+Lee8HheF4BZALsT4dcAM7NDRq0HfCu+njGyFBnsQlbOgW3dG6INNj7iRO3dZeqrxVbcT3/2zGgRP/43dNmIKzTWmxIitJbEQOJY6nWko1lZwYS3ZkJBfZqWbrlzWLVAF80mtKAhlWDXItz/D74ZWdMLj+1QVU4CH00J8yQ13LpCcIAWAE92OG1RcnAF23JM4LSMHxiZcB+Jmw1HChOfylRZwJ5MFXB21IN5R9Ikom7Jj2JsXRokrO/VoOzv4snUgGlZSy1Hh/+9Bs/p3QNozvbVFCCm071k7tKIJcwdmEGp7z2MqDj515ytuRPJs/u7bX3DRg2VhEQr12zZ0MmmKrrYnf4HPqZCZD4YbUV70r09vzB/vWcQ8Ri+AhUKMxT9XvUpxDcDOLAvoPkXROvCDXphya7Xau/T8EtBCzMevCqAUez7COQ/+eYSItKfp41NckMNCkdaNnGw9wWJu6e/KtwVDsGROZ3bk4mgKUb+59dMfvQSedCHSjj3u5cvNR/92Ng9UNYhTlRSyXvmnR8KCJ+hpkfp35h7bw/S61+M7Ed24C79jORz7zxbjSCm7MoDvMyZKqZ9qM1AmvQogMMoY1cDoEpGV6K4k7y7vHzEcH1ebe1zlKO31rm9gqgVkxgbVrTD2s+desbdSbg9lyFLgq/ybsnv8MW1tPQ+4NYdq6Ou68aB6W2Nft957sNLgaHWy0eFuZcuFVv5sTpStVD1uI3MhkS4NwMqnMT90z4HlYP/l+y204jTzA3n89+p2nLwCz0mjCsD4SXvrVWzVA+g7PmwVFqlv3QlImJpPlvrMpMSaZk7IOR5IVqhcNCTya1D0U+/cZjytBZSOf52XpeCPwavAikwSMcjnwj2WNvDgdlTAJydykH+fQahMiWRqdNxam+/0zcM+kIiqfg3AHaOgpreD3XUBjoJ/7p0WTK6sB6/5QU9tQDwyPm9GvYNJjSPMDE1i0YypF2QG0uMBWcscDyPM9Gi67s6BM3x4UuLpSR73FuRx8ZlcoI2JKB3s13X5HtQO9kP1MYwjHeWNbMIBBGJBzS/jdx38QvUJ2R7aELdT0NCwN9xA8bSyqdfDLcoC2AxJWG3t8vHebrq+z+ys1DqHLvqd+FPBssjyon98p3mHg/Ozn50oGAFua2bagCTnDWsXKZPDtn3u81zwDYMhoIKfaEl77xcCpu/yzcyE3I4Iq5CMuLhgEe5Hs3330WUcgz5unPF4CnoIlIuBpg/n5yxcTbZTHuOX/8Xk/FY0CeNcAxceOccKp50h9CDeI9XIUB3h3i37UPBq6gv492fZ7vPnMV8mywPLvW1P+L76j31HdMfLibDmF5GX4MPdgZeGR46Zv38zwIFca/v4D833yxDJgfvCKeuCepIlz1F+we7Qi44TZXzdBTBNjoRc72NlYGzHCTOCOxYuIidO0Sccq2Da6jVN9mqiKKHbVZlU3IfmhsazLTiZlfvBNepiB+qRqOFLzwsJJAqAl2pG77j5ZuLm04efsrVCFB/AX7ABAZiq+MCMSozk+tGP+ZYKN+J2wCfl8WzMW7Mg5CVBWfj5687Q5mUO3KzVz/vSsGlCE1fv+UWfAe/z0MrbPlzO9/o/CuDcn/i16wGpiawQkDQsDXYEC+ivey43Dwd6FpRDEANlpZQBP3T4QqoB0PJlALqwLZ/ZWBLhcINjDmvvazcDi0TJyAUFmuXaAY8S670JH8HTNfXzSq+IoJDFrySxB/Mw2taHe/zl+7SCDh2zAaM6AqnBnsX0NyvChy0pvrpdGYIdTc07uKbeLIUQFUy11VIGkkz9R6Q+8PBbUJqXSV1nwVTMVdA+hcCxzegl3ghFRvcnHq/vEXiBPfuofFUBrgygeNhcUVOzJzK2MfW5d4YPwXsEX2+/yOpT5uIqtl4mf/8uwFHW7kctUC0gyPY7schP8I2yglQ3g2yny8UUIacRIAcaDEocSDE48Jh7VfYSYgImvRsp7GgA7qEXkCz6Pg8xdETnxznWrjorPACDAOSuj3mn9FznwIiy13WP56TjjRtfMO7OxbComPbeOMWYv9zdUr6RKPTT4BI8rpnjO+9me059rwydt+ysZRGmQg1xNLnPVZhkojkgGwcUpvTjw44Zpws35JsouGoJqcETggLOh9OH8AQbeEuDqU0L8tTt3aI9vJ7cWLS4/SwzJqLWXP+vH7J74fR5LdBWlptmvzIeH7a1xTWuv371AMm1f1YRcYIexUwN5XeTcV196yLOuXAUO/I7hk2x+YAZnpDStPd+LvciR/IaocLXLL4AyhxOTkg+P/jEMt3yf3CvBgCtUFZayv4kXBqoXOCoQaEUq7234dMfi+GdbeukXpftUMrFnxtqs+zbKD2P+AH8WLE64KB7SLub0Pjj4QhX1o6Qfxo98YI1GyJdh3uF6vYZUKf/jFaZyFcxhSGe1VrMuT2H8Rakz/Vny4cwefShsHdssOth/GKaX4v4Bg5CZlEOx9aPxuQOwaiNPNOISyOj7g5UEzhxG2fuMcBhznhRlvo27bVwfF9rvACCAsYrBAIliJfRLlEA/LA/LwSwHxyFiCigCSK8d/1LbFdeEmbTaWwYgTSkkuKQ2/vnKVwAkI+w5EBvsO8B1dxZJFErd7cAjLTkxEm/HBYarinzgU5R9v7gg/N+2sLb2qfvYl97woJq/ul/M6ohkAEdWnCvx03JHhoP5bGIdkN+BR7bYd4cYAvQW35wA9H6EavIRh8sOUkfxJywmxt2S7aRnHrKG1VS/qLuEYTpIrHxMxv8Oph+WkfjbpnZZpXYmdn0fzDvqSah0N2X7sywzVNjimfQ0W2zsCwhxvZ4y0bWbgAGp2N0+N7VTtysbRE1jLl5vdPOo3PyIuGx9l+a6YQPLh8V+ECP3dVAwuoSNjecixD5ARQHfEbLgT4uW94A+3hj+x498KeRAhA3KfuEeDStVbyhXsWSBysJEdHMb+2fj5KVP7MkLEnRqgQZRr4Bi56EMcMVBKLZV9B7BlsOU4gOPV/h7+xFsH5KtNifbyOXe3ViFw6qhgAESwUgdSD4+/I9gkTk91ZbmG5uuh2rnPE3pM6JVBHZZjEwdzI0BKB0jprmAo/Ig4bsubqilqVqWa4JdIvX1EDyCzZ8Xeh8YdCBH6PNw9mbaPVC9yOiHh/Lx8TZbk0JVl7Rs+cceztFdoj2Bl4nI8WY7P5Q7booqAX1VNo4cBZBkFwQR+H2wUi1PcOlybKwP5Bg0HlFwCwwwkT1tI9UDX1ATO/RP/HRKhx+lUlP2yYghufAUbVmYarSo6MCXBw3lFg3ifq+N2rZg2IRJOfBTd9VlYxQ+kZIM2EGSqAdTz/T1mEe8h1AL//Jj9peDH37paSZ9sgB+Tv5FZZowpKWDLL6c1jE8lnwGR7JVK+NR6PJy2c2ax5aErdsDAcYUQm0nSmEHBDOyn8OtxHH/3ZEPDzufFMVoyt6o+psAHjmhq981ceNkpLfetXX+jOmd+W44rzxAgsTM9CYNYu7PWrd7ofKhlXMQIHgaYl0DjPxqz/RiyMYjQUHF4Th8cYaga+DyhwemgPBXK7oic8NZiMjo/zPKDoc33SB0M+FKeqTXk3ofHTcfhtP8MhsQEBFSstT0DxTSd0ydP89EgTjvMAEsiVBOwE/FlENY/kOHPhtD/EQiLdeLYba8PVXg7DIzyYBBk5DmCbQhHra7QY1kftjLI64BF2Q9NbOo1rPmg6oNBIofjJJgDg1ExHjIBYnUjlrolZ3sJ8oAF+PEmtC5sy9Vh8Y+FbH1v8fE3X1MTjh/BVTCNOgbAhiuxLPnTcQsx6P4eCokomAANahiCIzqRMOkViVU0+BTQsxyBJGSrpceZ3Y3nmzBzbQCW1mLqfQET+Uu6br+eThnbG7Vwp0DchUIwxNnvzV9MaJog0hMSGTEDDGZv1LsQNb4D4asWoO4pgp5umOktHAYDwjHxjMyjJmb7XXDgwG1BojTgwPOx8Alv/Y8aY7vk8+GPUckA2A+qg1I/H/9eGyFFYD2PYmByAI4mnMhVBHdc6pAQdHmEN01sZIV8CtkIm08wUWtdQE437uwAcW/Hb3giihQkdOZSCbiTZN2EvGPxYxyvYLAhLlfKRAsF1mDg9EJcO9Z8x027ZvEOwFPBZhFKdVtXhT+24yvKFd1psL//1izSh4tWpZ/ZD02PpkK9L2BGmopBORqkgMFQRxZIbZurCkCRnJN5PhOZA1UIMAY8kVe3mNwRRLJ22Qri7vLMRw0X9458h2/ww1JqP9Hox335PfbjkY9tP4Ljiq3Df2LC98nPyymVRV6HtChnQPwfgdFpKgxkI9kOUCguOXglcfaNXv6CiAt7AW0GuC2fOI8H0vNJAE6CkIDcbnn4OjII3m2ce+F6fxCrFC+FU8bx7j22mwyvJtLoZQBu98Cn/hjKt3Jgy2tN9JvXQDpk7Mzcg9etyN/BqJM3697gL9fSU9vkCksqZaVsYRzVd+QbnIBqqRWjkgG44n/G/rUWTmbgI5eSDBuirprg3C4caOBy7nP5Rd9cl32Pr+Y+573sPOq5ysurSiqf+s0r7+UmBVu+/Oo531N5VDn5nqn7A+VT9Q9U1mD3BnqP9eSrQ5Wl3uNV5c2+lw2r+q6e55ahfqtysvNnP1P3B8qn4GAeqjTwsoBxlKLRhyMf3bFO2pQWy735CoqauI5KBqDRCQUSbW+mZd9oQJspDVLQc2WPqUGQr/vUc3VlPvVdXbPvqXLUs9yreq6u6rn6zetA99TzgZ7l3lO/1VW9m1129rPs79l5h8qf/V7294Hey32u6hno/kD3ismv3ldX9e5AcGXfy87Xf18qOQg0qqXj1mciH+18jJ5+Yv/aI342aXQyANcpJSj0g6TNulseFDE6cZE7yOu/B8MAZQMLRj8j061dEjpu593Sr6RGiZ8NHYmGmcE60HlG7zYkLIofJG/kzgzZv9V3deULud/z/eb93GdDva+e577L+7lJlZ2dV91j3oHuq3vqqvJll51bRm6e3Of5fmfXkV1GvvwKBvVedj71LPuqnqv82XWo79l5su/le0fl4VUlJy9nfhNuvkaqW1sePG77tdy5l713QWWvpatCTy3BPCxYQfk09WHpH4vYj4x9PhQW87DOTZ1udDLDYWFz1LzMCcMMNcPo12VfFT5ux1eku/SJznJpLWNh9Im97SD1dkgAvxm3G4x+MzM4lAOkP+oYYS0PWo9hp2eEhZk/gG3kV4L4L8PkwclC+kp4DEvZqxt9DIAbU5Dg87Mn1nCjcvYfrapQ2YfTiCtQLg9h5ofYb10ePnbnN13iH3SvQy1hYfQxANcAiJBMc6QffEo6bdTF/1oatd7ASjdlA5uUYO23Lwwfs/MGKfZz5h/IAcobmMpey+hjAC4KIfjvSUFOigP8Qy1vuIpAOcoYqou9qGMoGPI99wI2L+rAboUg4i5ylwM295wcPnrnAzI+3wiMvjz6GECbswIA17bpuxD9cImfRFGOMvIRl7rvRR2qrmKvXsBW+TrSmPWDmYTdibn+2PAxO56qVSefQrpv1DGAlTxRgUloU10GUPkh5dRY/+tvDHCZL4NwcUFY+p/Fnv5jxDHbN9eyk08h6B51ui/j4EnECA2nqFOe5KeeRi0GJPuXjmCCxJ/uth4IxXa+ezQQP/t8VEkAIHUZoonGnLRmN7m0D22gzgRGLQPAglAwogVsLAenY9aFoaO6biAunkBM/lp17y2mL0cVA1A6/2ZtemiyiEUkojgD1JWAYsbMSMprBhm+O25vwtE9J4H4/yYt/ThgttY9/ArtpNHFAFysIOosTuBFlBpyhDrxFzpWRlo+Er+RTtiPhUKdx5DgR7q+P1AHjkoGMCFoiYzO6NdIdQYw0LgYDfdsKsCIB5GUxL8aXiELnePVRkPjVRtHJQPQWrCROwELoNL960xAjYfRc6XNHwIgvHrHykYvqK1AHuXqqFG3CiARFwmZcPDOyNlfMYFyYbReTm1ggOf1Yh4QwtouAV45OmXB0SkBaFvStmhJ9u3/qzOB2iDackOJ6Q8sYJssVh1cUu46fF7eqJIAlA83l3eg+/XICLcjyK/b52PNf+CRAej2Zv8B5h1Eo04CoOAHRgBnIL2zBk6a824kjMaauAhkaxtHY9NVm0cdA0A8QGnys4X1hobzph1TkEJH/ToqMEC/Lx6digNPcG7vOtlmN0rUqGh/ViNHHwNwdT24/70qJYAsZNTIV56twwGMI/UcZlYjcPsHTKh9OMdPpE1tezzhSgDKRdw/UHoCyehjAAqtQnvBcQTidFATSUamwbHmBsk+g8M9AbmKQe//Y7P9hWJLhIDHXntN61Gx7Xa7Ugv9BaQX0IxaBoB4Ti/wYEokf3sBEDqcnQltJWCA+FPd9q848+P2kUGEqaI1w04gQ0a2xhFunQhHzmEeNcPfZF949ceG6M9Ti56SFR7mhPjyqnI/1TP6GECbsxsQ678vZRKCoZ04o8ogoX7qGIfuOUa1TKARu9Qw41s92vnhw2LfJ5yJP7Tuke42PwQqPxYM4cBgA47XxqCmTGBDt8WZfPB1YOBj3HMCnnLlW/4c7TwBKJHn9+iGeIK41NooTI3OxOExqpIkAhL8P7SGTE/z+kBI2y2TlkzBP0uiHI6IRIXDOIOiCWO1y/6bpdtnhA/pXu2GpdLEia78gqz/v71ri42qCMMz57Ltli0FUryASAwSwqUiFCmWgAWjMfigkvDEg08+EBMTn+QBRUiMPumDMfHBJzE+CEYf1AgmsAKVSCEQjEoQMD5IVJCmeyvdPRe/b85Oe3pJodjdPd09Uw7nsnNm/vPP/Nf5Z2bg29nzmpplp2l4PXhvE7pzh9Us56gdeanlYDdetwRu4JW1hKDVA9bAmoIDp/pP4ICeaQoDGtM/VsJeKjfczOg+Uf9fP/4LG04DQAegtOdQYKF0QlwCiS0EgURJAjBC0bRasSpNziv4GbknsTn7HpsuPFmFdis2NTMEvNfymQyj2b4rH8I/1truFOUaMeR2YVWb9VAjOkDli6BJmGoCOL+W3gNMgfXAILjpJ/DhhuUgsuBROQXGRHATcjwqPgV84o851K261u9F8IyW9kSzNBAFkibxq2m/Sh+IILBVAKnhGIDCabps80mBTZ3ElnLnrQK6J62CJClBpJYoYm56zj9Qkt7uWZty10iM4jMwrdAONPJNpbWoxU0owfCuIdI4fw+S35K9gfsRhoCJLmJg9oPuoL8czGAVNIFloO5lyLMIL7bbCdEkmlAvS+FBUmbJw2dc8Dp8MF+QgiuwAJfmR5Br5FedK2JnQ3iHCFJPxOCqNjiRb6hKIMTnYg+Y/un0tj5nJsWXTh4rwtAXUP1EkqKSblgtEn0SQnnQP+y7xuuJnkwfwQlLfd7fSRrFEKghhMyF8Pv+mQUtt4YK8y3pLoSD4H7P8x+Au2ABIGlHGe2onRNlUgCyBVsnNEHUJ9BhbPAbCA7kALi457pKBu6GwFTuo9kSbCOuWEm4utpfQ/3Hjr6G6/h/mXOTS+XK6zniCnDzWxoyNaYGACnJ1jZN56xTMAcNUySxAiw7QbUYIncicklMZgrEBKcdhvWOAIK37U25NGEjk1LSPCT1+fxOUrlDB2MceIGdHCcJDWHEz9GD+uW1Ap7/UT5wmjjhfWoXWD9hviWsoi0SnpHN4gNM052TNDzhOZbsztwcOpnabjXJz8Vgucag3okLrcVTqv8twvAy4pBF4qcgaGD1n01QrQ5fi+aetE7a0FSjS72pXispuyF5STCV0wIgfUDgZDwSjkcTdqhwBrAQlRQHoT2/b2/MniLAEzn5+LwSSZHpPvQBbpYydjIMI+N2KKY4pU0wSr2z3rHajNfcjF9E+WAakUlKykNDgcT3V8sN+QtkbGAAShhEBsoqA9KYGgCRTAcaLV1DHEE37RaD6Oxkh1oPCJ+ZX7PKyZ6PzzdC9CaIPgnlGmwGQ3qXZdH/xGoyD8jHBq7yNUX4O1ANnXFVSmVNQRHGZFUiw+2VZDKSvXQm5neXels7rNlym5P1iyg3oXDKCsL45b3GJa91Cj+bDLJwe/DdcNljywjyuvSvuDnxjbUxd4H4riau9edF7azRGDW4Kg6P6gCwjYsnW9bZCaMPw0LhbjP1+gNvOMsIJAo9+Ta6JSQ9SdrJ+dfBYQ4bhvupuaFwRHc+pepPYqdPHZDavaElKv0WTinVB4JbDf9KEZiNgibgWs3CxJDvk3ZX7ihgjRkAukrDMoAwmZROpS7Adu1wuEswHFrh38Zca5nE88hBVdKAS4GBOHSTsYS8Csa5ggKP+Z78Kl+w0vOe6h/Q5Z0BkXR20g6vLxVUE5Z/om1uyXT7sNT2EsUEqAnULjlwslow847ZG3JbNaOqHTjRqblxTQC0gR4NABs8KBJ+B5xxQ3hMuR2MbbOdyCJpHPAPpG0auGDsIDFHjwGJHcNfHEkoFeXvsuSfw0IzJ+DS7zXtwk9WyInH+tLI3qMccKKEy7pL1GwUXjcN9GePpx4HI/zBTomHh5mAZqFV/HL4WdQIC1jtvnK1bMs4AQMNjQgtCQZ/bH6o2TSvCkTdKQtcY0XLeA50UY2nMuv5kO3yX/CIP+FNuoJNRi8i+y+Ob/3c1JW5qlV73buUis+bgOhr0P01JNU9a+bqn5nb5jjFo/AJrEVEI5keWafGcOWBwgALgqosN+99YXUVtmvTr/IVz4waqtcQEcUHmIAaB3ZOp7YjRHAJBLzHTSEh2B3o50MY4M5jHG3AN8x+z/H7E7Z/4/KNfP/SbYLawrhEFVik0cEDL3pd7SQ77mNv82CYCcDh5ixOHbLaxPMY+aBjlDpV5UZcRuAiw2Ufx9QIY0VzV/aSZvojWRr7quEZAJtfM4GpdAW+A0I3z7YK2ZlFh+5RtvyUhsymUt9MzRuWuKXTqX1Ws/+GMplKygSi16QyiT0bAZVWG0KqM2K/vT63926CqioDXHRKjRlAuS2OwT7vATEPN00nuk96+E6UJbqvrEg13IXf43RHGGDMBTOquIszs54Gq/wYJsG90AYYgck0/doAfLBWEprHkPjV+jq/inXfDaNX0NXxfyMdvo4/Mv60aGBAS2D6BVyv+AHWN9gJl6EAkdI3oF2q0wEsjQyBgCvpDHnddtfgKW2OTEfh9VRGzADqqTVnwLeECdHpa9kGS+pd+AaWiTycLg6chPQNMPT4/yQpilD9E9Aw9tvrCrHqPwkuYwYwCXLinyqDAWUSIBJTbckFYnfOJl/F4Opus022M34CwTqcEs2+eTemQQkBSLaT907Y6wY3K18NSsK/2GSboDljBjABUuJH1cFAWBvwz82Z47nFV0ClL5uz5T2cEu3eUoOydLdyAdQ70QpcBGOZWPzkpunIFYj3/zvshKzOV82sWmIGMLPaq+6gVRIakh7xE1wPQfgX21u9QmEnCH6XkRSPYL6ewOxCrmhEhyGlOBnBeGYQTLYyGI3pON4T9tpbxxltuS4UiMXy4zQaAzEDGI2P+K5GGBjLCAiGfz61xfW8F9FJnzVmYX0CBGlw6rRbxDhCMLOSun3ADOD2g+Zgujn/JWtN4SPtcKzR58yYamMGMGOaqjEAVYwgDY0AC7boL1ajBvLWVhD7C6D4zWZCLMbMymDaFUwFD3MOjTY1vfote01hT9i00GXE54kxEDOAifESP40ABsAMVFTlKGbwG5YvyydXY1OPjVgqvRu+wuUQ/isRz/mh9WhhF96hRhAHZEWg/WIQYgxMCwaoFVCq8xhboPrtfHKhfs57fR2fb4+B/wAN2q1bXRIzgwAAAABJRU5ErkJggg==;verticalAlign=bottom;html=1;rounded=0;labelBackgroundColor=none;strokeColor=none;fillColor=none;strokeWidth=1;dashed=0;" parent="1" vertex="1">
          <mxGeometry x="1270.51" y="830" width="76.48" height="79.47" as="geometry" />
        </mxCell>
        <mxCell id="XYBb2Tr0EMzCO1Vw7bGh-12" value="&lt;font style=&#39;font-size: 13.0px;&#39; face=&#39;Sans-Serif&#39; color=&#39;#2d3436&#39;&gt;Splunk&lt;/font&gt;" style="shape=image;verticalLabelPosition=top;labelBackgroundColor=default;verticalAlign=top;aspect=fixed;imageAspect=0;image=data:image/png,iVBORw0KGgoAAAANSUhEUgAAAQAAAAEACAYAAABccqhmAAAAAXNSR0IArs4c6QAAAOZlWElmTU0AKgAAAAgABgESAAMAAAABAAEAAAEaAAUAAAABAAAAVgEbAAUAAAABAAAAXgExAAIAAAAiAAAAZgEyAAIAAAAUAAAAiIdpAAQAAAABAAAAnAAAAAAAAABIAAAAAQAAAEgAAAABQWRvYmUgUGhvdG9zaG9wIENDIDIwMTkgKFdpbmRvd3MpADIwMTk6MDI6MjYgMTM6MzY6MzkAAASQBAACAAAAFAAAANKgAQADAAAAAQABAACgAgAEAAAAAQAAAQCgAwAEAAAAAQAAAQAAAAAAMjAxOTowMjoyNiAxMzozNjozOQChwSFzAAAACXBIWXMAAAsTAAALEwEAmpwYAAALNmlUWHRYTUw6Y29tLmFkb2JlLnhtcAAAAAAAPHg6eG1wbWV0YSB4bWxuczp4PSJhZG9iZTpuczptZXRhLyIgeDp4bXB0az0iWE1QIENvcmUgNS40LjAiPgogICA8cmRmOlJERiB4bWxuczpyZGY9Imh0dHA6Ly93d3cudzMub3JnLzE5OTkvMDIvMjItcmRmLXN5bnRheC1ucyMiPgogICAgICA8cmRmOkRlc2NyaXB0aW9uIHJkZjphYm91dD0iIgogICAgICAgICAgICB4bWxuczp4bXBNTT0iaHR0cDovL25zLmFkb2JlLmNvbS94YXAvMS4wL21tLyIKICAgICAgICAgICAgeG1sbnM6c3RFdnQ9Imh0dHA6Ly9ucy5hZG9iZS5jb20veGFwLzEuMC9zVHlwZS9SZXNvdXJjZUV2ZW50IyIKICAgICAgICAgICAgeG1sbnM6eG1wPSJodHRwOi8vbnMuYWRvYmUuY29tL3hhcC8xLjAvIgogICAgICAgICAgICB4bWxuczpwaG90b3Nob3A9Imh0dHA6Ly9ucy5hZG9iZS5jb20vcGhvdG9zaG9wLzEuMC8iCiAgICAgICAgICAgIHhtbG5zOmRjPSJodHRwOi8vcHVybC5vcmcvZGMvZWxlbWVudHMvMS4xLyIKICAgICAgICAgICAgeG1sbnM6dGlmZj0iaHR0cDovL25zLmFkb2JlLmNvbS90aWZmLzEuMC8iPgogICAgICAgICA8eG1wTU06SW5zdGFuY2VJRD54bXAuaWlkOmQxZGY4ZTQ3LTljMzEtNTI0Ny04YjM2LWEyNzg3Yzg5YzEzMjwveG1wTU06SW5zdGFuY2VJRD4KICAgICAgICAgPHhtcE1NOkRvY3VtZW50SUQ+YWRvYmU6ZG9jaWQ6cGhvdG9zaG9wOjAzYjYzMTNlLTE4OTgtOTM0YS05NzZhLWZmYjExNTE4MzVhNDwveG1wTU06RG9jdW1lbnRJRD4KICAgICAgICAgPHhtcE1NOk9yaWdpbmFsRG9jdW1lbnRJRD54bXAuZGlkOmVlMjdmZTkwLWIwM2MtMGI0My1iMzI2LWUxYzI3NzA2NTkxMTwveG1wTU06T3JpZ2luYWxEb2N1bWVudElEPgogICAgICAgICA8eG1wTU06SGlzdG9yeT4KICAgICAgICAgICAgPHJkZjpTZXE+CiAgICAgICAgICAgICAgIDxyZGY6bGkgcmRmOnBhcnNlVHlwZT0iUmVzb3VyY2UiPgogICAgICAgICAgICAgICAgICA8c3RFdnQ6c29mdHdhcmVBZ2VudD5BZG9iZSBQaG90b3Nob3AgQ0MgMjAxOSAoV2luZG93cyk8L3N0RXZ0OnNvZnR3YXJlQWdlbnQ+CiAgICAgICAgICAgICAgICAgIDxzdEV2dDp3aGVuPjIwMTktMDItMjZUMTM6MzY6MzkrMDE6MDA8L3N0RXZ0OndoZW4+CiAgICAgICAgICAgICAgICAgIDxzdEV2dDppbnN0YW5jZUlEPnhtcC5paWQ6ZWUyN2ZlOTAtYjAzYy0wYjQzLWIzMjYtZTFjMjc3MDY1OTExPC9zdEV2dDppbnN0YW5jZUlEPgogICAgICAgICAgICAgICAgICA8c3RFdnQ6YWN0aW9uPmNyZWF0ZWQ8L3N0RXZ0OmFjdGlvbj4KICAgICAgICAgICAgICAgPC9yZGY6bGk+CiAgICAgICAgICAgICAgIDxyZGY6bGkgcmRmOnBhcnNlVHlwZT0iUmVzb3VyY2UiPgogICAgICAgICAgICAgICAgICA8c3RFdnQ6c29mdHdhcmVBZ2VudD5BZG9iZSBQaG90b3Nob3AgQ0MgMjAxOSAoV2luZG93cyk8L3N0RXZ0OnNvZnR3YXJlQWdlbnQ+CiAgICAgICAgICAgICAgICAgIDxzdEV2dDpjaGFuZ2VkPi88L3N0RXZ0OmNoYW5nZWQ+CiAgICAgICAgICAgICAgICAgIDxzdEV2dDp3aGVuPjIwMTktMDItMjZUMTM6MzY6MzkrMDE6MDA8L3N0RXZ0OndoZW4+CiAgICAgICAgICAgICAgICAgIDxzdEV2dDppbnN0YW5jZUlEPnhtcC5paWQ6ZDFkZjhlNDctOWMzMS01MjQ3LThiMzYtYTI3ODdjODljMTMyPC9zdEV2dDppbnN0YW5jZUlEPgogICAgICAgICAgICAgICAgICA8c3RFdnQ6YWN0aW9uPnNhdmVkPC9zdEV2dDphY3Rpb24+CiAgICAgICAgICAgICAgIDwvcmRmOmxpPgogICAgICAgICAgICA8L3JkZjpTZXE+CiAgICAgICAgIDwveG1wTU06SGlzdG9yeT4KICAgICAgICAgPHhtcDpNb2RpZnlEYXRlPjIwMTktMDItMjZUMTM6MzY6MzkrMDE6MDA8L3htcDpNb2RpZnlEYXRlPgogICAgICAgICA8eG1wOkNyZWF0b3JUb29sPkFkb2JlIFBob3Rvc2hvcCBDQyAyMDE5IChXaW5kb3dzKTwveG1wOkNyZWF0b3JUb29sPgogICAgICAgICA8eG1wOk1ldGFkYXRhRGF0ZT4yMDE5LTAyLTI2VDEzOjM2OjM5KzAxOjAwPC94bXA6TWV0YWRhdGFEYXRlPgogICAgICAgICA8eG1wOkNyZWF0ZURhdGU+MjAxOS0wMi0yNlQxMzozNjozOSswMTowMDwveG1wOkNyZWF0ZURhdGU+CiAgICAgICAgIDxwaG90b3Nob3A6Q29sb3JNb2RlPjM8L3Bob3Rvc2hvcDpDb2xvck1vZGU+CiAgICAgICAgIDxwaG90b3Nob3A6RG9jdW1lbnRBbmNlc3RvcnM+CiAgICAgICAgICAgIDxyZGY6QmFnPgogICAgICAgICAgICAgICA8cmRmOmxpPmFkb2JlOmRvY2lkOnBob3Rvc2hvcDpiN2IxNWM2OC1hYzAxLTExNzgtOWQxYy1kN2M4MjllNDFiODQ8L3JkZjpsaT4KICAgICAgICAgICAgICAgPHJkZjpsaT5hZG9iZTpkb2NpZDpwaG90b3Nob3A6ZWE1ODA2NjItZDU1YS0xMWU1LTliZjUtZmUyMTVhNTA1MmZhPC9yZGY6bGk+CiAgICAgICAgICAgICAgIDxyZGY6bGk+eG1wLmRpZDowNzgwMTE3NDA3MjA2ODExODhDNkRFRENCMjcwQTc5NDwvcmRmOmxpPgogICAgICAgICAgICAgICA8cmRmOmxpPnhtcC5kaWQ6NmRhNzdmNmQtODU2OC00MjUwLTk0ZDMtNjQ1MjE0NDI5YzJmPC9yZGY6bGk+CiAgICAgICAgICAgICAgIDxyZGY6bGk+eG1wLmRpZDo5OUM4MkFDRTcwRkYxMUU3QTAwN0RFOTZCMUEwOEFFQzwvcmRmOmxpPgogICAgICAgICAgICAgICA8cmRmOmxpPnhtcC5kaWQ6RTVFRTM1MEQ0ODIwNjgxMTgzRDFDNDg0MzQ2MTRDRDk8L3JkZjpsaT4KICAgICAgICAgICAgPC9yZGY6QmFnPgogICAgICAgICA8L3Bob3Rvc2hvcDpEb2N1bWVudEFuY2VzdG9ycz4KICAgICAgICAgPGRjOmZvcm1hdD5pbWFnZS9wbmc8L2RjOmZvcm1hdD4KICAgICAgICAgPHRpZmY6T3JpZW50YXRpb24+MTwvdGlmZjpPcmllbnRhdGlvbj4KICAgICAgPC9yZGY6RGVzY3JpcHRpb24+CiAgIDwvcmRmOlJERj4KPC94OnhtcG1ldGE+CgpxBFIAACjsSURBVHgB7Z0JuGRleeer7tqNgAsyhBh2kAg6QZTwIKg0BBoT0Lg0GcJohIZuugUFNDGTqLRiZh4d42QUuu/tjUVNEFBc0KAjjEgEnCgRF3Al0C1iXFpB6L57zf936ry3z60+p5Z7q4rbzf99nn+d73znW97v9y1nqVP3lko2EzABEzABEzABEzABEzABEzABEzABEzABEzABEzABEzABEzABEzABEzABEzABEzABEzABEzABEzABEzABEzABEzABEzABEzABEzABEzABEzABEzABEzABEzABEzABEzABEzABEzABEzABEzABEzABEzABEzABEzABEzABEzABEzABEzABEzABEzABEzABEzABEzABEzABEzABEzABEzABEzABEzABEzABEzABEzABEzABEzABEzABEzABEzABEzABEzABEzABEzABEzABEzABEzABEzABEzABEzABEzABEzABEzABEzABEzABEzABEzABEzABEzABEzABEzABEzABEzABEzABEzABEzABEzABEzABEzABEzABEzABEzABEzABEzABEzABEzABEzABEzABEzABEzABEzABEzABEzABEzABEzABEzABEzABEzABEzABEzABEzABEzABEzABEzABEzABEzABEzABEzABEzABEzABEzABEzABEzABEzABEzABEzABEzABEzABEzABEzABEzABEzABEzABEzABEzABEzABEzABEzABEzABEzABEzABEzABEzABEzABEzABEzABEzABEzABEzABEzABEzABEzABEzABEzABEzABEzABEzABEzABEzABEzABEzABEzABEzABEzABEzABEzABEzABEzABEzABEzABEzCB+UygPJ+dm8e+wa2nCf8qSjPVRDonaR+B3iaLol/oH5sJtESg1UWz1fQtOePEcyLwlO+bpzyAFocPZ33OHMdLfyVNSnlGmj2k26T3SZFPQVsHCDCOOZsPSpdLR0rbpKKrtD4de6d0rxR5FbSZQH0CcXn5BiVjwDXSF9PiIl/90n10tgTiRLa7Cviu1KhfOP6KtLKiRSI9vGtvWAltrRN4QlkYRJzp84wrgwHpN3kHHdcxAnD/dVr6uLZ5k5t+Y9yPpume0hsvALPrfs44iDM7AyrOQAomRhzmM3+VQ7c+o0+oj8mfxz/6prbPuuXjvKonb4WcVw7upM7E4IrBtpM2w27v6gS8AOzqPez2mUAdAr4FqAPHh0yg0wRWrVrFSTg5ER9xxBGVM888s+ibpU674vKbIBD3lK9TWi7vEQ8CIxzbiTTuRm2xyFfd82e7CcQt124q+C6Jfog+iD6JbfTXyakTT9pVcDr5Uzeqm+uvv76rY8VXADPwe8cEukOAic7Z/or16w/omSydUi5V+iuTpe8o7o5KpVKWsWB13J601a/jLXMFJjBPCcTkX7127R/1TVY+XC5PPVYpV35Y7i0tXTO87jImf97VQSea4wWgE1RdpgkUEGBic+Zft27dPqVKz2Wa+NdUpkoH9ZR6XlKulK/TN8rHamF4pdJNdWMR8AJQ0FGONoFOENCDvuR5xdhk6cRyaepOPZB4pFwuHaXL/r30KPCFpfLUai0Cr+xE3XllegHIo+I4E+gwgZ4eTftSebR3auqJSqn8DFV35BQLQqUypkeYXZuXfgjY4Y528SaQJXDfffclD/d6KpP/OlXqWVHp6fm+HgDeoPv+zaWp8nE9pfJzp0rl27N5Ohme60rD5UytOulvK2XX+sW+bf4QqO2f+eNZBz3h3p6HgMuXL/9xuac0pAf+/1WX//9RmSg/KiAHVUqVJ1YuP+8aXCBtB11Jip7NAkAerhzi+8r4fjW22eOtTLraAZG334hHtm7Shk+xxWd8n027Ka+dlte+vLi51plXZl5co3ry8tTG1SuDtFn+0Sex5Th9gwjPV6MNMfZn5SMPAXnAd8H55/9TX7nyrnKp5+hST2WxRuttK5YvuygtdF4xwBkmTd7E4RhA8o4pejpfpxo0W9/C71b8io73i0D0bHPGuAhutTmIr3esaEzVlhN92OkXgbK+Esa/qLvWp4b7WgRY7GYY7wAoYtZlziisiZ0dHMjJQyNZpeNyZH+F+YMYL5AOlPaU+OkrrzBulX4h3Z/qbm0fk8KAVvSqY6z81JVnQCFv+EEafGM/8hyi8HESvuEnf5QD33grjJ/wPix9R/qa9G0pfKnnl5J1xBis/RL+1+tw/A4/FWzZFioHDBrVQ9/BKc8a9Q15aEO8fRf79E/4zm/1Y9w8T+FnSfhGmhGJn07/WPqWdLu0RcKij6t7T95ntOU0uQCrr2RcgQ/tjHGYOVQc1AKQ8P7Qhz40uGXLlkleBdazgOBVnLGNRxotANmJcYrqXSGdIO3dhA8MuM0SnfkR6TaptnEMGqAdJH1Bin0FZxj5GDCU8zaJdPgWA/aPFV4pMflJ18h+qwT/Jm2QPi7x23DKw+eWOlHpZ2sfVUYmBIOJwZW18IGJ+1qJ11vxr5afogot0l+pFK+W+J08cVmLehgH8PuMFPmiL/CBV5r/QGKiEl9rcGOxXSLdKbGw8Xt8/D1IepOED4Tz8it6hm3W3qekv5cekiJP+Kuorhp8GGsvlT6b1vw5bddKt0qMH6yZxYq2VIaHh3cTnEWlyd3vXLny7ORvGPBsoJtvASYe1/mIwfIcpWGSAD9Ex9LBCDBZRVykje3tSvcKicERFgP/9xUR6eptb0gzRhmHav/mmryNfON4to5vaJ8FJCx8iv3sNpjM5RYgBjNXR1k/isKLUgei7qw/9cKRnoFaVHY2/qyaesJP/swWV3TZtEVhThJhcHyH9JiUTV9v3HAsFmHyPCqxeISFT7Ef24jfTRHt/i1AcGSscXWbbQthxs9bpGZOPKX0Er/EZF8zvPYba4bWbVo9tO4cLQgxppNjKq8rVjTYaTQThVX/q9KZ6X5MHoCzKiLSUg5xiDACDp1JHrYvkz6fbrWZTkOYNCwikYf0WY1pH4stA2WxRGf/iUTarG/4FL4RDhGX9Y06j5aYJH8nYZRFmk4bZ34MH7JtjbawhQdtnYtFPTG5autiHwu21b3tn/jweLqb5yv5icfgjB0sfUW6XOLKIMYAZWXHTfQL24hXMOFBmdxeXiFxJYCRPyZ7EtHhD/zCd25fOPM/W8Iv/AiOjJ9/kL4prZH2kbBcP3WJnxzkQaCSbNnz6Xvu19/ft1Ff/X9jzdq1b+R2oHqslCwEsWAkmTrwkTfQiaPRB0pMjAMkBk90Fi2IxgGCtOyTLxSAiCdfDLJ/Vvg2CSNNlBP5YxvlZLfk4XIUe6N0i0SH4Bv5EL5EXYRjn7qyFvUw6EjD8b+RbpLCX+rupEX52TZmw9EmtnOxevUEB8qvV0+9MjgWeX+i8MHSV6TjpZgsMI00sK7tD0VNW/hE39CX9M+l0rslLHyp7nXuk3qoG+MWiKtUxhp+hY+Rhvj9pKdJ8exCwR1NEzoiyyqlb2RkpDQxMTHe19//gsGBBVcNDC68e2jdujdwRcBCwO8CuFpQpuAX+duyrYVJJTGB1iv8HInGTV+eKBxGS0gfE2azwg9JXCZRbjgNRKBxn3SJRD6OTZNQuJFF2geU8HjpqjQDZVMXfrClnqiXLYrj0ZmKmmGkwRisfypdz44MDpTbKYs2FZXfrrob1VNUfyvxMITvsRJnyhg3EY8PtCermNyKLjT6DmHvkk6SqCf6TMGOGH4GtyGFudpkfOTNA0Un8ddo+waJ+ZLNr91cS8rv6UmaVx4fH58aHR2d7B8YOKq/b+CaqUrP13RF8Homf3pFwA+EYvHJLXA2kRSYNbwB8BLpZKmo0dGhbD8sfUT6uUSnLpAYAED7M+lgCbtc+r5EnZTbioWfPEg6J82In4DGZx5OcbXyf6QHpcekZ0qHSqdLp0gMmqLBQznUQee9Rnqv9A4peChoa0CAvh+WgjPsgitZ6aPodybSIJEy+iTSJhE1H5RBPvrn3dJtUvR9TFJFtdWi3/9WpS6XaBvtqrXwiyvHc9KD5CV9rqV3ANVjevc3c0VAvtLYmH4lIG4DgwMv1PbaX/360TcPDa374OGHH3rDokWLEn4sCkuWLJni6oA8c7Gk0kwB4fib0rja40TH5Cd8rsQDkK9Lm6SfSD+Sbpe4pD5SotNulT4kYTSwVSsrA/UeJu0t4Se+oU9LR0uvkxiAX5DuknjeQJ2nSidK35JicCqYawwy6qHjT5TwNa/jFd1xm3PndtzDmRUwqWFF39BfhH8tbZTOkl4mvVg6RlokMcbukEgX/atgrtEv9MUJ0vFpCvJ0wmgHdb1eeq8U4722vpj8tyoNJzrSRfsVzLe4A9DZvEff+O/R3091CTO4YZTRo4Vgamx0dGpgYODF/YMD//i9H/z4riuH1sGxVHNrQNSsjQkUFp3wO4p4fhpZ22iiw9FPKny1ROckTmtLeYh9xKq/SjpD+q0UdSjYskXeqJ99JjiX7fdL2Xqj/vDndh1nAN4hcYwOzjPKjPLfrzD5i9Lm5W9nHL7sbBaLFtz45ugoaal0nfSv0vel70ks0Ksl+oQTSEyyyK+oHSx4vDY9Evs7JJxDBLORq0AWmWvScsK3dDfZxOSnTa+SyFNvXCWZ+EjP2mUtAFN6CLDh8ccf/9ng4OBAX19fjLUYf/pZQJmFYBINDPS/eHCg/x9XD6+9e82ata9lAUlvDcpcEcz2YSGVhkX4eYrgyW2RBXgajwGISYLjIfYRaSl3Wxqu18FK0tAojzIo82MSgwcDPnVHvbENf+jYR6VXSw9JkV7BHSw6kjNVsuJqS1y3ba6suu0v9cGbvrlS+i/SJgl2nCSIz4o4+pNF/CIJI38j4yoAayZtNWVzn/jJRD5UuknCN8YRPmctJj8LGVeXT0i0hbTNWtK3K5afN9zfWz5ybGzkLycmJh9csGBBr64IqI+yon341csiwHOCwYHBY/sHB2/cZ9/n3LF6eP0SHUv+jmDmYaGimrfaxpHzGVI8bc8rKQbmPunBepODtDQkJm5eea3EURb1PSBxCYmx3wg+Hcsi8CspBpuCDW1ZmiLa0DBDGxPAbGcy+oC++LJ0oYRF3zBpYJgVcbQRsWB8WYr0ChbavjrC2GNstYtR1Psslcnk31vCP+KzFpP/p4pcLP1GYvIT37JxFj/vvPO2XLBs2Qf6e0sv2jYycsn4+MT3dUXQ29eXLATwirHdq0le5tZgfHxsUmle0t/Xe/3Q8Po79IyAq5Dk1oBtK98a5C0AfB9MxUUW0Kn0mRLpgVDPYtGol6aVY3+nxJzRmdQBqFH+GHA8pb5Fou1FHRdcTlCaYyX8jzgFu2LtZtZJp/E1Jst70oqaOSsyziLf+gYOxrh7utLtl6ZtR59QBmOI8rlV4faXcVE7piPuMR07RdqUpiF+VsZtAJfu2vaxEKxcfv4/DPSVjxkd3XaBvhq8T/f/PVIsTklaVYS/vXxjoDSV/oH+E3r7+z6lPyX25dXDw9wO1y4ERBVaFmAMuAeVmsuaIgtgBynBRyQcDDhFedoRz2Ch7h9IH0sLbAV+dpDiN4bvecZgoGzqOykvQRfiYsB3oao5VxFj5x6V9H8luDXbN3Gy+Yby/FKiTyJOwR1sd8XstUPs3CM2qggmdt5YZoFgQRiVOPPfl+4320Ylzzcu3bUATLAQcOZeunTpb1csXz48Prr16LHx0aVjY+P3ckWQ3hrAJU54XBHwrcGUFoIppXl5X+/ATVwR6BnB6Uo3/SfG0yuCXAfoqLCATuMeSSOjYyNNbOkkHPkT6WaJVRkYnJE7bZ9TBXQEPhT5V+RDwOMKgK8tmWRFZQSbWAAib1HZjq8+ZG2VQ/D/oTLSJ/WMtPTZwjTRXBbJyMu4fYf0Rolw7ZmfeRHjnaveu9M0pG2bsRDwUC8Wgje/+c2jK5Yt27jticeOGxsZff3E+Pg9LALZK4K0csZpD1cEk5PTVwSfHRpe9yX9bUFevU+uCLjdWLWqQtpoN4eSlToJpB8xqa5N92NRyKaJcEA5TRG3S4dK8TR0RiWRoU3bm9JyYuC0UmwMIN7W+n8Nyok2vEDpOOtgEVfd82cQiL74bkS0sCVvjKWfpfmivKJiGMhztajjHBV0uRR+ZMtl/EddPNT8gsQC0dbJr/KmLRYCIrg1uPTSS7ddcMH5H/3ZIw8fMzE5/uejY6NfYxHg9kCLBcnixARDnhFoIZicGhhccHJfT9/n9VuDW/VC0WKVpT8yWqY9M/7icDSOgrCAskbhTRKNjQoU3MGoFBh/IDGh+C6e9HkwFT1rozx85Qzxo1mXUs0Yk/ibaTnR5qJiubrZLz0YeYvSPtXjfzFHAFubzF87bpvMliSLPtymvROl4SS2OmbjGFEx5gifL90oxXgnruOmSTt9a8AE5g+I/PyRw04Ynxhbool+V29vb5nbAzkypV8ZxYtBycPC0dERFoLK4ILBk3rKvbesWbvulqGh9SfjdHUxWJUwzLvcIY4z5EqJy/tqBdtXQkXNsFgkeCB4g/Q+6a8lFgLy1ltAdLgpi8swbk94ko81mrjVVDt+Ric/kB5qVM6g0h0g3S9F3jRrRzf41c362tEYbs2w2frNFSRWlD+YFB2v5m7u81ol+12J29bsmZ7c2THxNu2vl9o1lim/aeOKQImTOaSJ27dqVfI2IIvRjbrXf7Um+Vv0DsHLe3p7S3pxiHK5jcBXVOLWQGX06OvDxfoacbGeEXyxXJp8i/4k2fdUXvVFZBJmjDM6mbnXpvEYq0W9iUz65PJC27dLt0oHSOSpXWQU1bJFhzD5+dahHcYihxUNJuKpl+0+UretyK9u+9FKfXPtm+jnojrbyeQQVcKzhNrJT93EURcT/++lWCQUfPJME3b6igAvVqxYdtMFy85bpFuDM8bGRm/jdwWDepcgXTTCUc3NSrIQaGEY2+vZe52qP0bKs7vSvvvu21s0OZm4THoaD4j/KTHJiWebZ6SnA1lATpLuks6SbpfIEwuEgrM2vnfFqIvy5mLZBSAmem15Ef+09EA7B2BtXTvzfnBpNIHnSxuzkz58z/rG+MJOlY6UeLbBXGFsP6lWe0WgfXziSv3m1Ws3vKIysu3int7+U3VHUJqamkrGrx4V0EbeFpx64gnussqP6yOxaGjsZ7dk5vgHJB6APCExkamwqKOpKEDtq/Bt0lKJhYNjebAV3bTxOjFWz+9qisafjS43syXM1e9sWbtyeGfhxLXy/5J4DoDPteOZOMbs/tInpD0kxn07xp2KaY9xRaCSkq8P+apv5bKl/3zB8mWLK5Njh2ry36VbA9oxfaLUAlDW/yNQVPJtQOJEvQYBhcxM+o9Lx0uxEsYxReUai0BcRaxX+N1SOIIHs7W5XmJm66VdjSx8BXS3rXZQzrb+aMNs88+nfO1iwqX/B6XVaePy+pfxwUnicOlqCaP+ecVTi0DiT/q7gNIVw8NH6/8KXCxHD9AigM87+KvHCtMci24ByBjGRCbdvdJxErcFPBXFAFdUBgBj0r8rTfe32rLoTDugcDMW6RekiWO/mbxFaXhoieFj0WIQ8OLWox31JpU28RF1N5G0bpLwObZ1E8/zg+1gAgfKeZ70VxJvzx0iMc5rxwH3/sS/RnqPFOM4b8HQ4e4ZZ/z0J8HJHBsa2vDiSnnqEnlw5m677dY3OjpW4r0A7U8z0+0CDwg1X7c/+yuavLUtocHA4RJ8mfQv0pDESlpvEYjJDsS/kX4oXS1RFnHNWjRizzRDOwZzvE1WVFbAo30Pt7HeaHO0KfZrt1F/bXyr+7WDutX8u2p6+DN5zpW+LMEpj3mM4XfqOF8df1Ji3jwZiwCvDSfjJs74Q0NDmvg9by2VK69ZMLhggL8wtHXr1pivMcZop/4JUY+eES7k+PSYb3YBUP7pS3rC10r3SBulYyQmc9FAw4lw5AqFvyqxEAC2VXtGmoEGUeZ0Q1ooKPLsn+YJ34qK4LbjofRg5C1K20p8o7Ia+dWorih/t0YJn6LH4wT0FbWfK9P/LhFXOyfohxhvVyv8I+lbUqsnMWWZvdWe8desWX98uadykf6T0BJNat4ELGnyxzyMNuB3Rc8C9OOiPo4/tGXLL1brZ4XX48myZcsmImGznlEgRr7vSC+VNkp/LgWkvIHLZGdV4mk6VwLnSKSLQapgXYsy/5NScdXBw5vZWtTJvV0ztlmJfpomjLzN5GuUJgZgUTrqot2zWSjJF30FLywYVvf8GQSYyP9DWiSdIjFOa+cFfUB/8TDw49IfSlwNEx+cFWy78YCvh/8nmDnjHzdV7tGtS+WVgwsX9oxs2xYTH1/iJIxPFb0oxG8ISiOjIw/p58ar9dPj9eedt3xL1Uv+BUGZ+4FZWUDiaerZEoVeKMUioOAOFgN5sY4wkXmrLxzeIXFNROTljcO9pU0SA3o2EzIm1tHKjxVNDNqCf1+X6PyidDo0K6s3cKiLOqmfQYfNpn6umOJZR1LITv4RfdfOZgTX81Qoz7lgRt/EmFMwMfqCcf/70jUSzwVivM9mHCp7sWXO+MmJYvXqdS/VaODh3mv0dwOSl340+WMexjzCj6nMGX+T3gq+cnJ8dMOFF174K2rTLUTfZZddlvyxUfZnuwCQl8qBBISLJCbmn0kxcBWcYQGadP9Z+pJE/qSB2tYz8lIPVxBHSSwAs7Hw90XKfEhaQPhVW1506hfSA+Rtp8GvnkX98MJiv7pX/5M2kX5f6XfTpEXtTA/vFJtOtIFxxTxgTF0gXScVGenot1dL75HeJTEumhnDStbQkjN++nCvOvHXrXtpz1TpL9WZpy9cuLCsy/jK6MgIPlNvzF/2q2d8/U5AC8ND4xMTV5Ymx9evXLny19SaWVAmtAgQlVgUEPutbgMeUN4pvULaU2Lw5XVWpI9BnZdGWXMtJsBZOvoZCQCU14qxUpLnNGlAAnKsngpOW/j5S8XwzAIralP1aOufXD01Y7+XJor2N5MnuHK2epZU1M5mynoqpGH8Mg64vD9JWiYRlzc/SEdfMN6/Ld0g9Uvj0qxtiZ7qH5m51F+7duPLJ0uTl5Qr5VfpfX4u80vb8s/4kzrjc5NfGt02snlictuHe0tTV+lVX8ZuduIzBnawvAaSiMmFNTPBAh4P9u6RTkzz1U4sBmWUB7BWLQY192n7S5sk/IwyFaxr5KeTuIrgtgWLMqt72z9jst2qqAck2tLuScQ9JBZ1Vfe2f0YfLFLU5dujWwqd21Lqp3bi6IeLheEE6Qgpr88ZM4w5ttdK35Xuk2KMKNi8cWbW/f3UDfopMCvJ8PCGRVPlqbfpPb4/1lN9XuGtaPLrhz76/8GV6QWJ+pMzvn4V2KeFIbnHXzDYt/acc875DbVnLvVzJz5psLwFIBrIcRqVVMZOE/aTNA1l5FnE13UqL6PimBAsNntJfN+JiMO/Zoy2sgAw+Tkz5nWuohOjXOzK6qZwkqaHW9rAgMG2uUGuYPUypeO255sSbYBBPYuz0UlKdHqakH7cFQxuwaXd7WEcwZcHzEulr0pwy6szxuICHeeJ+kukx6RWxqOSb//rPWvWrTtJNb1VT/WTic8ZX5rQgzp80Gu8SfJkLnLCl5VGR0Y3b8054/PQUAvAjEv9JHfOBw3OWjTgREVyifxFCeA4UW/SRqfsp3RY1d1qOD6Ji/KTBxIF6SJ93jb8ZZX+lHS7hJ9jUj0jH5Ofe2Ke+GL4kmdMMNJ/WrpDom3NLjJK2tCCFRMay2NFPOlikcJnbq/wjQnONpuPtLSHLe18jrRBwvC9qK1Jgp3oI9h1yuXo+7tVwX+T3ifRBzHuFJw24kh/pHS1xENB+gQfs32j3R1sOg2/1dcbuhf3lntP6xvo16ROJn70e59e3CHz9MTX5NfCsO1B3eOvLk1tv8fnjC9NxrcFO9RYEJFtGE7FQB9W+LnSudJVUjgUDYsteSiDCfh8ia9HsLwBRx7S8/T/WxIW9VX3mvuMAf1PSn6ydL/EAoVRR/jGPvVxjEkxKLFa17snpuzo2MsUxmgL7W+3PaACY3AFm9o68B2fTpN4h+JCibaE4Vu0OXw8SnG080Ap+k1BW5MEmNSMm/dLJ0qx8GbniqITi7GSfSgYcZGmdkvZiemfgw4N9C9Yzj8L4VKfP+ShA/RpjGf2Z3yPrzRX9Pf2bORvCFIItxBxxme/VaOysKiU3/Iz+bGN0ieluGTGocQpbRl4hJn83FdzubxQYtBNN1LhMNJjXFr9VKK+iFOwKYv01MvZnCuUxRJ1oqxv4R8T5nekz0snSPUmBfmxd0v3SnQm6dtpUQfvUcRVQMTl1ROT/E06+C/SEmk/CcbR3r0Vfpn0v6U7pMMk/M7rB0XvtBb93+kGxLw4XxVxtco4KOqjGMfvVJrXSXEVoeCOlp7Rq3+Vp1x+IT/O0eQfVUr6irKiX3m418OfCte/Dtw0MjL69m295aP1898PMPk545OWM77CRb4pSX2jEIwG4/jB0jskLAYQq9sp0sela6QfSI9LOMoT/+OlVdIREnloRJ6RHuNXWFirnUkj8ZNyqIf935Nukbgd2CBxZfEbibZwxmeROEO6RNpHqucfC0W/9DnpvRJG+nYb7YY7nf4xia8kG1m0Gdbo5xJPeR+VWHyfLbEI4D8WfsdAps7gnyTYST+61Qb40UcPS8ulG6UiwyfGIturpB9JLOzkZxzOsPjXYExa/bmux9N7e9JilBNf53Gpr4d7Ex+uTD5t48qVZ09/nTeXM35SS+YjKo7J+EEdY0BlJwrh3aWlqTZryxmcBu8vcXbFcL5o8nOVMCANS1+VGJikjwGqYF2LtJ9RKi7hT5ACLmX8aSomxSaJybWHdLiUnRRF/lEW6e6Rzpaw8LG6197PmKDrVOxF0kFSlnlebfhOGvziRSpUa7SDdLHI3JwmOF3bYJhGedOAQLD8hNKtllZKxMWcUXDa6JOYJ9crfJS0VdphDDHhYxHQ0Z40TN+Uqt/m6R5fb+5NjWy9Qo/9r46v8zjjpy/wxNghy5wNB2PAnKrwq9ISGUCxKMRxKsbR/aRjpT+UmPwRT1m1RhnjEpP/69JbJCzKru41/oxG36ek3A8/ItERxFMWfiHOhEdLx0nPl5jUkYZ21Bp5OE5ZPPhZLHFWJS3HOmX4TB1cSbEAYDGIqnv5n9GGaG92S5kx4GjPndIZ0mMS1sn2VGvo/Ger42auHkV9l6qge6UYc3nlwn5EOkzitnl3CeacKKdtxk7yNzv0491yuZ9LfT3Y+/eRrVvfvqC/7yj+WQiTn4nP7/i15RuB8Ge6vLkGYsBQzu3S6yUuL2kovsbkIczgi/TEIxoY8QomhpOI1ZJ8TELKZnJxZiZ9qw2hHOwg6QmJy+DvSZQdAxvfKDfrG/vUF/kVTIw8+Ecejt8g/ZH0y3SfMpqxaAfbWjXKTx3Uzy3H2yR8xBf8inIV3MFIR74Q+yjKo4zrpJMkjCumsDwf69WVzUe4Nn92P45nt4RnY9lyI9xsOaQPi7y12zjeaBvjm3G7VIIxfKMOtjGW6IMFEsZYZ/HF6Kdpi4xJRLm0YOHC3fh7ng/qn4G8VW/uvWjFiuXv57t8Hu5p0utPeXdm4k87lAZwPuxABa6VstBoJGdyBicQEHEo9jlGGuIiL9+pXi5F+TNgKD72n6sw5US+2i3lEne1FMbA/owUacmf9bHIv0jP9iHpHCmMzq1ncXyJEmXLqQ0Hg5vSwiJfXtnBZpkO8nJQlBXtCb7RHrbE5fHmPvFiKWuf1Q5lhk9Rfu2WNmHha/jF1du/SbXp8/ZZRLEoo7rX+DPSwyuv3Nq4M9MiOVFh4etuCn9Nqk2ftx++xhiknCKLergSoCwWhFioo2xOHozHv5D2lcInBbcbZ3P2rrrqqgX62/3X6T/6vGfDhg17RIo448d+N7c4Fg2l3uMkFoJfSdHIZre/UJ410hFSWB7oiGt2AbgmLYwzf9i5CjwkNesb6X4o/bXELQNG28OXJKLgIwbqWTrOcw2uRhD3e1k9pn3quVHCIl91b+Zntu7DdeijErcGrbSHiX+ldIiEUWYw+oTClMXiwoKcVfjMwkmbsPCVMjDOaiwADHj8ijzZbSxcJ+s41gzLasrqZ9QZixXlZcsnDOeo5+xqtunxGr5y2X2XRHvxNdtWwlEm7T1Fwpr1Ner4tPJE31DerdIFUrBXsLEx0YeHh58eKeOMH/vd2kajsvUFEM4Y2P7SIukY6UiJ+35WrEEJAyawH5G+I90t3SY9LGGUF8CSiMwHx6iHBeB+KepWcIYx+FicrpX+Qop04eMzFHeGRKey6Dxb4mxAOiYqE/InEgP5Dgn/8BmjXMpvxuBFW54pHSgVGWkol8Xz36XIp2ChMQk4s2PPk2jL8dJh0rOkaA+8mQz/Id0n3Sl9SdosYVFO1Hmo4vaSaCNxWcNPjPgHpC1pOOK1mxxjYaJ+eNeWoaiECfXyDRGTtFULXw9WRtjCoage+hSmLHqRT8HEOIavjM9sGdn2kJB035cYF80aeWj/AdLV0helm6VvS2GkwSfS1dYZaWZsmfjpj3+aSj8jcxt28iBHsXQoTtGYsH4F9pQ4KzDAMUCPSo9KTLYwYGDZ/NWY7Z8BdTYLAOXiP2XExKFkOp9vMgYkjnOMhzMM7qwvee1TkifV8pjBm/bAPgYXvJlonNXC8vLGsV1xC4tuT5q8OomDPb6EFGxs3A504sFe45q3p4hJvD1meygmFQ1ksmCcfTirFRnpSE/e7GQrSj/XeIBTV/hInUyMorMQ7SUP6aJ9CrZs1IcaWUsDQoUFMwYUYp+zVNGZqhne7fA1Fhe5UtfC/7qJ6hzspq+t9g1ukyeMsUR70azG0pM9+WlIvQWA4xiNjkvkGPSxTRKkH6SbFYhsIbMM1/pY5F+0Y5bVTGejPtQpi4EVE6KoPc3wboevc53YzXLaWXylP9o1lppl05F0zSwA2Ypj0Mc2e2y+hNsxiOZTW/BlPvOeL6y66ccu0x/NXtp1E67rMgET6BIBLwBdAu1qTGA+EvACMB97xT6ZQJcIeAHoEmhXYwLzkYAXgPnYK/bJBLpEwAtAl0C7GhOYjwS8AMzHXrFPJtAlAl4AugTa1ZjAfCTgBWA+9op9MoEuEfAC0CXQrsYE5iMBLwDzsVfskwl0icB8XADiPevYgiLCse0SHldjArs2gfm0AIQv8cu32NIDcSy2u3avuHUm0CUCrf4asJNuxc8rOctnJz91cozfvnfrZ6nUaTOBXZ5A7UR7shrMQrRvg8o5+/OHPvjLPjYTMAETMAETMIG5EJgvVwC0oZn7e24P/CBwLj3uvCZgAiZgAiZgAiZgAiZgAiZgAiZgAiZgAiZgAiZgAiZgAiZgAiZgAiZgAiZgAiZgAiZgAiZgAiZgAiZgAiZgAiZgAiZgAiZgAiZgAiZgAiZgAiZgAiZgAiZgAiZgAiZgAiZgAiZgAiZgAiZgAiZgAiZgAiZgAiZgAiZgAiZgAiZgAiZgAiZgAiZgAiZgAiZgAiZgAiZgAiZgAiZgAiZgAiZgAiZgAiZgAiZgAiZgAiZgAiZgAiZgAiZgAiZgAiZgAiZgAiZgAiZgAiZgAiZgAiZgAiZgAiZgAiZgAiZgAiZgAiZgAiZgAiZgAiZgAiZgAiZgAiZgAiZgAiZgAiZgAiZgAiZgAiZgAiZgAiZgAiZgAiZgAiZgAiZgAiZgAiZgAiZgAiZgAiZgAiZgAiZgAiZgAiZgAiZgAiZgAiZgAiZgAiZgAiZgAiZgAiZgAiZgAiZgAiZgAiZgAiZgAiZgAiZgAiZgAiZgAiZgAiZgAiZgAiZgAiZgAiZgAiZgAiZgAiZgAiZgAiZgAiZgAiZgAiZgAiZgAiZgAiZgAiZgAiZgAiZgAiZgAiZgAiZgAiZgAiZgAiZgAiZgAiZgAiZgAiZgAiZgAiZgAiZgAiZgAiZgAiZgAiZgAiZgAiZgAiZgAiZgAiZgAiZgAiZgAiZgAiZgAiZgAiZgAiZgAiZgAiZgAiZgAiZgAiZgAiZgAjsNgf8PHYnXDH7axGcAAAAASUVORK5CYII=;verticalAlign=bottom;html=1;rounded=0;labelBackgroundColor=none;strokeColor=none;fillColor=none;strokeWidth=1;dashed=0;" parent="1" vertex="1">
          <mxGeometry x="1269.25" y="659.5" width="77.5" height="77.5" as="geometry" />
        </mxCell>
        <mxCell id="XYBb2Tr0EMzCO1Vw7bGh-13" value="&lt;font style=&#39;font-size: 13.0px;&#39; face=&#39;Sans-Serif&#39; color=&#39;#2d3436&#39;&gt;Zabbix&lt;/font&gt;" style="shape=image;verticalLabelPosition=top;labelBackgroundColor=default;verticalAlign=top;aspect=fixed;imageAspect=0;image=data:image/png,iVBORw0KGgoAAAANSUhEUgAAAQAAAAEACAYAAABccqhmAAAABGdBTUEAALGPC/xhBQAAACBjSFJNAAB6JgAAgIQAAPoAAACA6AAAdTAAAOpgAAA6mAAAF3CculE8AAAABmJLR0QA/wD/AP+gvaeTAAAAB3RJTUUH5AYdCzAeRS5tpwAAUYRJREFUeNrtnXmcZUV597917u19mbVnYYCZYRsYGUBRQNaBGTSIJsG4RI0atlffBMwoanxd8jEaEiNRUZb4vko0vuZNQBHUECWA7Lswwgyb7DDD7D3T03vfe0+9f9RZ6qz3nHtv9+2h6/f59Ez3qXOqnqpT9dTz/OqpOoIasAGwoVCAJcDJwGnAKcChQLGWPA0MDDKhDDwL3A3cCdxTgc0WVFbVkJnIc/PjgASrAAcD7wT+CDgSmJs3LwMDg7oggX5gI/Bz4D9teB6wj8qRSaZB+xDwFuAJWAS8B/gosApoa3YrGBgYMI4yzP8V+OkbYOvDwHEZHqyqADYAEooWnAR8CjgT6Gh2jQ0MDCIYBW4BvmXDPQLK1dyCRAVwNzAPKEOXBe8D/hpY0ewaGhgYVMUzwD9W4LoWGN6FIujikKgANqj/5gpYB/wFSh8YGBjsG9gFXC3hcqA/yRKIKICbgaVACeZY8DkJfwl0Nbs2BgYGuTEs4CobvtYCu18G3h66wQo/sQSYgG4B66Sa+c3gNzDYN9El4S8ErJuA7iUxNwQUwEY8wu/DwEVAd7NrYGBgUBe6gYss+LCE4sZQoqcAHgdaAKH4gktQa/sGBgb7PuYClwg4pQU11l1YAOtR4Xsl2B81+A9utsQGBgYNxcHAJSXYv4ga8+AoAAEMQwF4P3BGsyU1MDCYFJwBvH8UCq7pb21Ezf4dcDjwEUyQj4HB6xUdwEfb4PACivOzSsCYmv3fA7yh2RIaGBhMKlYC7xmFQgmwWoB2WA68C6UIDAwMXr8oAO/qgOUtgLVSXTwZOKLZkhkYGEwJjhCtrScfCVhPQo+AtUBns6UyMDCYEnRabW1rX7vkkh4LOEjCMc2WyMDAYOpgj4wcM/jTny63UIN/SZ35GRgY7EOQlcp+9t69b7RQJ/r0NlsgAwODKcWsyp49R1qo9X+r3twMDAz2KVhIucICljVbEgMDg6ZguQUsbLYUBgYGTcFCC+hpthQGBgZNQa+FOdnXwGCmos3CnOdvYDBjYdh/A4MZDKMADAxmMIwCMDCYwTAKwMBgBsMoAAODGQyjAAwMZjCMAjAwmMEwCsDAYAbDKAADgxkMowAMDGYwjAIwMJjBMArAwGAGwygAA4MZDKMADAxmMIwCMDCYwTAKwMBgBsMoAAODGQyjAAwMZjCMAjAwmMEwCsDAYAbDKAADgxkMowAMDGYwjAIwMJjBMAqggbAwDWqwb6HYbAFeL7CBZ53fD222MAYGGWEmrAahAtwE/Dsw2mxhDAwywiiABkAAQ8BzQvAEsBPzvTWDfQNGATQIrwLPATuE4GVANlsgA4MMMAqgQdgEDAC7gFuFYBRjBRhMfxgFUCcEMAY8BgyjuIBngZFmC2ZgkAFGATQAe4AXhMB2/t4CPM/0sACmgwwG0xdGATQAzzk/oAbcbpQCaCYE8BrwMIaPMEiGUQB1QqIIwL34s20JeLbJPIAEHgB+GpLNwECHUQB1QKAG13pgIpS2AUUKNgsTwEbgd0KwFaMADOJhFEAdEKhB/rIQETN7O7CN5gw8C9gBPCkE24HHweMnDAx0GAVQByTwe2Bz6LpuGTTL/96MWpqcAO4FsyxpEAujAOpACXgGGCQ6uErAS0C5CXJVgMeEYNj5+0Uh2IRRAAZRGAVQIwQq6GeDEFQS7nmRqQ8LFsA48DRKCQmUJfAkZjXAIAqjAGqEAPqBV/AH1mygU/v7BSHYwtQrgK0o5eNiHHhUCMab2WAG0xJGAdSICvAUaoYHNfDeDByo3TMMvMzUE3Avo5YmdcWzAWWxGDfAQIdRADVAoMzr3+OH/LYBx0nJkVIinHsmgCeYWh6ghDL3w7P9FkcW88INdJj+UCP2AL/Xlv/mAIcDxwAtzjUbtUV4qgJxBIrtX6+FJbvXB1EKqxmkpMH0hVEANUCgGP6XtGsrpeQQ4BBgHj4PsMn5mSoFsInosqSLB4VgxxTJYrBvwCiAGiCBF1Br/QAF4GgUCbgYOMi5LlAcwUtMHQP/NMrcB/Vy27W0l1D8gIGBC6MAcsI9/edx1DZggG5gKWqQzwYOw2/YCZRPPpGrlNowjjLzS87fvcCpUnouyQDwW0xUoIEPowBywo3ye0n4hvRsYJHzewFYJWVgOfApJyhnMk1vdxfioxovMRd4F3CA83fZkSUucMlgZsIogJyQqK2/m7RrRwBLnDSB4gH6tPQt1M4DiIzPCaecHdq1Y6TkaHwFAMoaMZuDDFwYBZATFeAJZxYFxfgfKiU9KAUgUYP/UOl7/f34R4bnxV7UzF4NEnUqUb/zdwF1PPkc4E1Seue/70bFL5ioQAMwCiAXBGr57zF8P3sOigB0B5gEelBWQQH/yLDfQ+5IvDJwLfB/nGeTZm13+e85Ta75wApHriNRfABOPnfh8xcGMxtGAeSA62e/ql1bgk8AurCAleBZBQDPCMEA2U1vl2x8QAgecEKK0+7dCTyu8RILgGUowu9gghbJc0LwCvW/fPMlpH0f5v3lhO5nW6iZfj5BBSBRPMBC7dqr5DsfQOBv6X0Z+F2V+zehziBwnz1GSmY5ssxBKST3ZW9GLRfW4waUUK7EC5hVhX0ZRgHkwChwP/6Xf9qAFZp/rWMWKjjIxQBq63DWQSdRhN0OlNn+UMpKQhl4CLztvy0oxdTu5FMETkJtVMLJ73coN6AWMtBCKbTPC8HfCsFrNeZj0HwYBZARAjXDPqaF2S4E3oDy9XVIoMNJa3GeHUG5AVlCcV3e4Cl83uBx4tl7N+/nwduWvBBlgeg4AH81QKK2Me+qsS1s1L6Clx25bsNYAfsqjALICIGajbdp1xZLSR/xs7pABQTpYcHPoTiEarOle9bAY5pPvwV4hHgFsAm19dhFmJewUZzA0ZpFshllYeSdud19BbeilNQ4cLM5cGSfhVEAGVFGzXbuklwBNcO7fnYYErU1WOcBXkRZEVkGyisEffpxFMk3Enpeombirc7fLgGpByIBtAJvdeQF5ZJsxF81yAqBsjaedhSOQPEJd2E2Gu2LMAogA1yT/Bl8k7wDtczWkvJcN77Z7S4hPkl1c9kGHonZRbie6D7/EkoxuXK1A2+WMuKWCJRi0AOUHs25MgHKzVhP0B2ZAP5biKYdgmpQO4wCyIgS8IoWZrsfsDzlfok/GF0lMYEy49NmSlfZvAiRo8a2oWZtW7t3EBWY5F5bQjDyT5enlyAx+TL5IhRdJXZP6Bg0geIEHsmRl8H0gFEAGeAuyemk2XIpWVLlOQu1Ft9LcHtw2sk8AmX+PxlzfRR4EJ+9t1CKQo9LOFRKFhN1SyTKIlkFgc1BD5KdwBMoK+j5UL44Mv2X+QbBPgejADJAoGY3NxinHXgjakClLetJlJVwkHbtZSF4keSGd780tDMh/SmNcJP4B4+CGtiH4S//xdXjaPyNS2WURZH1wJISSmG4CqwFn1MA9Rmy2zFhxvsSplQBiEn+sSbpZwhlZrtmbw9qUIf97DDcIJyljtnt7iR8GRJPEi4Bj+LP8q0oK8KNNdiEH8QzCmwMyfUm0pWLvhwI6uMhL5NtZWIb8LDjBknU2QcfkZI5zj2uFfCa0zaT9T4a8dPM/uSWPx1QrD+LbJjAP0BjMiBRHbTRH8CwHNk3aNcORA2iLDNdAXVY6E2ObBXUXoI/QhGJeh4CFczzrObTLwPeJSX/RwhKqEH2oBCcJaXH5LtYhD+7J7VRN3C8lDzglNGPijdYlaEuzxM8BekYKfkj4Fkp+bWzKvCUU9e3huo1nawCCXTh74+Ig9s2E6Hn9DrVg1bUJNLa5LaYEgVQQDHHf+904snCGMkza60Qjvz9+DPrmxL87KTnD0YNvFHnmeeFYEhKOmLufZHgIFsOnArcglIcoCyAHSiuQN/+e5KU7Ee6T19ARQnOQi1pjgO/FYI/dORJqtMEcA94qwZF1CA/AKXMHnTyGwW+LwT/3uD30GgUSV/BkU6dG92f3LwXAZdneF9T0Q5TglGUbzsVJ+NMBtxZrAu1nNZGts4hUbEAK/AH6zbU9uAFRPcQvIC//t8CvEFKDgSOlJLHHfP7RVTo7zb8uIRWlEleqCKXRG0TPhh1OhCoAKUtzrU4BWA56Y9pqyDLUVZDBcUrnAz8p5M2ih+WbBCPFqZH9KQhATPC7fgLiO7+q/bcHOAwjQfYRZBJd6+PoiwldwB3A0ehlM0a1MlDoCydu1DmtnvvfNSArCaXK88RUnov/2UUu5+GZ1DKyZV1lTZ7zQbeIyVz8c9EMNg3MCUWgI3yd/5KSipMHQHi8gJDDSrT3Vq7jHza20JZAN2OLKCOFB8Jmd17URF27t/7o2Z1UEpnMX4o8Z1CUMS3TPZzfrIMvhaU+X4jKo5gAkU8riHeLB4H7naiEEFxFyegrA53wB8MXCRl4uqF+z7CqPZe8ijaycBkKbQeqq8iTQWmRAFIVAc+rwkVHKWxIaoF8hM3AhU2PBdfAWxA+dMd2j3PE/TpV0rJfJSymQccix8fMBbK/wTtVKIs8ixDKRj3dKDHhGC3lCwM5WGhYiB0EnQZyg1ylY97GOp7G9jOedHsgZRFnrh9HM2We8o4AMnkECrV0IoyoRtdl7z3zwGWSckrDls+4Py4ZKKNGtxusFE7yldvc9JbUVGFv4gJ321D+eQtZGtj2yn3SCl5ypFnMyqab1GofjYqBuIV52+BIkGXMD18WBfTZVltusqThBnBAcgG/9RSfi8qeMht8CHUgHMPEnVDevUTfY/B70gSdbTXkpi8l6BcrDyytaHIO9cCGXDk0Vdp3GXJ+/H3GvSgzhZoyVaMwTTHjFAA0wEF1KfD3Mi5EdRynsuJ7CJIxB1IcDZ2rYhjnW8P6tif7P4/Wn5HoRSN+3fc5qBXUMFCLg5GWSYGrw8YBTBFcJff9N14LwjhneL7LMHTf98oZWAPASi34C0EyaMiap9/2hp+EhagrAoXL0EgKlCiwnvdrcYCFUQU5gkM9l0YBTBFcImypdq1Z4HXnLQN4B013oGaaVti8jhcy8PdcXgU+U1yNyrwaO1Is378Lwe5YcsP4cduzAeOp3oItMG+A6MAphDtwFu0vfpDqKCe3ShrwJ1Vl6Ci9eJ29PWh1uDdWXoZ2cOSw7BQPIB7aEkZZe4POmmvoHgJFweRHCxksG/CKIAphLs9uNv5ewzld7+EWo5zcQDRk4ZdtKHW4F3ybhlqANfCyLvLs7pV8ji+VfIIihwENeufICWzMQrg9QSjAKYQEjVgl2nXXkUF4bgbpYooKyF8pJeOw/B3CK7UDhypRZ5e4DjNKtmNWg3YBTyAb/73oXYaTtm6scGUwLzPKYREBfTsj7+x5/fANiG8gdaJv9U4blZ31/DXSMmIELyJ+gJKiih3oxc1+CdQR4bvR9D8PxwVzWhm/9cXjAKYYrQCR0nJrc6gdwOCXLgHiKQNtBbgQyhGfjn1BeRI1MBejr8K8TT+l4nc3ZCnSDktQlcNGgvjAkwx3HiApGW7ZSlHjbtwvz/4Jnw+oVbom4PcgzCeFYJfOd8wcAONjsZ0ltcjzDttAvYjyAO4aEMN6iw+vRs+3IgZuQWfWJSo1YARLe+VqMAkM/u//mAUwBTDJvr5cPDX5Q+jOS/lIIJHhbm8QidwchVS0mDfhVEATUALyucO7yo8FDKfNNRI2Cgz/xgZLXk/1J4E01FenzDvtQkQqEEV/qrQoeAdqjHVcD8oqnMTFtmOGTPYd2EUQBPgnqi7QPu7G7U9t1nLMoLo5qB5wNto/HZqg+kDowCaAHdfwJs0k3sOanWgmTItQh1c4mIBtYcZG+wbMAqgSXAP8XBn/ENIDv+dCkiUS3KUdlbgahP6+7qHUQBNxAp8N2BVzPbfZuAU4DjUAaNvxkSKvd5h3m+T4H4+fAFqzf0IksN/p1Kmg4F/khIbFR5syL/XN4wCaBLcbwyskJIxITiE5s/+LtxPfU0XeQwmD0YBNBFtwGpgnuNrTxeYgT9zIDaa991UVFBmtjlk06AZMBZAk1HAHLFl0DyYVQADgxkMowAMDGYwjAIwMJjBMArAwGAGwygAA4MZDKMADAxmMIwCMDCYwTAKwMBgBsMoAAODGQyjAAwMZjCMAjAwmMEwCsDAYAbDKAADgxkMowAMDGYwjAIwMJjBMArAwGAGwygAA4MZDKMADAxmMIwCMDCYwTAKwMBgBsMoAAODGQyjAAwMZjCMAjAwmMEwCsDAYAbDKAADgxkMowAMDGYwjAIwMJjBMArAwGAGY8o+DtrMTxCLKahHI8uoVtZ0rP90lClrGVPxTuPKmIw+kxdTogCs+fNpW7UKq7UVKadQFQiBnJhgfONG7B076q9Hby9txxyD1dHh10MIqFQY37CByrZtjZO9pYX2o46iOH9+/jaTElkuI8fHsXfvprxlC/bQELJcViLXKlOxSPuRR1JctAhp2/llqlSCMg0O1i9ToaBkWrzYk0kIQXnHDsY3boSJifTnW1tpP/poivPm+XUSAjk+zvj69dgDA7VKpqoNFBcvpu3II1VfwS1CMP7MM5ReeqmpimDSFYAE2o86iv3++Z8pzpsHU6wAyrt28donPsHwzTfX1dAS6DztNBZffjmFWbMC9ZCVCjsuvZRdV16JaFD9Cr299P31X9O9Zg3kHGxSSqhUkKUSlcFByps3M7p+PaMPPcTIww9T3rwZUanklsnq7GTexRfTe845kON5qYQC20ZOTGAPDlLasoWx9esZ/e1vGXnwQUqvvlqTTLS3M+djH2P2n/6pL5NlMXjzzWy5+GLsXbvSnxeC7jVrmHfxxVitrd41e2yMnZddRv9VV4GjpGqB1dPD/M99jtkf/KDf/4Rg/Pe/57V16yi99FLNeTcCU2IBiGKRwpw5FObNm/IKSikRLS1152N1dNDzznfSetBBsek9f/iHDFx3XeOsACEo9PRQmDu3rmxaAFaupHvNGip79zL66KMMXHste3/2Myo7d+ZTikJgdXVRmDOn7uq1rVxJ9+mnYw8NMbp+PQPXXcfe66+nvG1bbkUdJ1Ohpycw4yZBjo8z8JOf0P22t9F9+un+88Dcj3+ckYcfZvS++2qaPKQQ9J59NrM/+EGK8+d71yuDg+z68Y8ZefRRCnW3ZH0wJGAGSKD1kEPoOumkxHvajzqK9mOPbSjX0VB3ybIozJ5N9xlnsOif/olF3/gGrStW5BWosRacZWH19tJ12mks+vrXWXT55bQdcURD2jBr2wmg9Pzz7Pr2tylv2RJIa1uxgnkXX0xx4cL0spwfG6gIQUUISoC1dCmzzzsvMPiRkj033ED/tddSLpebyo3BVJGAto0cHcUeHc1tzmaClIjWVoRrwukol5FjY/XlLwSdq1fTevDBibcU58+n5+1vZ/g3v4F6y0uBPTaGPTSUIqqAQkG1R1sbwrIiM2Ghp4fZH/oQVnc3Wy+5hHKdZqg9Po4cGkocdJ5MLS1KpkIhIpPV1cXs974Xq6ODrZ/5DBPPPjtlvrEAhm65hd0/+hHz161DtLW5gtN79tmMPvBAwBVwBzyoWd7WcpIC1R87Oph74YV0n3ZaoKyxJ55gxxVXUN61CyyLipQUp9ItDmHSFYAAxp98kq1//deI9vbGcwBSUliwgLkXXkjbYYcFkyoVBn/9a8Yfe6yuzlSYN4/utWuV/EmwLDpPOYWWZcuYePrpSeu8Q7fcwq5vfhNp2/FlWBZWVxfFBQsoLl1K26GH0nnCCbQsXaoGngNRKND7rncx8eyz7PjKV5AjIzXLNHznney87DLkxESyTJ2dFBYsoGXpUloPPpjOE06gdflyRFHrgoUCPWefTenVV9n2+c8jBwcnqRWjkCMj7L7mGjqOOy7gClg9Pcw5/3yG7r6bkUcfVQQhjgIQzi/C+UW6/0l6Tj2VeR/5SGBSqgwMsO3b32Z4/XqwlPFtu1lMWU2DmBILoPzaawz8x39MTuadnfR99rO0LFkSSRq+/XZ2fO1rlHfsqLmBXRKz8/jjA9fHn34ae3iYjmOP9a61HXEEnSedxMTTT09SS0J52zaG77ormyUlBFZ3N21HHsmcP/9zNet3dfnJLS3Met/7GPz5zxm5//6a26i8dSsj99yTzdJyeITWlSuZe+65zP7gB7F6e/3kYpHed7+bvTfeyPBtt03pwBh/9ll2fvObtB16KC377+9db1u5kjnnnc/os89SGRpEec4SNd3jawMB0rZpW76MBevWBfLAttlz443svv569e4cRVIRggJQaJIVMGUcgJiMn2KR2e9/P/M+/vFAxwZlam2/9FImnnmmrk4kWlvpOessin193jVZqTDwk5/Q/73vKbfGbcz2dnrPPpvC7NmT2JACIUS29pESOTjI6P33s+0LX2DPj3/sLbu5aNl/f7rWrg1YB7lFsqx8Mg0NMfbQQ2z7whfo/5d/QYaW6loWLlQWV3Fy5ifdZ7eBCq7vDgP//d/s/Od/DrxXUSgw+73vofcd7wBhgZChnJy/HNN/3vkX0HPGGYEyRzdsYMcVV1DZvccb/C4qNC9OZp8lAaUQdK1ZQ9/nPhchaUqvvcaOSy9l5O676176a1m2jK7TTvNMNvBn4eF772Xi+ecDz3S8+c20HXVU08kdHQKo7NxJ//e+x8RzzwXTWlpoX7UK0dMz9TL197P7mmsYD1tMhYKSSbMMcsMhLAMEHT5JV3b+rwiBLRzfXQjsiQl2/eu/MnjbbYHsigsW0LduHW0rViBtx2h3nkEoY0Ai6Vm9mrkf/WjQ9N+7lx1XX83wY48hLRHpG5UAjzC12CcVgATajz6aBV/6UsTvtwcH2XXFFey94Yba1pVD6DzpJNoOPzxwbezxxxl77DFKzz/PyH33BXiN4uLFdK9dCw1YemwkBMrEHXnkkUhacfFirO7upsg08cILjDz0UCTNmj0b0dGRTZHGmM+VvXspj44GBr3tDLTYPF1NIQSlzZvZcfnlTITI0a7jjqPPsTalk4tnA9g2rQcuZeEll9Cqm/7AnhtvpP8nP0Gm9MeKEE2ZNPY5BSCB4pIl9H3xi3S+9a3BtIkJdv/oR+z+3vcawsRbs2bRvXYtljY7yokJhm65hcquXcjRUfX7nj1euigW6Tr9dFr2229aWQEAjI+rOIXQgBGtrVAsNkfe8XHKmzZFOA1RLGIluAABE94JdgrDHh3FLpWQGQdWwJgXgqF77mHXNdcgx8f9myyLOR/4AL1nnQUIpJr2PdZ//nnn0X3yyYF8RzdsYPsVV1DevTuy8hFwA4TAbgIVuM8pAGvWLOatW0fvO98ZMMsBBm++mZ3/9E9UqkV/ZYAE2g4/nM7Q2n/plVcYvuMOr8OOPvQQ4088Ebin/cgj6QiRhtMCUiJLpYgCkOVy6uw06TKVy1GZSiVsbdnN89edmdyb0ctl7KorGCL1cpyCkOPj7PrhD6KuQF8fCy66iLZDDkFKG1cH9Jx+OvPOPddfQgQqu3ez/dvfZuR3v4v01TCLoAjBqW/+fUsBtLUx59xzmXv++YGGBhh99FF2XHppw2KrRbFI99veFmRygeH77mPcIRYFaoVj6LbbAuRaYfZses4+uylmdSqciMxwZ3StmWYsRcmWFhUhGiIhK/39VIaGAoM+1YSPyxuIG/yBdXz3HseX9x4RgonNm9n+ne9EXYETT2T+/7hQuQK2TeuBB7Lwk5+k9YAD/Jtc1v+GGyLKNUn+ihBMtRreZxSAFIKed7yD+Z/8ZCTsc+KFF9j+t3/L6MMPN6QTS6CwaBHdZ5wRYMftwUGGb78dOTzs31suM3THHVS2bw/k0fXWt9J6yCHTxg2QKCKr7Ygjggm2zcTzzyP37m2KTFZ3dyQiUVYqjD7+OJWhIWTIbBYxecTGlkj3uufch3JxTPhApo4iQDjlCgbvvJOd3/tewBUQLS3M/dCH6D3zTKz2duZfcAHdq1cHih996im2XXkl5f5+z/QPrhnEi1zJEL7cSOwTCkACHccfT98XvkDLgQcG0ir9/ez85jcZ+tWvEA2MMuw8/njajzoqcG38mWcYuffewDWBIgVHfvvbwPWWpUvpWrs2Uzz6VEAUi/S88510HHNMsP0GBhi5//7IUlyjEfDbnZnOFoLO006j8y1vCcq0Zw/D990Xu+FIhn4gaVDJxOcE0lnKkwnvx9/paY+Nsev//l8G77wzcEfL4sUs/OQn6bvwQuZ99KOBJcvKwADbL7+ckcceA8uqOvB1+cpTbAVMewUggdaDDmLBl75Ex5veFEizx8bov+Ya9vz4x1AqNa5RurroXrs2aGnYNsN3303plVcis5C9ezdDt94aXDtubaV7zZqqceT5GySbTeF1eCEQs2cz60MfYv6nPhUgNAGG77mHkTvvrG+5VFtu03/spB8pEe0d9Jx9Ngu/9KVAjAXA0G23xa4M5LGm3LBkf/Bp6/X6jC+ll+TLrm3btSwmNm1i+7e/TWnTpkAZXSeeyH5f+QqtehCalOz52Q3s/tnPkLadmYDUf59KK2DKDgSpFYX585n/2c+qpTW9YSoVBm+8kV3f/jb2wEDD/FcJtC1fTtfq1YHyyv39DP33fyPHx6NlScnwHXdQevnlwJJhx5vfTPsxxzD06183TD7R0qIi55KsHSEQ7e1Ys2ZRXLiQtsMOo3vtWqXQQrsxxzZuZOc3vlHTDrwI2tsRlhUw2QNGd6GA6OigMHcubYceSs+aNcz6kz+hZfHiYDs++CA7vvENReRmGggye4qI+1sk5qJf2/ub37DzBz9g0Wc/6/FPoliMBH2NPv442666klJ/f4RrSZVP+BcqQmBLOSWz8/RWAB0dzP3Yx5j9Z38W2egzfPfdbL/0UrW3vZFlCkHXmWfSunx54PLYI48wlrCnQAClF19k+K67aFuxwuu4xblz6Tn7bLVq0KANQl2rV7P/j36UKr/o6KAwZw7FBQsozJmD1dkZuMUeG2Pk3nvZ8fWvM3rPPZnaTwJ2pYIdU4+uE09kydVX+0pJm32RUu0FaG+nMG8eLQsXUujrozh3rj/ApcQeHmboN79h29e+ptyprOviUqRbRe4g927xnACE1K2BYF2DRQjk2Bg7r7mGrhNOoPfMM2OLqgwMsO3KK2NZ/6S8fRm194NyBVqnIDx4+iqAQoHec85h7l/8RSTMd/zZZ9n+1a8yvnFjw5nrQl8f3WvWBFYZ5MQEQ3feSXn79sTy7KEhhn7zG2a9972+62BZdJ58Mi0HHcTEk082RNbWpUtpXbq0pmfLO3cyctddDN1+O4O//KVyZ2S6Bx1ITVAArQcfnLpTMg2lLVsYuOEGhu+5h6Hb76C8dUv2wU/KfTKOJXDXbpyrWQa/84S0LMZfeYXtl19O+xFHRIJ9sG323HADu29Qpn+c9ZIsa/TXshAUp8AKmJYcgAQ6V69mwRe/SMt++wXSytu2seMf/oHhu+5q+OCXQMcxx9ARIqVKmzczdOutVU/BGbn//khYa9uKFXSdfHLzyUApkSMjlPv7mXjhBSoDA4FQ2bDvLoXDhLs/pDDudaCyZ486IejVV6kMDVYhzOLWAFIUmCJB1N8i+QmZcp3Q9cH771e7AkOwR0bYe+edlPuDAT/pRGVyTVwrYLIx7RSARO2qW/ClL0WWrOyhIXZdeSUD112HqOOYpiSI1la61qwJHuAAjD78cNVNRQKovPYaw3feGRgkVkcH3WvWBHa81dU+UqoZJu0nbpAKQcsBBzD3vPPY/1/+hcWXf4v2E05Aasuc3ngRiYXH5i2do75Sf2ICkADaDz+cvksuYem117Lkm9+k89hjU3xnGfjNG1xJVoy7dddVAjKaW5LvnzRgu48/ns7QSgqo5cx5H/wgrQceGOFnUge/IMoFOL9MRXjwtHIBJFDcbz/6Pv95OkMhlbJcZs9//Af93/0ucnh4Umb/1qVL1Rl8Wge0h4YY/K//wt67t2qZslxm8Fe/YvZHPhKwXDpPPJH2VasYyehvp2Hsd79j8Fe/Sp2JXaJQtLVRnDeP1oMOovWggxQXIATFhQuZ8+GP0PGW49j+5S+z98Yb1QDV2fFI6yRj5MEHGbj+emSl4nNZunxSKln6+rB6eijMmUPbQQfRfvjhWD09iGKRlv32Y97559N1wgls+du/Ze/Pf4GsJCt5UVUqQsv/IlAtmfJIfIKkbelSFn3mM2qQx6DntNPoO/98Xvv7v8dOWFb1RNIHvl4Z6fwh1OalshC0TCIXMK0UgNXdzbxPfIJZ73lPcHuqlAzdeis7vv71/OfYZYUQdJ56qiLxNIz//veMPPhgtixQh5+MPvwwLX/0R9714qJFdL/97Yw++GDdy5Wjjz7K9r/5m3R3xJk5hGUhurtpOeAAulevZs6559J+9NGqbS2L9pUrWfT1r2NPTDD4y1+CtCGR5kzuhKPr17Pz8stVxFua2eq4E6K1VW2aOuUU5p57Ll0nn+zLtGoVSy67DDk+zt6bbooVRbqHcEhZRQlEjXoZql/WzUZWezvzzz8/EusfEK21lfnnncfQ/fez59e/jrgCyrgSvoIUWqK+GuE9JygJKEo5OX2e6eQCtLQw6wMfYO4FF0RO3hnbsIEdf/d3lCbxmChv448evislI/femyu8uLJrl4oW1GMCikW6Vq+m0IgNQhlmA+luha1UsAcGGN+4kV1X/zObP/5xhm+/PZBH67Jl9H3mM4rEy7RoHe9eSI0rSJNL2jb22BgTL7xA/49+xKsf/zgDN94YMJtbly9n0d/8jdp6G94joLP5OTpDeH0/S3COfl/PGWcw/7zzAqtR9ugolf7+YHsuWcLCv/or2g48MHBdeHm5AUhaAe6vMe6Xu+9hsjAtFIC0LLrf8Q76/tf/iqxVl15+mW1f/nJdJ9ZULR9of8MbIrsLyzt3MnjzzdhjY7FkWeyPlAzdcQfjL74YyKv9yCPpCuWfKpNtxx9HncLap3Zqu8Loww+z7atfYSIkW+fxxzP7Ax+AlAM49PrFyiTzzcWushh/+mm2/d3fMfrkk4Hkjje+kTkf+ACitTUUxYf3b3pcrUxskyyEnN9utjL9P/WpICFt2/T/v//HK5/6FBOvvRZ4vnf1auY7ZwLEy6AdkeKeKZAiS2kSuYCmuwASaD/mGPo+97nI2ntl7152fuc7DN10U0PDfMMQhQJdq1dHjhWr7NlDYe5ctSxoZdSVUiK6uyM7EguzZ9O9di2Dv/xlYC9BuC08OMRaNPsau4IzBY0++BB7b7qJ+Rdf7CcVi/S86130/+AHlF99NXkZrsay00kwwejGjey57jo6jjjC2xQkikV63v52dn7/+5QcmVRe2o4d4cqUXa6sg9810632duZ9+MPRbb4bN7LtqqsYffppOlatYuG6dZ7bKtra6LvgAobuu489t90WHOD6zC/8+qRN8u55BpNxeGjTFUDLgQey4ItfpPO44wLX5fg4u3/4Q3b/4AfVv+5SJwqLFtH9B38QOYKq5cADWXzZZTV1fCvmhJ2u006j9aCDGNuwoSqJlTjbhu6pCqH1OKFO8B2+4w7mnntuwN1pWbKE1hUr1GBLLbRxg827r1xm+N77KO3YQcuiRd71tmXLaF+5kolXX1UnCzuDXYZ86zSR6h0yvWvW0HfhhdHDPa+8kuENG6BcZvt3v0v3ccfRfcop3j2tBxzAwnXrGHnmGSY2bfYPDnWkUgpGVDVmXPVWEoLCJHABTXUBrLlzmf/pT9Nz9tnBpR/bZu8vfsHOyy7D3r17UmWQOCz9G94Qla+tjeLChRQXLcr9Ew5eAqVQuk4/PUegS7LM+vPxnULEJKgLpc2bKYc+lVacN4/2I46I7L7Ty0yXKOoO5UFpy2uUQzsqiwsW0L7icK0I5+iuDKvreXz8uPulbdN24IEsXLcuss13909/Sv9Pr1dErGUx9vzzbL38ckpbtwby7l27lr6PfhTR1opPQAr1vxCJHEZcG5YniQtongJoa2POBRcwO3R0MsDIb3/Ljn/4B8qbNk36HnXR3a3i5CfzIE+3rNZWus88E2ve/GwP1GTyab5lZAusgj08HDlEQ7S2Upg3L9bVCQyMpK23meRK/luOjQVP3wFnX0ObQzJKZ/DrTFl9vSNRjUiJ1aFY/55TTw0kjT75JFuvvJLynt3aeYCCPbfcQv+11wb2/lttbfSdfz69J52k2s1d+qvhtbpWQKPRFAUgLYueP/5j5q9bp76zp2Hi2WfZ/uUvM/a730364JdA26GH0nXqqUEnTErk+LjqlHX+hINC2o89lo43vTHDGnYysZa4Su/OKtUarlCIPQVYhE3rcN51fRnItRLcc/Vdks4p07LiA4Dc1YVQ3G4tVkZsmyVg1hlr6Aux/pWBAbZ95wpGNmxwIiX95qgMDbH16qsZuu++QD5ty5ax+JJLaN1vP//mhBDkanUq0/itwlPOAUjUQZt9n/scRX0nGGoJbcdllzF8660N+8hmNXSdemqEfJx45RV2feMbvkma6mTK5Ottbcz92Mfo0nzDloUL6V6zRm0QqpHbiJYYYpYivwdRnDcv9vt+slRq4OfIoiyHtkVIu0UpgsKsWRTioiXdyMaY8NrGtF0oXSrWf+Ff/VWQFLZtdt94I/0/u96P9fe2GCitO/bcc2y76io6jjgiEE3ac/rp9H34w7z2rW85AVc1xCIAtoCSJSjYjRsbU6oAJNC6ciULvvzlyMEU9ugou/73/2bPv/97Q/f2p6HQ10f3WWdFjhcbuvlm+q+5pq6v5YAyDa3ubjre/Gasjg510bLoPvNM+r/3PUqhI7r1doIsjH/Ij5T638mdrHXFishyqz00xMQrr6gvDqWZmrEyufN5fImJqkj6SqJ1xYrIvg9ZKlEeGFDn7SfwJrmW9Krd57D+Cy78H/SEPuk1+sQTbPvOdyj1q096+cE7ulUk2f2rX9F73XX0fexjnpVltbez4IILGHr4YQZuv70u2UtC0IJs2EdFp9QFKPT10ffpTyuTW69ouczAddfR/53vQMp37xoJCXQce2zsCTnDv7kNOTKS+0Ml0UIkI/ffH1l3bzvkEDpPPjm9QyeZ23r8aKxbHZ119TwLCxYw65xzIise5R07GHvqqaptllDNQAsEiDWncSLx7o6sEijMncucc86JEKelzZsZ3bgxtuxwveqBHq7Te8Zabw3fRWVggG1XXMGwc8JPRBh3iVJYVAYH2XrVVQw//HDglraDD2bRxRfTsmCBd4BK3nYGsBEN3SQ0dV8G6upi7l/+JbPe975I5xu+6y52fv3rlBv1ae0s8rS20nXaaZHTaMaffpqRh3+bO7+4lyaAieeeY+T++wPXrZ4euk8/HaunJ505l1XmvDz9XkpEZydzzzuPrhNPjCSPP/ccE88/H6vIgrJVL1ToKjFSMT9NSokoFpnzvvfR87a3RfIZe+45xp97LnKmXq5ZPes9UirW/6K/DJr+UrL7Zz9j109/qkz/cDW8we+eL2gx8swzbP3Od9RR4BpmnXkmfR/6UOwXj2TC/3H3TTTwQyJTowBaWpj1wQ8yL2Zv/9iGDWz/m79hzIkEyxxxl/Mn3IgtS5eqU4Z04klKRh54IPPqQ5YOaY+MMHznnZEv+nadckrkgyPRAtKi7pwfN+zX+VGX1O+2e82yKO6/Pws++1n6PvWpyDuwBwfZ/W//RkU7uz5ZKcXLKW3bK1dKGyltX1ZNPilt56gsQXHRQvouuohFn/98hAy2h4bYfe216iu6tcx42lFfae/O/cPq6GDBhRfSq30YFGBk/Xq2XnkFZeeTXoHdPHFt5PAau2+6iV3/9m+B06Ktzk4W/s//Se+JJ8a+26pxIc7vFSEatiIw6RyABLpPP535n/50ZLa1BwfZe8MNVAYGaD/iiGwvOrKnU8Zf036vDA+rD2JoSzSdb31rZONPeedOdexX0lduQ/XKAgGMOEeJ6x8Sbdl/f7rXrmX0kUdij/dKyt/q6aG49ECwE5QDgGV5n0tvWbKE9lWr6PmDP6Dr5JOxQnwHts3AjTeqjTcO2Za2uh6XZvV003rAAQ455givB75InE+WtyCKrRQXLqBj5Up6zz6bnlNPjR6fLiUD//Vf7PnFLxIP18j0HjJtGVS59J5xBvPPC53rv3cv266+muHHHwdLc7kcriWO4nRPFi4PDrL1u9+l67jj6NaC3NoOPphFF13E6DPPML5tW/X9EwnXJ5xdgvXO4JOuAKzeXuacf37kE14Aor2dOeefz+yPfCRbZlKqQezMNvr+d/dv6bLGWtrQPfew46tfRQ4MKJlmzaL7rLMi0XpjGzcmHvvliVBDG5Q2bWL47rvVoabOCxctLXSfeSa7f/Qjyps3J9c3hJ4zz6TtkEMS75c4X9Xp6sJqa8OaPZtCV1eE6HTvH7rjDrZddhnlnTsTibZA5WNumPUHZ9F26GGpvrgoFrG6u9XRYLNne7/HyTR4551sufRSStu3p56rl2kptdq9tqRt2VIWrVsXOZ9w9/XX03/99VAJrULEdpAQB2I5rsCVV7Ls8svVEWgOZp91FvP/9E957aqrYj/IoqmSWB0m8a2Atjr5j0lXAHEHJ3ppLS2xn/WOtoh2CIY70CsV37ysVAKHZAQOzECRTG5HkqiNOZ0nnBAsolRi+NZbqYSiudxn6oEcH2folluY/aEPBayg9lWr6Dj2WAaTFEAMigsWUFywoO73Yg8Nsfemm9j6la8o8i9zdGL0ruKiRXRrIbw1yzQ8zMCvfsWWr3yFkY0b6xv8ToBONYLQ6uig7/zz6dGWagFGHn+crVdcQXnPHrAKzjHioqqZHqyQTf8vfkHvSSex4MILvfpYnZ0suugiBh96iL33359oBciUvF0uoF4rYFrsBkyE89koWSqpnXHlsn+6TKWiPh/l/u3cJ0slcP6XpZLywXQta1l0n3ZaRPGUt25l+J57Mn/FJZP42u9jGzYwtmFDIL04d676DLY+E4YCkhoN9/DNzZ/8JJs+8QmPe8lbn4bKNDrK4B13sOnTn+aViy9Wg79eH1dYmdy43rVnMP/P/zzA+pf7+51Y/41Id+KQ8SZ/ugsiqOzdy5arr2Z4/fpAUtvy5Sy+6CJa+voix6onZBWB+5XjejAlcQDSGbhk3NEnQ8dbSSmVAnD/1mZ5qbkFAUvBTQNVttPILYsXq899VyrYTryBKBQYcb7xF7NNu2bo5lt5yxaG77hDfQTDsnBPy+08/nhaly9n7KmnguvvUmKPjWEPDQXZ50BDpQQhOVaSnJjAHhlR5xTcfz/D997L8AMPUN6ypap/TciNFzgf3dy7NySTDKzpp75XTaby7t0MP/ggg3fdxfADDzCxdat6dzl9fnt0lMrAgKe8RaGgvtGQYgFIKWldsoS+c8+j0Nurzkh02q7/2mvZdf31SFs/4CS65lqNsQeQlsXIk0+y9YorOOCrX1Vkp8O19J56KvPOOYet3/9+TMyHCDEuofYVAhvpWQG1qgGxcfIUuyqgvZ2utWvVN/ayzGhu5w0Red6z7kDX7o27T2q/l157jdGHHkKOj1Ps66PrzDPV8VhaGWNPPMHoQw9lVlKJ4rv1JtqwrQcdROdb34ooFn3lVC4zcvfd/o439/mWFjre/GZali0L1s/5P3UNXEo1yCYmsIeGqOzaRXnnTnUApxtvn3HmCDLcgo5Vq2hfcRjSdlWCjFQ29i07Hya1Jyawh4cpuzLt3UtlbEzVvSayT9J++BF0HH64z4EIwdgLLzDy+OOxL8PtO62LF9PtvA8vrVxm+NFHGHv5ldrJx3C6lBR6eug98URfAQBYFuOvvsrggw+GFKrAb90YJeC5axIhodu2az42bNIVQJbGmgoEAuaaXM9oHEmCDxg+DafuspN3oCXnG7KJpP972lp1Jvm8tfNkH7iaReZNBDIoU0ChBAyBoDaIta4s99lwr8n+qfHoRelNSlII/dtDqrzYdtdXFvy6CvccAQkISast6bJr+7j4lLgAk72pp1Z5GqUIMufjrCMHN+qlDPKUD2NGDcbqMmZdFQt2PqnFvWsKxOnEUmq5O0RZuH3ztnMa+ZXYru7qSlx+AdlDM2qh4NzgK4uo6hGkGdn1yhj7bkRwBUNoIgV0mXNuYK2Hhzb9QJBmYcqtksQdrPk3uWSdhcKdKnFmjvQ+GXOTs/wtQ3cEtJkIpNUz8PPUK/a+uDoF9kq45rVmKQQr5VxKH/hJS3V5ZI2tuwyWLYUmq3agqEscjjsnBuWdbGecApjSWT8wOGTt+eS8N88A9GdxUnqr0/lcrk+/VmO5tbaBL2LIRHZMK33HbURJadoudqiELtVs7ldJ16VOIio9h0ZA+LTQiOxCUIKajg2bMQpg6s197x/9Qk15ZelkYTWTNvNEr4dmQOGveXkzqQjfH88DTKZllewsucSvdsWNRvRcFF1erb45Bn1m6yP2apjVd/14zdTXIw0DjH8o7xiZK0J4VkAezAgF0IhOmcvPDzw1OQNfzzkpWsxPVVeCPqZ+U4zJL/wOG2Sj/VKz+urhJ/O2RXbyU9dWmingyhq7e3KyZElJ1c43jEVgwGfvPxNC0A65tgq/rhXA1A5875/wxdx51TLjV8st4hPLUA7a0pL6z/U5CYS+5h304ZZoLM8RnilDsnt8hdT2JmimdLx+zixHtcejysm5qvMoQk+Xvrfl8RUhmVPKqwjBuGXRmWMp+3WnAKbc1K+ytJaHCEorN7wanLsecSyTR375s7mQwiecUmRo7uB3rROpZR4c4NHBFWy5WIsgRf6kuqe/rzBr6ipjqQmgpQvhK1tN9jwux7gQtJHdCpjeocA5kGJQTV4++gtLyKtR5eo0kLo3X8cIZOSmS4ictedaMqFlcJ3gq1auIE7eOtrAPXzTu0cGH3IL1Q/pa+Dac+39SmqVCsnlNZAIXq9TrrIQTIjsw/p1YQE0c9bP4tdmJ+PyyJewqiACHJ4vZOyk7rDhwSXvxNwnY8Ui073hCTPWpAp+LyBc39p99/T7knkV7Rr4sQiRSpG4ESuLzHH3jFmCtkq22X2ftQAkOWfruvNRKlsmnOcefiFZAnPS5AnLlpmgCq0f64W5vFPMxI9uTmfpjJJ0+bJMaNXqFZnxXWbfKcC3gnR7Q+TqFFnelytHZCEkrZEiyicUgYhjsHjiBldVsvSPuKIlrhWQzaTYJxXA1A16B66pL9Lfe1bfMG0w5Y5SFHF5Bhln6UayCZxZ0mX29BEvgoMtoZ1kvAiJbZK1DfSMosokGKwTiFsQIppfqGpJFlnAe0h4H4l1l8l1kODsHhQRWf2HwgRx9c1FWV0+CYxZVqZjw/YpBVDvjJ91dvbu9wZPcifPYz5Wm1nzuoFuRwtkEAlhjylZHyCBWUglZplliCsqQ5vEM+N+omspBweeP+rd2TSrBZVFjlpcMX9WD6VJ30LxzX8RsLzCiiR7eVnSVKGljFbAtFYAeYinxkKL2xb5Zzj9njykWeq9IppvaqO5M6P3sZAYNZZxCSzNxK+P4JMxv4UK0Iiy4OSZb5Ui67vIn+4vlQY/W+ZETyR8rMWTR8TLWq1tk9PUVRsYt6yq9Zn2JGAjzP3M+Ymg/yxins2zpFdNnrQ48shzqZS+7iOr6z7nFMPshf7MMtvHtUldxJoW0h4oKxTrDs7Acpf53NjlqfpQSIzc/kVnN4HOTXi+vCTp45+1knuZ5NXkG3eODWtNiQ6clgqgEbN97jxEsqmv51ft5SUN6CRTv94O6JGTaTn5t0XyTHoqhdDO1A5VIUP3hpbEpKbMIr6bCFkENcqRqQ5hUsYd1xLvyDF9y3RgVSXjKkTmNsvyvAxeGxMWLbKS2K+nlQJoysBHeIo6ydSvKfAm4e+sseSJ98mYP1Pp6eqzUBIZFs4ti/LLUq9oXs4gF+7sKWKrkSVyr5qcWeqRdEEV7w56Et5FcOYPvs144WtVpjpvE9WSSsZxS9Auk62AacEBNMLHz52Hsz87KZAnK5lEyj1xZFl20jDGX088noqE61EzOcmfTxv89fn5Kqeqfq3nfsXQip5hkD76631PCQR9KCovqsYCpKAUVRRyfpmzwW0kCd6XlKEilBWQVE5TLYDmzPgEAi/i/Px6ZYjq4gbUzOl36j+pnXgbX5NqbkjVJspxf6K57P0pEzRMcLbCXTYLmM7aASMJ8RcRHiFHvWOf05rUj5bU2trjWRL238s4WbNxFrVZL8E+4J9zoK6OW9Ah4w8MaaoCqIdQq2XpRmi+Y70DPyu5WI10jDUjE26W4Tv1kSFCg0FTGJF2yFDfavWJHeuhgSMC3ISI3ORa/cG1gOibkXrlYoqrpe11iiE9AxG4Mey66Aor6o5ll6cqXGWkX9DbMlAP9wUoYSpCeFxAGNOKA8iCmmboAGkkq5qSeWRI8/GranqZXQkGywwNCH3GdAd+QhXrq3myTHEJMqGlpB7UA4Egn2BHjxJq1RRYnv6R6Md7xYugNo1rvQY2aGqdwp6HozmjuzydtFB48Zgl6JDR8wKargBqGQBZ4OlG/aRd59+ss2Ba2fV0wExLQjHLZFolEjtuvZuT4hyKavVPIxH9ezzqPFoX97kqFEcWxZplFSY27yrtOrkkXrW0EMnn/BlxvTwlGZWzLARjQtAdUgDTggRMQy0DX526Khri69fnS0f98mpmovuc2g/uhyAnEVMy9FNvO9bDWwQ7pGN1udaI1IevNqwk2sGiyflmcVnyEcFJJpLfbzxWv4byGkFsB168E8KtPrCavFqR5JpKYNQShJ2AplsAScg0S4afEcLffq1FZObNJ+n+/C/UZ4mrCxJmmL1KETwhVmjzgUsJpsuf1UqtWt/MZpOSObhMFVNeoLrpkX1Z5NWvpysy1yXU2jbsy+ux0iIufQosgpDF5B1zFvesSM7P/b8sBGOWRZd2YMi0UABxbkweSO24bX3g16REMl7LLFtqJm50m+vTJ/mYwR4oPf45edDkVXzVBw2BWSbYvpp8QuJ5/3pGmpnqu2e1s/a1BWyFTj2KKTBiVrvXRVyds8te/R2EWt/rEjLKleTKV79XKYB22/YODJlWLkAes8k19WVge6j3a+Y8ZZX7GjL4M9XF/SMsid9lfVmrd4SsM03499gBkBpIJCJ/+zOoiM87wVx1r2WxWGox9aPul/JPvL4UV1FRTanE1C+nrL7K1MlG30qRAVY32h/ylDnuHBvmYlpYAHmRpA1r9V8bOfDTnwsvJUWo3WBILP5gz3Lie5aOFmcZyCqZ6VtaZSAmX79VD6rSlltDh6TGRfml+a1Z3ml6vUPtHdJw/nmBGkS2vOvhXKKWhHTaVzrLp26aDPWJ6i5fWpkSGBEW7dhYTCMFkGltOsDoR8MwsswetfqVaffHyx53VWqzkIjt6TLGlKl3xSFuabL2dgimBM+3CzdB+B1F1/PreR/6fBltaX3wQGBjTph70NbMpZ5xHTIlpyc7p24zyoCAoVWrmPbLuizq/j5hCcaloMOu79PiDUeiXyfCgz84I+rGZmO0cj5U8wu9ewT+4bT62XXhrbpOhdLckqyDP4yE1ewM0B12bRaS8TkGiLSYbOplyJNcN7W9NsTaQZTND2jCkBuTsgyZ1Z1MflbX7iH3VSdHkvJMCO5KkycMG2UF2EwjC8BtkuDLrN5VGxFHUEtnjJhoEi2sTcTkrQ2ayN78YAfMSoJVkztcQk1+Y6ggrxN7pwcH65In//DsJDLeG14WD1j2+jTpKgN9dIlQrhl3FuZqM62gQDBUSO7IYS5ke795Z/y4e8Yti3Hbnl4KwK2cnWPg12tCVss/fL+30qB3Km/kustf0ptwPH9OJJQofX4nH6NbW1rqMzEDyxXO35Of8HCOmSmv3DLrjQHB3b9kVDbHNRGkD/485nVcajA9xp8XujYgoJzylpnXKqgAIwVr+ikA1S4ydvaveRZr9D0y5bIXl6/NODL8kG4NNG4w57EOYvOPmKBuLXSCUrrsnqpHHGOnyVGtDo1Ji7IcXvCRF2as8QEZBn6aDLkGp6s4XUslvAqh/Zq3LRInqNQ8hGepjohpqADqiUSrhkaYeelkX9jc06ORUvy6OuWtZj7H3SsTu4rQrOiY+AR3ttcZuFCh1WbUPHWLES+qTz03zHVLtJu19EA7JbB1tb6TIA8Umtkh8Vjwam5unoEff7++8qSZmk65004BxIuf3BjVGivLc6nPVOmxqvHDJ/KEGGjiXlo6X5x3Bs9j1aiSZXxH8j5DHWee+jNqJIgnA7MYQ80ltGeVjq/vgNH/02XW/gtsKU6QtyGWSMTHd61AEfOUrmij9a9WbhYZA63hKXO/BMk0VQCKGJdOcEb+imdJy4xIJsFZBcJkjgjdl2RB5Iskq/Xe2AEVJqBwLAIRs8M9cG+6zFUHbj1/uxZVWO4wNxHSAdUUZD39J4mbCCzlutdDpn+EcyFZ+eVxQwJpntuht08wDmNaKoCYtqmtATIiQO6lZqD5csRMgeFZJSOxk0fmajNoYn7husX9HeiBWn0yronn7ahp6dHBJeLTY2L1AzNsI8pOTfd9aiWOPqKDlkhs3rpVTu2DP9ovgu6HEK5sIvDEtFUAqgrxZ65MhqkvM2WgWBz/hBvX1E+QMQO7X8uMn7dj63XTiUrviv7lXBmXR7zaqec95Hs2yJonHhjqkWy1uVa1pWkuU0BJSW21IVud6yK4dUvNJUA9SyPx7KLpqwC0OlRlN6s2Tug+UTU3X4qor6759qHgkrhDKxtFZtYzqBLTpf6Lfzhq9OSooDuT1dSPS08nIMPlSV8gN1Y/ILOufGUioVbPO0hk9vX0sLbXuIekPLLM9Pr1VN7EU3phte22j27K+ezttOUAXGQhAGubQR1ONFY1u6ypO+tEwrQIvWV/Iopd6qlP7kYoEOnVI6Y1nc4TSPFiFqrxGNmUs/6MTKhVvMUhou0pIr8kbpOtV2nGkpwy2F6BzVt6BF/kcNDsMmWVMxjxGPw/pNsDFdFad/orgPBHINIaJC/iTkqWmt5WYz9uKU8zlcOzQUZ/OZN8daW7tdBs+sBI9df1U83uuuVI8nuFz5LHlFnNfUpbgWjswHcUp8aL+EpMaO0Yer7K4M9vzfovTwbuDK7SBKwgod8dz6FMawUAar+yfopJzQRftRu9VRLf7A80dGjSz0ru5UUWOas5g9KbG+L5+Xo26NQ9uLyZVEYVUjiPRPs3mZOoiSBNSwtweu6Ac1k1qigqvwL1DP4gdSdC+eoKPqpA9fcbl/e0VwCuqZLlS6fBp/zuL6vcpyNoAru3aet9OmFG9sFf7aVn6bjxs2ZMObr8gZ6nMeZ6odGVv4aaqtlucs1oXUEFrb8gh5Cv/NzMvsM/uGHdEbeu6uB30xJWLzLKGHBb41xWEaO5M1ilrvjTXgGAigkgw/4AvXpZX3hkBSnyi9Si3jznIIMEWaSsfn9Q+yfMM4JIThHmP3bPe7Kfn6c+dVkF3swU07tjNurkJR/rUgjOrOp99NPrNFmXGNMnifxKKcTnCF8l6u1VDfrEOK22AydB5zHzVNB/WksLLM06X1DxToMREZWpH2BRbZkm6z35ap6ep4z8Eq1zpF/oa/0p+Utqr4/+XDKTrp3CE5q+spRdj2yRdgrFysR1OulYBFllqrvt0ib3CLsfVeRJZevVKpLHAm0SBGBJSaXGZR6Pv3FaVmfsY+3fmDyzzdDZkP0+WT2PgMXicxf+LsSEPET1wVVPPXRPI3DRKzuW2q+7/bLPqjHli6T0MBlcvdxaZv1g2TIy6n2rpHoeGeWRRWAM6GCaw9VxWRs6cEdkUGtETtwTWsNXi9nPJkP2+2IZ84A8xIx+V7P5QUqe5ZLwiepqMtTW1kn3arlJjbiKYanrVUrVYxTCMwH4JxjrS7uJDGSqTHldFD89fhqRCROUJmhsOVXbUYCQcswCBjK0a9MhIHCCc3WzOGQ/eSxpDPMlo3nKjIM/C/K4Dn5pfmd03RMZ95TzNmWgWtGloORYsPg2rcd09dpfaCludUQ4zXcDZJV8s5SbOgBDvrx74GbQ/cNToNn6Wb2ukggGpAj/bSUReH7ZIvd7011GiRiwgK01yN0UWFWqp2t511eTYUUQ49+FN5eFD7eMKyfrC8/LGfjKyyfzvDUN9ysb3mAXgQEXDYPV2yCqQPL42Zl9cc+3B11kKbV34em25JWarG2czpyH0vV3HJcgwmnxS43VFE5YhtQ21ZUkzgdhApNUfAlpKzXVXDPtzq0W8CL7CPymEfGpXlyGDD4QR+o4PTQ640eR1bQKP1Nr5/WO4fAmpmiX9jbGxSxPyWqFNED+xAEgfbXjKyR/lvNrkuRoZFeaed0Ff9DFsnuaEovPPZeJnaEevsbxLY5oP42SNXHS5XtfngZ+0QKeBCrsI7ACoZd65aTXoP5LTiaa/MMjk4kf/WqeGb/eGdWVLyCctgzpmSlxmQTaRBA2gGodPIn1CytXIbS2D8oYHBhRVyyXpRGblrQ8534/QpNJ+54EgpiTesIKK6sM8e/DdXVk5Alf0UeeC7VtnLWY5vYkKyIJiEqhu/tJC/gdsIt9BDoZGK28EwopYoZsiD/wfq9xhgwje+fNGsQSVF5uNGpyJ4/Lo/r1rHUIukZhGZXpqlsv4ZLrbeZsgy6mq4eJU00HZDXj04LQspr6QeJTW+oUJOYQJ6P+d1JPymKpSNhV7O39nQVsADZXewHTBQIteCEyFSXVXOAe1okMvfSUx7J0kPymvowYJjIwA2kzonu+YHgJJGFmyO77RZ+rrlRiLA6HPfc+7ilEdMSJUEh1jEOTZNJCsmzR68EpM/Ydi4QCYjLPMvNXG/zRNvMzlmEL1eN24tVo8ntJa5P4dAmIYmGzKBY3WBJeBR7JUN60gSWTvgrgVDN0YJ1nDutseYaGqjU99r64zueNlTC557oxOnev+wTxSz9J5WeVN+nZKEIaLMbbkjFRfHGmdVqZ2QZ+KN1TmL4ros+0Pg9ARG7PyhJUVTzJgz4BzmfspAiv2BCSTw+OylHvlLbw+7+PQnv7I/tfcMGr4gVgBN4PfA/oYR9BWeifOo4P0ohu6klHvpk8/33Jz7vTe3jpJ2roNULGmvx/Tf/4HIuMuUG7GmOn1sM9pCOk3LWy87RZbe0bd8Kifr+IN8FS8tSbLq0/xdKogtChKc4f/slFg6JQvPDm0ZFrrRH1yH3AY1XbeBrBswJiGlb3txs1+LPmUW0WCF3wnwwExdQmYf2DX6T1U3+m8npdcBqNJQgzlF0TKenNbu4Mn8L3JBQQR6rlbbtYbse1PjwrJPm5NEsiCz8R+7zjjYnIH548j1VKpfvWFluwKkA/bAJ+Bkywj8BCWxIMm3deB0h+vXn839pcAt9/DxL2IjhuhB+MogZX0qxaO/lXrbP5pFKoxXSeIZxBBiIta3rVdo1V8pomEiElFGb1w6Y+0YGfh+eJXtP+8gJ53Cshzof43QR5+KSqilQ3+11XzJv85YSEG54vlzaVAGscmK/SfwGsZx9CQXpNHPTxvAEXvwxYTyNnvy86I0X1kdYVfJo/MoPl6Zx566C3T0BJOdrLC+ARQmvCcDRGfIfOK3NiunTl0xSlm5B5jVZGhl4tfr5e/+isn5Cx87ffJzMQUTGyVK2il7WvHINKVCIl621p//yw1hY5XilhHYfaDLAVXgCuAfZmlq7JUBNmln3/yY2YRjpl7hwi+kcgxFTvL45L5h95LgMWgUsS5bc40uWuXl/XTwwPlSBTrZ6XoXxEpo7akDrpfp/22TIJ6qyEkKniyxQceHlkjLcjHZ/afd9Sb5PQEq5mkcjQv/UrcI1Y9Ea60jYyyngPgrxmV6n8wrgt+TPprKhVgP3U4zcA/5m57CZDoKyAWCIk1Jhpeej3pCkBmfSwlu5bIzJwwWPFw5+oknqnrD4z1DeIYgaAM6CSt7rKECuefwarJm+s+xT+XUidxHIlC9YjEISUf2AlXQ8YGQFXQn2JKKhcfBcvuaza3DlP/gC7H3e3iAsukkh+KSU39LW2SrtcBhwF8BagH+iAncC3ULEB+wQUFxDfZFnN+LS0RAszPPi9DigD6VJI7yu60VNaCSqDFDky+X5JqBps4s/+3gNCeBaJ7t/mbb8k+WKfC53S6nV0vc30mVTEK6Nqll5cu6bWwyPQ4iqhL4MmK54sbZbZzPdmGVfhSfQRn5DHBgnf6mpp2dk/McH7tOz8O4AyiBZ4D/AN4IBq8kwHlISgHPNN9TTogzt83W+acKrfQf0OGPe0z5ylbSyqtaNkSU+qX+Q+r+NqT8hwvIRv6rp9LS3vWmc3/eRiGaMk0/PVZGyALAHLQrpLaL6L5CWGiq2lTdLTE3aBuuULre4xTaCoJrkZ+FSlVPpJoViUf1wqeemBE4FWAUWQZfg58DWURTDtUZDRc2XCjRCn7YNmcBxEQk4JyzvS94dBH1yNHfx5SErPNNbqFHRVgoRWkGSLaYeUwZiLmwjxJooTkbH3Rb364E1hvzuLbx1r0QmtXSJeiO8mBd6pS67V2Capbel5iE4u2sqR3jZVggx2AV8fr1R+LgqFwOCHmCPBHCUwUYEfAv/IPrBPwELFBVQjcJLSdAI+ekeY0BGeSU/VvEXkWhZTvuYZNO55TWcFfcbwWhlxwy/aVjnkSuRPQiS6N3ykPvNLb3AFnw4RfxnlqOoWyODvHsEoY7gRGS4pmxsSliX1XXumfrz7FfvdzKglsgvk18q2/f0uyxr/suP3JzwSxAaVSWcBzpXwGWAp0xgVIZgQIufpwTFWgOfXOcPBNf8CJlbI1CfZBI0tq8q1cLrIca+HsI3uWtdeZkKbQZJKzFa3TEohJI8qvgoZFnMKc+bycl3XiEZXCQm0wRdjV4v877MaTyO9l0TkPYWKzlL2y0h5WblS+YFlWSPvDs38LgpJ8nwYaINSGR6z4PfAIcBiqvXyJkEANtVj/asPKN8UDkRQoXcG9SNjnguXVQ/yPB+dDYQ/yQdcEd99iW+rOCIpzlLIL3tiewc6uPaGtC8tN2rQJ9fKlUVftnX+DlIgucjQTO9QG/dB6Zx+F3DVqpZjI+VvJXxuolK5rlWIseek5BaZ1ttTsAGwQVhwpICLgXcD87LUa6pRdqyA5JcRYrRl/N+e+S6iOWRheqsRcPWSd6kzvXY9YL2AT7AlzGjeLQkdvJolkkZkgYxVOFKKwDEH0XQaOuAis75btwCZFh10dZOJwabQ0pUd5FuimsXj0h0ZplzP5JfyZ1LKK8qVysaCZcl3x5j9YXGqYj3QBUzALODtwLnASUyzzUMSGBMCO/OnxNQA8Qa869tFmHE9F+Ex4UkyVJOxtrRQz9FNxLCPGlgacklLLa+0z63pGigT+54BLsHnjjTnSVWE0MpNN/VrtTySr6efu1dr3dNNfa2foXEerssJIbM/ziWLYBAp70XKH0gpb5YwIIBzqgz+KlWP4hFgDEQvLBSFwmoBfwIcL217MVJOi4+MTAhBKceSoPQ+shDjaIXvTcqjWhkZ5M6cR2TGdy0SXTkER67PJE/tUqQqOzSjRpRnff59Wnr1Z4KxBWF5GjbrB67pZr1WeMqkkpBnGSm3AA8C10sp7xgolbZ1WJZ8v52dCavJn3/pAx+g84c/ZM/RR/dSqbyhvHXrcXJ4+ARp24cB84EehOgEWpjij4/YwJhlVSUD403auA5R/wyY1qlzmfvV0jw3JniXDFgEwfrVW3a6q6O3sH9nUmxE4GCROgdiPsI03BO0MO0cbkDtLlJCmlKeNlCSMAIMAjuR8vfAA0j5kLTtJyqVyt6CZXFOjoHvFZH7iRC2/+M/UujutrZ9+ctdcmxsQaGzc7koFJZgWXMFdMoUonEyIIFxIRI/IqLfl9gcDRggWeRMu54piKfOMvLXx5+9/E9yhwZ3JrJKEl4BqK+u2kdQAqs4IUuIBB1ZhwzB2qe9NbftdItNJOSInlaRUo5g2/12pbK5PDr6Ymnv3u3Y9jBgv7tS33Ge/x88wccoSBJSRAAAACV0RVh0ZGF0ZTpjcmVhdGUAMjAyMC0wNi0yOVQxNDo0OToxMC0wMzowMIE7bD0AAAAldEVYdGRhdGU6bW9kaWZ5ADIwMjAtMDYtMjlUMTQ6NDg6MzAtMDM6MDBdgbjCAAAAAElFTkSuQmCC;verticalAlign=bottom;html=1;rounded=0;labelBackgroundColor=none;strokeColor=none;fillColor=none;strokeWidth=1;dashed=0;" parent="1" vertex="1">
          <mxGeometry x="1279.25" y="500" width="67.5" height="67.5" as="geometry" />
        </mxCell>
        <mxCell id="XYBb2Tr0EMzCO1Vw7bGh-14" value="&lt;font style=&#39;font-size: 13.0px;&#39; face=&#39;Sans-Serif&#39; color=&#39;#2d3436&#39;&gt;Pub/Sub&lt;/font&gt;" style="shape=image;verticalLabelPosition=top;labelBackgroundColor=default;verticalAlign=top;aspect=fixed;imageAspect=0;image=data:image/png,iVBORw0KGgoAAAANSUhEUgAAAQAAAAEACAYAAABccqhmAAAABGdBTUEAALGPC/xhBQAAACBjSFJNAAB6JgAAgIQAAPoAAACA6AAAdTAAAOpgAAA6mAAAF3CculE8AAAABmJLR0QA/wD/AP+gvaeTAAAAB3RJTUUH5gMaBzoWoP/iuQAAMftJREFUeNrtnXmYXVWVt9+1z7n31pDKWAnzFGQQZJIQJhESwLbxwzYJg187ERISBHr6nJjsjgJCa9t2q0jIQBAFFUmFB7oVbUyYh6RAEUGQZp4zp1LDvfecs9f3x74VEkhCqlJV55zKfp/nUkVV5d51ztn7t/dee+21wOPxeDwej8fj8Xg8Ho/H4/F4PB6Px+PxeDwej8fj8Xg8Ho/H4/F4PB6Px+PxeDwej8fj8Xg8Ho/H4/F4PB6Px+PxpIikbYBn4LnjoTJBIlTqBFBMNUGNMOnY+rRN8wwwXgAGMXe2Kv9nDNz+dowFBN3wOxUIYyvVsKoBdWz0qw3ULW+nfe8RnHWwbyaDFf9kBxkLlig7jyzTVQlAXL8OMEGC7iSwL+hOwGigufZSYAWwClgh8BbK89bocrFiu1tIHCij1xWZMME3mcGEf5qDiJZlVVQEg6IxIQF7AEcDHwWOB/YA6oASYN71zxOgUnu9BDwA3IfqMhHzmqJJd2uZPK6Y9qV6+ggvAIOAlqUVQEEMSRhKEMeHAlOBTwC74zp9b+gCXgHuAG58flz16X1biyAGUCaPK6R96Z7txAtAzmlZVgVAigW0Eu2L8Hngc8A+ffxRfwF+DNxsbfKyBAEAU/xsINd4Acgptz6lFNeXsUEARgpYPQv4GnBIP36sBf6g8C0bcLuxJFagua3gfQM5xWz/W3gGmtserXJ3BNYYBG3C6teAa+nfzg+uvXxY4Pog4R9BGoyF5aNg0cNdad8WTy/wApAzFixRFv62wMfjCBXZXZF/B74ODBtAM0YBV4jqNaKyU1hNiBt762bwpImft+WMOx6vkCSCVXYW4UfApBTNUeAWFfkHUV2FKpPHl9K+RZ4e4GcAOaJlWZU4ESzSKMLlwKdSNkmAT4vqV1W1ThEWLq2mfZs8PcALQE5Y+GiEIqhIIOgFwDSyMYMLgAtF5NxqYgSgZVklbZs824gXgJxgEwgCi6iejvP2Z2nR3Qh8vRTaU0UE3VxcsSeTeAHIAbe1RgQFxSayE/D/cE64rLEz8E+CjhAMLUujtO3xbANeAPKACqHGAGcAx6RtzlY4SeGTpjtAwJN5vABknJZlEYIlknBvYDqQ5fjbOmCm2mCXMFAWLfOzgKzjBSDjiEK1kCBwFnBY2vZsA0cpOinBYjLho/RsDS8AGUdFKUXBcOA0suH1fz9C4DRRM8RlIfBkGS8AGab7oA9wAHBw2vb0gCMQ9hGgpdUvA7KMF4AsIwKqACeQTc//lthJ0OPR2jV4MosXgCyjCiKNuIQeeepJAXACaAnrlwFZxgtA9hkGfDBtI3rBQSoyNG0jPFvHC0DmkeFAU9pW9IJRAg1pG+HZOl4Aso7oKCCPaXfqgBFpG+HZOl4Aso4yGpfEM2+UgDFpG+HZOl4Ass9wsh39tyUKDGySEk8v8AKQfcqQy4gai+DPBWccLwDZZyXksiNVUFambYRn63gByD75FQBhRdpGeLaOF4Dss5p8CkA7SnvaRni2jheAjKOwHngjbTt6wSsonWkb4dk6XgCyjIAJWAM8krYpveCR5tGFddb69GBZxgtAhml8sw11Z2rvxdXpywttwH0rV0b+LFDG8QKQYdaNHVU7AiStuCKdeeF5UZ4AmOLrBGQaLwAZ5qyDBREQo2/iynXnhXtjoyv85D/7eAHIOKWgiloi4OfAqrTt2QbeBH4ZWLF1b61P2xbP++AFIONENkQEjHA/sChte7aBXwQqS0WgY+zItG3xvA9eADLO3xxZh0ZVrFIB5gKvp23TVngBuCERjWOjnHWw9wBmHS8AOUDqGgFQ5THgp2nbswUssKBgCn8ShOa2PJ5g3vHwApADJh0hxIEF0QTV7wO/StumzdACzI5spIoyYYIf/fOAF4CcMHpdiWGlIgJvCFwM/CFtmzbiYYXLgJXFOGDyUX70zwteAHLChAlCWzVGMCTCk+IKhL6Wtl3A88DXEP4iqpQLcdr2eHqAF4AcMXlcAVCMQqWe/wH5Es7xlhbPAP8kxfb7xQognDHOB/7kCS8AOeNT44sgUOgUHTqs41aFqaRzVuBeVM9R1TupNIHApPF+6p83vKcmpyx8NKoV3UjAyAGiXAX8Da40V39SBX6pytdFeLH7h37dn0+8AOSYltYIFTAWFJpBPwNMAz5E3z9bi3M8zkXk56J2bWINRiyTfbx/bvECkHNua63QEBcpBxFRHFII47HAF4DPirA3YFDoaVy+bPgPiSr/C9wE/LQgySuRhhRMRFdSz1njfRPKM/7pDRIWtVYQwKpAU0FMe3TQM2/aqwsBp48ZKtQXhdC8Swi6/2ejViBAbKGzoixvUxRuPnDX4JttI7v+Ur+8jkQNIsoZR+UxUbHn3fT3enHAmDGvA0UQtFZUU8AaGtqKVOvhRxcObq2bVPO+L2yt8upLFX19jTy17H/jJ0oFTh9aL3aX4UaahwoNRagvCnUFpFh7+pUYyhHaVVU6K8qKNuWttUpbWbUSsfS5N+1fPn54HQicedSgaTJb5ZwFa6iaMo3JMIwVFEWNEoiiwPVTh6RtYp+Qy14x4/o2Om6Zx5DPnY9uPHq5ITBQMQVUEorliOgd55QKiBpAmTOtPu3L6DdOmrWGoL4ejeOrgEtVXVpxYyDY8BIKtT2gKHHz/MRCYtlQz7OWzONLwH8svmxwNPgt8cU5ZcJIqNQlm/zcJAoSFFRskIRxJHEhEalNnRRA6By+mqFv75rLQSZXcn7+3C6C2BCFCY2fPx9RAnXVZw4HDlBlNCLNoMMQ7SQqrgBWgbyk6GOgr4GtAExb0IaoYd65g7thwzsVulUhTlyHZ2PHgGzyZYfK4jNjficikKglKihBYurU2D1QjgTZ2wYyEuxooN4k4RpEVwHLQZ4R9AlrgxUN64bbuK6TqT9bTVguMjdHs4NcCMD0uZ0MHRrT3m5JSopRhilMtMKpwPHAPmy1gKaWBd5A5VFgMcKvi3Hd67GJmT6/jKDMHcQzgncj7/lmx2Pm3E7CBCIgSUCM7GUsp6noSaiMB3bG1TfcHAq6XoXnJYgfBPkN6D2Fjvp2FeWiuZb2cB03Ts1+acTMBwLNmNeFYGhvDwGtF+U0hZ/gXl8EDuX9q+fWAWOB/wtch7IwMfE0kFEGixFl5nyfwHZHYca8MiqGcp2g6Bhj+KKgi4AfAGcBe7Plzg9OOocCRwAXAbeA3IjoKUApMhXUxJx3Q/azomdaAGbOLSNqEGNRZSyYHwA3A6cDjb182xA4GrhW0FtQOb5iBVSZMb8j7Uv29DMz53chKEce+03CRE8W5BfAf+I6c9DLt20CpgC/EPiuiu5RioYQJsL587LdpjIrAOfP7cIoVBs6AY4RYQEuyGV4H31ECfgYojcWRc9GbQDCDD8TGLS4Z6sIFB575PJzFG4ATqLviq+OBC5EmYfoEeWCARVmzMtuQudMCsB587sAoaOhSqFc9wngx8BH++njPgD8SE1wEWoKqDBjbnYfmKd3zLjBjcQqUmdFvwz8B7BnP33cx4AfFxKdmBQsxgrnZ7RNZU4ALljQ7rbxTUJdJTwa9LvA/v38sSOBbyD20zKmEwRm3JDNB+bpOTPmlUEFKXUJqufgchf0d+nyQ4B/l9gcloSWUrmOcxZkL09y5gSgvRyiVrHIWOBfgQMG6KOHAVfoivqJqN2x9sIGOYpgTIxW6k8D/pne+496ymEI14jKbuWGLuqT7DkFMyUA58/tor6YEIitF7gEOHGATdgLuEKN2R1rOe+GbDtwPO/PzPmdiCRYW9gXuALYZYBN+DjolxEpJBIybV457VuyCZkSABMbF8GLORE4IyUzjhH0M3s+Vr9D75MPBrqn3EW1BnQqztOfBn+rqscKlvtfz9bJycwIwDkL1pAUEwQZitvfH57iPZn6ypFdB4r1uwJ5piFeB0Ak5jDgsymaMgaYaZGGk3bPlm8pMwJw5OrhAKjqBGBiyuYcAJyt9fX4aUB+iUyJmNAofAa3vEuTvxY4FsjUoJIZAfjj8C4iwYCcCmQhmPpj0tU1sucn6T1ZQVAM8Rjg5LRtAUYAp8BasjSoZEYABAiVMbjY/ixwICIHAT4uIIfMmO+embiDYvumbU+NE2B4pgaVzAhAjcPIzsMaiepH3B3KzgPz9ICgE+AE3v+syEDxQYQPpm3ExmRCAM6b39b97f5kY/rfzQESmYL4mIB8Eg+pp/+DyHpCE8p+ABdcm41BJRMCYMUizpRmsrRAgmaMLalk42F5eoKCaAnXprJCARgNUMzIqjITAhDaAiaJDdl6WACjrMHnu84tWiR7bapZilU6h1bTtgPIiAAgBmuCAv0fn91Thon22Ukxz8CTzTbVVReIsWnbAWREABRFxSZAdjZIHV2oJN4HmFuy2KY6168uJXgBeIeaky0GVqZty7tYAVT8waA8ooBWcM8wS6xoHN1FISMCkImcgKpKzfeXOQEQ14gGG1tStEE111GhKpqpNrVhkLOajUElEzOAOdMaur99iWxN2V5OTFjNcb/obmVmo5fg6vu148LS1gIdtZ+ZzbzyiRqIwk7g5bRN2YhOXBvnRxnJHJyJGcBGPI6reZ+Fvdv1wENG81fvXsTlOKxdw2vAU8BzwBqgDTcKue+1luBSGAmMwiW7HAEciMuWlCVB3mZeOnoxey89SUEeBGay9SSfA8WLCn9K24iNyY4AuPLyb2B5hGwIwAsKvweYM22g8kf0DWFDPWtfeo2hu+40X+FmkLWhmvbYRpbgXYP6u2aisRiKRMZq0IQwTKEjG5PVnvGB+04jrusCWAa8Qjba1INWWZ6laVVmBMCaGJOEVWAJLn132ttv91plRZYe1raicULjmGYUltd+QiIWhjay/90Rs+8svSfj0axZyqzCc5xeHU1nIbTAOpR1eez84ErB1Yp+vKHKg6QvAJ2gSwKRpOFPv0/79mwgMwLgSnYB6F0gS0n3UNAbwM8DI0nDk4+nfWt6zN2XNGzxd4thsy7AWbPcD+9M2/g+JEwqxGFdVdCbFT6JW+KkxYOishiBzgMPSfvWbCAzA9zcqUNAA4C3gDlAmrmTfoEmy7A2Uw/L0zOsCQELhgeARSma0o4yW2G1GJgzc2jat2YDmREAhwU1iJU7gN+lZMRzwA1qgjgq2Uw9LE/PmD29iTpbD1YquEHllZRM+W9EfssG32x2yJQAzJleDxqDYS0ugeOzA2zCOuDKNcvLfzIq7PV8NrZqPL2nLViHupLxrcA1uO3PgeQJ4Fso7dWGDq4/t2G737AvyYwPYANikATK9fGjpWp4KTCb2gmqfqYKfBc1Pxsxph5FN6yL88xtj0QkiRCW3H6fC2nY0jAktf8qYQKJwKeOzvdZqBunjnApuBQVkRtUdS/gy/S+DFhPeB242Ab2j0EUUChnrwBtJlv4+XO7XCCnGkOQzASuxBXv6C+qIHPEcpkKbYhuHJyUO1oerQCKGIMCxkCEMYFqCaXkTslJI+gInBqsQehEpQJUjVJJjNruU9CBGFSVTx2V9sZM7+nOwycqI1X0O8Dn6d8BcDnwNVHzYxVVtDbDzRiZFABwVYERBWNDrDkTtyToj2xB64B/Myrft8a2qVjmTs1KApltp2VphLWCCWox5kGAJMlQdcE8H8EF9ozGHY9txgX7lHACUMEFBq2svZYDTwMPAi8k2PVBbbVorKCiTBqfv5nBtDlljFEMjFBXHuzv6Z8ENM+AXCLCHapqgcwOKJkVAHD13EShM4SGWE5QNxM4nr6bvj0LXIWan4toZIOYQscQfnRhpm/LJrQsc6M9GEyQYJNgJPAhXC3Fj+LKp4+m5/6eBCcEfwDuA+4HnrKiawMVhADFMilHs4ILFrRTiUKCwIKhhOXzwMW40vF9QYyLY7nMBskyk4RAtmeTmW/pM2sVXcGg6C64IKFzgYO3423fAH4OzK8r8nS5lpshyw/q3dzWWmFd3TqGdw1HEGrT+U/W7s2h9H1dhdW4yMj5Av+taJsihM0F4re7mHJMfu7djBs6EYURaxNZPSw8FNHzcIVodurlWyrwR2Cuit4qygq3pa2ZnPZvTOYFAGDG/A66RaAQJERJsB9wJq4K68G4AI/3u5Y24HngHpBfSKKtNnQBcki+Ov+iZdGG7y00CnoKrpjKifR/zHsnbov2OhW9R5AurIIIk4/Kz7Jg5jznE1ABa6RgrB4NnI2bNY3l/ZcGilsuPQncJehtVQ1eLEiCVYOIMjcHbSoXAtDNefM7XZVXUUxHAdsYDccV8Tih9nUUbro7HHfCrXtN+zLwoChPGMyKxFgrFioly97PN+bK29+yrIogFAilSvQR4ELgNAY+8+1aXODgtdWg8mgxKSHApByJwDkLlDq7HisFQCEmIGAMroTYccAeuPY0CqivXfMKXJv6M/AA8FxBknWRGgJRVIXZOTo7kp+WvxEzbuhERRHrzDcqJKIhokVRSiAFIEGkIpZqHATVwMYuT6QI5ZEraHxjj1yt9Rc+0omU6iGOQCkhTAUuB3ZL2bSXgG8Y5GZFI7UJUqxj0hH5ubczrm+Dpf8Dx/5196E0VAtAVAQpiWgRJQAioIJqhUATrHOrWBVEYO60bE/3N0d+ntIWmH5DB4rFaIBs2N+Wd75YwZAAwuzp+VHmjWlpraJqEQlQGCmqX8WN/FmJVFoHfE/ge4q2xXVFTDXmjCPz4yDsZtYs5bHjVrDLqw28kz7hXXETCsQhiGXOzCycMu49uReAwU5La1QTMgW3DXoFcBYDE8jSEyLgJyrMMpZXK0UhjC1njMtWNVzPpngByDC3PqVQhHBtFUQORrkW5+jLMr8BLhL4XzGGYW0BEyb4ZpZVMnUWwLMphbYq4ZoqwK4o3yb7nR/gr4CrFZoTtazKSP57z+bxApBRFi6tYkMDJhgC8s/AX6dtUw+YBFxilPrASi1YyZNFvABkkO51v9okRO1FwDnka7kWAOcrTMcmBoSWpdF2v6mn7/ECkEEEwcYRxgRTgK/iYvbzRgNwmZrgE8YkWJsn/dpx8E8lY7QsrXY/lb1xWWwOT9um7eQhRc4U9A0RZZLfFcgUfgaQIZYsUQShGBcE+BxwWNo29QHjBT27Eod+tMkgXgAyxIphVVSUahgdhDuvPhj6TAicWwrjfa0KLcu8LyBLeAHIEGEiIITANNw5/sHCwcDnkcJgELRBhReAjLCwe6tM5UjcqbTBhACfRaNDQP0sIEN4AcgKIozoLAB6OrBr2ub0A2OB00QSVH2zywr+SWQEUVjTUB1JPqL9esuJqkGTSJK2HZ4aXgAywO0bpsRyIHBQ2vb0I4dTS791+6N+GZAFvABkAEFIsOCy0fRn9uO0GQ18REUJfGBQJvACkAESlICgCScAg5kA+KhRUx+HGSuRs4PiBSATKIjuhkvmOdgZpzDGd/9s4AUgKyg7A/lMWdQzhoI2b7k6kWcg8QKQHZrJ56GfnlJiYEq9ebYBLwApc8dDG6qgj2ZHEQD1ApAVvACkTJAI6hzizewYz6OIMArgtkfL2/tenu1kR2hwmaZaEgpRIuxY0+LRYgyi3g+QNl4A0kaUpGBCspPieyBoam+3opK1xMY7Hl4AUkYBteUYWJ+2LQNIW1OjVS8A6eMFIGWkmoCpV1wl3h0BBVZYNeCXAKnjBSBtjHRvia/CleQe7FRr18qZR4dp27LD4wUgZSYdu6Ge3Epc5xjsVHAFNj0ZwAtAdliJ6xyDnWrtWj0ZwAtARlB4E2hP244BYJ0ifgaQEbwAZAAFUHkdeCJtWwaAVoPuKA7PzOMFIAOEGFRsO3Bf2rb0MwlwrxUth9ZvAWYBLwAZwKIYBJT7qXnIBynLFR4UFayxadviYXDknc80p1yzmrjaiAmcg79gAzrCKg9cMnyTv2tZVgXVEYjczuBNDPIrRc4WaJ98VGGTX0y8pg17cRPmWx1glfWjDc0vWX59dVPaNg9q/AygHznlynaICxgTA9QDIxKUnbqGvfePVaFUWMPgXgbcazVpD+S94055pyrFyyrgzkQ0Nq1WokbDyVd1pG3zoMZHYvQDE65qA0mwFsaUY1lRXzhMkb8DVieil64udWw+I2Y1BrgDmArslvZ19DHPA78KxKCbiQCse6OOpCGpQ/kmIg1i+X6J8PEykU64sg0RYfFlfjbQ1/glQB8y8cpOTFxHUujAaAFIdlfRL+A69L7AC8CpwAvGBNx9Sf0m/75lWRVVDUTkGuDLaV9PH6LArIIUrog11knvnv5f0QbGgKsg9FtcXYSXgB8DC8C8DJawPSGpM/zuX7wQ9BV+BtAH/PX3lfKaNsQottAByFAr8d8IXAgcibvPCuwOnKyqLxTqC+95nziwBIlJgAXAJ4H90762PuJJ4KeRRpsN/ldrkTAEa/8K2AmwuOrIlwOfAHsdSkvcFKwVVU76RkSxYRW//crOaV9X7vE+gO3kpKvaKa/vgMBgRAogEwRuFLgOOBp3jy1OAIrA6SIypNJRZuKVXZu81+h1JUTgpXHx07jRbzC4ymNgnoTBC6gy+ajipvfv6jYkDFG1I4BP4DIHU7t2AcYBP0C4SZRTgaIJqsSVJiZe6f0D24sXgF5y8hUdnPyNTgwwpD4GkYMSa/8N+BkwCWjgvR1YcR7+E0EJi89t8ssJE9yKbO/WEIGfAn9I+zr7gEcQ+aXGSXfmo02oNFlEBXFLo2N4b7ZQi3Ognq5wsyLfQ/SQFY81gCgnf6fMydd0pn2NucULQA859Yp1oIoaxRYTQHfu6Aq/JLAQ+DvemcJubrqrwDDg86KmPq6OZcI1m0b/Th5XxGCoavQKcDX5jgt4C+XqgOSt2AZMOWrTlIcTruygfl2IijahfAEnmlu6bxaXNu2LwMLR4zq+JrCr7ayg1nJaSwcnf2dHiKTuW3LtBFz4SCdYC4UCsuFSdNPLEkFQbNFgrGXS4cXefBSqyvHf6KChCAmCYBtROQ24CDgWKLBtU3YB1gKfRvntM18r8EZh046xaFnkEoUIgaj+E3AFUJf2/e4hHcBXKrGZXQysIsKUdzn/TvpmJyawAJOBG3FZkbYlSYABImAZwrUId5KwXgUQi1abuGdW75r2wsciRAwkCWzSpjb6VgSrQkyAAc4an99ulDvLb18WISIkqriCGtAerKQxbi6JUES1BFJASFAqiFQLgVaiKvbd8513r0e3xMRvdSBGsImlGBJEMcfgHHyfAIZSS+zTg8swwH8hfA5lLaosvnxTz3bLMhc4pEijoP8KXEB+nlcCfFfV/guYMsCU8Zve64nf6gAFhdGC/hyYSM99HgZ3gOouhB8myoMBxFJ7FL/bhm3DJUuUt4ZXqYtMbYmiLibDGINSAoqIllACUSKgomIqk8b9rLqo9Z0q7jYQxCpTxvVugEmLXDSoBUuUMSOrlKsGQUmwGIIhoGMFjgMOwE0Pm3GBJMOATty581W1ry8DD4M+TWXNakquBF8YKUkoTBr/3gc34ap2FNfKpBqhpcJ+KNOBz+D26Xva8Te+71XgHyQ012s1Iawbwm+/sunjuOPxCokVrGVnEeYAp6f9LLaRn6vIhaK6WlWZMn7TGc5J327HJAZdsx4Z1vgl3FKnt4cDpPZ6C7hFYW4lKT5TF1apbwioVCx3f+299VYWLYswGJJaDpa6zoKUG+JRoAfjZnR74NpSd7uqB9bgjjJ3v/4MPAS8JFY71AiiEAWW0W2lDT6dLJN5C1tq02EjiiUoCPZwVCfinGlHAGPY9sazGvfQ7geWAA8D6wUoaydDzDBOHyecfFU7iQFjazdIaFblbGAmbq+627O/PRjgKWCKqj6rJNxz+fBN/mDBEuW3D8CZH48ADgR+CJyc6gPZOgr8Cvg7RF5MiiFnHvreJnbqN9pJQlDhMFFacBWD++J+Ku75zkH4WRLr8iAUqF8BHTuz+PJ6Fj3cxevH1LFra1T7cxkGHA+chGtTBwDDt/EzY+Bt4DFcBOdisfzRGhK3JNVtnmWmRWYFYNGyyK20sSAFQaNDgenAFGCXPviIdcDvgOuMcH+iVAxw/18S/vBK0j2u1+O2ni7CNY4Sfbs1J8BP1MhFoi4p6OJLNx2tbnu0ihF1x4VE98L5Az6N8zlkiQrwY9BvKLwRRmDFbpzxCICJV7WDgMAIVebinmdf3lODm109CPwQ4S5UO1HDh/cxHLtfgDipqAcm4JyKJwJ9EV30KvBLYH7YUHg67owIahc3KaNCkEkBeGf9q4jIPihTgc8C+/TDx60GFoHMLpiO1tsfK/JKGyap2iNRLgA+hRsRejvd3xqC6ziXyJ6N/6GvuXXx4ks3zRC+aFkFxTkzVWU4wpeAf6BvGm1fsAb4jqr+QKBdGorQFfPuiL8J32oHFayICdReCvwz7wRJ9fV9FZzI3wlcG9pg6T67qD310IIY0WNxHf903HKxr3kOuEmdY/O1btdTFkUgcwLQ0uo6vyQhauKTgGtwATX9zUvAFT95IHpgbYf+rQjnAHvRPx1/Ywxu/TqVhLsoCCSw+PJNZwK3LlXqTCexFrDGFI21nwe+Duw5APdmazwP/Ita/YWIxBInRMPqOOvgTZvWxCvbUQFjFTUyGZgDjKJ/g526heBVVX4ypkluPvu4wknApfT/WQsF7he4OEYfNrUDUFlzEmZKADaM/IaCWD0b5ApcSOhAsf7JV+2Kh5+L96xEhCIDFolncOGyMxH7MDZ4jwB0s7DVnSOqhEbqouQY3O7A/2Hb1619xSrgdpDZo4e/1bp8zU4IMHn85hv4xCvboWggshOB64EPMECRjqqY+iLJcfuHrx+0m2nGxRsMFH8BLosDWRQkmgjbvvs0EGQmEGhha7V7qK0Xy1dAfsDAdn6ApoN2M2NPODAMh9SJHeC09R8ATiUpbPV8xpRxBUApRYkiPAzMwO1K/Bdu56O/aQdagE8b4ULQ1uVrdgFki50fQBRMV1LArbf7woezTajCsAaxJ34wDA7c1ezJwHZ+cOc5rgsT/Tu3Re0c21khEwLQ7fBLAgJxa7PLGfgRDYDAwAd3NRy7XyClQr9Xse/eTXgEt8Pw/dd+XRe/38RsyrgiJk545cgCQBfor3A+kvOAu+n76EHFbXv9GjgH+AJwtyqVinZSNAFTxm/dJ1mIlOW7liKU7+KcuQ/i4gX6rQ2qQn1ROG7/QPbf2WDSm+82A1eIyFSbFATeWeqmTepLgJbWKoJQ0ZgiwZm4QzSj0rbLKrS+kGjri4navp+odq9NnwcWiMqPNbCvYQWNG5CgzOLLt22g2ng/OzFKaGUYcJDCCbjRtqdbpd1svMV1L/AA8AxKGwJhrCTB5uMnNsfHZq1nn2e6eO6QBhQFMbuK6meBacB+tT/rU70NDBzzgUAO3ysQSb2lAy7z83nAf4tLAcek8elu5qR+W1oeq7pxQDgO5zXdb/vesW8QoBLD/c/G+ufXbV81zO6OvwpYKHDd6K7oiRV1BVU1qFiWXN67GqG3P1rFqBAHzlSrFpFgiKBjccFSH8QFtozCCcIIXHALuKXDalzAVHeQy59wcRIvGasdtnv4rO22T+6lM2vitzoQFRTLRy57kweu2uUQ3OznrJp9feJ0FYFD9gjkuP0CKQT9PpPrCX8CvoDwuIkDPnVMuslRUxWAhUsjRBRcg7yFjAW5iMC6TuWuJ2L79jplO0cRA3QBSxR+IOgS1FRM7dTr3b3s+JtjUWuEQYhV3dahQKGaSBKakooUgZIqdSKMwO22rkEoK1QFrVjtrBozRLtr9yW1MNcz+tCDPfHKdkTBGiVQU7SiH8UdpjqFzZ+k3GZUYbeRhr86NDBD6iSLJQjvFOXzKqxVlfddPvUnqQrAbUtjwqCKteGFwPfIXnALIvDUa1bv/XOsSe+apMHNcZ5AmY3IbaiuQcAmBcJiB3dfPLLf7L/joTJBIlRL7lHrVp64O0bleoupJqiR9wTy9CWnz1LW1q2hmBRRFUygw6xlEm5n48OwIY6mRxQCmHhwKPvvYiSDnR+gDJwfGPvjShRy1jHp5eVJTQAWLdvg9d9bYBFweGp3YSsI0BXBb/4Y21dW2p7MArqn+68o3IRwgy2ZF4OyJQkMxipLLm3c5jcbzEy8Zj1aTDDlkEQCApvsqc7ZeA4u+GublwWqMHYnw6kfCk0x2/muHhLkDEXfFJRJ7zoqPVCkuAsglAhEnPf60PTs2DoK1BfhQ7sb2cYGJbj7ug64SZEzK7H+C8qLhfUJWOXeixt859+IxRc3seT/DQerhHGEwitdWrhC4UxgPu74tGEbBqy6IhyyuzGlzM0l38N4Rc/qSgqpTsNT+exbn1LCzgjQPUDuAg5K8R68L90OwbueiO3LW58FGFxo7wPADzH8RhO61J0L4Z4+XOcPZiZc1eEOgKlCqHVYOQXlItyuRh1bWBZYhQ/sZORjh4QS5qPwUKsqnxBYPnkbd1P6mlRmAI0vrMb5/mQ8/RPf36coUCrAbiNlS9tJ3ffxT8BXQP8vyu0oXeaVMqbe+M7fA5Zc1gilhLBswFIWlf/C8Bngn3infuJ72m5gYPeRhkK2p/4bc4DAEQgsXJZOYehUblV55yYSUROqnMg7W1GZZ9cRRuoKiXZFG6ZO3ev8N4BbUJ2b1Df+JSh3YAK3Hv3dnOa0zc4l93x5KAATrl5PEiQEiVkVF3V2WJH/QZgGfA6XZVlxt5qGgrDL8Izs+G8bTQgfHdZZ+M3axnSiA1MRAAEKVkar8JFUrro3KIxoFEY0Cl1rFAQDrMedf/+hUftIIhIXOtdjRbj7kqwc1Ms3S2r38eQr2yl2CTbgeRX7dVG5E+RC3Im+oSja3CQMa8jktt/W+Oi6hupIUVmdxoen5gRU4SBcIohcoEBdAXYeZoy6bb0HcFFd01EeUJE4RvlIMpTFlw9N29xBx+8uH8Ld/+xSBoqaROFhY3UGcC5wDxDtPFwkB86/d3MgyAfS+vABF4Bbn9ogz3sz8AcztgsRaB4qbwaGr6tylk30FwjtY09dhYRw/2VDmdXLZJSebWPxZU2ENuDFpv9FjXRaZWFi9dPFApc2N8lbadvXCxpJ8Uj3gLfWm15RhrwdAXwV+Ne0Lry3xAkLo1g/97unk67X1kEcK4sv8Vt6aXDK1espiDB2Z8OpHwqHxAm/NIaPp21XD7G4jFPXhZHlk8cNbPLnAfcBNK2MSKpgiukf+OkNYUBTMZTC6R8OuyZlLLnDjka3n2WRO0peNKZfsvv0NwZoVoEgGfjZ44AvATSBoEgBd/Ajj4yxSilnjqZBjbpM3iXy26ZGF6JEusO1B5JUnIAqEpCz9f9GNND7FNae/iPAJW3NI/U2CII0wvJSEAABNREuvDOPrMVVpfFkBgU0wm3L5pG1sSaxphDCMOACYNUgEiW4M+d5ZBVINQOpFDwbENwzyW0dxZXGBEhp4MNyBlwAXGprAy75RB5X0svVUKnFMnsyg1RwbSpvRBvsjgf+wwdcAKaM36ByK3EFHPLGqmFmZbUmYp4MoALW2Ar5nFVWu+2edMQOsATYiOeAthQ/vzfEwDNt8Sgi6/2AWUELhiAiAZ4lf7PKtYo8n5bRqQmAuHzpT6X1+b3kbYWHXa3CtE3xbMAqGgi4TMN58wP8XpSX02pOqQmAdd70+9L6/F7yuCgvCvmuCT/YOOOIQnfOoGdxBVbyggL3gW1PK21xmjMA3MXnahlwP2hHVnJMezZCQIW1uMrPeWE1yv2IoClFlqUiAN2lkQT5A/DHVK6857wOLE7zYXm2jivlrneTn92AVoSnIb1yYektARKDmGQVMA+XJTXr3IaVJ9Bs1XbzOCYfVawlY5SlwB1p27MNtANzUdrSdMWn9tHGKNYaxD2se9K7BdvEC8B8MRrXFQeqXqinp5S1k0S1gqs8/Hra9rwPvxHlN1LLF5kWqQnA5PEFFIsia4DZZDuM86aiFP6kCG+vyWu4+eBniBmGIKjqY8DP0rZnK6wCZqvQLrH2uspSX5BqNItsCKc1/wP8Ik1btsJDAjdWNVJQpk7wDsCscvo4IQ4siCQg84Dfp23TZlDgpxi9H6F7+zI1UhWAyUeVqDNdCEkncCWwONW78V5eULhEVV/GGL/2zwGj15UIrWCNPitwKdlbCvw3cA0JlaASb3Nx1f4i9XjW9qSJRA0gLwNfA+cVzQCrQS5vaizfp9RS/Hoyz4QJgjWKWOgqFu4CZpGd5eXjwMUob3XsXKQyPP2E2KkLwFnjBSMWNYpJtBW4mPRVuxP4Njb55fr2OlBl8rj8ZZvcUZlUm6nVRTFqzE3Af+AKtqTJi8BXreEpARpWRJx1cPrLydQFANxSQFRIAsOaqPBfwBdJL0x4BXApyPcxJhaBKUf7zp83pnQv16ytKvqvwDeANSmZ83tgxpBXV//O1MpETTkyG8vJ9CVoIxYuqwKCSSwayJHAt4GJA2jCs8ClIdzuqvj5Pf+849oUYDUUI2cDVzBw1agU+DXCxRaeNOJqL085MjsDSqYEAKClNUJFESuA7gVcDpwF9Gey/Qi4B9WvA492h/pO8p1/UNCy1FWiHtLYSUdnw4nAN4Hj6N+kuGuBn4J+C3jTuEwYqVUB3hKZEwCAlmUVrBoCY7EaNAj2FNyy4CRccci+wuKmZ/NUuU3knfPkfuQfXCx8NEJFCEhQY3ZG9WxcUZFD6Nt+0AncDVyncI+olpPhRYK2OJN+pEwKAMCtS5UhYRvlpKFmqI5QVwZqOq6c+PakgO7ERffdInCzSPyK1RCsBREmj8+WSnv6hoWtTgSMWrQSIsV4LK7G4KdxhWq2Z3BZi/Pyz0X5lQptAphqQnV4XSYcfpsjm1ZtRMuyCm4pZQiChCQJRgKHAx8FTsAp+FCguJXrqeI6/fO402L3CbKs3G5fKw0RVA0iyuSjsqfQnr6npbWCCKgVTBSIDeM9ERmPa1MfwfkIGoAtNQjF7Sqswx1mu6/2+qOKrhUrBCbAqmVSxttU5gWgm4VLI6wVgsDF4keJUAgYDvoBYD9cTvjm2msY0IXz6K/EhV6+CPy5au2KonG+WKvuBqRVm30gmTm/o/adbCb0/J2fBJqgCLOnD/7ipi1Lqy50WBQU1KjByhhxdSv3wrWlUbi2VYfbRViFa1MrgGcFntcgaCNJABDr3i8vbSo3ArAxi1qrCIrVTc1XlECNsUYLopokgYlNou/6GxjaVOW1NxsHfVjv9PkdqChGzYYHLaKhqpQQSii1VqoVFSpibQUJE9cbIDEBopZ509IPWOlPbn1KGfLSWspj3lvizRQEW7UFFTFiJCKxlo3yQQig1gLC5KPzt3QcND3g9mUxIoLVZMN4ZhLl1eZOPvTqcCYM8s6+MefPKRNGQrXOEiDEaKOgY4HjgSOAnXhntmRxo9oK4G3gMVEeUnjJYDutGExgUStcf+6OUwNxwRLlzt/DZ46tIoHUMo8DJkDVZmorb3vYcXrFDsAFC9rpjIqUgpgkUEximkE/BfwN8GFcx3+/bKYx8CbwGLBIlDu1FkBjw5hiRxM/utA3m8GCf5KDhJk3dBAYS5wEiNCoyieA83Gjfm8XpGXgXoHZWPmNGtsVRg3EhTJzBvmyYEfBC8AgYOa8TkTBGhB0T0Vm4YKn+mrOvh7lJ8CVCG92L4GvPzev5R093XgByDnnzetEgKSgBHG/hk+7sFa4WFWeDAKLKjuUX2Aw4gUgx8xYUEETxRgLyvEK1+HiIvqTVuB8kMcKQYyq8KOpQ9K+FZ5ekonTgJ7eoeU2RBJU2V/hO/R/5wcYB3wbsXtFSUA5GviClp6+w88Acsp5N3QgKijaLMhsYMoAm3CTKH+PsE5QZk/zS4E84mcAOWTWLBfpsMcT9QgyDfhUCmZ8WoXPRDbAV0rOL14AcshL+3YAwquHdR4ITOX99/b7gyIwo2DifVSFmfM6074tnl7gBSCHlCoBQRQEIFOBA1I05VBFPhtWfa20vOIFIGdMm1dGRbFhMhY4I2VzBDg7KupuKnDBtX4pkDe8AOSMWDfM9o8Fdk/bHmCsIOMB1u/+Qtq2eHqIF4CcUZQIq1IATqT3Ib59Sb3CRwMrpmHFLmnb4ukhXgByhggE6CjgmLRt2YhjE6Mj1HsCcocXgByisiH5SVbYne1L0eZJCS8A+aSZbEz/uyniMud4coYXgFyizUCW0s+UyNaMxLONeAHIJTKE/s1p31NC6bujx54BxAtAPlmLK2aSFarqbPLkDC8AuURWkH6xy42porIibSM8PccLQC7RrAlAJ6Kr0zbC03O8AOSTlcBLaRuxEc/himR4coYXgJxhrDB8bf1qXIWjrHB/IbBt1kcC5Q4vADmjoylmzfAuxZWi6tje9+sD1gL3RYlvSnnEP7Wcse8zQxAEVFqBP6dtD/AErj4e86b7VOF5wwtAzpg1SxBRrPIWcAPpbgd2AfNBV6O+KeUR/9RyiCoYoyi6EHgoRVPuESt3us7vcwHkES8AOWTOtAYKEaiR5cAPSccDvxL4oRpdi8bM8dP/XOIFIKfEARhXKf0O4D8Z2KVAGfi22OS3qIL4ZpRX/JPLKdeft6EsV1VU/h24ZYA+WoEbUPmRShAjMGe6PwaQV/zGbc45d06FwCSI6O4g/4bLE9hfWYIj4GaBi1X0bWss885pSvsWeLYDPwPIOXWFiPqoDQOvicqFwPfon/iANuBqUflHVXm7aizFDl8SLO/4GcAgYNq8MoUhXSSdJcRKHaJfAP4B+GAfvL0CTwL/btGfGaSaJAGlQuRrAg4CvAAMEmbNUl7du5MwFq5vrmfmyq79VTgH+Ftgr16+7fPAT0B/0hXzQn0oKDB3mi8LPljwAjDImDm/A0FRDCFiItVDEf4Kl0X4cFzqri2lE6vgtvceB+4F7grLxafjuqoaAVXlel8DcFDhBWCQMnO+K9WlgBrBJDSp6FiFQwV2wQlBc+1PVgKrgDdAnlB4UUzcgQ26C5AyZ7of9QcjXgAGOTPnddZCB2WTWD0pVNFqXcGIkmgciWy6cSBJiBrLnOl1aV+Cpx/xArCDccG1SrELOodWwVhEABGeHFJi/w64capvEh6Px+PxeDwej8fj8Xg8Ho/H4/F4PB6Px+PxeDwej8fj8Xg8Ho/H4/F4PB6Px+PxeDwej8fj8Xg8Ho/H4/F4PB6PxzNA/H8Xu8ZnDKQ43AAAACV0RVh0ZGF0ZTpjcmVhdGUAMjAyMi0wMy0yNlQwNzo1ODoxNiswMDowMLa+D7IAAAAldEVYdGRhdGU6bW9kaWZ5ADIwMjItMDMtMjZUMDc6NTg6MTYrMDA6MDDH47cOAAAAAElFTkSuQmCC;verticalAlign=bottom;html=1;rounded=0;labelBackgroundColor=none;strokeColor=none;fillColor=none;strokeWidth=1;dashed=0;" parent="1" vertex="1">
          <mxGeometry x="933" y="649.5" width="101" height="101" as="geometry" />
        </mxCell>
        <mxCell id="XYBb2Tr0EMzCO1Vw7bGh-15" value="&lt;font style=&#39;font-size: 13.0px;&#39; face=&#39;Sans-Serif&#39; color=&#39;#2d3436&#39;&gt;API Gateway&lt;/font&gt;" style="shape=image;verticalLabelPosition=top;labelBackgroundColor=default;verticalAlign=top;aspect=fixed;imageAspect=0;image=data:image/png,iVBORw0KGgoAAAANSUhEUgAAAQAAAAEACAYAAABccqhmAAAABGdBTUEAALGPC/xhBQAAACBjSFJNAAB6JgAAgIQAAPoAAACA6AAAdTAAAOpgAAA6mAAAF3CculE8AAAABmJLR0QA/wD/AP+gvaeTAAAAB3RJTUUH5gMaBzoT0JUWNgAAIjxJREFUeNrt3XuYXVWZ5/Hvu/Y5p6pSl1QId4IoooBcFLyBIpqqgNpqX1TQ1tF+Rnu6x24ee2xtwEqgq2OqQG0dG8fxcdR57Om2px+12zsgJFUBQVBaLgqCIwEFIoSQW9Wp2zl7r3f+2JWAIpCctfc5eyfvh4eH/EFW7XPq7N9Ze13eBcYYY4wxxhhjjDHGGGOMMcYYY4wxxhhjjDHGGGOMMcYYY4wxxhhjjDHGGGOMMcYYY4wxxhhjjGkP6fQFmPY756NzuMgRN5oooIDob/1PCoij2v8wC9uPZeOofVT2R/ZbPQCsvLyOVsAtCOmdDeoVV3UV9dqrUBWlAkQKCdAUZaErvrO+UD05/f8VYpcQqWPj6v5OvySTEQuA/djQ2DQiiqpL73snNbwehfBC4ATgOOAYYBDoA3qAOWAKeBS4B7hTlB95uM8JCwp4HIIyubq30y/RBLIA2A+tHK+n97uC91XENY4SZBUwDJwBHAUs2cvmmsCvgRuAb6iwXpSdgpAkDWo9g1zzN/YxKiv7ze1HhsdnEdeF+jmqidJw8lzgrcD5wMlALfBHzAIbgf8lIt9T1XmtREjimRix3kAZWQDsJ4YWv/VFFSdu0KueD1xAeuNn/XueAvky8AlJ/CaNAIWJNTY2UDau0xdgwg2NzYAKbgFAXuZVvwRcAZxCPiE/APo+0P+rkbz2mB9ev3gd051+K8w+sh5AyQ2N1QFQdVXEnycwCjyvjZfwELBG1X9ZxMUgTNjgYGlYAJTU6KgyWasTqSBCryofAD5IOqLfbjuAUVX3WUGbiDKxuq/Tb5HZC/YIUFKTtToOAaFPlTXAajpz8wMsA9aK+PeiRCAMjc90+i0ye8ECoISGxupUEJzQi3Ip8AGgu8OXtRRYh9N39G3bDMDw4uOJKS57BCiZ4bHFb1ahoqoXApcCXZ2+rif4FcKfqHJdxYPEyjV/Z7MDRWU9gBJZOT6NCmzfdQ+q+sfA31Csmx/gGJTLBZ4XRzDXbx+xIrPfTol45xEPy5Yefzawls498z+TM4AR5+mtLWg6TWkKyQKgJIbGZ4iSCHV6OGm3/9mdvqZn8DYV3tlozuOA147u6vT1mN/BAqAEVu6e63dRBeUCYGWnr2kv9AAfrFa7T01Emempdvp6zO9gAVACXgFVxCcrgT+jPL+35wPvd4nvrjUTVl5uswJFU5YP0gFraN00UTpXMwj8FXBIxj+iCdwHXAt8E/hVxu2fp869XryQFG240lgAFJ2q4qII0l19q7JsGrgZ+AvgHIW3CrwDeAtpEPiMfs4A8Jc+kuWVWRj+iO0XKBILgAIbGp9BnEPj5GjgfWQ35TcPfAY4X7z/AnCfpEVAZoEfI/w58M/sLh8U7lWCvjmpuCeXHjMdZQFQYILgkyYqvAV4YUbNzgEfBbkIeDCp1cDJnrX7c+wElS0KFwLfyOhn1oA/dbE/0kdiuwYLxAKgoIYum0FRXKW2AngXEGXQbAJ8FtWPgc6CwlwXEx9Od+9tWN1H5PoYOnwJAltUGQF+nNFLOl3gD5QIyaxjYUJZABSVAE0Pqn9Edt/+3wG9TIXZGGVidf+Tqv3e8OFBNvx6Gu8V57iHdMHR9gx+dgV4N8SHK46hy2xxUBFYABTQyrXTkChU5GDgbWTz7X8v8BFReWzHrxoMNZ96u+7kJQOICF6VRPxVwBczemmnC/J6vOKdffSKwH4LBRQ3/O5tWmcDp2XQZAO4YqFW+TGiLDu2i9FnqPM/uaaPqAmRd03gs8BtGVxHDXg7Tpa6OGHV5XO5vo/mmVkAFFCtO0I83aRTcntbvffpXKci/9LViAFh8uK9K9ax/m/78Cgu4n7SWYOFDK7lTOAsUPoGO72D2VgAFMzK8RlUQIWTyGbJ7zTwGads85qwYV8q9YgszkSAwNeB6zO4nn7gLYjUprbZOECnWQAUjAq4xAOcAxyRQZMTiG5QUUT2/dc9uaaPZk3Asx34PJDFXTtMukyY4ctmM3vvzL6zACgSVcQriXODwLkZtFgHviQq9UQ8ky0e6VVpKhqBilwL3JjBdR2N8ntJHFtFmg6zACiQc1fXEQVJj+56UQZN/hDYqAJOW7/VJkf6cFVBEt0J/BPpSsIQArwxqlQP8l558edsXUCnWAAUSKPX8RK/A9Lu/7LA5mLg34Rop/omkyNhZbl8DDgQ5Brg9gxe7qkKp4NyyOapDJozrbAAKBCHcku0bBnp9F+oTQJXKwki4csIJj7ci1OhGflHga8RvlloqaCva3R3yYLVCugYC4CCGP5I+i0ocDzwggyaXK/CAwATqwcyuUYFKomA8F2y2Ta8qrbQOFy8cuYn7TGgEywACsKp37067izgoMDm6sBVqCSNuexO6dmwpjedokxXFV6bQZPHofoSVFn+2KOZXafZexYABZG4Ci5OlpAGQOjg+D3ALaB09+3I9Dpf0liCU2LgW6RBE6IXZMhLl5vptdLhnWABUACjo4vdX5EjyWb0/3rtrmxFhPUXh3YmftPNtZn0FGLhR8Bd4S3qqx2NQyWz+iNmX1gAFMCVXdPpd346/XdoYHMzwEaZb2pjJvtFNt8f6UcR+l1jK3BNBk0eB3oqwMpxqxnYbhYABbBUI3Y2YoAXk1bTDfFL0FtB6D/s4JyuWJlKapCOA4RuFe4Hzqr4iOwKEJm9ZQFQAF6VZbXKAGkAhLoFkUcRuOr9+ayzm3x8P8Gdi/+GemXskqUSsFjJtMYCoAA0/fcIwqf/EoEfSkKz0ZfvzaQeXBc7gMkMmjsZ5bkAq6xoaFtZAHTYynV7nntfQPj033aUW9RBdS7f7rQI+HRz8HXAzsDmliO8VAFnY4FtZQHQYepBnACcRPje/3tVuB9g8qJ92Pbbgok1afuSPgLcG9hcBLzMqa/GlVwv2/wWC4AOcxGo127g5Ayau0Od7GrXFjvF09DGNuAHGTT3EnVuuZ1Y314WAEUgDAKnZNDSHeI1qdbaU2nnsJ39VKXmNd0iHLpD8FkoxwOsHLNSYe1iHa4OEwClqumz9B20Phc2K3CDAkncbMu1P3jwY3TFPTjlVhW2AMcENLcUOA30OrXvpbaxAOgwcQIim0X9B4IbUxoCrL84dCnB3rnxokMYGquj8DDwE8ICQIDTRFwtIm605QUYC4BOU0AUr5pJwc22Eyf4ps5IxI+ANwU29yJUlwFbOv26DhQ24mKCDI3Xdz+0vA74CunKvlZtB94I3CTi2TCSzTZm89TsYcsEmRhZnA5U7ib8m3uAxdmQamRPAe1gAWAyoaJbCV8WXAFO8YI0YjszoB0sAEww7wTnmSWbWoEnCwzYtqD2sAAwwUTTEAB+CoTuQT5OVA+2wan2sAAwwSZHdpcdk58Rvi9gEOR5AK/6e6sWnDcLAJMh3QJsCmykDzhBPCz02YNA3iwATCYUxRNPEV4mTIAT1CVR3zb7eObN3mGTifmBhEgrCfBzwkv7PB+iPlumkj8LAJOJ2oywWNDnHsKrBT+bdG+AyZkFgMnEdRcv3q/CvWQyEKjpvgK1cYA8WQCYbKlsI/zUoD6Q41B404eyOI3cPBULAJMt1TrhFYKqwLEu9kwfZh/RPNm7azIT+SbqXJPwqUCA5/ia63KxFQnMkwWAyYwXh6iHNABCKwQdg7LEjgrIlwWAycyGNXsG7u8jPaEoxArS3YEmR6UvCLJqfBZweGKbNc5Iek5B+m4+vsx3X8ivQXcBywMuY6nACs3mGHLzFEoZAGd+UhmY2kmzWsOrAk1wroJqJJYCwTSdfGvS8oIenQYeBI4NuIwehaMBhsfqbFidb5nzA1XpAmBovE4SzxFXKoDUQE8BeTVeT1DotWnjYALc5+CjwD4f0yMoIsx6ldBv7m7gqLRNS/W8lCoAhsbSx8qo4VGRY8F/AHgL6bFaJjt3AP9ACwFARUgWaEjEAxlcxwqd34XvsqGAvJQqAEQjlBiEU4FPA2d3+pr2Uwktdv+XPuTZebgDeGixnSjgOlZI90APYAcF5KQ0swBDY3VUYkAOBz6G3fyF9O9X7KkJ+hDhN+5RivSoPQLkpjQBICjT1SWAvgs4p9PXY57C4iiswGbCA+AwkPYccnCAKk0AKEJ/Y/ZQ4G1luu4DlQpbgdCSPv0OKw+Wp3LdSMKJkJ4jbwpOmSO8THgXcHinX8r+rFwBkK4Osy5hwQnghHnSI8NCdOtiALxm9NFOv6z9UtkCIMLKxJSCpAHwSGAzNeBQgKSx7zOS5pmVLQAehXKeoXcgUV8h8erJ5oy/g121i0rPwZ1+WfulsgXA3YR3K03eJGGxo7aVdC1AiENozledC1lOYJ5KaQJABJzIZuDKTl+LeXoTa/ZsINpKeI/tEBXpsge/fJQmAOKFJl59jPAFwktPm/bYCoSe8nmwKjXb45GP0gTAkuWDqHgqSdddwAhkstbc5OsxwnsAy0gHA00OShMAV71fACGO5nHiviXwXuD7pNtWTbaE0NmWtIVdhJ8V2A/SSlECsxdKtRlocmSAobE6HoVE14uTO1V4AzAMPB84iLSgpGldRDp9Fzp4B2n3f2dgGzVEl7VamWDlWHpEQfGGEITf3m/V6Oqm0myy8cPtW+pSqgAAmFjdx9B4Hbod2tRH8HwRx5dR+hBqlKhXU2DhN67uaWd74LXUUJa1fBnpnd8PciSFywEB1VlBZgV2dc3PNxVYNfYQXpczsSb/IChdAABMjKTVYYY+WsdVBD+v84QXoTSZEhAaqO4IbKgKDLb6l50CyItBPw/0E35sWdaaoFsVbkX4tng2eFk6gypD6+pMrMm3ElIpA2C3iYusTFRhqSKeprrgR4Aq4cVBZ0kfDw/q9NvyFI4GTgfero5/B1lL5De5WDh33SzXrFmS2w+27rLJhURKc6YSA7sCm6qwGADD4y108tLByG2Uo4fYB7wb+BzKsUmkbK3mu/DVAsDkQrq7qPQ2oZWyYk82kJYqbXU1oM4QvjW5nYaBS5y6JQfFNV41nt8+CAsAkwv1CTiBbG68gaQaodryt2EWsxHt9mYVv1JRfl7Jr/NiAWByseGDe0awpwhfq9EnjTjSVsbvvILXJuULgAHgDd4RnRTnNxtgAWDyVid8TUGvE1eRVg59EEFEmoSPRXTCi5xnqeQ4b2EBYPI2A8SBbfSCVFqaxhdBnctiMLITDiGtipQbCwCTtxnCewBLEI1o4atQVGkkSUzaEymbmJzXLVgAmLxl0wNQKq3cCo2oSVf6MS9jADyABO+leFoWACZvs4T3ALpp8bN68tcbaNpzCD2tuBNudBU3pTnuhbYAMHmbJ5sAaGkRwGdvPnT3H2cA3+k3Yx/cJ/B13/S0NPi5lywATN4W6GAPgMdvnrkMrqNd5oBP1ZLuO0WFiRxPRi71XgBTCgnhVYG6BCqBHeF5ytEDqAOfBL64EM1r3icjWwCYvCWEr8OPVKkF3gsNCrcd+DfMAj8BPi0i/6aLyx43rM63FkrbAuC8UWVzbSfdvvqkX4MW+ddyIEq30AIwGf4B9ISvBBScVAkbDLsP+GfSx4miUNLu/iPArYL8oBlFW6pJjIiwYST/QkhtCYChy+pslzm6kgooEXAUwvHA4Sr08LvKo5hOEdJinleSzQ46JfzZ26HacqUnFUXh9kjkL4r0XaMAngSNYpUERak1G6gIG3J87n+i3ANgaKy+mHNNpCs6Ccd7gN8DjgS6RO0xpGAc8B/A9RQnAISAz6qklXc8sFC0bxkFVJoIMLE6tOzBvsv15hsarwNCBCRd0e8D48BJbX+VZl9leQpHNj2AgFqPuytImSfLNQAkEvy8J6nIOcCngWd1+gWbjgjvAUhrKwHN08ttHcDKy2bQWJGKHAFcit38B6qsHgGK9Pi+38gtADRySDpq+0bgjE6/UNN+i3etJ4sFOKq2aC0Hub2pLvaocz3AKmy9wYEsox6AWADkIL8bUxWEPtIDO8wBaHF9h6LBuwHBHgFyke83s1IlrcVuDkT6O/7UOguAHOTdrWqSTVVYU0aPD91lcfOWYR1/6eQWAIu/+2ng551+kaYzJP1HCP+cKbZSNBe5BYCPBRXmgfXYCb4HJlUW1+9bD6Cg8usBON2d2d8Bbur0CzXtp4sLXcmiByDWA8hDbgEwcUkfXSo0RR8B1gK/7PSLNe0maPoIkMXS4rIU8yiVXAcBY0k3cTdO2LwBuIB0v7M5sAgB6/gX+YymEs1vyXUa8NrVfQyNT1P9+VFESfLdJIo2Af8ZeAOwAqhhZcmKxhFewQfYM2rnJPxzFlRTYGgsrQcqeZ6w0SJVRaMK4xd1s/bTcNX72zvbmfsKvYmRflaOzxDXahAn90Q1GfFNfwXI80kPPrBVgsUiwDYymL6Vx/8T2gNQhGbIKIAqkQiVHOtrtvKqUEjcwkK8ejx9wlm5dgoRYeKS9iyfacvNNznSy3lfUbbcNY2LXAKyGdjclldoOi1oK++ilh8Bzv24EjdmEeG1qrwzxwrbLZI5rVS2ALcCP3BdlYc1Tlj1d9Osv7TviUVNc9G2b9+vnl+k6DVt5Ag/3soLNFq5d6XC7r95OvCOTr8ZT2MO+KnG/n8AX1XH/Kq1ddbn/EPt+dvkTCLCAyDWFscA/MI8SZIA5F9gL0wP8DLgf4KsVmGJrwjD6/I90MgCwORMa4Q/ArR8uEiSeCKpCcUPgN36gA8h8l96mz73IQsLAJO3LsI/Zy3X9BcUcUnZNqV1A381U3WneIHhsfx6ARYAJm89hC8EarkHoOly5Cow2Ok3Yh89B/jD2DkCy6E/LQsAk7dewgeb50BbWwkogopUgaWdfiNa8MqK9wNqZwOaEuslvAcwoyJxS9+D6bbUMvYAAI4m7UHlxhbhmLxl0QOYEZWkpR3B6V+pUc4AqJLzl7T1AEzeMukBgLa+F0BYCizp9BvRgq2QnhGYFwsAk4vXX7Hn27qf8GnAGTSKWy8rIAeT9gLK5jaFXXkuXrQAMLk45Jg9fxwg/HM2rdJs/ahs1eWEL0Zqt13AdwRJnnfEbbn9EAsAk4sH7prDqYc0AEJNCY756X0bDxsan9n9x0MoXw/gawjXIbDpkRfm9kMsAEwunE9IvHeEB4AHpgCq+3iwt3fR7kJCh1GuAe9rgDH1zM7WPRtG8js0tExviikTcUjkqqCh8+9NFgNg4+i+PQK4pImiDuTwTr8de2kK+BqwTlTup5bQX83ynNYnK3UADH90FnEO34ytZmzm0pttYnWLS+hFEaSqyrLAC2mSPg+3wIFQWzxW7GGKWVasCWwFblPh26JuEvGziXgkFq4dyXcLQykDIK3w4tDY430TiegB6SN9zrN9x+EawGOEVOJVUNEaZBIAO1q/DlkAvQQYy/5tyoQHFnCyS7zGoGiU4JpVJtbkP3NZugAYGpsC9eBi8JUjxbk3oTpMegTZINmebX8gioDbgf8EbG+5lTSGq4QHQANhR+s9PFXSMCs2VepHwpKtysYL27dquVQBMDyWVqmSZEq8LD0X0UuBl2M3fdYeIfQ9VUBYQvgg4Lxoa3PhLT++HEBKMwtw5icVBOa0gq8M/CHwBeAV2M2fh2xO4lGymH/fqZDrargDWWkCYHDXdlChR5JTQMZIqwqbYjuE8ADYJiING9nJR2kCYKHWjYpUFP4UOLHT12Oe2pmf3NN5yCIAtopqo4AVvfcLpQmAxRrKK4DXd/pKzNO7/UR2P0BksQb/MSfJgs3z5qNEAQCgJwJlWdRxwDrz9hkk2bMCL9TWpnfeVcq2krccShYAHEr5NnUceDxQkRrhYe2BrSKCtlgQyDy9kgWANLG+YFl0Ex4A88AWgPUXl3E7f/GVKwBEHwJmO30Z5plpRgEg6ZoEk5NSBYAodwP3dvo6zN6QAWB5YCNzqFgA5Kg8AeCheVhlK/CvFHNTh3ki0SMJL8O1XUWDDyk1T608ASBQ2RKj8GXge52+HPO7nf3xufQP6ZRtaEXbX5OOA5iclCYAJtb00expIMoW4EJgotPXZJ5soT9icdHOUaTjACE2o37Oxn3zU5oAAKjMVwGPitwFvBf478BD2CckaxEtbqvu3dZAIi+kNe1DPeSjqBm1diKA2Qul2g04OdLP8LppuhrKfFV/WfFyYeL4P8DZwPNItwOXKtQKSID7COh6e++WAMe0+vcXxcBDzitq+wByU6oAANiwpp/zRpVp2YWTSgzcLujt4mNHVK3appFwPq240NJx3It6CQ+AOdLeHesvza8m3oGudAEA8NUn1IZ7zdgMqhEVwaO2bTQrgTm6nHTVZohZ0AeswFO+ShkAT7TRij4UxqrLt+PTCdpjSM+5D/EoSPEr+ZScPS+bzHQv2VNB7LmkjwEhfqXojA3/5csCwGRmtn4o84feBGkAhH62fum1MmuPAPmyADDZ0YjuR1/RSxoAoe6vEPv5wdBjBc3TKf0YgCkShfQw0OMCG5oB3aQi1GZs1XeerAdgsqF7ntaPJnwGoA5sArjuwtDVxObpWACYTLzhwj2H9xxPeCnwhxXZYgOA+bMAMJmYWe6I4gjgBMLrAN4rqnUrBJo/CwCTCZcIvhIvIZuKzfc4rc55Z8//ebMAMBkRVGSQ8ABYAO7xEtO7zboAebMAMMFWXb6nBsBzCS8DNg36cwS++/ftOyPvQGUBYIK56p65+pPJYgBQ5EEAxBYB5c0CwARL5udxIhFwKuFnNd7llF1267eHBYAJpoBXHQROy6C5OxPH/OLBIiZnFgAmyNC6PVXanwU8J7C5GeBO50Gd9QHawQLAhIn3rCY/DVgW2Np2gZ8BbFgTupvY7A3bC1AAQ+PTKOACd76pCAfteozNhz6Lm/66Td+gtQYiEqnXlwKhO3fu1sWTgEx7WAAUgYCkg2eVoNtWiGe7e5Nnbd7ETe26dgWPHiTw0gxau81FO6Z8EnqeiNlbFgAFoF4AXgu8M2Doy4FeO9e95EvztR7fjuteNTaFB0Q5nvDn/3ngNp8sQ6JGOy7fYAFQCIvf+scD7whs6jCX+K8BU+24bqee2FVw6s8g/Pn/MeAOgGTeFgC1iw0CFseDpJVwQxyHcHi7JtBiqeA0WQKcRXjpnjtR3QzKxlGbAWgXC4DiuBvYEdjGclVOAhgeq+d6savWpu0L7miymf//katWp9Xb/H87WQAUgoDKZuAXgQ0tAV6UiEM03xvJxenIpaJnAkcENlcX+JGPY8SW/7aVBUARiOIrfhdwewatvThS3+dzvpHiLo94rQFDhE//PQj8BGBiTX+u121+kwVAAbz5z07AJaKkARByIg/AScBhAKOj+fQC0tV/gjo5GnhFBk3+UJVH7ITH9rMAKIBvfOEnu/94G7AtsLlDgVMVuLJrJp8L9i4d8lPOIvwQ0Bi4EUfTN9sye2mewAKgANZffNDuP/6SdDAwxBLgZbumH6Ff8/n1SiVGkG7gdYSX/9oC3ISCRPb8324WAAWhkdCzc24XkskivjMG+48Y1BwGAletq6MKmpb+fmUGTd6Cyv0Ak5fa83+7WQAURNe0MjfYA8rNpLviQpwI/tmgrBqfzvQ6RSGJBFTPBY4KbM4DE+KSWZ/YASCdYAFQEFevS4/SE+UO0lHxEAeDnKGE98+faNXlcyQRRF4PAn6f8M/PFuB6VYeIFQDtBAuAolictlPHw8CNga1FwNlOtGtes3uuPuzZ3Wn1D+UM4PQMmvwhIr9AYPKSJZldp9l7FgAFslDrRVSbwARpddwQL1cvKwBWrg1/DHjNqPLwplnA1YDzSY8ACxEDV6N+VjS0iphplQVAgVTjeTRdUn8z4Y8BRyGcCUAcPr1WqU2zWPzrVODcDF7uAyCT6V5oWwDQKRYABbLxw+k5eAoPATcENtcFvNYrNWph37Cjo4qqo4o44O2EL/0F2KhO7keEDSPW/e8UC4CCiaIGIA2FKwnfHfgqJzxXBIbHWn8M2FCto0BT9QXAmzN4mXXgm+J9c/owu/k7yQKgYLyvIOmDwA2ELwpaAQyDQ7W1x4CzLttJF0IXziG8i/DCHwC3I3IjIvQ+FppxJoQFQMFsGBkAp3DKQw8DVwc2FwF/IPhBJGLl5fu+Rbgv7kaBBv404I8zeIkKfNPF8TYVYeNF1gPoJAuAAqrOKvKTFQDfAR4NbO7lCq9CIe7ZtynB4bE6DdfEo90K7yN83T/AJtBv+yiCnLcsm2dmAVBA31vbjwc04TZgQ2Bz/cC7cfRWZ5SVl+3dIsMXf05x4vAIgrwOeGtGL+9biYt+oQKTI725vYdm71gAFJEIfiFBKswD/0o6aBbiXJRzJIGkEvGavdgmvOyRaRKf4NIDPy4EsijU9wjwlSjxvjYf5/0umr1gAVBQrrr4q3FcT7ouIMQA8NfqZEWlGaPduzjvaUJgaLxOUnF4kW7gg7C4niDct533t4kojx1lhT+LwAKgoCYv7aemFRL1O4F/JHxK8CzQ1YIbcL7CTK3J8PiTHweGxxc7G31OHPwJ8J6MXtKjwD965xqzPVV+/Oe29bcIrCx4gSV4KupA+K4q3ydsBZ4A71H1XoSPzPvGI4iwcnwKQVh+XB+P3Z3e/I0FoYb/I+BvgazO6Pqm99wiAgNToaucTVYshgvu1R+fpjLvUKdvBb4EhI6cedK9Bp8CuVG826nu8Z14kZNq4vV84DKyGfWHdFnzmwX5j65mjStHbetvUVgPoOCiJqSFfeR7oFcDbwls0gGrgJeB3qIuuRm4F9gO+MTrKuDdhB/08URfTqruVhd7pvIqU2ZaYj2AEjjrc7uobY1AeCXwFeDIjH9EE9h9HlfWc3O3A29F2RTFcO2onfpbJDYIWALVHVFaOlzjm4AvQub1c6ukN37WN/8cwj9EVDYlUcK1f2vz/kVjAVACkxen35pOKh70c8D3O31Ne+nrwNcSiXHe7Sl6YorDAqAkJlb3kxAhsBkYJf1vkf0MuBylTnWWydVW8LOILABKxOFRcVSrbAQ+QXjVoLxMoYw7pz9VL7BgN39RWQCUyOTqXlAlboo63OdJxwOKdppGDFzh0K+qF0RgYk1Pp6/JPAV7KCuh4fEpVB0ohyJ8huw26mThX1C5ANEdAmxYbaP+RWY9gBJKGv3M9ThUeFTQC4GrOn1Ni65EGFH8jqQR281fAhYAJbRxVOibaeJosniqzl8C3+jwZa1H+W+i8iupKdWerk6/TWYvWACU1LWXLMVLBdSjwv2iegHpUuFGYNP7SoHvgFyA8AuPR2NYf7E995eBjQGU3Kq1dVzVkSQejRjA819Jt/Ae2oYf3wD+CeRS0F/jIxDPxBpb8FMWFgD7gdd8rE51FpIaiESR+uQc4EPA2aSr/PLwAPAphS+KyJTfCW5AmFhjNf7KxAJgPzI0trjRRhRUDwF5J/Be4ETSAqFZqAPXInwiWdb7g2j7jEoUkczPs3E0y/1Dph0sAPYzw+vqiIJ3Sq3ZR7Naf7YibyA9zutUYLDFpncANwH/G7gGZHr3p2fCavuVlgXAfmpobPdRXoJIhFd/kKQBcBZpia/nAwcBPaSHCD+xhxCTrjLcCdwH3AB6NcrtiEwBJFED5ytMjgx0+qWaABYA+7mhsWlUFcQhgHqPONcHMgi6AngWwiBKH9BNWnpsirSE1/8TYcvS+sLOnb3ptJ73HhFhco0t790fWAAcQIbG6umOvH2sxy+qIGILe4wxxhhjjDHGGGOMMcYYY4wxxhhjjDHGGGOMMcYYY4wxxhhjjDHGGGOMMcYYY4wxxhhjjDHGGGNa9v8BYyHGz+5NQ70AAAAldEVYdGRhdGU6Y3JlYXRlADIwMjItMDMtMjZUMDc6NTg6MTArMDA6MDDVbjqIAAAAJXRFWHRkYXRlOm1vZGlmeQAyMDIyLTAzLTI2VDA3OjU4OjEwKzAwOjAwpDOCNAAAAABJRU5ErkJggg==;verticalAlign=bottom;html=1;rounded=0;labelBackgroundColor=none;strokeColor=none;fillColor=none;strokeWidth=1;dashed=0;" parent="1" vertex="1">
          <mxGeometry x="228" y="738.5" width="101" height="101" as="geometry" />
        </mxCell>
        <mxCell id="XYBb2Tr0EMzCO1Vw7bGh-16" value="&lt;font style=&#39;font-size: 13.0px;&#39; face=&#39;Sans-Serif&#39; color=&#39;#2d3436&#39;&gt;Cloud Run API&lt;/font&gt;" style="shape=image;verticalLabelPosition=top;labelBackgroundColor=default;verticalAlign=top;aspect=fixed;imageAspect=0;image=data:image/png,iVBORw0KGgoAAAANSUhEUgAAAQAAAAEACAYAAABccqhmAAAABGdBTUEAALGPC/xhBQAAACBjSFJNAAB6JgAAgIQAAPoAAACA6AAAdTAAAOpgAAA6mAAAF3CculE8AAAABmJLR0QA/wD/AP+gvaeTAAAAB3RJTUUH5gMaBzoT0JUWNgAAKrhJREFUeNrtnXu4HVV5/z/vmpm9zyWXk4SACKgIiBo1QAIIhErAS2trLSrpr7Wtl7bSX/3ZWqsi94MQQEG8VFG8cwnWQC6ov2otCRSSQEhCCBhQLiI3CeSec917ZtbbP2afeKAmnCTnrJnZe32eJ8+zn+TkrDVzznzn/b7vu9YCj8fj8Xg8Ho/H4/F4PB6Px+PxeDwej8fj8Xg8Ho/H4/F4PB6Px+PxeDwej8fj8Xg8Ho/H4/F4PB6Px+PxeDwej8fj8Xg8Ho/H4/F4PB6Px+PxeDwej8fj8Xg8o4fkPYHhLFhdB8Ag/Lavj8O7JvKO6YWa4uhc55oYFRALkyXlYa1y5szmu05P8TF5T+D3UMFIeGBHB/31hJtWDfLj1Zr3nEYXAQSjIsE2K0zSGgtX1fKelacFKZQAiIIoh2lquwU5XkTCAEOsCYvvHWT+iuYQArEglk5j7V8oHBJgsAI3NyIgj8cVhRIAzf5sBd6l6C1W7ZdAjlUktKnBhDE/uW+A791WbiFQhVSDXmAayLUCJ0waDDEWFqyucVvJr89THgolAKJgVDYD9wIHAB8FXSTYLwIzU0sYJ4aJ42PmrxjgPx4p54PSNqCEmihwG3AsMG97Nf2wUW0TFXomw8I1Sd7T9LQAhRKAWrsAGpMJgG389UHA/wMWRwFXKTKDkDCMAga3JyxeWWP++nIJwaqTo6E8wFrgQeBQ4MvWyGUKL09qdbCpzwt4xpxCCUBUVzRLht8LbHvRPx8EfAzlFmK+ICIzCCSwRggHYhbdPVgaIeiW7OkPpkYbyaIAgHHAPwtci8ibk6gCCDet8ZbAM3YUrva0cFUdFQ4Q5T+B6bv50qeBBQjXqZF1kmoKUEF5RiqFL6v99M46g22g8DbgZmDCsH9+DJir8ANgsN1G1EzK6ceGeU/b02QUKgKARiJQZQuw9iW+9GDgn1EWS6pXAkdbJKgj7KcxP15V45oClw9XzorQLOt5H/DLF/3zYcBXBC4V5cBBqWOtZeFKbwk8o0vhBKC/XQj1f+UBdschwMeBWwx6hTaEIEGYauPChtDdIijC9toLbMBwxgEfR7gW5PhgQgQiLLy3xvz5xbseTzkpnABU6ooV0EwAtu/Bfz0E+BeBxQH6eYWjglSCwApbx8UsXFe8B0faLRPbYoClwI7f9yXA2xBusL3xB4AqVqi+ChatjvOevqcJKKRR3oM8wO54ksxbX6cqD4hRKylQUeJHKsyZk/+lz5+vhK+KUZgqwk+A43bz5T3AtwS9QpUNYrJ+gvccW837MjwlpnARAAw1BI0oD7A7XgF8ArhFRD+PMl1iNZoK5rCYH62o0a35RgRz5mQ2YMfgLm3AcMYD/6LI9xE5LtEKqLDIWwLPPlBIARjsEIJ0j/IAu+OVwL8Ct9iqfA7lTXFFTRIJb1iTvxBIu2Vix25twAu+HHgHMC8g/oAoVbVC236w6B5vCTx7TiEFIKorms1sLXuWB9gdrwQ+CdxSHZTLEd4Yh2rSUJh+b535K2toDkKQPFTJJE5ZC/xqhP/tcODf1DAXlZfF42OsCgtWehHw7Bn5G+FdMEp5gN3xOHATcH1UsQ/GdWMFRRHec2zF8bXGaDVEavHngE/vwX+1wM9RLgjba6uSwTaCVFl7fNRoNvJ4dk8hI4Dfsc95gN1xKNnD9qO4bi4F3mA060NctLrGQocr86TdIrUYdEQ2YDgG+EOEeclg9a8xUrUGXvEYLPBVAs8IKKwADHQIJssDrGXf8wC741DgLOCWVMylwDQTqkGzKMQF8YOVLPOZ5TxGagOGcwTwVay9RIUDurbGYIQFa7wIeHZPYQVgZx5A9rgfYG95NfAZ4EdpbC5QYSLgJEE4Z44gCFFPtImXrgbsiglkVY/vqcjMsDcGhVvuqude7fAUl8IKwJyjK0P7AzxCVtN3xauBT4pyEgrH3+Gm/VbaLfGEWBlZNWBXGOCPRHVe2h7+FUolDYRD1sACXyXw/B4KKwAAIoKI2Qrc53joTmBWsDVioNPNLao/1Eg87lk1YFe8BvRrgl6shgMmEYPBaV7DUw4KLQD1DkUSW2d0+gH2lJOSyfVJOIqe58wRVIW++oiagkbCBOCTovpdlJmSKIJw8z31XMqdnmJSaAEI66Bmr9YFjAavB3kNwC1r3Lw5pd3SWd1pA3pG4Vsa4J3ADYTyfhEqRoRbHoQFq7wl8BRcAN53VJYdF+UR4CnHw08ROMlaxTiqqScP7ew/GA0bMJwjUb3aWv2swP7aH2OARY6qHJ7iUmgBAFABi2xl7PoBdoUAs4KAjiR1EzLvrAYwajZgOBOATyn6XWBGrBYQbl7pLUErU3gBsP1CEOhQHsD1b+oMVTlEgcX39DsZsBZZYmIFljA6NmA4BvhjhXmhyF8KUjECP8GywJHN8RSLwguARIranXmAbY6HfxlwPIBJB50MeMDWUa0G7Iojgast9iJgarwqRTAsXO13Im41Ci8A7zsxeyBEeRT3eYAKMCsQG6Zhp5MBZ88WRIUwHhMbMJyJwKcQvqtGjtG4DmqddT96ikHhBQBobBAgW3DfDwDwZqtmfxBnXrkWWpLKqFYDdkUA/ImozpMg/AuBCAFVZcE9XghagVIIgK0JhLnlAQ5VmK7AD+9y81AcsL0R9ez92oA95bXA1xUuApm6aE0CxrDAW4KmpxQCIKEOtQHlkQcYB5y8UYW2yE05cPbsrBrQZsfcBgxnIvBpVL+jqkdLWke8JWh6SiEA7z1hZ2Isj34AgJP2x05yGXrUQ0u/iVXH3gYMJwDeJTBPTfjnChHAF7+uLPJVgqakFAKwE8ktD/B6FXmN4q55Zv9tlcbpYc5swHBeJ/ANgW6Q/V45I0GsYZHvHmw6yiMANQHJLQ8wBTgRsn56F8yeLaQibG2LNgK3O75egC7gLNDvIHpULHUU9ZagySiNAEiowzfN2OZ6eOBkUTqsQ+3pJGXS4Jg1BY2EAPhTYF6g4RyrmSW4Z6VysxeCpqA0AnD6m3PPAxyjIgcDLLjbTVfgU1SH9kS4F3g4h2se4vXANUa4AGS/Z0xMYMXvRNwElEYAoHGidn55gAOB4xGwAwNOBjxzpoAKSeK0GrAruoCzQb+tMD2NUlS8JSg7pRKAKBVsfnmACjALtWEwbpyzQTtJiUInTUEjIQDeDcwzqTlDG5Zg0aMJC1d6ISgjpRKA1IAoSLYycFsOUzgB3HYFPmGyo78KYAOGMw24RoTzUZmiWy0EwkJfJSgdpRKAdx8XDX18GHg6hym8ikZX4I0r3LzxzpzZKAYSPU/+NmA4k4BzEP02yptIM0uwwG87VipKJQDQyAOM7XkBu2M8MKsaRc66AgE6sBgKYwOGEwB/hnAjxrxPRUMBFqxRFq5ys5mqZ98onQBUrJCidTIByGMni5NqcX2SyzOVnpBK4/QwKZINGM404JvGyvnAFLExRgyLfDRQeEonAKlpnGfm7ryAFzMNlSMEuOUeN2+5M2cKKsJAFD5PPk1BIyGzBMq3gDfGNsXl4SqevaN0AvCnxzbyAMrD5NMPMEWEk7INtdyFAaae0hHHqvk1BY2EEDgduDEQ8161GgLM+5Wy+G5vCYpI6QQAyEIAk1s/QLZXoNCeOrQBycQqmjVCFNUGDOcNwDcxcp4ok9t6YjDGRwMFpJQCEFhBbW79AAAzFA5RYP4KN12Bc6YJijAQFtoGDGcycK4K3xTljYlk67m9CBSLUgqAzT8PcCDKcQj09/Q6G3TIBpBVA9wNvPeEwHuBeQZ5j0pmCX6yQrl5tbcERaCUAnD6zNzzABXgZE01nDCpy9mgycRq45Osofg2YDhvBL4pKucoTK6HMZIaFvptx3KnlAKQIUBueQCAN4sxUxF3XYFzpmXVgCQIi9YUNBKmAOcLXIPwBhOmIPh+gZwprQDUrMFg88wDHApMV5Qf3u2uBTaopYRpqWzAcELgfcA8teZ0ERuCcNP9ysKVbrZd97yQ0gpAiMVmmYC88gDjQWft6Etpq7grB9S7GjZASmcDhvMm4Fuq5mwLk4JaTKrG70ScA6UVgDOOz/IASm77AwDM6uoMuqx1F4DMmSZgBK2WphqwK6YAFxi4BphWiRQRWOQtgVNKKwAAokKgshlYl9MUXq9wBOB0C21TS5Hf7RRUNhswnBA4A5iXWnl3QBpk5xUqi1Z7S+CCUgtAjEEl1zzAfsBJoKi6u5X1idXG5iiU2QYMZzrw7ZTgbIRJxsSI8WsJXFBqAQiwaL55AAFmIabdSOps0DnTBEFpJy67DRjOfsAFqnwDeH0aK6q+SjDWlFoA3ntcNLRnXl77AwDMBD0EVRasdheExD0J/TZSKb8NGE4EzAHmiZE/hTQQhB/cp/xopZtt2FqNUgtAhqD59gO8DOU4gDTa1281cjoP6UCyzRHKsDZgTzkK+A4EnwG6KnFCLIGvEowBpReAOoYAW9P88gBVYBZqwrDuLhH4ziMEFYUgeY7msQHD2Q+4UOEbovq6QBTBbzQy2pReAML88wAAJyA61fWg9Z4ETcKyNgWNhAj4c4R5FnmXqA1AWLxcWXCvtwSjQekF4Ixjo6HXfp55gEOB6aAscLhX/oSDO7IPWTXgkZyu3QVHA99RE5yl0GWjGGsDFviVhftM6QUgI/d1AeNBZ1WDRkrSEe88QkAUbV4bMJypQLfA1xF9baTeEowGTSEAdYQAWyO/PADASbXUdInDTUIAaj0JktmAZqoG7IoI+D8gN1rkT0STAOCmNcrie9zsy9BsNIUAhGje6wIg2xjzCID5K90lAyc2bIDS9DZgOEcD31WJPiUwMbAJooZFjvZobCaaQgDOODb38wIApih6ojFKat3d1nceISiQqraCDRjOVOAiRa4GPTIOAlTE7zi0hzSFAGQI5HduIIARODm1pr0SuusKBJg4LiYSaRUbMJwK8JfAjUb1jy1iABavVWcHuJadphEADQWxuecBZgh6sKDMv8fdFJ7a0JFdsLaUDRjOMcB3DfopUZ1okwQxxicIR0DTCAAWVAQR1pJfHuBAyLoCt7hLA/Ch2QIKotpMawP2lP2Bz6rI10CPVAwq4kuFL0HTCMB7Z4QAKPyK/PIAWVcgJtg/cqgAZDYAI5bmbQoaCRXg/cA8gXfG2c4JzF+h3HJvX95zKyRNIwAAIoLJ8gB57Q8AcKKq7u/agzz5XGYDVFlNa9qA4cxA+G5F+STKhCBMSGoBC1Z6S/BimkoACAWb5p4HOFRE3yQoixwel/2h2YJasLE+D/x3TtdeJA4ALkbkayL6GlMNGoeT+CPMh9NcAmCBLA+QZz/AeGBWvXGcp0uiSo2gIpbWqwbsigrwV8A8TfWPVEID8OPVvU6TtEWmqQTg9GNekAd4JsepzKoQdLn+FRscGEfjBqwGHs3x+ovGTOB7RuN/RXVCohE2jP3hJDSZAAAogmqu/QAwrCtw8Rp3ycA5J2bVALUtXQ3YFQcAlyB8VZEj2mNB8FWCphOAIDKQfz/AFNATrVUkcHuLw0odCXbaAJ/6fiEV4K+BeYnRP0wJjCDctLaPW+5uTUvQdAJgU0VM7usCDDArDEy7Tdx2BQ72dw59bNWmoJFwrMD3Qk3/BRgfpBFJ1bJwTeslCJtOAN7T6Acg/zzATFU9GFWnb5c5J2bLEaX11gbsKS8D5oJ+FeVwU0tAabkqQdMJAAAqYHPvBzhQ4TgFJmx1O3AU1UHEStYU5G3ArqkCfwPM09C8AwkNKD+6u4/597aGJWhKAQgqBs32B1iT4zSqwCwhCLbu57YrcOB3NsA3BY2M41D9Pjb+uArj0yCiai2LWyAaaEoBGJYHyHNdAMAJKnYq4vZtMmQDQvQ5fFPQSHkZcKko/4bI4bGmKNL0lqApBeD0F+YB8loXAPBqVKejsMDxKTexDhLjqwF7SBX4gKreYODtJghEUBat6Wfhyua0BE0pAMBQHiDPcwMh6wo8KYod7xMGtJvxQx+9Ddhzjge+n6bxx0UYhw2JQsvi1c0XDTStANQTgwl39gPkyaw4osuxC+BdMxuiY7wN2EsOBC6zyldADqulCWphocNdn13QtAIQGMXa3PsBAN4AejjAgrVuk4GDDIIVi3gbsJdUgQ8peoMReZsOhqLA4nsHmL+iOSxB0wrAGW9urAvQ3PMAU4ATSRUJ3FqB8dKwAX5twL7yZuD7tMf/DDLO2oAgsixsAkvQtAIAIAhGcs8DGOBkDaWdutuuwHfNFEQgDMU3Be07LwcuE7FfBl4tpAiU/gjzphaAemJACpEHmCHKQSgsXOc2dNzcP0icqK8GjA5twIdRbgB5a1tkRFVYcPcAi9aW0xI0tQAERlEtRB7g5cBxKKRHuB34kInjs3OT8DZgFDkB9NqBevpPwDgxARInLCrh6cVNLQDvO/4FeYA81wVkXYESBOF6t4nAd0wXBAgVXw0YXV4OXA76JYRDU5PtR1O25cVNLQA7ETaT7/4AACcidqrmsEJ5S98gseBtwOjTBvwtcIMop22vhQLColWDzF9dDkvQ9AKQJAFGtAh5gENV9U0Aixy/JQ6elFUDBFbhbcBYcCLotV1tyccQOhVDoEkpTilqegEwxckDTABm1SQLyV3yjumNEb0NGEsOAj4nql8CDh36GRddBJpeAIbyAOS/PwDArKoy0eYw8Oa+Qay3AWNNG/B3wPXAqRWJBOCHawb4j4LuONT0AgDQSIPn3Q8AMG2oK9D17jOvmJRVA9RXA1xwEui1dY0/CnSG1lAPExYWsGegJQQgtQGihcgD7AechCoYt7f+HdMbpwiLbMDbABccDHwe+KIgr7JWwcLCgpUKW0IARBSlEHkAA8wSI+2Suu0KBKg8309odej4MG8Dxp524O+B6xFmhxsiEFh81yDz1xfDErSEALzv2EYeQPkl+ecBZqpykCrOt50aeNXEITu0Cngs5/vQSswCrksOjD+K0GEDIehPChENtIQADCEUIg+QdQUCT05xO/CcaQIC6m1AHhwMXIFylYq8UkQRQ+55gZYRAEsAxegHqAKzNAiCQze67QoEaNvYj1i/NiAn2oEzJasSnBK9MkCA+SsH+U/Ha0SGaBkBKFAeAOAESe1UUfc/9N5XeBtQAE5Gua7+m/QfRekIxDBYy8cStIwAvHfmzn6AIuQBXg1ZV6Dr3vE50wRRCKy3ATlzCHClhS+I8IrUKIh7S9AyAgA0zs1jC7BOBHL8M0GEWT19ShTu81XtMbX9eklNZgME+nK+F638p12EfxDh+lB4y+kzI+kZUOYuGnT2u5DDr19+dFZCntpWH2yLzH1W9S9yOzkQUOXEGJm4cYd7O9L+zCT6TIwRVscpj6vqG/K7Ex7gD6xywzeW1i8c6NdrJ3aIsxpxSwnA3IV1pkxJiOuCaSySzwsRiAJBc8gDfH75JiZIO1aVSiCI5HgjPAAYgbYIxrcJg7G734mWEoCwkrC9R9tUOCrPtz+Awor9Jpntz2103xB04Lb92NLZByIz6wmHkoMIeV7AHVa54L+/mNzxZ+dFevBkd4LcUgKQvfFlssD0PN/+wA6BZVu2pVQi9xPZPK4XVWsMwWkCnTnfi1ZmALgWuCwQnjz1EyE7BpSvfrBzX7/viGkZAThlbh9kr/3Xki3dzJNfC3K/AkvPdffDBjil+/lGFdC8DHhLzvehlXkKuFyQ7yu2X8IQTVOWnjPO6SRapgpgTUCj7n4MMDHn6dylRje6PjMQoDpxKiAgcixwWM73oVW5E/ibiQ88c7Wi/ZqmBKbN+cMPLRQBhDaGrAvvmJynUgOWYUnvj3qcDx739yJqjUpwGuA2/PAMANcBl6H6xI43HASq3HZBV24TapkIAAQVmQJMz3kiv1W4B+B1iVvFP6X7+cZ98OF/DjwNfErhE4g8oUZQIyw9b/w+f+N9oSUEYPZlO1vei+D/V4vIMyDceY7bH377hEb4jw//HbMM+JutL9/6NRH6xYRovZ+l5+QfgLWEBVATYNIYFcnb/1tgmaodqIr7W1/v7yWw1qRBcCo+/HfBAHADcCmiv+l6dhKKsvQz1bzntZOWEACTxFioSv7+fxOwXBAS3O4M+PYrlKTeR2p8+O+Ip4HPofo9FdMXJGCNsPQ894m+3dESFgAEKYb/X6/oo6Dc6jj8G9ianY8qIjOBw3O+D83OcuAD7bH5GiJ9qTFEtsbS84oXdDV9BHDaxX00DuM4kvz9/zJble3hgPuBK52TMSomFeuz/2PHIHADwqWq8vhglEV5d5zdnve8dknTCwDWQJCA5u7/dyAsC2qgjjvvsvC/n1T0AHz4P1Y8A3xe4Duq9IWSYNWw9Nx8s/wvRdNbAA0SxBai/v84yP3g3gf2bnuKrAtSj8WH/2PBCtAP9KH/ptCnNkRNypKCP/zQChGACApTgKNynskKScml+6+tYwpqxIj14f8oMwjMA+Yq8ngHmczedn5b3vMaMU0tAAXy/zVgmQaaHvRgv9OBh8J/sT78H2V+C3we9DuI6TWpBSMsObdYWf6XorktgDU03rh5+//fAveg8NxhbhNCfb8L/332f/S4C/QDdQ2+AvQaY0jTpHQPPzR5BKBhCmqqoHn7/zWKPAPw84vc/pJUO6YgIkbVh/+jwCBwI8pcNfLrilpAuPUzxc3yvxRNLQAZmnf934LcKWoHxPEGgO/qVvroB9UDgFNyvAfNwG+BK4Bvq5HeMLFYQynf+sNpWgswe+7O/v8jyQ5lyIvNoCsQQa3b7r9nxz8DWNSH//vK3QIfrKTBl4HeNBCMtSwpWFff3tC0EYCqQUwh6v+/kMZpvEvOdhuBTxzsIhQxsaoP//eOGnAj6FxSHotDiyjccVZH3vMaNZpWAIxJgUL4/2UpdpshcDpoFv73kajP/u8lzwJXqPAtUem1HSCJsvQz5X/rD6dpLUBW/cvd//cAy00Ot/npcc9AVgSdCRyR4z0oIysVPhjW618SpVfVYOq26R5+aNII4NTL+yDdWf/P0///GpF1qDrf+2/SYBeqGDH48H/k1IB/B70kSHk0qUTZjj3nNU/I/2KaUgDEGDRJADmafP3/Xaq60fWmuydcpTDQjwgHgPrwf2RsAK4wyLcUegbbIEzh9rOb760/nKa0AJqkSGCqwIwcp1EDlgmkrhtDJ2/awLDmHx/+vzT3AB/Epl9StCdSgyTa9A8/NGkEAKCqk8nX/z+LZN1/NccD93eOJ1U1oYjf+Wf31IAfClycqj5qTIACP2vikP/FNJ0AnHZp39BxW3n3/68WlacBljj0/ydcpchAP4GRA1A9JcfrLzobgCtF5Juo9lRMgM1ho5a8aToLYIwZEoA86/8WWGY1HZDQbflv8pYs/BfVGfjwf1esAj6E2C8q2mNFSNW23MMPTRgBpGkKsrP+n9ehV5uBFSLGefdff8d4klBNFIvP/v9v6sAPgYtTeCRUyZbvOq7QFImmEwAEBJ2M5rr+fz3CIygsOdudn8zC/z7C2OwPPvx/Ec8BX0C4BsuOqlGslr+Xf19pKgvwtrm9jQag3P3/sii129RxADJl8/MAiO/9fzGrVfiQJPIFlB0mhnoo3FqCHXvGmqaKAEIVYlGM5ur/e0CWxcY4NyB9HeOxUjGBDp4GtParLaMOzEe4WJWHCRQUbnW8JLvINJUA1IwSQFUzAcjL/z8Oej/AbQ6TSqd0K0Ifgdb2x/f+QxbyX4XwDVV2RAHYVAu/SadrmsoCZL0v5F3/X2ECnhfH8hN1bBq6Cb75B9YAH7bIlSg70tiCSCk26XRN00QAb7+4lwRQ4Ug0t/7/GrDMpqQ7DnA7cBp3YCQ0VuNTad3wvw7chHCxor8yjf1X7+iekPe8CkvTCECkQk2UQMmz///ZoZN/x21xN+gp3Qr0YTXZn9bd+ed54CpFvmGsbkcCBNvyWf6XomkEYCBQQqWq5Or/15CdCcftn3b3i2c6NkHcDrRs88+9IBeIyE9RtVK3pJ2G28/yD/9L0TQC0GAy+e3/b4E7DXYgVbenv2rcQWJDiUzcatn/OnAz8FlFf9UoAXPrZ33IP1KaQgDecnkvpKDwGvJb/78ZWKEYRFJng/7RV5RaTx+hSVpt48+NwFUoX1dhe6AGFR/y7ylNUQVIQxk6cCfP+v96kEcAbjvXXfdfz/NbUEBaK/xfC3xYCK9A2F6XBIPv6tsbmiICqNQVDahic/X/y/v7a9vGjXMb/lc62tAoFOotEf7HwAKFi8JUf5kGKSAsP6cr73mVlqYQALIGr8mSn//vAZZ1dFRQh0f/DYX/ErdE+L8R+JKKXC3otnolQFS53fFOy81G6S3AWy7vBUDy9f+Pq7AOYInD7r+e5xq1xuZf+rsW+NtUg8+Jsk2DmCAR//CPAqWPANJQCGNFTa7+/y5FnJ/8W+lsQ4NQJGna5p8YWAhykaT2IRPYbPnuWZPynlfTUHoB2On/8+v/rwHLAtXkORs5G3Rn+J80bfi/CfiSQb5m0W3aCPmX+rf+qFJ6CzCs//+onGawAeEeBSaZxNmgvRu2DJ19cAyZ/Wkm7gP+FrhcYVstjAlj8Q//GFDqCOCUy3qz9pt8/f9qhadE4E6H/j/qbMPYUKw0VfY/BhYBF2HTBzEBirLch/xjRqkFwAZCkCoqufl/BZaZ1A6kFXflvzO6lc30YU1T9f5vAr4M8jVgK2EECkvPaZ0devOg1BYgiBWLVsiv/38TwnI1BnG4999T7VuBnc0/zRD+rwP+LpX0MtCtEnVAUvcPvwNKHQEIAiJTQPNa//8gStb9d3a7s0HHJVWqJpIBWy97+J8Ai0AvEmG9UYOiLP10Xr1crUdpI4DZlw8ACqJHAIfkNI1lnZsHtmng7hf2jG5FUQZtXPbwfzPwWZQzQdarFQThNr9ph1NKKwBpGCBWIb/9/3qAZf1T2qn2uKv//6a6FQtoucP/+4G/t6qXAVttvYoYy1Lfy++c0lqAsB5DaCrY3Pb/fxyRdarKzy7phLluBh2fVlEbCUG9jM0/CbAYuMhY/YWa7Md2+0Xu+ic8L6S0AjDU/09+9f+71cpGBHC0AeAZ3cpm6UNMvD8wO6fr3ls2A19Rka+KsiUJQRSWnlM2DWsuSmkBTrmk4f9VX0M+/r8O3CliE5O4e3s90b416/2R0oX/DwAfEbhUVLdUbDuo5Tb/8OdOKSMAVQOSAJKX/9958q8G7rr/xiVVjInE2tKE/wlwC3CRDdIHTBoCys/OL+V7pykp5U/CSIKqybP+vwbLUygsdXSU9BndWc+zlif7vwWYK8hHQB4I4ygL+X2ir1CUUgAkW3WXl/9XYJk1diB0uPhnKPzXcvT+/wL4iFq9RNEtcVxBg5Ql5/le/qJROgswe+4AkCKSm//fDCw3arDirvtvWPh/GlDUYnkC/Bi4MLXpA4HJjka/s9tn+YtK6SIAxdBYBpeX/18PWfffree76f6bcU327k+10OH/VuBS0L8XeCAMIkTEh/wFp3QCYCRBxFSAo8nH/y/vqtmt1uHI+z+5vdH0WNjwfz3wEUEuBtncqSGppk53R/LsHaWzAKgO1f+PzmH0HmDZtoqh2uuu+2+wIyI1kYRZ9r9I4X9KI+QXE9yvNtsO/UfnteU9L88IKVUEcOolA0Mf81r//xtB1onAf851E9rOuEYRlFDrRWv+2QpcqqJ/B9xvbQyqPuQvGaUSANTQ2HfvaKArhxncpcjzmq1CdDLgy57elvmcbM1DUcL/9cCZiFwsyObqswkEhqXnFSk48YyEUlkAlQSsqYjk0v9fB5ahNhnsqjgbdKAjIugMJO1JixD+p8BPEC4M02BdEmTHMf30q105T8uzt5RKAHKu/z+LsBKg0uem+2/GNQqb+kh706nkH/5vA74q8GWrbKqHMahwu1++W2pKYwHeetlO/5/X+v970cbJv2e56f6b+uS27EP+4f+DwJmq+lmFTRueHiQk4PZz/MNfdkoTAZjIkA4kiJFjcO//FbhTxfaHibu9/wY7IgaCQDrTNK/mnxT4/8CFqTH3BWnW+PTQ1/fjoRwm4xl9SiMASS1BjKk0tsF27f83o6wQ3HX/ndKtGProSNOp5NP8sw24GtEvYmVT2Hj4/QGczUVpLAAoIpqX/39Q4GEUljjq/gvatgEgWcfjkY6v9yGFf7CWblQ2HXLfY9hAWHKef/ibjVJEAG/9fD82tmh+/n+56R3Ymk5wt0ut2gjaVBgUl9n/FPgP4EIx4Vo0RlW49ubpcLOzS/c4pBQCEFQMaS3Ny//3qnJnOq6dSq+78B/tg0Fxmf3fDlwN+kWUjaR1BHxtv8kphQVI+hNMKHmt/39cRNYh8DNH3X9BddvQR1fh/y+B/2tFLgTZuPS8jyJBwNLzJji5Xk9+lEIANN/z/+4W7PMCzrr/sBGhIsBYh/9ZYw+8P9DgB6IaZyscrmOJP4evJSi8BTj1sn6wFlUOx73/rwPLFEnGp24WuJzSrSh9JMJYh//bga+jXCWiG2NJEdTvy99iFD4CkMiA3bn+v8vx8Bsg6/4bMHUnAwaVbUMfj2bswv9fAf+ooheKsnHJYeNAjX/4W5DCRwBaS0By8/9rROQpVPm5o73/sBFhiiQhY9H8Y4GfIlwoKWs0kOxwlT+H28Wfw9eKFD4CAECYhPv1/9nef2nSL4GbLa3OmK+oQBKMSfi/A7hC0Q+jssYGiijceuF4d7kNT+EotAC87bL+oY951P83A8vFBKBuyn/Pr9uR7fwjox7+/wr4RwK9QJTnNxy5EfBr9z0FtwAVhH4UyWf//wdRHga41dHJv1FHwORUZVMwas0/FvgZcGG7ZXW/CEGqPPjeV/Kgf+t7KHgEMGBTDDv9v+u5Lu+XHVvF1bFf8xUFNoej1vyzA7gS+DDI6l6jqA/5PS+i0ALQYBLu6/99wLIOJtAjqZMBn71/e3bqr45K+P8w8FFEzld4rqsWEyjc7kN+z4sorAC8fW7m/xv9/69wOPSvgStRXS7AO+tuSmNRR0jSrkPNP3vbgpdl+eH9AxVuENV6KsqbzETf0uv5vRQ2B1BVQ11SjDv//2tgPio3GCMPWbVWge7usQ+Xz5ivbH60j2hQ9mPvw/8dwDcFrlTkuc5BBYE7zh3PHQ5unqecFFYA+iRBkIis/DeWkcrjwHyEG+LIro/qRlUBcXeO3YZ12wk7wn1Z+vsIcLGozLeitS6N2WEClvjGHs9LUFgBADAwWceu/v84cBPC9UlgHwwTY8NYUIGljg+0qHQERPEg9ahtT8N/C/wc4QLdblfJxIBUlenJRCeRi6f8FFIA3j63nwQ7Vv7/N8BNAtdXU10/EIgNU0NQV/6re5zzDPlQ+F+vtE1F9yj87wG+qXClwAaZZFBV7jjHh/yekVPIJGBFTfb4Z2//0fL/T5A9LO8Okc8oPFA3YmMsf1Dv5L8uyqc89ty6Hdl7fM+y/48ifMyInouyQdoMmsLSs32W37NnFDIC6CchUIlURqX+/wRwM8L1YSgPJHW1qSh1lLcm4+juFpbleK1RZ8D4zoAdvelIwn8Ffg5cUO9P76l2BJBaJh/cyU1zfMjv2XMKKQCNF/G+nv/3JHAzyHVBaB5Ik9SmiWJjy9Rp47lpTr4PPjTC/0f66Okb0b7/PcC3xHCFWjZUO0NQ5bYL/aYdnr2ncALwh5f1U7cW4HD2zv83HnyuR4IH0DS1qSWtK/tPG1eoN+Vz63YQdgRDzT+v3c2XPgpcgui/q5VaMMGQ9lqWnuNDfs++UTgBqGIYZK/q/08BNyNyvQ2D+02cpGDBWNLaeP77ouI8+ENEnQHjxht6dthdhf8K3AqcLyZeqTbCJsqUA9q56WPFux5P+SicAPTahBCJ7Mj7/58CFiByXWzM/VGappKmhLFl84HjWXNmMR+U7m7lDu2jd4fdVfjfC3wLkStQfVZtdh7h7Rf6t75n9CicAADoyPz/08AC4DqThuvSIElDawliy5YCP/hD/DzqoS3Tt6P43+H/Y8Bcq/IDgw5iIzAJS8/1+/R5RpdCCcBb5/YNlf92t//fMzQe/FDkvlg1VZNSl5SX1ydwU0kaYDrV8Lrtwi+69DR+F/4rsAQ4vx4M3F1JOgDFphVuP9/dkWSe1qFQAlBRYUDs0Pr/rhf98zPAQuBaE8g6m9rEKsQm4cDaxNI8+JCF/3fSx4MTdXj43wt8W4QrVPltNe0EUd/O6xlTCiUAg2IRiHih/38GWARcS2LuI0wTtWDjhOrkLm79p/I8+EP8tNJDhxoky/6/nqwt+RJUblR00JgKqjFLHLcke1qPQgkAgCBTNBOA58jKedcqZq2oTQgUkYS03sXtJXrjv5hONRAgpMwGVgHnRvWBu+JKFvIntYjbuyt5T9PTAhROADTbAOTHCD9GgzUqaSKqREmdHRMmcdcnmuGtKEjKOEXXg1yN6FP1SieCstSH/B6HFEoAslNpeEzEdKNpApZaUGPKwGR+3N0MD36GQTHQl4j8QKymNYmINGHpec1zjZ5yUCgBaFBHlf6e55gw5TBWfKo5HwoFC8r4bQNsO6KTZWf6LL/H4/F4PB6Px+PxeDwej8fj8Xg8Ho/H4/F4PB6Px+PxeDwej8fj8Xg8Ho/H4/F4PB6Px+PxeDwej8fj8Xg8Ho/H4/F4PB6Px+PxeDwej8fj8Xg8Ho/H4/F4PB5PufkfKoZWHX7tiG8AAAAldEVYdGRhdGU6Y3JlYXRlADIwMjItMDMtMjZUMDc6NTg6MTIrMDA6MDBC8SuhAAAAJXRFWHRkYXRlOm1vZGlmeQAyMDIyLTAzLTI2VDA3OjU4OjEyKzAwOjAwM6yTHQAAAABJRU5ErkJggg==;verticalAlign=bottom;html=1;rounded=0;labelBackgroundColor=none;strokeColor=none;fillColor=none;strokeWidth=1;dashed=0;" parent="1" vertex="1">
          <mxGeometry x="384" y="738.5" width="101" height="101" as="geometry" />
        </mxCell>
        <mxCell id="XYBb2Tr0EMzCO1Vw7bGh-17" value="&lt;font style=&#39;font-size: 13.0px;&#39; face=&#39;Sans-Serif&#39; color=&#39;#2d3436&#39;&gt;Cloud SQL&lt;br/&gt;(Postgres)&lt;/font&gt;" style="shape=image;verticalLabelPosition=top;labelBackgroundColor=default;verticalAlign=top;aspect=fixed;imageAspect=0;image=data:image/png,iVBORw0KGgoAAAANSUhEUgAAAQAAAAEACAYAAABccqhmAAAABGdBTUEAALGPC/xhBQAAACBjSFJNAAB6JgAAgIQAAPoAAACA6AAAdTAAAOpgAAA6mAAAF3CculE8AAAABmJLR0QA/wD/AP+gvaeTAAAAB3RJTUUH5gMaBzoUTvGDlQAAPsdJREFUeNrtvXmcXVWZ7/191t7nnBoyVAIEAoIgDoiiIiEiKArSKipCBiYHhAwV2n7tfvv2fa9va9sfbl+1+368175vd9tQUwqQKVMlzCpDQBlCVZgVEUEGmclUlaoz7GE97x/rnASRQJI6p06dffb3ryjJOWvvtdfvrL2e4QcpKSkpKSkpKSkpKSkpKSkpKSkpKSkpKSkpKSkpKSkpKSkpKSkpKSkpKSkpKSkpKSkpKSkpKSkpKSkpKSkpKSkpKSkpKSkpKSkpKSl1ROo9gJT6cM7/N4zvw8gI+D4M/D/T6z2klDqQCkCT0dmXBwUMxNbw7GaLjSzWBxPD7d+ZUu8hpkwgqQA0CUuXj2HF4lkPBERkVinQ017eppQirjdWX8UDxIAqt32nvd5DTpkAUgFIOEt6RglLebItUxARBDoU/SKwNIo5/vktlijmHqDHCDdaZRuAL0Ksym3fTXcESSYVgITyzf5RthZamZorISLElnYRPUVgGfBpoDWKoSwAAAXgDqAL1VsRGQPIbYXCLLjjv6VCkERSAUgY5/crLXYEKxlUwUCLwidwC/9zwNTK332DAFTYDvwc6ALuQikiICYkLnVwx0XpI5Mk0tlMEMv68uU/KbER31idC7IU+DIw841/fxcCUGELcB1ojyCDCpEoqMDt6WtBYkgFIAEs7XULXwQyKiYS/bDCImAhcMCu/t3bCECFl4HVIMtNHD9sPWNVBQTWfzc9KGx0UgFoYDr7xlAVRODRR0oc9aGWI0C/AZwLvPPt/v1uCkCFZ4GrES579I/tjx/1jjFQA6LcngpBw5IKQAOytC8PGASLMYK1eijwVeDrwPt293P2UAAq/A74KXAlEj2D+liJEAzrvzOt3rcmZQ9JBaCBWLK8gBWDb2MEiyKzQc7EbfePAsyefN5eCgCABR4Flius8tR/yUqElzXYSLnt79MdQaOQCkAD0NlXwK3tGFFFxewDejqwFJgD+HvzueMQgB0fAWwEehC5VmPdLAY8YiyG2747da8/OGViSAVgErO0u8jw0zk63l3A5e/KNOBUoBM4AciN5/OrIAAVSsDdQDdwM8gIKO3tL5PPz+K29NVg0pIKwCRkce8wLWYqoS0iBlDaFE7CxfI/A7RV43uqKAAV8sBtuByC9Sh5gEJLhmmjRX5+UVpwNNlIBWAS0dmlaGYMrEFEAJsFOQH3i38qUNUVVAMBqDAM3Ax0Y7lbjQSgZMKYzbOncf+y9LGbLKQzMUnoLMfyEYgVzxOZA7oEOAPYtxbfWUMBqLAJWAfSa4WNntVYjQCaVh1OElIBqDOdy8sLX8GEiM3IUaAXAGcBB9byuydAACq8CKwU6BfPf9TGkRrrsgpv+4dUCOpJKgB1wtXlq0vfG/VhSvQe4DxcPP+wiRjDBApAhaeBKwUu3zKd388c3vn43ZYmE9WFVAAmmKXLC6gYjI1BBFE9ROEc4Hzg/RM5ljoIQIXfApcKck1M/JzBIHiATYVggkkFYIJY2pevNOJB1KIi+4MsABYDH2EPk3iqQR0FAFwy0UNAH6JrUH0FDBaLIKxPcwgmhFQAakzn8jwYhVgQQJUZCKfhkng+BmTqNbY6C0CFELgP6AGuB9kKSuzlMDZk/XeqEvFM2QWpANSIzq4C8VHb8R6bUr7LMhX0s7iQ3olAS73HOEkEoEIR+CXQjfALVLeDsPm3f2C/D76HW//f1nqPL5GkAlBlFvUpLbqVSFoBRZVWEU7EJfH8BTBpjr0nmQBUGAVuAbpE+aWiBUTIRq1sb9nC3d/er97jSxSpAFSJM1cq+wzniT2DqAX1Mog9DrfV/xIwo95jfCOTVAAqbAVuAHpU2WCQEKPEJWW/D0xh1Vnpo1sN0rtYBZb15ZFyfV5ofC9jo48AS4D5wKx6j29XTHIBqPAqMAD0esY8FMc2NigK3PYP6UHheEkFYBx09hXcwR7KzKBVtmQL7wcuAM4GDq73+N6OBhGACn8EVgj0d4xu/+3WKVO1XBLN7WnEYK9JBWAvWNo7BigiBqsRRvzD2dmQ4931Ht/u0mACUOFJyg1JrGSfMhogsbpehd9LhWBPSQVgD3h92q4YD2vjg8T92l8AfIAGu58NKgDgaqN/A/QLrFDfvEBkibLgRbD+7yfNOeukp6Ee2HqxrH8MYyxx7Ln0FZH9QOfh3vM/Cnj1HuPe0MACUCEGHgB6BVkrsb5mfbBiEFXWp+5Gb0sqAG9BZ/8ocWsBf6wdVUE97RDLF3Cx/I8D2XqPcTwkQAAqBMC9QLcKN4nqNlRoHxEKU5Rb/zHdEeyKVADehCU9o+RyLYRhACqIaDtwirqFfxKQiKyUBAlAhQKwHuhG9VaMjKFCrAZf4tTm7E1IBeB1nN+vtMYjxOKyc1XJifBJ3ML/PK9z1UkCCRSACtuBnwHdYH4FtqQ4dyObuhv9CemdKNPZmy/fDQUVH9G5IEtwrjr71Ht8tSDBAlBhM87dqFeRQYFIcdOcuhs5ml4AlvXlqVheaSQGXz+Ea7N9Jm/hqpMEmkAAKrwMrAJZHhM/4mFs5dFvdlOTphWAzt4xt+oNdF30DBdedNgRip4HfIXdcNVJAIXYctdzmyyx5RMk5FzjbXgWuAq4fOu+7Y/P2DSGiKDavELQdALQ2VcsW1pF4AtEeihu0Z/HHrjqNDABsAHoFpUbn3wlRuGLuHOO42jwyMZu8jvgcpSrrMbPGOMhWMA03UFh0wjAsp4CJjbEGQsSgvVmI3vvqtOAVGLmfaisNeirMcLTr8SEonjKLJB5uAYlDZvbsAfscDcCVinmJYMlJ0KIckuTNC1NvABc2FPARIY4G2ONgpp9RPV0XBLPseylq04DUcmauxRYYa33vDExkTF4Vnn6pRjPCqGnZaNRfQcuu/F8GjC7cS+IgCGgV+DaCDb7KH6oxJ5wa8LTixM7ucv6i7S9I8fYcwVwbtbTVPk8bqv7CcbpqtMgPIXLm78iovSUTw5jLKpC16I/fec9+QejVE5DxTfYyB4u8DVcfcPh9b6QCaAE3AV0i+rP1MiIKLz3mUd58pAjueV7yTQ1SZwA/OV/bqMwcxqZsSLiLrANOEldQ46TgWY47XkeWAH0+0H2sSgbqCAo0L34rc/6Tv7+qPuDQGQR33AkOysc31HvC5sAxoDbpexupEIehVabZdjPc9ffd9R7fFUlMQLQ2aWQcZ71KoKqzRrkeNwv/heosqvOJOVVYC3Qa2PvQePFMSogSvfiPeutd/IPRnf82fq+Z6LoaNxr0zwmcY+DKjIM3CQuvfgeUQlUlEwpZtOByXE3SsRVLO3L77wYwcNyDLLjYa2Jq84kYxvl7jlidIPGBCoGL7Zs7mjb6+45Z65UXnlsFD9rQMGzcTY23nGglS5HHfW+8AlgE2VRFZH71WqMlN2NEhAxaHgB+PdflAgj+C+9w7L0i1M+KG67ehZwUL3HNgGMArcCXYreCRSMCMVSnmlT9+Hfv1ad6T31os1sb51GLiwCggqtoJ8CWQacwiTqc1hDXgBWKvSvf0J+fdYxqCdw9bca+42y4QXgxzeXyPnyruc2x4u3juk5Cu9q+It6e4rAr4Bu0J+jsh1RbrnjIT538ke55ILa5PR8+p8LnHT7Cu789MLK/zUV+BzuNeuTTIJOxxPAH1oyXNPRKn2x5Q8r/iYVgLqy/I4AqyzyjHa9NKz+y9sshTABF/bmhMAg5R76JmaL9SD2BGOVnkUT00P/5O+PQByBn0UUrMhMQSteB3Opo9dBLfE9mNIiTG2RyKouE2H55Rc2tgA0fAzcM2BjvKmtwrQ2YfZ04fktyisjllKUGCGwwMNAH7DGxvHLxvMotQt+qPSdP7FZvLf/wzQATvrhKFEW/IAtJraXxZ75uUDF7ejDJCS5yjPQ3iJMbxVyGWfpWAzxTAIeroYXgB2UfTY72oWprcLsGcIfN1te266EkftvDcrjwKWKXI2xz4kVMrkcNrb0f7W+O+715Wy5k/55jMjPIFH8chZ+UhK9XlTOxSUTHVHvG7i3GHELf1qr0JJp6GdolyRHAMqouonbZ4owvdVjy5jyx82WzaNKFDfUJD5NuXDF39byRNRRhFhAhIu/MbnS9df/vdsGf/oH2ykgGJXnDpwe/c8Xhr21glQKrCbE8bgaiEBbFqa1CW1ZaaRnZo9JnABUUHVbt1nThBntHpu2OyHYOqbEdlILwYuUS1cVfVRAwxkuqWlPY/kTzR3l9twnfX+U57f5GOEJk/G/Z8NoJTtLrA+s9zh3hQi0ZGB6m9CWE5KwxX87EisAFVTBNzC7Q9in3eOVEeX5LZbhgmJ1Up0RbAKuBXoFsxFspC7cPGGHe9Vi/T+4V4OTfziKjWJV9BGD/lfFXINLJjqdSZSfIUAuI0xrg/ac4CXi5GL3aJpLVYWMDwfPFI5+p8cRsw3TWt3y1/oObQSXtnu2CH+lyAbFRpnQsm1K66T/1X8rbv/OFPYJ2ghNhKu/ZgPCX5Vbqa8oX3tdyfqwzzThgBnuXb+ZFj80wQ7gjSiQy8A79zXMmgYvbrO8uFUZKzm7qQncEeSB24EuhNtRzasKxVKWae1j/MfiafW+VVVhVbn/3md+OIK1GYxEJZDbRdigqiezs0ZjQpUu48O0VmFKi5BJeuHzW9B0AvB62rJw+CzDAdOVF7YoLw1bCkHNv7YE3AN0AzeDDqOCTG9Dtwf89JvJfBpv+44TtE//cITN2c3MCvbLq3CDsfxKhVNxyUTHU+MqTd+DqS0uUpRt6qe/fD/qPYB6Utn6T8kJ75ktHNBRziEYthSrn0MQAfcDvaisiz27ybNC7GUxNqZ74SQ6jaghd5SF4JT/MUomhjjDMOg1IuZWVT0Dd0ZwDFV+Nj3jknimlWP5KY6mFoAKla3/9FZh6oHC7LIQvDpiCcafQ6C4zjP9iK4UMi8qEW0ln8izdC9uzqfx1u+5g8LP/DCPqKDEmxS/12h0kwpn4Wo6jmKcOuwZaMuVk3iyk+rQd1KQCsDrUNxinzlFmN4mzB4V/rjFsmn7XucQPAH8FPRKz9en49hgbRHE8O8XNu7hXjW57TvuPpz8gxEMRRT/xSAb/Z9s4F/LTsPV9+7p5xpxC39aG7Rmkh3LHw+pALwJlWSi/V6fQ7DFsmV0t3MIngOuBi7Lt5jfthUtUWgQUXqWJONwr9rc/l13Xz7z/TFailmssU/L6Ivf1ykHrgG+AZwLHPJ2nyMCrVlheiu0NkksfzykAvAWVJKJDugQZk7xeG3ECcG2/C5zCF4G1gB9sZWHfVHbWrIA9Cxphq7b4+e2f3BZhSf/YDs6ZTYovw1y3neygV0BuhhXa/Bnfg0CtGTdyX57TjBNFs7bW1IB2A1UIePBQTOEfad6vDxseX6Lsr2gziwYtgDXAz1qZVCMDY2AH8JPLmyd1GmHk5XbvzsVVDnlojEyxlpFHwT+VtzOailwGjATXFi3EtJrtjj+eElv1x6guMSRQ/YxfPRQj/fONnS0yT3AuS8M05nxuFshxERI3MpP/rItXfzjQYRb//sUpgRtlLwSQGiEu7cX4k7g3JYM9+wzVZjdYZjeli7+vSHdAewlrRk4bD/DO/flQN8wB3gib/xnWuII37ZhJaS73oNMCAceUuAgacdai+9b4jhzIDDHWg5M9XV8pAKwl1RyCIxwqFW+D5zdEkf9CCuLGX3Rj2HNPSHiKfM/Nrmq9xqFJX0FrBhUY+I4wnhyYBSZHSFCkTSqN15SAagOAnwI+BHK2X5MLyLXSk43YWHVAzHGWhbMac6Y/57S2VeA8sLP2giL2dcYczrKEmAO6XNbNdIbWV18nL/e0ah+BXXpvl4cjYDwo57fc9hRB7PwuGZonbfnLOsvMu2wHMNPFUAjRGWaFTkVtBM4geYwc5lQUgGoDTlcgctxwG0gXcD6w49+Z15QrvrlMNM6pvGlD6U7WNhp5mLHim7xQxvISQjLgM8wwYVCzUQqALWlDReuOhG4CaVbDPe0tLQEQRByw1CRFyTHsjnNKQSdXYpkxrBqyORLKJqV5jNzqStp4GRimI7LZFtlrfyHiMxVwQsx7EvEwMbalyBONpYuH0MzeVQNoniiOtcg/wGsKt+rdPFPAOkOYGLZF1iq8AWxzmTCtHq/1nykA/cFIDB/brIjBp19BUQEq5ZSa0lyhdwHrTSVmcukIhWA+nAQ8LfA6ZqPrgB+Gk3TJ/1R4dqhCEU549hkRQw6e8dcSiVKGI7i+e3vbinkvo5zIH5XvcfXrKQCUF/eBXwPWOiPSr/CihLhH33xWPNAiKgy/5jG3hEs7S8QewKhBc+D2B7s++1n42L57yet0K0rqQDUHwGOBP5F4Gwfrw9kQCJ9VQ2sHsojGBYc21ihw6V9Y1gsYiEbWayRWVg7H2ExcDSQzNZHDUYqAJMHD5fk8mFUz8XQDdxoyGwDy9pfhmhu8mcVLusbxZM8kQq+e7w6rOGL5Vj+x0mobVijkgrA5CMDnIhyrMCdinaJyi3aqmOq8Iv7X2FbPIuz5k6unfM3+0fZWmhFKRHpVIB2Rf8C1/TzU0BaDz0JSQVg8tIKfF7gBISfA13AXaO2o+hJxA0PlXhta5YLTqqvEJzfr7TGI0TWMCVXQqBFRT+BsgznHDy13jcyZdckKQ9gcv0kVo+pwEJghQgXgxyvavwwEqZPCRgYql8OQWdvnmxcIBYfVXxBj1e4GGVFecxJXfyJedYafgdgVbGWYUW2AfvUezw1ZCbObPPzRuJVqiw3oo9YFbtmMEAE5h87MecDncvzKAoKXiAmzvIhERaBnMmbdOtJINsUGdY6O8pUg8bfARglwN5ghHOB1cD2eg+pxhwAfAtYZ9V8H3jf/HLOwJrBImsGSzX74qV9YyzpHQOFcxa1AfK+OKvfB9aVx5T0xb8dWI1wrkVu0AQ0HGz4K1h+Z5Eggn2nGozoFJBTaK6Dp98BlwFXeZ7/bBxH+MYjVsu8KpUfL11exBqDF0f4xhBZ+06c4+83gPfV+wZMAAXgTqALkVvVMpoPFc/A5csau06p4QUAYO1ggBcLke869KnQIcqXcEUlx5H80JMFHgGWo7Iq1vhlzxiyxhJaYd6xe1dFu7i/QOgLLYHF2BhrvANwDr+LcP0PGn8H+daEwAagW5AbFLaBErWM4QWt9Fwwpd7jGzeJEIAKA0Mll24qBlBQmYUwH+c28xGSn3wSAYNAj8J1qrLFoFhjEFUW7GZ68YW9eTwLkQdildjITIEv45pxziUBZ0dvQww8BPQqMuCrfTUWgzERqoauRe31Hl/VSJQAVFg7FIAIqoqJI6zvH4xyDu4Q7ch6j28CKAG/ArpU5eciuh3g5TkZZm8oMu/jb/5mdGF/gfuGHuXYYz4AIhhlqnWhvGXAJ2mOhhyPAZcC14iVP6pRQmPwrNK7OHlvlIkUgAprNoaoCMZaWoxStPJunNNMsxSgjAG3Al2o3oExBVQp+CEzSm184Tg3/d+6QhkZ3kxLSxsWRaAV5NO4hX8KkJyfvF3zB+AK4KetM1ufLGwpoKII0J2gX/w3kmgBqLCmHCsXIKO+hBJ9EJqqBHUbcCPQjXAvEIoFssotGyNiY7BqMZCxyMfFnZ18Eeio98AngBeAlUC/taVfG5NTte4sqWdpchd+haYQgAouaUYQFAyeWo7BvdeegavVTzqvAgNAn7HyYIDGdzwWYfE9a6OjgcXAfGBWvQc6AWzChS97EO5HiSkH9ruXJH/hV2gqAQDo2qgcpCUCMeCSiLLGyAm4X71TaY5ONM8D11jLpbf8JkKV84FzgHfUe2ATwDBwM9ANejeYABTEQthO97LmWhLNdbWvY+U9SsuUYcJiK+ISOtpQTsYJQVM0oiyFPHPP7yNKEYfWeywTQB64TaFblNvFkFcLGdNC0W6nb0kz6P6f07QCUGHgviL63KvIYQdQNvqbhtsJJLoVtQCFEDY8GVEIE/0glIC7gW6FmwUdAWHk6VamHlKip7Ox+ixUmwTP+54xcH/orIDDGAyIyr6qegYuh+AYEhb7bgIBiID7gV5U1oHdpCLEnoexlt5FyQvp7Q0JnPfxsfa+AGLQDBiBGA4UZYcdFQm5ZwkWAAUeBfoRXSmaeVGJUOMhaulOF/6fkKB5ry5rBgMUQUTx8FCiwxT5Gi6P4D31Ht94SagA/B74KXBFKPHTGfVQjUAMPYsbP223FjT8vK+8509rMs86vrqXNDAUoE4KmDY1w8hodCSq38D1rj+43te/tyRMAP4IXA1c9tqMzGP7bQ0xuEzQriXVPctd3Dv8J/+70Q8PG3ze4doHC5hMRFjIoQhjwRhtmVYWzq3u2d3ajS6HQFUJPDHZWF8fN9+/3vdhT0mIALxCOa8hVu9BY2Kr5TyPnkXVXfhLu7cTbt1Gdt+ZgCFjWrAacfGixq4za9B538maoRDgfYIeqsjdBh1VhdbiKNunzOCsj1bvEi9S5eh7Q8IsGAvW8zLGxh/DRQy+BMyo9/3YXRpcALYCN+Cq9O5TsaFaQ+wrhzzTykUXVe9qLli+nRlxG6OmBCKgdgrICcAzwO+6Fzd2tLjhT7bFbdDfC1wi6N1a7p1XaGkv+XHEqruKtO+f4wvvGf9DcZG4z1j5G8XfWkRbJAS5C+z9ICficuf/AkhfOGvDKHALbo5/qVAQIM6WyA3PoGdJ9Rb+t/5NyXeM4oU+Y6YEQg7VT4AsA04AuRD0d/W+IeOl4QWgjOIy+M4ETka4FqRHYKOXNVFpOGRgY8D8OdVpmXXWB9yDtm4wz5b2VjryQUHh50a4R5XP4nYEJwLNHWSuHkXgl0A3yC/AVTc+k1fe0w5dX5tZ1S/r7BujpHlM5AHiKzoHZSlwOq7t3BjumWt4kiQAlQnZB9ew4lRFVyEsF7GPqjV2oNwua36VzgfOmOu2f+s2BvgGgpjtIrIG1fWKnAZaqZ9v7BfF+hFS7m8gcL0qWxAFT8EKt3yrnVuq+GXL+vKIa3VIrKExmjkK7CLcD8vs1/3V1z9vDU1SBODNmA38NfBla82VKJe3Tck+kR8LWTMUISjzq+S/d0Z5Z7FmsERsLZ4xWwR7mYr8DGUh7rDwwyS/g061sMDDQB+iq2Orr/hiEA9Q6Dq/usU6nX0FUEWBZ9uVd+bNe43JnAd8FZKdJp1kAahwKPBdhAX5sfAygauE0nMqGdYMxQi2akKwoLyzGBgKsXgI8StC+BPIXK87e+gdUe8bMsl5HLhMkavE2OewQs7zsWq55ILqJvFcuLyAEUNkY/AUteaQQ/J8RdGmmadmEIAKRwA/UDgLMn3AakP0iiKsuq+IEdmxgMdLRVCcEOQQ7HNt7Zl/yY+GAwhN8cuyFzwDXCnI5c+22ScOyQOxgAj/eUF1Q7rLludBQK1SsiGekf2xslDQptupNZMAgJvYo4F/RTlXMT2CXu973hZV5YYHAiK7c0s/XnYIwWCJ/GgAIk8YY//RWrMKd07xxnfLZuQlYBWw3NrwUc9k7KFjggpVT+LpXJ4Ho2gMWBBhpifmtPIBX1Oe1TSbAFTIACeAHqPwFVS7RfhFKWa7oCz/jTJzrLDjkG+8VA4dBzYGqBqL8rCI/J2i1+CKjSqny83EZuBaoBcxQ4qNjPgoSleVG3J8c3meJ0rlM7tYAJmK6Gc1jdY0rQBUaAE+Cxyvyi3i4st3duSjYmwyrLurQDCjZUfYb7zMn5Plpt8rY6+U8HJeJKr3KvIAwlW4h/HzwLR635QaMwL8DNee7C5RSqqKzcS0bZvCv/919WL53/yJUpq+lbgkHOY2dS3Ap0DTfI0yzS4AFaYA84BPg9wA2q3i3WezXmgKIdfeE/DgxzM7EoHGQyUhaeUDytTRrRRappQEbrPIBkE/g0smOonkmZoUgPVAF+htiBlDlXabY6uXp/+86tkIXnSR8tyhBcKoiBfkADICH0MbL2Oz1qQC8KfMwFX7fdbYeAChLzLyoMmo/fD9EWs3BsyrVjJROUV59WCJfFCgPds+BnqdGLlTLV/E7Qg+DkyM4V/tCIB7UbrVcKMowyAEr2wis08HP+6srlXD0uV5XqCIZ8FijKd6tLrDvYas2ag1qQC8OfsDfwl8KRvr1YhcNn2K/9i27SFrhkoIUjUjzkrR0tqhCNEsVsNhT7gqVrkFdB7ujOCjNJ6pSQw8APSCrBWjr6mCxSIIl/59dQspl/XmERGsKtum+3QMh0d6Ejd81WatSQXgrTkY+G+oztu2Pfwp6BUe/tMxMasHQwRlwdzqCMG8Y91UrB4MCBCyoq8Zo9025iZEzsaZmnyAyV+3o8BvgEtRVoh4zysxNnYj711S3dfupX2joBYVCCQio95hHcNhYvo21JpUAHaP9wD/HWShJe5HWOmLvmgV1t4TgAfzPlatHUElqzAgigzG6PMlK/87Z3QdztDk68Dh9b4hu+Apyg05SmH4VC6TwRJSix77ncsLqBjExohkUQkPzKiXuM5NtSYVgN1HcIaYPxLlHAu9IrJOc7oJCwMPxRBb5h9TraxCJwRrhwJajWLhKT/K/FPkh6txD/nZTJ423s8DK4B+P8w+FmUCbc1mUaB7UXV/8ZcsL2CNQeMYsRFg9lWJzkAlkb0ba016s/YcH/gY8BFVPRelG7iZIB7BwJpVzyGHzGL+x6oTWp5XPmsYGAqIvUgVfqNqvm1EV7DzcGu/Ot2L1yg35BB4wApx7IcAXFLl3ntLu4tsfy6H0QImjlBkGiKngia6e3OtSQVg78kBJ+Psx29D6AZul8MOyKtVrntkG8XR6VVrUTb/2Czr1yuvTg/xY41Bh1TlYRG9GuduNJFWXttwVmM9auN7xfiBooRZy6FPtle1Icfi3mFazFRCW2T6uwqopU1FTpYm8m+oJakAjJ824DTgRNQ5zqhyd1RqDfxsyA1DRV6QHMvmjH9RnHRSOYdgo9ISjxGabADcqaKDonISLofgM9TOzHMMuA2lS4T1ihZEDHg5KG3j0sXVq8vv7FLIjIEaQi2BaFZVTkDolOZxcKo5TVP0MAFMx9lrrTRGfgIyVwQvxLCfRmVfwupw1hzhyx+bAlgu+lEWQQqC3oTyddz5wG04Q4xqUSp/5gXA11W4CSh0LWrDMx7d5xu6l1Vx8feOgZcHNSB4oHNBfoIz8TyHdPFXjXQHUH32xcXuT1XrXGcz6v06lEgrLsULqpRDsOBYd86g/1WI1cOYeMSzrLIet6OcXh7Hsez9PEfAENCrItcqdrNRwbMeKhapQmbk61naU260I4K1JTGS+yDaVC7OE04qALXjIOBvgdNDiZzvvNEni1ZYfX+EqLJgTrUiBu5zVt8fUMpAJmKzqF2OeDcreiau8vAodn/HZ3HmGstRXYWJXxLNkI18Ys9yydLqnrd1Lh9DAVGhdWYbhS2FdxuT+zou7Pmuqn5Zyp+QCkDteRfwj8DCopVLEa7xw+CP1vNZuzEE1R0n/eNl4THlHIKhCPU8xMYvZdT/t1Ci63A9CM4D3vs2H/MEcLnAlfjyjEaAbQGx/GRZdRf+kr4CsRGwFmMFNXpwYUvhHFzS05FV/bKUNyUVgInjSOCfUc62nt+LMqDYV0EYGCyCCPOPrc4CW1DOKlwzVKIkIQZ55pV3Fn+w/3Mta1Aq6bHvfMM/exa4WkUvW/+y//jJ+8cQKIjSvaS65QjLlo8hYrEWMnFMJGYWRufjXlk+QuOlPTcsqQBMLB4uWeVDCF8B6VbhBsFsA+W6e0NiT5lXpfTiBcfu7EOw/3MtqPJ4xuh3IysrERYrLCi/xq9B6bNWHjYG++n9YxToWVplc43+UeJsAS0Kqj4CHbHIl8TF8o+jCRty1JtUAOpDBvgkMEeUO4EukFsjX0cBbn3wFbaEszhrbvX6EKgqqwYDjIhFeLAl5/3tSCH6qW8gCOWBnG9D8SATwE8ubHUmGFXim/2jbCq0I7aAX5gChimonqIubPkpklf63DCkAlBfWnFNQE4Afg50A7/aHnUUfYm48eESr27JcsFJ41+MlRP7lfcoudYSQSihEe6zCr4PYRDRse80/vUscXWQVeD8fqXFjhCpYXqugCItiH5SXF3+54DqNQFI2StSAZgcTAUW4jILr1OkBzWDQaBRR3vA2sGgaq8F1TZP3RWdvXmwBSw+VvCN6lxcxuKXgeo6eaTsNakATC5m4k7AP4/EqxX6/FgfiXyxawcDFJhfJSGoFTvMNQQ0EoPPh4xlMchC4IB6jy/lT0kzAScnBwD/F7Au8s33gSPOuOwZEBgYLDIwVM0kv+rQ2TfGsj4Xz794zUuAHIGv3wfWla8lXfyTkIavmR4YClDki+I67Ca1yePvgMsVrhLJPIOGZDyPWC1nVKn8eG/p7CtiMRgirBqM2ENxJijnAe+r942rEaMg54DemLoDTw4Myd7NvA/4HwJnouFyQVYXg/AlzzOserCEiWHBnImthr2wr4BnDSExHiHgzTZiF+KyDj9EsucjMc9bAgRAEJfE8hAulpyIiXkTDC5J5seKnut5pkfhWj80W1SUgQcisMr8KqUX74rOvgJgsMTEJkKQmYp3Ou6Abzx1B42CBR4CfbbeA6kGDb9YPGAq/qMI5wDfBh4jIc6tu8DHdQu+WGCFip6JyFSiGFEFVa67r1D1L13SU0D1x7hbGwFMFeRMXCegi8tjSvLiV9yz9W3gHILSo2jjP2YNfwawbihEEGIs0VTF3y7vxvXNa5ZCkjHgVqDLoHfEYgrGKkU/ZHrQxheOG98Uf+sKZWT7ZnK5NgRQq60i8ulyEs8p1K73wGTiD8AVCj+N47Enfa8drPMW666yi9FE0/ACUGFgMHAabUDafNF89EFoqlLSbbguPd0GNlghQEGySvi7LGedtWdTfeZKZZ9teWLPIGoRj6yqHFc215jI7kP15AVgpUJ/qbX061whp0YMqkr34mQkLyZGACoMbAxQBKOKNXjGcoy6IpN5uFr9pPMqsBaRXlEeVNFYVQDd7T4EnX15nH2uYtX3PBMd/bp7OKveFzgBbALWAr1Gud8KsYrb7vcsauxf/DeSOAEA6NqoHKQlAjFgFeORtVaOx/WR+wLN0VHmeeAa4NKxbOax9iBUrILsNCt9I519BbfNR0FaBFs8EuF8XBeeydKBuJYMAzcB3Ra9R8QERhXEomE73cuSt1ySd0Wv44ZHlJFtI7S2taAIKG04371K77zGDuLuHk/ievVfSc57ilKE8QxqdYfNWWffGFgFY7AaYcQ/HNc/4OvAu+t9ARNAHtfyrAvnX5hXIGxvoXXLCBd/s6Pe46sZiRaACqs3FHn60T9y+Ed2lMBPwzWWbJaW0hW3nn5EV9iIF4wnmJzh2rsDMllQ44GNDxLnN3ABjeFCNF5KwN1AN8rNiI6AMP3wVkaeLtF1QfJdw5M+wX/Cmo0h1hi8OHYBUJV9Ua30zptDssNY4Pz67gd6gXXFkr523zOWYsB+qnpG+T4cQ/IbckTARqAXlWsNdlMsgogHahNzwLc7NJUAVBi4L0BjQTJK5IFvORClmWylAuCeMKbvzscjopjFwPE0vhPx26G4Xof9iK60sb5ojCESD6OW3iZa+BWS/qC/JesGA4wKkVEKnk9bHB6mSKV3XuKNJYshxXufjCiFJH+vC78HLgeu9H37tPNdNKhauhY1w1HQm9PUAlBh3VAJUYhFkNYMWojeD3o+7vT7kHqPrxYIUAhhw5MRhTDRD8JzlKMhsbT81tMiqoKI0uiFPNUgwfO+5wwMBa4VllWsUWNUPgIsBhYA+9d7fNWkCQTgFWAN0OfhPRQTW8pBznTh7ySB8z4+LlLlmHsCwqygCp7nZayNP4aLGHwJmFHvMVaDBAvAVuAGoFsw90EcgiH2lHc801pV38IkkN6NXfDzh5Ut+RItGa9c82FbFPmUuByCv6DBew8kUABGgVuALjHcqZaiIGSjgG2t0/jpeQm4whqQ3pW3Yd1gntfaWtmn4FKMRZmC8FmcEJwIjXmAliABKAK/BLpE5RcqOioCf4iV93jCfzbxAd/u0MDz7lg7FO748xlzfG64H06rghPvn39PgBGILSCCqM5QkdPK/vRzabCe9gkQgBAYxCXxXC/CVgA/VmIjXLKk+gu/s2uEzy2bxs9781hx96ynwc8TGnDe/5R1TgBygFo0EAWJlWBalrM+UAMhGCwhqlgxGE+xKvujLMQdFn6YBumx0MACYIGHgT5EV4vVV1QMltotyDNXKrO2jBFkDIKgarPWiAClvgbfYTTQvL85znZbPgU6X5BrsAypaFRZhvPn1Ca3Zc1giLUGz4vxJCJW/xCc5db5wBH1vi9vR4MKwOPApYpcrarPGQFrPEQtPYtqk8TT2Te2447FGN/DHosLDw8AdzZ6RCERqa8KUwWWKHoWhhVAvxH7qLXGDgy6Drq7qoDbWyqOvGuGQkKbxYh9rtiS+Z8txXAtLpHoq8Ch9b43CeEZ4Ergcn9byxNhRxHPgCr0XlCbMo4d7c2B2EZGjH+Uh70AVysxDeSWJDSeSoQA4GbC4lpP/w1wurXmSpTLp7RnnxjNhwxsLALC/Co3z1xwrBOCgaESrYUAFXkizsbf80JvFcoi4Exgdr1vUIPyErAKWJ6R8JFQMxrOKCJQs+y9pX0F1BVE81yrckjRvNcY/42CPkoSVj/JEYA3cijwXYQFo/nwMuBqjbLPihcxMBQDlvnHVvfMbv7rjDi90FOUhxX5O0GvxjXMPB3Yp943pkHYDFwL9FgxGz1ro0h8BKW7Rg05OvuKoAaI8FFizDsPLnKuot+gAV7p9pakCkCFI4AfAGeJFy1XldUi4ctguH5jkUiFeVWy5K4wf06Wlb9RMiMB6ksEukGNPCiWq3DJRJ/HlSOn/DkjwM+AboS7RCmJKn5seXVaO6v2sK3Z7rC4v0DoCwQWTIiqd0CMLARdRAMd6u4tSRcAcBN4NPCvInoumB6F60rqbTGqrN4YIao7tvLVoBJ9WPmAMrW0lXxmSgm4DZUNiH4Gl0PwaZqjIcnukAfuALpU9TYxZgxV2jXHVpOnZ1n1PUQv7M3jWYiski1aYiMzUe/L4nZrc2mOtZFsdXsDPq7k9WKBFQZdqMhUozFCbdppn/VR4dSPz0StMhoWQBgDrhPnnLMUuBNXmtusBOV7sBT4Csh1wFi4dTMax/x4iUf/ouou/iU9BbYXLsUCoQcCU2MjC9nZ3vx4mmTxQ8NEf3bNOKzBdrTTFvQOK6aAKr4GlEw7Z9UgmWhgMEStQbzYNS0V2Q/XaHMJ8FEmsBFHncOAMfAA0AuyFtXXEPDiEGs8upZUP8u6s2sL2tYBQcFZyei42pun1mAJoB13MPcpRW4U1W6LbIglG3gaseKBgFnDGU46qXpLY34ldLgxIDQGz+prntHuKOZGEWmGVlw7WpMJrBDjvWBtvGMfenFn9Xu1XnSR8sy7x6BkkLCEGpvFesch0qnN0958lzSzAFTowIV4PmvQAZA+q/KAH2u8dUrEwFDA/N1sp727LCgnJ60eDLCRQYy+gPF/jEbXonwN14zz8HrfmCrzFK456RWaC5+ilMFGIYjQs7g2J/vL+gq8pEWygUHAU9WPinqLgfnAfvW+IZOBVAB2sh+wDPSLnugK4FLE/w0a6sBG95pe7azChXPd5w0MlcCGgDylbZl/kny4GrcbOJvGb8f9PO79ur/oZx9riQKVQhYEepbWpqByaV8BEBRLzrZISYofUJehmYT7WVVSAfhz3gH8HXAGGl4BXEFRnyQnrBuKUJR5NcwhkEKkCL/xVL4dwwrQRv3Feg0YQOkz4j9gieJcHKJAz9Iape32jLn0QFVazBglbXt3ySt+DWcTl7QdVVVIBWDXHA78I7CQnFyqcE2o4fOeeKx5MESsMv+Y6u4I5s/JsnKlknlfgA2IgSFr5WFjdiQTNcI76zacRVmPJb7XiB9YYjyrbJreWpNY/tL+ArERiCx4HkT2HUVtOwf3q38kyT1TGTepALw1gjuU+xeBsz3x+hAZkFBfxcDAYBFEdvyCV4OKh9/KjUouGkNNthwq00FBTlKXTDQZTTkrUZVugfUWLQgGzeSQwjYuXjaz6l+4bPkYIharkA0s1sgsYjsfYTEu9yPp7c3HTSoAu4eH8w34MKrnYuhRuEHE24ZartgY0qLKwioeFlbCkGuGivzb2Ff56/arC4rehJhfofp5XPjqE9Tf1KQE3AV0qfAzsWxXge5FbXyzv8TF51U/1eTC3jF8GxKqYK2PCB3W8CXQpTib8obqzVBPUgHYMzLAiSjHivtV7hLk1nbVUUXpv1WZOTPP6R+t3o/zgmNdw6H/+37B9wxBZLcby6rY43ZRvox7NTiWiZ/LCBgCehS5DmM3Y4Uw6+HFFpHq77oX9Y2xv9/K5rhEIDmMMkVFTynH8j8FNF9j/3GSCsDe0YrL6T9BhV/gPOV+NX16VLRxltWDRXImV9XORGcc437UVt8fUGqBbMhmE9l+63s/Az0TWIQzNal1dqfFmWssB12lJn5JbAZT8rGepf+86m9IOrsUsiNobNgcFUGkBfSTVlgGfBaofq5wk5AKwPiYimsZfhLI9aA9Bm9QRcOQkBX3lThrbraqv4YLywePa+6PiFo9TBi/ZCXzb0bD63ApxucB76vR9f4OZ65xVajmmYxYTNgCxnLJhTV4E1Hlry4pEHgFxPqgZBDmoroUOA2o/sFCk9Hwp6PjSAWuBS9T7kUfe/qwicWaci/6eVVOJtp5/a5FmYrhkweN8qsXphwBfAPXneidu/p3e5gK/CxwNchlZvbY4/alNky5Zr6rRkk8nX15VMBYiFSMZ/TD7PRoOKAmX7r7pKnAKW/KAcBfAad5sVwNctnsbf5vX+wIuXawiIpwRrXLj8uft3Yo4K4XpwA8rtZ+V4xZiXstWMjeL5iXgdUCy32Vh0NRa192D/wltVz46kSzkDO0Fe37PdGKoCXSpamepAJQGw4Bvg0678WO8KfAldv93NNtccjqwRBBWTC3ujuCyg5jYChAjLEIDyLef8HG1+AOCvdky7wFuB7oEWFQrYZRuQtu7TrxjII68x7fj4kjOaytaL+KS4t+b02+NCUVgBrzXuCfgDPb4rBfhZW+6ItWhevvC4gFzqiyEMw/NsvKe5RsawkbSwh6t4jcr8qV8LaHZtvBHWoq8isRLaIQBBEz9p3Gv9Ygiecvewr4saFEjJgsSnhgHJlmcmquK6kA1B4BPgT8SJRzLPSKsK7ksclTWDUUY7DVbUhyfDmHYKOSjV8i9PYtCtyCcq8Kp/DnYbMCcKc4c41brTAqgHbk4LUil36z+lV6S5cXscYjjkMCP8KLzb5KdAbIEuAY0mdzQkhv8sThAx8DPqKqXzHQrXCzRzyswGW/2UJ7oZ2FVWxauqAchlw9FFAUoQ07ipp1iN4pwhdVWSoioNqjwo2IbAUlGwdEJsMl86ufSNfZX0KmZtHhAl4cAzLds3Iqop24Zhz1TmxqKlIBmHhywEk4Mbgd6AK5fWp+Sh5g4IFtEE5n/seqGDosnw+s3VhCTIy1ZutYQa8Irdyc8YRczm4OAoE4RkX4j86Oql/0X102wshYO9gSOpwHkTZUTsbtRk4mbY9WF1IBqB9tOLfhEwW9GegG7iZuK6kXsnZDiXBqdd2N5pV3F2s3Bszax+PFzXazqjI8Ymhrga4alOeeuVLZf8sYQWRoyQWIkFOVE1A6gVNJG6TWlVQA6s80XJ36Z4BrQXrVsFE9Iq8QsGaoxIIqhw7n1cgt6Y109uXR0QJhxiAYH+wcVZbgOjHtOyGDSHlLUgGYPOwLLAY91cSsQlgemujRbJzRtYMlVKhq1WEt6Vyed64ZCiiiyFFgKyYpB9Z7fCk7SQVg8nEg8DcoX87GmauAywut2SdaiiFrhiIErbqpSbXo7CuUG3JAZlsLUUfxvQLngX4FOKze40v5c1IBmLwcBnwXWNBSDC8VuFq09JxKhjVDMVIDd6O9ZdnyIsYzxFGEegrWHBJ1FBvGKLWZSYoAJDlZ5AjghwpnI5k+EVkjGr5sMdz0QJHACmdU2e9wd1l6aZ4oI2jREpZCjOcdIFYWlNuYJd1VJxHPXFIEIKr3AGrMDncjVeduBFyfj7wtnig3bIiJjOWMuROzI1i6PI81gsRKLlCsx0zjeaex01VncmxNaksinrlEKLSgDwD/C/hDvcdSYzLACcAlAtcY0YWqMrXkxViU/63K2nur6270ei7sL3DY1+9GVPEiBXSq9VgIXANcUh5b0hf/H4D/hegD9R5INWj4bczAkGvZnctkpBSFH0S5ADgLOKjeY5sARim7G6F6J8YUxCpFP2R60MYXjqvO9H7rCmVk+2Zacm1YVYBWQT7FTledepdhTwQvACuB/lIm/nUu8hSFRi8HbngBAFi7MSz/SUHwsByjzm5rHs0Rb94G3AD0GNgQC4FRIKuEv8vuaDS6p5y5Utl3OI81BlWLeGTVynG4rf6XmPwdiqvBJmAtSi+G+1FiLf+HngZf/JAQAQDo2qgcpCUCMWAV45G1Vo7HddH9AlD9ipbJx6vAWkR6PeXBWDQWK6joHrsbdfblQQURRdTzrMRHs1NUZ9X7QieAYeAmoNui94iYQFRBLITtdC9LxtJJxlW8jhseUUa2jdDa1oIiqNImLve+knM+2dpp14Idbjx+lHks8kM1uLyct+tM1NlXKPcwUvwgK1E2OJLkuBTtDmPA7eL6PK5XyCsQtrfQumWEi7/ZUe/xVZXECUCF1RuKvPL4C8z+wMGAgso0hM/jdgSToZ32RLDDj6+o8lSLKGINiDLvDRED12NfsdYQUcIndzgk1qfwzai0N+8W4WcKIyi0H9JK/vkSXRe01Ht8NSGxAlBh7VCIEUOsMcaC9dkHy+m47Ww92mlPNBVH3ktBV1ijzxtrECOgyk0Px8RG8K3FWg9j4nfgfu3PJ9lOxRUq7c17VeRaxG42VvACD+tbLqmRjdlkIemTu4M1DwREPmQCEGtBvNk6se20600MPAD0IbJWrb6qwK2/jsEqFpmF6Dxc482PknxXnZ3tzVVXYeKX0AxeaLCepSvhC79C0whAhTVDERhBbExGfUKJDqX27bQnEwGwQd1W98afPRSD6Bdxr0bHARNTKlhfdrQ3x5dniBTUB7F0L07mVn9XNJ0AVFgzVEIBgzDvB4+z9rtHHIETga/wFu20E0QhiLjrricigohP0ByuOs8CVwly+SUXPf34sosOdfsAUbqXNMPZ8J/TtAJQYWAwcKfeApnImtA3H8K9FpxJ/fvP14w99AVodF4GVgHLieQR8dWKujnvSkAsfzwkfN53n7WDAaBghNh6vkg8V9xB4ZeBfeo9vmrTJAKwGbgOtBeVQUQjEFDoXtLcC79CQud97+hfr+w3M6BUMiAWTyVnhU/i3o8/T4I86BIuANuBnwHdqvxKhBKApyEFbxqXXpCwqx0H6Z14E67doOTbX6Ol2FHubKPtiJyCE4KTSMD7ckIFoACsF9df8VZVGUOUTCZLqVSktwY9DxudhMx7bVi3sURrNmas5CMoinTg0oo7cT70DXtinjABCIB7gW413CSxbBNRovYxvEIr3RekC39XNPi8TwyrhyJiPDKEZSNO2Q+XE7+EBo2ZJ0QAKrkNvSBrUX0NA54XY62h64LmPNnfExp03uvDmo0BVgTPKp6nxDEHgZyNy5VvqKy5BheASnZjv8IKY7wX1MY7LqK7Rv6FSaTB5n1ysHowQFXwjIWcD6X4cKBiZPnueo9vd2hgAXgSV99wpdXoKSM+qhYQepo0lj8eGmjeJx8DgyX3W2SEbDEjQUv4fnZWzh1c7/G9FQ0oAH+kXOE4M2j97ZZsQQVBge7FDX8mWzcaYN4nPy6ZSFCjSCSeevoR3PnAfCZp7XwDCcCrwADQGxr/oYyNYlM+km32JJ5qMInnvbFYuVLJvDeAQFADnvUyVuLjdGf3nBn1HuPraQAB2Eq5yxFqNiBxqGLwYsvm6W2sqoFVeTOS3sUqc+1dSjS1iAlclbEV2yrIiSjLgL9gkvTPm8QCMArcAnSp8ksRCiD4WqAoM1i+eBKNNAGkd7NGrNxY4COFFn7dEpaLjpiqTgCWAScCdS07m4QCUAR+iXNLvgV0OwrxkaN4j06le1n6nl8LJsG8J5t1GwN8A0EMIIjqDBU5DXQpziK8Lm20J5EAhMB9QA/K9SJsVQBPwUoa0qsxqQBMEGsHS4gqVgzGU6yV/YEFuAYcH2GCG5JMAgGwwENAH+gaUX1FxbjqXJLRcbcRSAVgglkzGGKtwfNiQonIqH8IcA6uBdf7J2ocdRaA3wKXClyjIs+hijUeopaeRelWfyJJBaBOrB0KEQSLJR9maMuE78E1JPkqE+CkWycBeBq4EricUf/3TImcm7BIwxtsNCqpANSZtUMlV6KuQqklI7lieBTscDc6sFbfO8EC8CKwEqTfhPqozaBp2u7kIBWAScKasruRUcUinsAc0CXAGdTA3WiCBGATsA6kN1bd6AkxZVudtCHH5CAVgEmEczcKKKkgArHVrGfkBFz58alU0d2oxgIwDNwMdIPeDSZQVTAWSZCrThJIZ2ISsvIepWXKMGGx1fXvhzZ0h7vRZ4Bx/3zWSADywG1Al8B6hLxayJgWinY7fUuawZ2tsUgFYBIzcF8ReeE19OD9cWZdMk2UUxE6cVbce+1uVGUBKAF34zrx3Aw6AsK2J1uZfliJns7marXdSKQC0ACs2RiixiBxjDhnr31UOR1XZzCHvXA3qpIARMBGoAfkWlG7WUVw/VFsWqXXAKQC0ECs3RBAJJBT1AO1zBZlr9yNxikAO1110FWCvqQYIuNh1NKbxvIbhlQAGpCBwQAsqAd+4BNno0PZ2ZBkt9yNxiEAv6PckMMYecZaRTGATbP3GpBUABqYNRtLUHb83fTBAvv+uvUI4BvAubyNu9FeCMCzwNUglz36SPHxoz6UK+fwKN2L0048jUoqAAlgYGOAAqKgkTXimw/jXgsWsgt3oz0QgJeB1QLLfZWHQ1Gr5Vh+TxrLb3hSAUgQA4MBimKMoNbzkXgu7qDwy8DM1//d3RCALThXnR5rZNCzZVcdUjutJJEKQMLoX6/MmhlQCtx7uaq0iPAJXA7B5yi7G72FAGwHfo6L5d9loSgCRkOKJnXVSRrpbCaUlYNKh/cq2+MZGAFE21XlFJwQfFqg9Q0CUADuUOhSlVs9w5iqsr2UY0Zrgf9MzTUSSSoACWf1/SXGcjFTiz5YRY10iPJFgaWFkOM3PBlTCPUegR5BblTYpqoExVEyubbUTivhpALQJAzcH4HxIA4xCsaTWcN5Pe2BZ2KGi1zvG30VhdjEGDX0LEpP9puBVACajDVDARFCVpQgVu7+nVIILaKAkNblNxmpADQp/3pTQGvW8NSrRVqzhn9amC78lJSUlJSUlJSUlJSUlJSUlJSUlJSUlJSUlJSUlJSUlJSUlJSUlJSUlJSUlJSUlJSUlJSUlJSUlJSUlJSUlJSUlJSUlJSUlJSUlJSUlAnm/wf4wfJUN6AWFQAAACV0RVh0ZGF0ZTpjcmVhdGUAMjAyMi0wMy0yNlQwNzo1ODoxMiswMDowMELxK6EAAAAldEVYdGRhdGU6bW9kaWZ5ADIwMjItMDMtMjZUMDc6NTg6MTIrMDA6MDAzrJMdAAAAAElFTkSuQmCC;verticalAlign=bottom;html=1;rounded=0;labelBackgroundColor=none;strokeColor=none;fillColor=none;strokeWidth=1;dashed=0;" parent="1" vertex="1">
          <mxGeometry x="597" y="653.5" width="101" height="101" as="geometry" />
        </mxCell>
        <mxCell id="XYBb2Tr0EMzCO1Vw7bGh-18" value="&lt;font style=&#39;font-size: 13.0px;&#39; face=&#39;Sans-Serif&#39; color=&#39;#2d3436&#39;&gt;API Spoke&lt;/font&gt;" style="shape=image;verticalLabelPosition=top;labelBackgroundColor=default;verticalAlign=top;aspect=fixed;imageAspect=0;image=data:image/png,iVBORw0KGgoAAAANSUhEUgAAAQAAAAEACAMAAABrrFhUAAAABGdBTUEAALGPC/xhBQAAACBjSFJNAAB6JgAAgIQAAPoAAACA6AAAdTAAAOpgAAA6mAAAF3CculE8AAACDVBMVEUAAACzzP+7y/+tzfyszfurzPuOufiCsveEsfeuzfqtzvuWvvmXqvmNrvjOxv+Ouvet0Pymjft1pveuy/pvovevyvlwovdblfVHiPRRjvVlnPZnnfeKtPhimvZChfROjfVmnfaXvPhxo/d4qPauy/l3p/d2pvaMtPhtofZroPetzv2qz/ypzvyUvviPu/ePvPeOufeu0Pur0PyYwvmQufiuzPquy/quy/qsy/qFsfdtovZuo/Zvo/Z3p/evy/muy/quy/qvzPqTuvlvo/Zuo/ZzpvdypPevyvlypPevyvmuy/pzpfexzPlgmfZIiPRJifRSj/VlnPdnnfdkm/ePt/ityvpmnfZTkPVlnPZmnfZ7qveryfpTkPV7qvd7qvdSkPVUkfVBhfRChfROjfVlnPZmnfZ+rPesyfpsoPY5f/NChfROjfVlnPZmnfZalvWjw/lzpPewy/mqyfqqyPqpyPqBrvdlnfZzpfevyvmuy/qPuPlnnvayzPl/rPdjmvZimfZimvZYlPVSkPV6qfauy/mdv/hmnPZimfZjmvZclvVGh/QwevNAhPRknPZmnfdwo/dpn/Zpn/Zqn/Zwo/dypPd0pvdqn/Zpn/ZtofdzpPeCrveQuPlonvauy/qtyvqCr/dlnPZmnfZonvavzPqSuflnnvZChfRDhvRDhfROjfVBhfRqn/ZBhPRlnfb///9/REO6AAAAnXRSTlMAAAAAAAAAAAAAAAAAAAAAAAAAAAAAAAAAAAAAAAAAAAAAAAAAAAAAAAADBAQICwsEAgQHBl+em5ynsK+wTz2ZnJujr7J1eWV4ZPt1YrV1eHFlZGGa+v78+/vt+vvw7/zt4+Pj4+Pg+oYYHBwcHBhzd2P6+vr8/nhi9/z+YaXx8fH3+zUnc+Hy8PV2GOMYYfb7/OyGd/T7+at2/Pv+a4/lQAAAAAFiS0dErrlrk6cAAAAHdElNRQfmAxoHOhag/+K5AAAEeElEQVR42u3d6VcTVxyHcQUUoigIyhIQcOkGmoAiqKwqgrLvBMJO2DeVttra1q4uXbT7TotpCSRt/8e+gEhP73gZzp1pek+e5z1nvnwOryYnP3btIiIiIiIiIiIiivp2x8TGSduzN15eQoL1qxwO+ah9+7cblXjA5KNiDuYXSDt12uWW5SpMsh4guUg+6sxZ+Sh38aFEk4+KzT9XUirr/IWLZbLKK1KsB0itrKqWjbp0+Yp0VM3VYrN/l3EFJcvSfvl15aksf+1h6wGO1MlH/fb7qnTU0xp3vGmAUkWAa2k2AFyvVwMoAwAAAAAAAAAAAAAAAAAAAAAAAAAAwD6AhvQMsUxnlkrZjfoArDY1t4i1trWr1NHZpQ1Ad09gTWg96OlVydPn1QegPxQQCgXlP7RdKwOaAwRUAQYBAAAAAAAAAAAAAAAAAAAAAAAAAP7HAEN2AOj0Rmh4ZFRszDeukm9iUhsA/9T0jNjs3LxKC4v6vBb33ziaI5brzFPp2E2NAKL+kyEAAAAAAAAAAAAAAAAAAAAAAABAP4BqVQA7vjz9XwJULdeLdd1a2ujWq6+93h3Ob9Aft4/bAHDnDYNR9d7NUUveN+8+G7VqtKrcZRbAUVRZd13orbffubfRu/fee79/o6HhqRvXhG5/cMJ6gJMf3hFH3fzo/oPNVQ8f9YfraWoQR9VWFJq9H+BITj0i9sLHgT+fFQo3Mn007d8dPn7iRRsAThqMeumTTw1GBZrT08RVKUlqhz0yWtYMPu0Yncmx/nc1X87MqMGotZYMG54FAAAAAAAAAAAAAAAAAAAAAAAAABCFAOshPQBC67YAZLYGDRqbzY0kQO7smNGq1kwbnuVs86yI+eackQRwzvkMRnna7BiV1d5r8GnD+HxeJAHy5scNRvW2ZwEAAAAAAAAAAAAAAAAAAAAAAAAAAAAAAAAAAAAAAAAAAAAAAAAAAAAAAAAAAAAAAAAAAAAAAAAAAAAAAAAAAAAAAAAAAAAAAAAAADznpGZ2x9a3x/8B8NnLkTypeWxh69vjf20BPH5F6aSm8VHVxs6+gcGNBp58vtkXX371dUSPqi5OhEcNfvNteNV33/+gdFT1eWd1vZtNLv3YfTdcpM/qToZXdf30s3TUDs7qcliZ09oAAAAAAAAAAAAAAAAAAAAAAAAAADsFiPp/vj41PSM2Ozev0sKiPgDdwyOjYmO+cZV8E5P6AAwZXCAOBOU/tF0rA159APrtABgEAAAAAAAAAAAAAAAAAAAAAAAAANAMIBRNb4R6AmtC60FPr0qePn0AVpuaW8Ra29pV6ujs0gbA35CeIZbpzFIpu1Gf1+J8MgQAAAAAAAAAAAAAAAAAAAAAAAAAoB1AiSJArR1fnq5bVgOoMQ0Qm3+upFTW+QsXy2SVV6RYD5BaWVUtG3Xp8hXpqJqrxWbvB8QczC+Qduq0yy3LVZhkPUBykXzUmbPyUe7iQ4kmH7U7JjZO2p698fISzFrvIIdDPmrf/u1GJR6wfhUREREREREREZFu/Q1dsP40UwTFVwAAACV0RVh0ZGF0ZTpjcmVhdGUAMjAyMi0wMy0yNlQwNzo1ODoxNyswMDowMBDJBAYAAAAldEVYdGRhdGU6bW9kaWZ5ADIwMjItMDMtMjZUMDc6NTg6MTcrMDA6MDBhlLy6AAAAAElFTkSuQmCC;verticalAlign=bottom;html=1;rounded=0;labelBackgroundColor=none;strokeColor=none;fillColor=none;strokeWidth=1;dashed=0;" parent="1" vertex="1">
          <mxGeometry x="228" y="558.5" width="101" height="101" as="geometry" />
        </mxCell>
        <mxCell id="XYBb2Tr0EMzCO1Vw7bGh-19" value="&lt;font style=&#39;font-size: 13.0px;&#39; face=&#39;Sans-Serif&#39; color=&#39;#2d3436&#39;&gt;DB Spoke&lt;/font&gt;" style="shape=image;verticalLabelPosition=top;labelBackgroundColor=default;verticalAlign=top;aspect=fixed;imageAspect=0;image=data:image/png,iVBORw0KGgoAAAANSUhEUgAAAQAAAAEACAMAAABrrFhUAAAABGdBTUEAALGPC/xhBQAAACBjSFJNAAB6JgAAgIQAAPoAAACA6AAAdTAAAOpgAAA6mAAAF3CculE8AAACDVBMVEUAAACzzP+7y/+tzfyszfurzPuOufiCsveEsfeuzfqtzvuWvvmXqvmNrvjOxv+Ouvet0Pymjft1pveuy/pvovevyvlwovdblfVHiPRRjvVlnPZnnfeKtPhimvZChfROjfVmnfaXvPhxo/d4qPauy/l3p/d2pvaMtPhtofZroPetzv2qz/ypzvyUvviPu/ePvPeOufeu0Pur0PyYwvmQufiuzPquy/quy/qsy/qFsfdtovZuo/Zvo/Z3p/evy/muy/quy/qvzPqTuvlvo/Zuo/ZzpvdypPevyvlypPevyvmuy/pzpfexzPlgmfZIiPRJifRSj/VlnPdnnfdkm/ePt/ityvpmnfZTkPVlnPZmnfZ7qveryfpTkPV7qvd7qvdSkPVUkfVBhfRChfROjfVlnPZmnfZ+rPesyfpsoPY5f/NChfROjfVlnPZmnfZalvWjw/lzpPewy/mqyfqqyPqpyPqBrvdlnfZzpfevyvmuy/qPuPlnnvayzPl/rPdjmvZimfZimvZYlPVSkPV6qfauy/mdv/hmnPZimfZjmvZclvVGh/QwevNAhPRknPZmnfdwo/dpn/Zpn/Zqn/Zwo/dypPd0pvdqn/Zpn/ZtofdzpPeCrveQuPlonvauy/qtyvqCr/dlnPZmnfZonvavzPqSuflnnvZChfRDhvRDhfROjfVBhfRqn/ZBhPRlnfb///9/REO6AAAAnXRSTlMAAAAAAAAAAAAAAAAAAAAAAAAAAAAAAAAAAAAAAAAAAAAAAAAAAAAAAAADBAQICwsEAgQHBl+em5ynsK+wTz2ZnJujr7J1eWV4ZPt1YrV1eHFlZGGa+v78+/vt+vvw7/zt4+Pj4+Pg+oYYHBwcHBhzd2P6+vr8/nhi9/z+YaXx8fH3+zUnc+Hy8PV2GOMYYfb7/OyGd/T7+at2/Pv+a4/lQAAAAAFiS0dErrlrk6cAAAAHdElNRQfmAxoHOhag/+K5AAAEeElEQVR42u3d6VcTVxyHcQUUoigIyhIQcOkGmoAiqKwqgrLvBMJO2DeVttra1q4uXbT7TotpCSRt/8e+gEhP73gZzp1pek+e5z1nvnwOryYnP3btIiIiIiIiIiIiivp2x8TGSduzN15eQoL1qxwO+ah9+7cblXjA5KNiDuYXSDt12uWW5SpMsh4guUg+6sxZ+Sh38aFEk4+KzT9XUirr/IWLZbLKK1KsB0itrKqWjbp0+Yp0VM3VYrN/l3EFJcvSfvl15aksf+1h6wGO1MlH/fb7qnTU0xp3vGmAUkWAa2k2AFyvVwMoAwAAAAAAAAAAAAAAAAAAAAAAAAAAwD6AhvQMsUxnlkrZjfoArDY1t4i1trWr1NHZpQ1Ad09gTWg96OlVydPn1QegPxQQCgXlP7RdKwOaAwRUAQYBAAAAAAAAAAAAAAAAAAAAAAAAAP7HAEN2AOj0Rmh4ZFRszDeukm9iUhsA/9T0jNjs3LxKC4v6vBb33ziaI5brzFPp2E2NAKL+kyEAAAAAAAAAAAAAAAAAAAAAAABAP4BqVQA7vjz9XwJULdeLdd1a2ujWq6+93h3Ob9Aft4/bAHDnDYNR9d7NUUveN+8+G7VqtKrcZRbAUVRZd13orbffubfRu/fee79/o6HhqRvXhG5/cMJ6gJMf3hFH3fzo/oPNVQ8f9YfraWoQR9VWFJq9H+BITj0i9sLHgT+fFQo3Mn007d8dPn7iRRsAThqMeumTTw1GBZrT08RVKUlqhz0yWtYMPu0Yncmx/nc1X87MqMGotZYMG54FAAAAAAAAAAAAAAAAAAAAAAAAABCFAOshPQBC67YAZLYGDRqbzY0kQO7smNGq1kwbnuVs86yI+eackQRwzvkMRnna7BiV1d5r8GnD+HxeJAHy5scNRvW2ZwEAAAAAAAAAAAAAAAAAAAAAAAAAAAAAAAAAAAAAAAAAAAAAAAAAAAAAAAAAAAAAAAAAAAAAAAAAAAAAAAAAAAAAAAAAAAAAAAAAADznpGZ2x9a3x/8B8NnLkTypeWxh69vjf20BPH5F6aSm8VHVxs6+gcGNBp58vtkXX371dUSPqi5OhEcNfvNteNV33/+gdFT1eWd1vZtNLv3YfTdcpM/qToZXdf30s3TUDs7qcliZ09oAAAAAAAAAAAAAAAAAAAAAAAAAADsFiPp/vj41PSM2Ozev0sKiPgDdwyOjYmO+cZV8E5P6AAwZXCAOBOU/tF0rA159APrtABgEAAAAAAAAAAAAAAAAAAAAAAAAANAMIBRNb4R6AmtC60FPr0qePn0AVpuaW8Ra29pV6ujs0gbA35CeIZbpzFIpu1Gf1+J8MgQAAAAAAAAAAAAAAAAAAAAAAAAAoB1AiSJArR1fnq5bVgOoMQ0Qm3+upFTW+QsXy2SVV6RYD5BaWVUtG3Xp8hXpqJqrxWbvB8QczC+Qduq0yy3LVZhkPUBykXzUmbPyUe7iQ4kmH7U7JjZO2p698fISzFrvIIdDPmrf/u1GJR6wfhUREREREREREZFu/Q1dsP40UwTFVwAAACV0RVh0ZGF0ZTpjcmVhdGUAMjAyMi0wMy0yNlQwNzo1ODoxNyswMDowMBDJBAYAAAAldEVYdGRhdGU6bW9kaWZ5ADIwMjItMDMtMjZUMDc6NTg6MTcrMDA6MDBhlLy6AAAAAElFTkSuQmCC;verticalAlign=bottom;html=1;rounded=0;labelBackgroundColor=none;strokeColor=none;fillColor=none;strokeWidth=1;dashed=0;" parent="1" vertex="1">
          <mxGeometry x="597" y="458.5" width="101" height="101" as="geometry" />
        </mxCell>
        <mxCell id="XYBb2Tr0EMzCO1Vw7bGh-20" value="&lt;font style=&#39;font-size: 13.0px;&#39; face=&#39;Sans-Serif&#39; color=&#39;#2d3436&#39;&gt;User&lt;/font&gt;" style="shape=image;verticalLabelPosition=top;labelBackgroundColor=default;verticalAlign=top;aspect=fixed;imageAspect=0;image=data:image/png,iVBORw0KGgoAAAANSUhEUgAAAMgAAADICAYAAACtWK6eAAAACXBIWXMAACxKAAAsSgF3enRNAAAG9klEQVR4nO3d3XHbVgKG4eOd3Ecd2DvDe7MDaiuwtwLLFaxSQdRBVIJUwSoVrFjB0vec2XUFa1WgHcTHEycgPkAkYYPQ88zkBpAUUjqv8XNA4MXj42MBdvvLzqXAbwQCgUAgEAgEAoFAIBD80L1qmMVytSylnPklM0Gftpv15pCX9eR5kMVy1cTwtpRyUUpZtb4ApmddSrkppdxtN+tPowWyWK6aKK5LKT+2VsL0PZRSLreb9c1RA6lbjSaMd62VcHpuayi9W5PeQGoc96WU162VcLo+lFLO+yIZchbrWhzM0Os6tqO4BVksV83B+D9bK2A+/r7drO+63k3fFqS3MDhxcYx3BlLPWL1srYB5eVn3lHZKE4Wd3/SV306b7XN+Gcb01XzdkGmJZmOwczer8xhksVx96vnBD/UswEEzlTCmeqXHfd9Y3m7WO68G6dzF6vmBjStxMHV1jF71vMzOsZ4C6SMOTkXvWF0sV69aC3t2sXavqLab9YvWQpiofcezy90hSGexjmKxXJ37AzCW7WZ9P+Yvd7RAFsvVZT046jwAgiOMs4d6wihO+O1rlF2sGscv4uAbaMbYL3XMHd1YxyB9p9XgJMbcWIHYcvCtjTLmnMWCQCAQCAQCgUAw+kThLl3T+pD0XS4yBlsQCAQCgUAgEAgEAoFAIBAIBAKBQCAQCAQCgUAgEAgEAoFAIBAIBAKBQCAQCAQCgUAgEAgEAoFAIBAIBAKBQCAQCAQCgUAgEAgEAoFAIBAIBAKBQCAQCAQCgUAgEAgEAoFAIBAIBAKBQCAQCAQCgUAgEAgEAoFAIBAIBAKBQCAQCAQCgUAgEAgEAoFAIBAIBAKBQCAQCAQCgUAgEAgEAoFAIBAIBAKBQCAQCAQCgUAgEAgEAoFAIBAIBAKBQCAQCAQCgUAgEAgEAoFAIBAIBAKBQCAQCAQCgUAgEAgEP3SvGs9iubryR+EUfJdASik/t5bABNnFgkAgEAgEAoFAMFYg69YSGNcoY26sQC5KKR9bS2EcH+uYO7pRTvNuN+v/LparZX3Rb1tfAMdzV0q52W7Wn04mkPI5kuYFX9f/4CQ5SIdg70AWy9Wr1kKYoEPG6iFbkGVrCUzT3mP1kEBGOWsAI9h7rKZAPrSW/NGbxXJ101oKE1LH6JueV9Q51tNZrOb02evW0j96t1iuzuvXjnKaDfZ0VqcYXg749rvWkurF4+Nja2H5/cDmP60VMD9/bebudr2rzl2s+g23rRUwL7ddccRAqstSykNrKczDQx3jnWIgdTbcpSLM1du+S1RiIOVzJPellPe2JMxIM5bf17EddR6k/1m9+PBu4FkBmKqPdcuxGfL6BgfyRb0jyYVQODEf61W/T7qjzpMD+aLOf5zXafyz1hfA99ccXzRbivshu1O77B0IPAcud4dAIBAIBAKBQCAQCNLl7oMslquzeqr33C+aCWlO624OvdvJIfMgF/VCr77PjMD31HwY6nq7We/14b59ZtLf1lv5mEnnlDQz6Zfbzbrzw1G7POVarLMaxrvWSjgdtzWUQbtegwKpcdzbnWImmt2u8yGRDD2LJQ7m5HUd0716A1ksV9fiYIZe17EdxV2sesXuv1orYD7+lq707ZsHeerTaD0XhClYPeE1XKU5vM4tSP0E4b9bK9oe6lkBN5FjMuo8XbML9eOA1/T02/4MvF1jczbglTiYmjomX6W7Jn6l884mKZAhN/y9GOvBJXCoOjaH/EPfOdZTIH37cbdDP/gO30sdo303QOwc6ymQPnarOBV7j9VDAtl5UAMT1HsY0PWQnXQWa/eKartZv2gt5OTUs5WnfPfMuyG7+vuO59Ee4sm01evrhjw7Y+p+XixXv451wsgnCp+vqxnE8cWbPSa1BxHI8/WPmb3zUd6PQCAQCAQCgUAgEAgEAoFAIBAIBAKBQCAQyPM1t6cWj/J+BPJ8jXLt0nfkWiyOZ7tZNzc0+GkGW5Lm9f9U38/Rudz9GauD6rre/+wkpXtaHcPegTS/1LFfHN/G3P+Oh/wDcMgulmejcyr2HqspkL590857CcHE9I3VzrGeAun7nO+qPkwHJquO0c7b+vSN9RTIkCfx3JzyAR7zVsfmkFv+dI71dFeTZr/tf60VuzU35rpx0M4U1DAunvA0tM5783YGUj7/j248co2Za+4Q2nl70rSLVersZOcBDJy4h74Z+BhI3ew4W8VcXXbtWn0RAym/30a+7+a/cGpuhzy2Y9BEYd1HEwlzEY87vjZ4Jr3+wPeOSThhzdh9PzSO8tRLTeomaWlrwglqxuzyqU9Di6d5k3q7+Mv6AESPiWaKPtTnoV/3HYx32TuQPzOjzpQca9L6aIHAHPlEIQQCgUAgEAgEAoFAIBDoUkr5P+cE0IZhNrG4AAAAAElFTkSuQmCC;verticalAlign=bottom;html=1;rounded=0;labelBackgroundColor=none;strokeColor=none;fillColor=none;strokeWidth=1;dashed=0;" parent="1" vertex="1">
          <mxGeometry x="20" y="738.5" width="101" height="101" as="geometry" />
        </mxCell>
        <mxCell id="XYBb2Tr0EMzCO1Vw7bGh-21" style="html=1;endArrow=none;dashed=1;endFill=0;startArrow=none;startFill=0;fillColor=#ffe6cc;strokeColor=#FFA500;strokeWidth=1;rounded=0;exitX=1.0000;exitY=0.5000;entryX=0.0000;entryY=0.5000;" parent="1" source="XYBb2Tr0EMzCO1Vw7bGh-8" target="XYBb2Tr0EMzCO1Vw7bGh-9" edge="1">
          <mxGeometry relative="1" as="geometry">
            <mxPoint x="698.1199999999999" y="323" as="sourcePoint" />
            <mxPoint x="776.95" y="323" as="targetPoint" />
          </mxGeometry>
        </mxCell>
        <mxCell id="XYBb2Tr0EMzCO1Vw7bGh-22" style="html=1;endArrow=block;dashed=1;endFill=1;startArrow=none;startFill=0;fillColor=gray;strokeColor=gray;strokeWidth=1;rounded=0;exitX=0.5050;exitY=1.0000;entryX=1;entryY=0.25;entryDx=0;entryDy=0;" parent="1" source="XYBb2Tr0EMzCO1Vw7bGh-8" target="XYBb2Tr0EMzCO1Vw7bGh-10" edge="1">
          <mxGeometry relative="1" as="geometry">
            <mxPoint x="648" y="341.64" as="sourcePoint" />
            <mxPoint x="853" y="625.31" as="targetPoint" />
            <Array as="points">
              <mxPoint x="279" y="390" />
              <mxPoint x="910" y="390" />
              <mxPoint x="910" y="679" />
            </Array>
          </mxGeometry>
        </mxCell>
        <mxCell id="XYBb2Tr0EMzCO1Vw7bGh-23" value="&lt;font style=&#39;font-size: 13.0px;&#39; face=&#39;Sans-Serif&#39; color=&#39;#2d3436&#39;&gt;logs&lt;/font&gt;" style="edgeLabel;html=1;align=center;verticalAlign=bottom;resizable=0;points=[];" parent="XYBb2Tr0EMzCO1Vw7bGh-22" vertex="1" connectable="0">
          <mxGeometry relative="1" as="geometry" />
        </mxCell>
        <mxCell id="XYBb2Tr0EMzCO1Vw7bGh-24" style="html=1;endArrow=none;dashed=0;endFill=0;startArrow=none;startFill=0;fillColor=#7b8894;strokeColor=#7b8894;strokeWidth=1;rounded=0;exitX=1.0000;exitY=0.4802;entryX=0.0000;entryY=0.5198;" parent="1" source="XYBb2Tr0EMzCO1Vw7bGh-10" target="XYBb2Tr0EMzCO1Vw7bGh-14" edge="1">
          <mxGeometry relative="1" as="geometry">
            <mxPoint x="878.1500000000001" y="702" as="sourcePoint" />
            <mxPoint x="932.8400000000001" y="702" as="targetPoint" />
          </mxGeometry>
        </mxCell>
        <mxCell id="XYBb2Tr0EMzCO1Vw7bGh-25" style="html=1;endArrow=block;dashed=0;endFill=1;startArrow=none;startFill=0;fillColor=#7b8894;strokeColor=#7b8894;strokeWidth=1;rounded=0;exitX=0.5050;exitY=1.0000;entryX=0.0000;entryY=0.0807;" parent="1" source="XYBb2Tr0EMzCO1Vw7bGh-14" target="XYBb2Tr0EMzCO1Vw7bGh-11" edge="1">
          <mxGeometry relative="1" as="geometry">
            <mxPoint x="984" y="768.8399999999999" as="sourcePoint" />
            <mxPoint x="1078.58" y="833" as="targetPoint" />
            <Array as="points">
              <mxPoint x="984" y="836" />
            </Array>
          </mxGeometry>
        </mxCell>
        <mxCell id="XYBb2Tr0EMzCO1Vw7bGh-26" style="html=1;endArrow=block;dashed=0;endFill=1;startArrow=none;startFill=0;fillColor=#7b8894;strokeColor=#7b8894;strokeWidth=1;rounded=0;exitX=1.0000;exitY=0.4851;entryX=0.0000;entryY=0.5149;" parent="1" source="XYBb2Tr0EMzCO1Vw7bGh-14" target="XYBb2Tr0EMzCO1Vw7bGh-12" edge="1">
          <mxGeometry relative="1" as="geometry">
            <mxPoint x="1034.15" y="698.5" as="sourcePoint" />
            <mxPoint x="1078.84" y="698.5" as="targetPoint" />
          </mxGeometry>
        </mxCell>
        <mxCell id="XYBb2Tr0EMzCO1Vw7bGh-27" style="html=1;endArrow=block;dashed=0;endFill=1;startArrow=none;startFill=0;fillColor=#7b8894;strokeColor=#7b8894;strokeWidth=1;rounded=0;exitX=0.5050;exitY=0.0000;entryX=0.0000;entryY=1.0000;" parent="1" source="XYBb2Tr0EMzCO1Vw7bGh-14" target="XYBb2Tr0EMzCO1Vw7bGh-13" edge="1">
          <mxGeometry relative="1" as="geometry">
            <mxPoint x="984" y="631.3299999999999" as="sourcePoint" />
            <mxPoint x="1078.58" y="580.1700000000001" as="targetPoint" />
            <Array as="points">
              <mxPoint x="984" y="568" />
            </Array>
          </mxGeometry>
        </mxCell>
        <mxCell id="XYBb2Tr0EMzCO1Vw7bGh-28" style="html=1;endArrow=block;dashed=1;endFill=1;startArrow=none;startFill=0;fillColor=gray;strokeColor=gray;strokeWidth=1;rounded=0;exitX=0.5050;exitY=1.0000;entryX=0.6733;entryY=1.0000;" parent="1" source="XYBb2Tr0EMzCO1Vw7bGh-15" target="XYBb2Tr0EMzCO1Vw7bGh-10" edge="1">
          <mxGeometry relative="1" as="geometry">
            <mxPoint x="279" y="857.6800000000001" as="sourcePoint" />
            <mxPoint x="845" y="782.52" as="targetPoint" />
            <Array as="points">
              <mxPoint x="279" y="901.5" />
              <mxPoint x="845" y="901.5" />
            </Array>
          </mxGeometry>
        </mxCell>
        <mxCell id="XYBb2Tr0EMzCO1Vw7bGh-29" value="&lt;font style=&#39;font-size: 13.0px;&#39; face=&#39;Sans-Serif&#39; color=&#39;#2d3436&#39;&gt;logs&lt;/font&gt;" style="edgeLabel;html=1;align=center;verticalAlign=bottom;resizable=0;points=[];" parent="XYBb2Tr0EMzCO1Vw7bGh-28" vertex="1" connectable="0">
          <mxGeometry relative="1" as="geometry" />
        </mxCell>
        <mxCell id="XYBb2Tr0EMzCO1Vw7bGh-30" style="html=1;endArrow=block;dashed=0;endFill=1;startArrow=none;startFill=0;fillColor=blue;strokeColor=blue;strokeWidth=1;rounded=0;exitX=1.0000;exitY=0.5000;entryX=0.0000;entryY=0.5000;" parent="1" source="XYBb2Tr0EMzCO1Vw7bGh-15" target="XYBb2Tr0EMzCO1Vw7bGh-16" edge="1">
          <mxGeometry relative="1" as="geometry">
            <mxPoint x="329.15" y="789" as="sourcePoint" />
            <mxPoint x="373.8399999999999" y="789" as="targetPoint" />
          </mxGeometry>
        </mxCell>
        <mxCell id="XYBb2Tr0EMzCO1Vw7bGh-31" style="html=1;endArrow=block;dashed=1;endFill=1;startArrow=none;startFill=0;fillColor=gray;strokeColor=gray;strokeWidth=1;rounded=0;exitX=1;exitY=1;entryX=0.3366;entryY=1.0000;exitDx=0;exitDy=0;" parent="1" source="XYBb2Tr0EMzCO1Vw7bGh-16" target="XYBb2Tr0EMzCO1Vw7bGh-10" edge="1">
          <mxGeometry relative="1" as="geometry">
            <mxPoint x="485.28" y="797.75" as="sourcePoint" />
            <mxPoint x="811" y="782.6300000000001" as="targetPoint" />
            <Array as="points">
              <mxPoint x="811" y="840" />
            </Array>
          </mxGeometry>
        </mxCell>
        <mxCell id="XYBb2Tr0EMzCO1Vw7bGh-32" value="&lt;font style=&#39;font-size: 13.0px;&#39; face=&#39;Sans-Serif&#39; color=&#39;#2d3436&#39;&gt;logs&lt;/font&gt;" style="edgeLabel;html=1;align=center;verticalAlign=bottom;resizable=0;points=[];" parent="XYBb2Tr0EMzCO1Vw7bGh-31" vertex="1" connectable="0">
          <mxGeometry relative="1" as="geometry" />
        </mxCell>
        <mxCell id="XYBb2Tr0EMzCO1Vw7bGh-33" style="html=1;endArrow=block;dashed=1;endFill=1;startArrow=none;startFill=0;fillColor=green;strokeColor=green;strokeWidth=1;rounded=0;exitX=1.0000;exitY=0.1510;entryX=0.0000;entryY=0.9926;" parent="1" source="XYBb2Tr0EMzCO1Vw7bGh-16" target="XYBb2Tr0EMzCO1Vw7bGh-17" edge="1">
          <mxGeometry relative="1" as="geometry">
            <mxPoint x="485.25" y="753.75" as="sourcePoint" />
            <mxPoint x="586.77" y="753.75" as="targetPoint" />
          </mxGeometry>
        </mxCell>
        <mxCell id="XYBb2Tr0EMzCO1Vw7bGh-34" value="&lt;font style=&#39;font-size: 13.0px;&#39; face=&#39;Sans-Serif&#39; color=&#39;#2d3436&#39;&gt;IAM Auth&lt;/font&gt;" style="edgeLabel;html=1;align=center;verticalAlign=bottom;resizable=0;points=[];" parent="XYBb2Tr0EMzCO1Vw7bGh-33" vertex="1" connectable="0">
          <mxGeometry relative="1" as="geometry" />
        </mxCell>
        <mxCell id="XYBb2Tr0EMzCO1Vw7bGh-35" style="html=1;endArrow=block;dashed=1;endFill=1;startArrow=block;startFill=1;fillColor=orange;strokeColor=orange;strokeWidth=1;rounded=0;exitX=1.0000;exitY=0.2409;entryX=0.5050;entryY=1.0000;" parent="1" source="XYBb2Tr0EMzCO1Vw7bGh-18" target="XYBb2Tr0EMzCO1Vw7bGh-9" edge="1">
          <mxGeometry relative="1" as="geometry">
            <mxPoint x="339.21000000000004" y="582.8299999999999" as="sourcePoint" />
            <mxPoint x="828" y="351.76" as="targetPoint" />
            <Array as="points">
              <mxPoint x="459" y="583" />
            </Array>
          </mxGeometry>
        </mxCell>
        <mxCell id="XYBb2Tr0EMzCO1Vw7bGh-36" style="html=1;endArrow=block;dashed=1;endFill=1;startArrow=none;startFill=0;fillColor=gray;strokeColor=gray;strokeWidth=1;rounded=0;exitX=1.0000;exitY=0.5000;entryX=0.0000;entryY=0.5000;" parent="1" source="XYBb2Tr0EMzCO1Vw7bGh-17" target="XYBb2Tr0EMzCO1Vw7bGh-10" edge="1">
          <mxGeometry relative="1" as="geometry">
            <mxPoint x="698.1199999999999" y="704" as="sourcePoint" />
            <mxPoint x="766.95" y="704" as="targetPoint" />
          </mxGeometry>
        </mxCell>
        <mxCell id="XYBb2Tr0EMzCO1Vw7bGh-37" value="&lt;font style=&#39;font-size: 13.0px;&#39; face=&#39;Sans-Serif&#39; color=&#39;#2d3436&#39;&gt;logs&lt;/font&gt;" style="edgeLabel;html=1;align=center;verticalAlign=bottom;resizable=0;points=[];" parent="XYBb2Tr0EMzCO1Vw7bGh-36" vertex="1" connectable="0">
          <mxGeometry relative="1" as="geometry" />
        </mxCell>
        <mxCell id="XYBb2Tr0EMzCO1Vw7bGh-38" style="html=1;endArrow=block;dashed=1;endFill=1;startArrow=block;startFill=1;fillColor=orange;strokeColor=orange;strokeWidth=1;rounded=0;exitX=0;exitY=0;entryX=0.75;entryY=1;exitDx=0;exitDy=0;entryDx=0;entryDy=0;" parent="1" source="XYBb2Tr0EMzCO1Vw7bGh-19" target="XYBb2Tr0EMzCO1Vw7bGh-9" edge="1">
          <mxGeometry relative="1" as="geometry">
            <mxPoint x="708.4200000000001" y="444.5" as="sourcePoint" />
            <mxPoint x="803" y="351.77" as="targetPoint" />
            <Array as="points">
              <mxPoint x="484" y="460" />
            </Array>
          </mxGeometry>
        </mxCell>
        <mxCell id="XYBb2Tr0EMzCO1Vw7bGh-39" style="html=1;endArrow=block;dashed=0;endFill=1;startArrow=none;startFill=0;fillColor=blue;strokeColor=blue;strokeWidth=1;rounded=0;exitX=1.0000;exitY=0.5000;entryX=0.0000;entryY=0.5000;" parent="1" source="XYBb2Tr0EMzCO1Vw7bGh-20" target="XYBb2Tr0EMzCO1Vw7bGh-15" edge="1">
          <mxGeometry relative="1" as="geometry">
            <mxPoint x="121.12" y="789" as="sourcePoint" />
            <mxPoint x="217.65999999999997" y="789" as="targetPoint" />
          </mxGeometry>
        </mxCell>
        <mxCell id="XYBb2Tr0EMzCO1Vw7bGh-40" value="&lt;font style=&#39;font-size: 13.0px;&#39; face=&#39;Sans-Serif&#39; color=&#39;#2d3436&#39;&gt;HTTPS&lt;/font&gt;" style="edgeLabel;html=1;align=center;verticalAlign=bottom;resizable=0;points=[];" parent="XYBb2Tr0EMzCO1Vw7bGh-39" vertex="1" connectable="0">
          <mxGeometry relative="1" as="geometry" />
        </mxCell>
        <mxCell id="XYBb2Tr0EMzCO1Vw7bGh-41" value="&lt;div&gt;Network&lt;/div&gt;&lt;div&gt;Traffic&lt;/div&gt;" style="text;html=1;align=center;verticalAlign=middle;whiteSpace=wrap;rounded=0;" parent="1" vertex="1">
          <mxGeometry x="395" y="436.5" width="60" height="30" as="geometry" />
        </mxCell>
      </root>
    </mxGraphModel>
  </diagram>
</mxfile>
